<svg id="svg" version="1.1" xmlns="http://www.w3.org/2000/svg" xmlns:xlink="http://www.w3.org/1999/xlink" width="400" height="400" viewBox="0, 0, 400,400"><g id="svgg"><path id="path0" d="M186.000 40.653 C 110.742 46.857,53.462 101.471,41.529 178.400 C 40.283 186.436,40.165 211.925,41.336 220.200 C 45.409 248.979,54.092 271.501,69.661 293.673 C 72.825 298.178,73.058 297.613,64.297 306.655 C 40.989 330.711,42.254 329.076,40.911 336.863 C 38.934 348.322,44.005 356.676,54.409 359.103 C 58.403 360.034,207.326 360.184,216.000 359.266 C 300.029 350.368,360.440 283.063,359.493 199.400 C 359.284 180.887,357.752 176.097,350.931 172.620 C 350.089 172.191,349.061 171.561,348.647 171.220 C 347.939 170.637,347.910 170.660,348.168 171.600 C 348.436 172.582,348.429 172.585,347.767 171.800 C 347.143 171.060,347.112 171.056,347.355 171.754 C 347.654 172.616,344.199 176.074,340.425 178.691 C 333.278 183.648,332.723 185.022,332.356 198.690 C 331.878 216.453,330.246 227.034,325.921 240.400 C 309.033 292.591,262.894 328.379,207.800 332.020 C 196.289 332.781,90.544 332.356,88.752 331.542 C 83.644 329.222,84.841 326.455,95.958 314.886 C 110.263 299.998,110.436 298.835,100.152 286.600 C 54.601 232.405,57.339 155.987,106.600 106.608 C 131.897 81.250,163.188 68.412,201.185 67.802 C 206.548 67.716,211.492 67.448,212.466 67.191 C 216.007 66.255,219.140 63.573,222.315 58.762 C 223.439 57.058,226.220 54.056,226.797 53.923 C 228.139 53.615,228.716 52.649,228.037 51.845 C 227.415 51.108,227.433 51.107,228.800 51.796 L 230.200 52.502 229.366 51.551 C 228.908 51.028,228.066 49.780,227.495 48.777 C 225.420 45.134,221.543 42.439,216.600 41.203 C 214.683 40.724,190.428 40.288,186.000 40.653 " stroke="none" fill="#444c54" fill-rule="evenodd"></path><path id="path1" d="M301.077 18.824 C 279.898 20.703,260.340 32.489,248.680 50.400 C 247.462 52.270,246.052 54.326,245.545 54.970 L 244.624 56.139 245.612 55.890 C 246.553 55.652,246.563 55.667,245.824 56.220 C 245.057 56.793,245.057 56.800,245.838 56.800 C 246.310 56.800,246.644 57.082,246.667 57.500 C 246.714 58.345,247.690 60.917,248.075 61.208 C 250.214 62.827,250.681 71.014,249.090 79.000 C 240.731 120.969,277.489 158.122,320.400 151.076 C 330.384 149.436,330.530 149.432,334.600 150.610 C 336.580 151.183,339.179 152.181,340.375 152.828 C 342.023 153.719,342.627 153.883,342.869 153.502 C 343.070 153.185,343.199 153.442,343.219 154.200 C 343.249 155.320,343.275 155.340,343.612 154.500 C 344.105 153.275,344.329 153.368,344.098 154.700 C 343.927 155.687,343.964 155.729,344.454 155.112 C 344.754 154.734,346.853 153.254,349.118 151.823 C 387.062 127.854,393.069 71.298,361.089 39.122 C 345.812 23.750,324.977 16.703,301.077 18.824 M313.529 60.364 C 319.272 63.293,319.400 63.959,319.400 90.840 L 319.400 113.481 317.997 116.240 C 314.068 123.966,304.774 123.949,300.800 116.208 L 299.400 113.481 299.400 91.041 C 299.400 70.129,299.451 68.453,300.150 66.446 C 302.209 60.533,308.370 57.732,313.529 60.364 " stroke="none" fill="#fb5474" fill-rule="evenodd"></path><path id="path2" d="M228.297 52.071 C 228.570 52.403,228.665 52.802,228.509 52.958 C 228.352 53.114,228.537 53.122,228.920 52.975 C 229.523 52.744,229.563 52.844,229.223 53.740 C 228.950 54.457,228.967 54.856,229.277 55.048 C 229.567 55.227,229.610 55.140,229.400 54.800 C 229.186 54.454,229.233 54.373,229.538 54.562 C 230.364 55.072,230.026 55.620,229.000 55.434 C 228.117 55.274,228.048 55.343,228.414 56.027 C 228.700 56.560,228.699 56.800,228.414 56.800 C 228.186 56.800,228.000 57.076,228.000 57.414 C 228.000 58.215,226.929 59.862,225.303 61.561 C 224.586 62.310,224.000 63.171,224.000 63.475 C 224.000 65.340,220.214 70.214,217.758 71.510 C 214.712 73.118,213.112 73.320,201.000 73.628 C 186.279 74.003,177.681 75.048,168.000 77.642 C 76.655 102.113,43.265 211.956,105.295 283.923 C 116.767 297.233,116.411 301.490,102.594 316.212 C 94.454 324.886,94.145 325.691,98.674 326.436 C 101.505 326.901,196.894 326.857,205.400 326.386 C 250.458 323.892,288.904 300.231,310.453 261.734 C 321.225 242.489,325.742 225.009,326.407 200.000 C 326.740 187.459,326.909 186.145,328.623 182.757 C 329.504 181.016,333.243 177.200,334.068 177.200 C 334.926 177.200,338.685 175.137,339.872 174.015 C 340.571 173.353,341.956 172.595,342.948 172.329 C 343.941 172.064,344.645 171.673,344.514 171.460 C 344.374 171.235,344.633 171.168,345.137 171.300 C 346.272 171.596,346.246 171.270,345.100 170.824 C 344.345 170.530,344.433 170.484,345.647 170.537 C 346.746 170.585,347.044 170.745,346.884 171.200 C 346.767 171.530,346.818 171.668,346.997 171.506 C 347.175 171.345,347.578 171.525,347.893 171.906 C 348.426 172.552,348.447 172.545,348.206 171.800 C 348.063 171.360,347.776 170.280,347.568 169.400 C 347.361 168.520,346.459 164.790,345.565 161.112 C 344.670 157.433,344.070 154.210,344.231 153.950 C 344.415 153.652,344.352 153.582,344.062 153.762 C 343.808 153.919,343.597 154.352,343.594 154.724 C 343.589 155.307,343.534 155.317,343.200 154.800 C 342.874 154.295,342.811 154.319,342.806 154.949 C 342.801 155.569,342.697 155.612,342.200 155.200 C 341.720 154.802,341.600 154.804,341.600 155.213 C 341.600 155.582,341.406 155.549,340.900 155.094 C 340.515 154.748,338.675 154.176,336.812 153.824 C 334.948 153.472,333.247 153.007,333.032 152.792 C 332.400 152.160,331.071 152.326,326.504 153.609 C 278.102 167.201,232.603 121.049,246.679 72.638 C 247.728 69.030,247.906 67.251,247.261 66.822 C 246.918 66.595,246.538 65.031,246.138 62.200 C 246.014 61.320,245.744 60.391,245.537 60.136 C 245.299 59.841,245.317 59.575,245.587 59.408 C 246.290 58.974,245.598 58.351,244.666 58.580 C 244.190 58.697,244.015 58.693,244.278 58.570 C 244.540 58.448,244.656 58.090,244.535 57.774 C 244.394 57.408,244.572 57.200,245.024 57.200 C 245.414 57.200,245.616 57.083,245.473 56.940 C 245.330 56.796,245.525 56.423,245.906 56.110 C 246.288 55.797,246.393 55.643,246.140 55.769 C 245.887 55.895,242.737 55.289,239.140 54.423 C 235.543 53.557,231.880 52.724,231.000 52.572 C 230.120 52.419,229.040 52.109,228.600 51.882 C 227.913 51.527,227.870 51.554,228.297 52.071 M306.359 64.505 C 303.061 66.702,302.688 69.850,302.910 93.600 C 303.090 112.788,303.155 113.410,305.242 115.787 C 308.356 119.334,313.216 118.095,315.074 113.281 C 316.032 110.798,316.196 71.514,315.262 68.415 C 313.972 64.138,309.716 62.269,306.359 64.505 M254.714 163.658 C 263.007 166.842,263.566 176.191,255.685 179.901 C 254.294 180.556,250.770 180.600,200.200 180.600 L 146.200 180.600 143.800 179.400 C 135.389 175.195,137.975 164.658,147.778 163.191 C 152.344 162.507,252.861 162.947,254.714 163.658 M207.016 219.819 C 216.502 222.283,217.019 233.238,207.800 236.444 C 205.458 237.258,148.316 237.266,145.517 236.453 C 136.453 233.819,136.787 222.313,146.000 219.843 C 149.370 218.939,203.546 218.918,207.016 219.819 M258.494 220.226 C 263.546 221.947,265.844 227.457,263.383 231.946 C 258.937 240.055,245.200 237.302,245.200 228.302 C 245.200 221.836,251.675 217.902,258.494 220.226 " stroke="none" fill="#fbfbfb" fill-rule="evenodd"></path><path id="path3" d="M227.720 53.464 C 227.608 53.756,227.356 53.897,227.161 53.776 C 226.789 53.546,223.496 56.922,222.315 58.743 C 219.240 63.485,216.014 66.253,212.466 67.191 C 211.492 67.448,206.548 67.716,201.185 67.802 C 175.148 68.220,153.962 73.786,134.150 85.412 C 61.714 127.922,45.823 221.961,100.152 286.600 C 110.436 298.835,110.263 299.998,95.958 314.886 C 84.841 326.455,83.644 329.222,88.752 331.542 C 90.544 332.356,196.289 332.781,207.800 332.020 C 262.894 328.379,309.033 292.591,325.921 240.400 C 330.246 227.034,331.878 216.453,332.356 198.690 C 332.723 185.022,333.278 183.648,340.425 178.691 C 344.752 175.690,347.721 172.584,347.145 171.660 C 346.643 170.856,344.913 170.154,344.486 170.581 C 344.365 170.701,344.556 170.800,344.910 170.800 C 345.263 170.800,345.654 170.963,345.777 171.163 C 345.900 171.362,345.613 171.424,345.138 171.300 C 344.633 171.168,344.374 171.234,344.514 171.460 C 344.645 171.673,343.941 172.064,342.948 172.329 C 341.956 172.595,340.571 173.353,339.872 174.015 C 338.685 175.137,334.926 177.200,334.068 177.200 C 333.243 177.200,329.504 181.016,328.623 182.757 C 326.909 186.145,326.740 187.459,326.407 200.000 C 325.742 225.009,321.225 242.489,310.453 261.734 C 288.904 300.231,250.458 323.892,205.400 326.386 C 196.894 326.857,101.505 326.901,98.674 326.436 C 94.145 325.691,94.454 324.886,102.594 316.212 C 116.411 301.490,116.767 297.233,105.295 283.923 C 43.265 211.956,76.655 102.113,168.000 77.642 C 177.681 75.048,186.279 74.003,201.000 73.628 C 213.112 73.320,214.712 73.118,217.758 71.510 C 220.214 70.214,224.000 65.340,224.000 63.475 C 224.000 63.171,224.586 62.310,225.303 61.561 C 226.929 59.862,228.000 58.215,228.000 57.414 C 228.000 57.076,228.186 56.800,228.414 56.800 C 228.699 56.800,228.700 56.560,228.414 56.027 C 228.048 55.343,228.117 55.274,229.000 55.434 C 230.026 55.620,230.364 55.072,229.538 54.562 C 229.233 54.373,229.186 54.454,229.400 54.800 C 229.599 55.122,229.566 55.226,229.315 55.071 C 229.091 54.933,228.988 54.395,229.088 53.876 C 229.286 52.838,228.098 52.480,227.720 53.464 M245.071 57.081 C 244.661 57.187,244.432 57.506,244.548 57.809 C 244.662 58.106,244.540 58.448,244.278 58.570 C 244.015 58.693,244.190 58.697,244.666 58.580 C 245.598 58.351,246.290 58.974,245.587 59.408 C 245.317 59.575,245.299 59.841,245.537 60.136 C 245.744 60.391,246.014 61.320,246.138 62.200 C 246.538 65.031,246.918 66.595,247.261 66.822 C 247.906 67.251,247.728 69.030,246.679 72.638 C 232.603 121.049,278.102 167.201,326.504 153.609 C 331.071 152.326,332.400 152.160,333.032 152.792 C 333.247 153.007,334.948 153.472,336.812 153.824 C 338.675 154.176,340.515 154.748,340.900 155.094 C 341.406 155.549,341.600 155.582,341.600 155.213 C 341.600 154.824,341.732 154.811,342.151 155.159 C 342.587 155.521,342.753 155.427,342.946 154.708 C 343.283 153.448,343.249 152.904,342.869 153.502 C 342.627 153.883,342.023 153.719,340.375 152.828 C 339.179 152.181,336.580 151.183,334.600 150.610 C 330.530 149.432,330.384 149.436,320.400 151.076 C 277.489 158.122,240.731 120.969,249.090 79.000 C 250.681 71.014,250.214 62.827,248.075 61.208 C 247.690 60.917,246.714 58.345,246.667 57.500 C 246.628 56.795,246.405 56.736,245.071 57.081 M307.400 59.554 C 304.094 60.414,301.338 63.034,300.150 66.446 C 299.451 68.453,299.400 70.129,299.400 91.041 L 299.400 113.481 300.800 116.208 C 304.774 123.949,314.068 123.966,317.997 116.240 L 319.400 113.481 319.400 90.840 C 319.400 69.591,319.354 68.079,318.643 66.239 C 316.794 61.442,311.724 58.428,307.400 59.554 M313.209 65.115 C 315.787 67.692,315.800 67.826,315.800 90.800 C 315.800 113.814,315.791 113.896,313.004 116.343 C 309.669 119.271,305.059 117.595,303.560 112.911 C 302.163 108.544,302.736 70.031,304.244 66.953 C 306.031 63.307,310.487 62.393,313.209 65.115 M147.778 163.191 C 137.975 164.658,135.389 175.195,143.800 179.400 L 146.200 180.600 200.200 180.600 C 250.770 180.600,254.294 180.556,255.685 179.901 C 263.566 176.191,263.007 166.842,254.714 163.658 C 252.861 162.947,152.344 162.507,147.778 163.191 M146.000 219.843 C 136.787 222.313,136.453 233.819,145.517 236.453 C 148.316 237.266,205.458 237.258,207.800 236.444 C 217.019 233.238,216.502 222.283,207.016 219.819 C 203.546 218.918,149.370 218.939,146.000 219.843 M251.597 219.974 C 242.424 222.764,243.117 234.515,252.572 236.498 C 261.819 238.437,268.253 228.546,261.813 222.291 C 259.448 219.994,254.913 218.965,251.597 219.974 " stroke="none" fill="#d4dcdc" fill-rule="evenodd"></path></g></svg>