<svg id="Capa_1" data-name="Capa 1" xmlns="http://www.w3.org/2000/svg" viewBox="0 0 26.03 26"><defs><style>.cls-1{fill:#fff;}</style></defs><path class="cls-1" d="M13,2.41A10.59,10.59,0,1,0,23.6,13,10.59,10.59,0,0,0,13,2.41Zm1.39,15.91a1.5,1.5,0,0,1-.8.79,1.45,1.45,0,0,1-.59.12,1.53,1.53,0,0,1-.6-.12,1.4,1.4,0,0,1-.47-.32,1.27,1.27,0,0,1-.32-.47,1.48,1.48,0,0,1-.12-.59,1.39,1.39,0,0,1,.12-.57,1.27,1.27,0,0,1,.32-.47,1.4,1.4,0,0,1,.47-.32,1.53,1.53,0,0,1,.6-.12,1.45,1.45,0,0,1,.59.12,1.5,1.5,0,0,1,.8.79,1.38,1.38,0,0,1,.11.57A1.47,1.47,0,0,1,14.41,18.32Zm-.11-3.06H11.73l-.36-7.9h3.3Z"/></svg>