<svg id="Capa_1" data-name="Capa 1" xmlns="http://www.w3.org/2000/svg" viewBox="0 0 22 21"><defs><style>.cls-1{fill:#606060;opacity:0.66;}</style></defs><path id="_10" data-name="10" class="cls-1" d="M8.19,3.12A4.68,4.68,0,0,0,3.52,7.79.49.49,0,0,0,4,8.27a.48.48,0,0,0,.48-.48A3.71,3.71,0,0,1,8.19,4.08a.48.48,0,0,0,.48-.48A.49.49,0,0,0,8.19,3.12ZM20,17l-3.15-3.15a1.8,1.8,0,0,0-1.29-.54,1.89,1.89,0,0,0-.9.24l-.51-.51A7.37,7.37,0,0,0,8.63.86,7.37,7.37,0,0,0,3.42,13.44a7.38,7.38,0,0,0,10.09.32l.51.51a1.81,1.81,0,0,0,.29,2.18l3.15,3.15a1.78,1.78,0,0,0,1.28.54A1.82,1.82,0,0,0,20,17Zm-6.86-4.27A6.41,6.41,0,1,1,4.1,3.7a6.41,6.41,0,1,1,9.07,9.07Zm6.18,6.16a.86.86,0,0,1-.61.25.84.84,0,0,1-.6-.25L15,15.78a.86.86,0,0,1,0-1.22.84.84,0,0,1,.6-.25.86.86,0,0,1,.61.25l3.15,3.15A.86.86,0,0,1,19.35,18.93Z"/></svg>