<svg id="Capa_1" data-name="Capa 1" xmlns="http://www.w3.org/2000/svg" viewBox="0 0 25 25"><defs><style>.cls-1{fill:none;}.cls-1,.cls-2{stroke:gray;stroke-miterlimit:10;}.cls-2{fill:gray;stroke-width:0.5px;}</style></defs><path class="cls-1" d="M23.39,13a11,11,0,1,1-11-11,11,11,0,0,1,11,11"/><path class="cls-2" d="M7,8.38v9.79a.25.25,0,0,0,.12.22.16.16,0,0,0,.1,0,.23.23,0,0,0,.14,0L10,16.58h7.09a.72.72,0,0,0,.72-.74V8.38a.76.76,0,0,0-.72-.79H7.7A.76.76,0,0,0,7,8.38m.48,0c0-.14.1-.29.23-.29h9.37c.14,0,.23.15.23.29v7.46a.22.22,0,0,1-.23.24H9.9a.18.18,0,0,0-.12.05L7.47,17.7ZM9,9.92a.25.25,0,0,0,.24.25h6.34a.25.25,0,0,0,.24-.25.25.25,0,0,0-.24-.25H9.19A.25.25,0,0,0,9,9.92m0,1.83a.25.25,0,0,0,.24.25h6.34a.25.25,0,0,0,.24-.25.25.25,0,0,0-.24-.25H9.19a.25.25,0,0,0-.24.25M13,13.67a.25.25,0,0,0,.24.25h2.28a.25.25,0,0,0,0-.5H13.25a.25.25,0,0,0-.24.25"/></svg>