<svg id="Capa_1" data-name="Capa 1" xmlns="http://www.w3.org/2000/svg" viewBox="0 0 81 62"><defs><style>.cls-1{fill:none;stroke:#1d1d1b;stroke-miterlimit:10;stroke-width:1.5px;}.cls-2{fill:#1d1d1b;}</style></defs><path class="cls-1" d="M58.13,49.35a9.06,9.06,0,0,0-9.06-9.06c-.21,0-.41,0-.61,0a12.21,12.21,0,1,0-22.19-10,9.05,9.05,0,0,0-14.6,7.17,9.2,9.2,0,0,0,.44,2.79l-.44,0a9.07,9.07,0,1,0,0,18.13c.31,0,.63,0,.93-.05H48.13c.31,0,.62.05.94.05s.63,0,.93-.05h0A9.07,9.07,0,0,0,58.13,49.35Z"/><path class="cls-1" d="M39.35,22.16c2.74-3.7,7.73-6.78,12.69-6.78a15,15,0,0,1,4.8,29.31"/><rect class="cls-2" x="49.27" y="1.15" width="3.84" height="8.8" rx="0.39"/><rect class="cls-2" x="72.55" y="28.15" width="3.84" height="8.8" rx="0.39" transform="translate(107.02 -41.91) rotate(90)"/><rect class="cls-2" x="66.71" y="8.75" width="3.84" height="8.8" rx="0.39" transform="translate(29.4 -44.68) rotate(45)"/><rect class="cls-2" x="64.63" y="44.9" width="3.84" height="8.8" rx="0.39" transform="translate(148.46 37.1) rotate(135)"/><rect class="cls-2" x="28.88" y="9.15" width="3.84" height="8.8" rx="0.39" transform="translate(62.15 1.35) rotate(135)"/></svg>