<svg id="Capa_1" data-name="Capa 1" xmlns="http://www.w3.org/2000/svg" viewBox="0 0 66 67"><defs><style>.cls-1{fill:#ed1c24;}.cls-2{fill:#fff;stroke:#fff;stroke-miterlimit:10;stroke-width:0.06px;}</style></defs><circle class="cls-1" cx="32.56" cy="33.11" r="29.5"/><path class="cls-2" d="M45.05,33.16l-1.22,4.68A1.76,1.76,0,0,0,45,40.63h4.3c1.68,0,2.74-1.86,2.74-3.59l.09-1.29.1-3.21v-.35a3,3,0,0,0-1.79-2.87c-5.08-2.17-20-7.24-35.61,1a2.84,2.84,0,0,0-1.58,2h0V37c0,1.74,1.43,3.6,3.11,3.59h4.3a1.76,1.76,0,0,0,1.2-2.79l-1-4A37.54,37.54,0,0,1,45.05,33.16Z"/></svg>