<svg id="Capa_1" data-name="Capa 1" xmlns="http://www.w3.org/2000/svg" viewBox="0 0 66 67"><defs><style>.cls-1{fill:#e4261f;}.cls-2{fill:none;stroke:#fff;stroke-miterlimit:10;stroke-width:2px;}</style></defs><path class="cls-1" d="M62,33.5a29,29,0,1,1-29-29,29,29,0,0,1,29,29"/><path class="cls-2" d="M23.89,41a3.1,3.1,0,0,0,2.31-.89,3.2,3.2,0,0,0,.86-2.34l0-3,.55-.18c.26-.08.5-.17.72-.22A22.86,22.86,0,0,1,35.69,34a13.2,13.2,0,0,1,3.28.7c0,.74,0,1.46,0,2.16,0,.27,0,.53,0,.8a3.06,3.06,0,0,0,3.29,3.22l2.57,0h.89c.57,0,1.17,0,1.75,0a3.13,3.13,0,0,0,2.26-.9,3.26,3.26,0,0,0,.89-2.3h0l0-3.23a4.83,4.83,0,0,0-1.2-3.19,11.72,11.72,0,0,0-4.12-2.85A28.74,28.74,0,0,0,35.64,26a31.31,31.31,0,0,0-13.13,1.73,16.42,16.42,0,0,0-5.33,3l-.3.3a5,5,0,0,0-1.51,3.89v0a15.48,15.48,0,0,1,.05,1.68c0,.4,0,.81,0,1.22a3.26,3.26,0,0,0,.94,2.33,3.2,3.2,0,0,0,2.35.86Z"/></svg>