<svg id="Capa_1" data-name="Capa 1" xmlns="http://www.w3.org/2000/svg" viewBox="0 0 38.03 38"><defs><style>.cls-1{fill:#989898;}</style></defs><g id="YpWsmZ"><path class="cls-1" d="M17.24,13.73a4.4,4.4,0,0,1,2.77.92,12.2,12.2,0,0,1,.91.85l.83.83a1.39,1.39,0,0,1-.7,2.31,1.46,1.46,0,0,1-1.47-.52c-.38-.4-.76-.8-1.17-1.17A1.71,1.71,0,0,0,16.1,17l-2.82,2.8c-.72.73-1.45,1.45-2.18,2.18l-3.19,3.2a6.45,6.45,0,0,0-.62.66A1.7,1.7,0,0,0,7.43,28q1.29,1.3,2.58,2.58a1.72,1.72,0,0,0,1.81.32,2.28,2.28,0,0,0,.75-.55l1.1-1.1,1.07-1.08L16,26.91c.28-.28.56-.55.83-.83a1.4,1.4,0,0,1,2.21,1.7,10,10,0,0,1-.71.75c-.36.36-.72.71-1.07,1.07l-1.11,1.1c-.35.35-.7.72-1.06,1.06a9.86,9.86,0,0,1-1.51,1.38A4.59,4.59,0,0,1,8.54,33a7.31,7.31,0,0,1-.72-.64c-.83-.82-1.66-1.63-2.45-2.47a4.54,4.54,0,0,1-.15-6c.25-.3.55-.58.83-.86.43-.44.86-.87,1.3-1.3l1.27-1.26,1.07-1.08L11,18.19,12.18,17l1.31-1.31c.28-.27.54-.54.82-.8a4.34,4.34,0,0,1,2.36-1.07C16.88,13.75,17.09,13.74,17.24,13.73Z"/><path class="cls-1" d="M20.84,24.23A4.53,4.53,0,0,1,17.7,23a19.56,19.56,0,0,1-1.43-1.45A1.25,1.25,0,0,1,16,20.18a1.38,1.38,0,0,1,2.13-.61,5.52,5.52,0,0,1,.65.63c.27.26.52.54.8.79a1.71,1.71,0,0,0,1.6.39,1.82,1.82,0,0,0,.89-.54c.56-.56,1.11-1.12,1.67-1.67l1.5-1.51c.53-.54,1.07-1.07,1.61-1.6l1.73-1.74,1.61-1.6a5.76,5.76,0,0,0,.53-.57,1.71,1.71,0,0,0-.16-2.26c-.83-.82-1.65-1.64-2.47-2.47a1.72,1.72,0,0,0-2.47,0L23.43,9.67c-.62.61-1.23,1.24-1.85,1.85a3.17,3.17,0,0,1-.83.72,1.4,1.4,0,0,1-1.94-.8,1.46,1.46,0,0,1,.49-1.61c.45-.42.88-.87,1.31-1.3l1.27-1.26c.41-.42.82-.84,1.24-1.25a8.56,8.56,0,0,1,1.31-1.17,4.6,4.6,0,0,1,4.75-.12,5.4,5.4,0,0,1,1.12.9C31,6.33,31.67,7,32.37,7.7a5.07,5.07,0,0,1,1.21,1.73,4.62,4.62,0,0,1,.28,2.3,4.54,4.54,0,0,1-1.44,2.75L30.9,16c-.6.61-1.21,1.21-1.82,1.81l-1.49,1.51L26,20.92l-1.52,1.52a6.8,6.8,0,0,1-1.32,1.13,4.38,4.38,0,0,1-1.71.6A5.11,5.11,0,0,1,20.84,24.23Z"/></g></svg>