<svg id="Capa_1" data-name="Capa 1" xmlns="http://www.w3.org/2000/svg" viewBox="0 0 66 67"><defs><style>.cls-1{fill:#292a33;}.cls-2{fill:#fff;}</style></defs><circle class="cls-1" cx="33" cy="33.5" r="29.5"/><path class="cls-2" d="M23.25,33.61a1.16,1.16,0,0,1,0-1.64L33,22.37,43,32a1.15,1.15,0,0,1,0,1.63,1.17,1.17,0,0,1-1.64,0l-7.18-6.92v22A1.1,1.1,0,0,1,33,49.77a1.06,1.06,0,0,1-1.16-1v-22l-6.95,6.87A1.16,1.16,0,0,1,23.25,33.61Z"/><path class="cls-2" d="M52.5,42.32V17.23h-39V42.32H25c.64,0,1.15-.34,1.15-.77s-.51-.77-1.15-.77H15.81v-22H50.19v22H41.48c-.64,0-1.15.35-1.15.77s.51.77,1.15.77Z"/></svg>