<svg id="Capa_1" data-name="Capa 1" xmlns="http://www.w3.org/2000/svg" viewBox="0 0 66 67"><defs><style>.cls-1{fill:#4dab33;}.cls-2{fill:none;stroke:#fff;stroke-miterlimit:10;stroke-width:2px;}</style></defs><path class="cls-1" d="M62.1,33.5A29.1,29.1,0,1,1,33,4.4,29.1,29.1,0,0,1,62.1,33.5"/><path class="cls-2" d="M43.86,36.32a3.28,3.28,0,0,0-2.38-1.09,3.4,3.4,0,0,0-2.42,1.09l-2.23,2.22-.54-.28c-.25-.13-.49-.25-.7-.38a24,24,0,0,1-5.81-5.29,14.24,14.24,0,0,1-1.9-3c.58-.53,1.11-1.08,1.64-1.61.19-.2.39-.41.59-.6a3.25,3.25,0,0,0,0-4.89l-1.93-1.92c-.22-.22-.44-.44-.65-.67-.42-.44-.87-.89-1.33-1.31a3.32,3.32,0,0,0-2.36-1,3.44,3.44,0,0,0-2.4,1h0L19,21A5.1,5.1,0,0,0,17.5,24.3a12.33,12.33,0,0,0,.9,5.24,30.44,30.44,0,0,0,5.39,9A33.39,33.39,0,0,0,34.85,47.2,17.29,17.29,0,0,0,41.06,49l.44,0a5.35,5.35,0,0,0,4.08-1.75s0,0,0,0A16.44,16.44,0,0,1,46.84,46c.3-.29.61-.59.92-.91a3.51,3.51,0,0,0,1.06-2.44,3.41,3.41,0,0,0-1.08-2.42Z"/></svg>