<svg id="App_360" data-name="App 360" xmlns="http://www.w3.org/2000/svg" xmlns:xlink="http://www.w3.org/1999/xlink" viewBox="0 0 512 520"><defs><style>.cls-1{fill:none;clip-rule:evenodd;}.cls-2{fill:#f5edc6;}.cls-2,.cls-3,.cls-4,.cls-6,.cls-7{fill-rule:evenodd;}.cls-3{fill:#f5f1d5;}.cls-4{fill:#e2ebed;}.cls-5{clip-path:url(#clip-path);}.cls-6{fill:#f6e3c5;}.cls-7{fill:#c8dee3;}.cls-8{clip-path:url(#clip-path-2);}</style><clipPath id="clip-path"><path class="cls-1" d="M252.62,111.84c3.46-1.45,5.1-11.62,15.11-5.41,13.14,8.16,129.07,68,165,67.36,0,0,11.42,13.47,13.85,20.29,2.3,6.47,1.6,13.74.71,20.59-.57,4.38-.1,6.85-7.21,20.85-6.93,13.64-22.9,37.25-25.22,42.54,0,0-11.43,61.69-16.68,66.15,0,0-21.78,52.59-142.35,96.79l-3.2-1.28V111.84Z"/></clipPath><clipPath id="clip-path-2"><path class="cls-1" d="M252.6,439.71c-19-7.66-116.22-47.88-125.9-74.2-7.69-20.91-12.84-20.64-23-62.77-8.86-36.87-28.71-72.44-33-71,0,0-15.41-66.65,6.62-61.94,0,0,49.12-7,154.65-63.09,0,0,9.13-5.31,16.48,3.2,1.74,2,3,2.42,4.07,2V439.71Z"/></clipPath></defs><title>cubreboca_Regular2</title><path class="cls-2" d="M34.32,180.14c-3.35,8-8.5,24.8-5,47.32,5.34,33.94,30.11,79.66,105.7,128.51A7.78,7.78,0,0,1,126.62,369C45.3,316.49,19.75,266.4,14,229.89c-6.06-38.5,9.6-63.1,9.6-63.1a7.78,7.78,0,0,1,8.71-3.37s27.88,7.87,33.9,9.32l.35.08A7.78,7.78,0,0,1,67.69,188a10.37,10.37,0,0,1-5.12-.14c-4.3-1-19.54-5.28-28.25-7.72Z"/><path class="cls-3" d="M445.21,188l.09-.05c5-2.82,28-17.55,28-17.55a7.78,7.78,0,0,1,10.7,2.26s15.88,23.55,9.74,60.41c-5.79,34.72-31.45,82.43-113.27,132.4a7.78,7.78,0,0,1-8.11-13.28c75.79-46.29,100.68-89.52,106-121.68,3.22-19.33-.77-34.2-4-42.34-7.38,4.7-18.13,11.5-21.42,13.35a9.12,9.12,0,0,1-6.83,1.19,7.78,7.78,0,0,1-.88-14.71Z"/><path class="cls-4" d="M252.62,111.84c3.46-1.45,5.1-11.62,15.11-5.41,13.14,8.16,129.07,68,165,67.36,0,0,11.42,13.47,13.85,20.29,2.3,6.47,1.6,13.74.71,20.59-.57,4.38-.1,6.85-7.21,20.85-6.93,13.64-22.9,37.25-25.22,42.54,0,0-11.43,61.69-16.68,66.15,0,0-21.78,52.59-142.35,96.79l-3.2-1.28V111.84Z"/><g class="cls-5"><path class="cls-6" d="M390.34,330.48a6.32,6.32,0,1,1-7.77,3.56,6.06,6.06,0,0,1,7.77-3.56Z"/><path class="cls-6" d="M435.85,250.61c4.32-1.19,8.88,1.67,10.18,6.38s-1.16,9.49-5.48,10.68-8.88-1.67-10.18-6.38,1.16-9.49,5.48-10.68Z"/><path class="cls-6" d="M324.63,250.5c4.38,1,7.08,5.62,6,10.38s-5.45,7.86-9.83,6.9-7.08-5.62-6-10.38,5.45-7.86,9.83-6.9Z"/><path class="cls-6" d="M344.12,138.28c4.48,0,8.12,4,8.12,8.85S348.6,156,344.12,156s-8.12-4-8.12-8.85,3.64-8.85,8.12-8.85Z"/><path class="cls-6" d="M337,385.64c4.48,0,8.12,4,8.12,8.85s-3.64,8.85-8.12,8.85-8.12-4-8.12-8.85,3.64-8.85,8.12-8.85Z"/><path class="cls-6" d="M385.5,202a6.67,6.67,0,1,1-4.15,8,6.39,6.39,0,0,1,4.15-8Z"/><path class="cls-6" d="M282.39,323.91a6.67,6.67,0,1,1-4.15,8,6.39,6.39,0,0,1,4.15-8Z"/><path class="cls-6" d="M372.15,280.8a4.28,4.28,0,1,1-2.66,5.14,4.1,4.1,0,0,1,2.66-5.14Z"/><path class="cls-6" d="M268.44,383.34a4.28,4.28,0,1,1-2.66,5.14,4.1,4.1,0,0,1,2.66-5.14Z"/><path class="cls-6" d="M280.51,185.52c3.4,1.22,5.09,5.22,3.76,8.93s-5.17,5.73-8.57,4.51-5.09-5.22-3.76-8.93,5.17-5.73,8.57-4.51Z"/></g><path class="cls-7" d="M252.6,439.71c-19-7.66-116.22-47.88-125.9-74.2-7.69-20.91-12.84-20.64-23-62.77-8.86-36.87-28.71-72.44-33-71,0,0-15.41-66.65,6.62-61.94,0,0,49.12-7,154.65-63.09,0,0,9.13-5.31,16.48,3.2,1.74,2,3,2.42,4.07,2V439.71Z"/><g class="cls-8"><path class="cls-6" d="M149.13,333.36a6.32,6.32,0,1,1-7.77,3.56,6.06,6.06,0,0,1,7.77-3.56Z"/><path class="cls-6" d="M213.77,264.19c4.32-1.19,8.88,1.67,10.18,6.38s-1.16,9.49-5.48,10.68-8.88-1.67-10.18-6.38,1.16-9.49,5.48-10.68Z"/><path class="cls-6" d="M102.55,264.08c4.38,1,7.08,5.62,6,10.38s-5.45,7.86-9.83,6.9-7.08-5.62-6-10.38,5.45-7.86,9.83-6.9Z"/><path class="cls-6" d="M122,151.85c4.48,0,8.12,4,8.12,8.85s-3.64,8.85-8.12,8.85-8.12-4-8.12-8.85,3.64-8.85,8.12-8.85Z"/><path class="cls-6" d="M163.43,215.62a6.67,6.67,0,1,1-4.15,8,6.39,6.39,0,0,1,4.15-8Z"/><path class="cls-6" d="M217.76,113.79a6.67,6.67,0,1,1-6.38,6.37,6.39,6.39,0,0,1,6.38-6.37Z"/><path class="cls-6" d="M211.71,182.3a4.84,4.84,0,1,1-4.63,4.62,4.64,4.64,0,0,1,4.63-4.62Z"/><path class="cls-6" d="M212.75,337.74a4.84,4.84,0,1,1-4.63,4.62,4.64,4.64,0,0,1,4.63-4.62Z"/><path class="cls-6" d="M219.1,404.69c4.22,1.51,6.31,6.47,4.66,11.07s-6.41,7.1-10.63,5.59-6.31-6.47-4.66-11.07,6.41-7.1,10.63-5.59Z"/></g></svg>