<svg id="App_360" data-name="App 360" xmlns="http://www.w3.org/2000/svg" viewBox="0 0 512 520"><defs><style>.cls-1{fill:#4a4a4a;}.cls-2{fill:#58595b;}.cls-3{fill:#414042;}</style></defs><title>cubreboca_regular1</title><path class="cls-1" d="M155.06,85.31c-52.3,24.82-119.37,88.94-128.69,96.59l85.72,214.6c72.93-80.9,67-180.13,81.34-243.39C211.66,72.75,184.2,71.48,155.06,85.31Zm-11.18,160s-52.24,83-50.52-4.27c.66-32.68,11.83-66.37,28.51-97.07s47.6-53.63,58.94-50.8S193.59,167.39,143.89,245.3Z"/><path class="cls-2" d="M447,118.81c-28,17.75-87.39,36.92-87.39,36.92-123.4,29-244-12.15-244-12.15l-.89.56q-11.33,7.28-21,12.75c-49.12,28.09-67.4,25-67.4,25S24.72,197.08,51.6,306.69C76.94,410,159.17,450.21,168.53,454c0,0,.27.13.38.16l.47.18s38.89.27,101-28c83-37.87,193.26-179.95,210.79-246.32S471.51,103.31,447,118.81ZM433.46,251.7S383.18,315,384.84,240.17c.64-28,11.38-55.31,27.43-79.15s45.8-38.78,56.71-34.58S481.28,192.34,433.46,251.7Z"/><path class="cls-3" d="M168.91,454.2l-.24-.09c-9.49-4.25-91.29-54.94-117.07-147.42C21.32,198,26.38,181.91,26.38,181.91s18.28,3.08,67.4-25q9.66-5.5,21-12.75c-12.84,42.19-24.64,90.68-23.42,141.51C94.18,404,148.61,440.21,168.91,454.2Z"/></svg>