<svg id="App_360" data-name="App 360" xmlns="http://www.w3.org/2000/svg" viewBox="0 0 512 520"><defs><style>.cls-1{fill:#fff;}.cls-2{fill:#d0d2d2;}.cls-3{fill:#f9fbfc;}.cls-4{fill:#74b0c2;}.cls-5{fill:#3b7799;}.cls-6{fill:#6194a3;}</style></defs><title>cubreboca_qururgica</title><path class="cls-1" d="M349.33,367l-2.5-8.17-.06,0c.06,0,6.29-2.2,20.61-13.57,13.09-10.39,35.87-30.86,70.1-69.36,21.66-24.36,37.27-46.87,46.4-66.9,8.44-18.51,11-34.11,7.7-46.34-3.2-11.75-11.93-20-26-24.54-6.53-2.11-17.23.23-29.36,6.42-11.56,5.9-20.44,13.25-23.24,17.47-1.23,1.85-5,7.47-35,25.65-14.55,8.79-28.4,16.37-28.54,16.44l-4.09-7.5c20.9-11.42,55.83-32.19,60.57-39.32,4.11-6.19,14.75-14.37,26.47-20.35,8.3-4.24,24-10.77,35.87-6.94,16.7,5.4,27.62,15.92,31.57,30.42,3.87,14.21,1.12,31.75-8.17,52.13-9.49,20.8-25.57,44-47.79,69C375.7,358.23,350.38,366.64,349.33,367Z"/><path class="cls-2" d="M349.33,367l-2.5-8.17-.06,0c.06,0,6.29-2.2,20.61-13.57,13.09-10.39,35.87-30.86,70.1-69.36,21.66-24.36,37.27-46.87,46.4-66.9,8.44-18.51,11-34.11,7.7-46.34-3.2-11.75-11.93-20-26-24.54-6.53-2.11-17.23.23-29.36,6.42-11.56,5.9-20.44,13.25-23.24,17.47-1.23,1.85-5,7.47-35,25.65-14.55,8.79-28.4,16.37-28.54,16.44l-4.09-7.5c20.9-11.42,55.83-32.19,60.57-39.32,4.11-6.19,14.75-14.37,26.47-20.35,8.3-4.24,24-10.77,35.87-6.94,16.7,5.4,27.62,15.92,31.57,30.42,3.87,14.21,1.12,31.75-8.17,52.13-9.49,20.8-25.57,44-47.79,69C375.7,358.23,350.38,366.64,349.33,367Z"/><path class="cls-1" d="M35.55,338.66,33,330.49l-.06,0c.06,0,6.29-2.2,20.61-13.57,13.09-10.39,35.87-30.86,70.09-69.36,21.66-24.36,37.27-46.87,46.4-66.9,8.44-18.51,11-34.11,7.7-46.35-3.2-11.75-11.93-20-26-24.54-6.53-2.11-17.23.23-29.36,6.42-11.56,5.9-20.44,13.25-23.24,17.47-1.23,1.85-5,7.47-35,25.65-14.55,8.79-28.41,16.37-28.54,16.44l-4.09-7.5C52.47,156.86,87.4,136.08,92.14,129c4.11-6.19,14.75-14.37,26.47-20.35,8.3-4.24,24-10.77,35.87-6.94,16.7,5.4,27.62,15.92,31.57,30.42,3.87,14.22,1.12,31.75-8.17,52.13-9.49,20.8-25.57,44-47.79,69C61.91,329.93,36.59,338.34,35.55,338.66Z"/><path class="cls-2" d="M35.55,338.66,33,330.49l-.06,0c.06,0,6.29-2.2,20.61-13.57,13.09-10.39,35.87-30.86,70.09-69.36,21.66-24.36,37.27-46.87,46.4-66.9,8.44-18.51,11-34.11,7.7-46.35-3.2-11.75-11.93-20-26-24.54-6.53-2.11-17.23.23-29.36,6.42-11.56,5.9-20.44,13.25-23.24,17.47-1.23,1.85-5,7.47-35,25.65-14.55,8.79-28.41,16.37-28.54,16.44l-4.09-7.5C52.47,156.86,87.4,136.08,92.14,129c4.11-6.19,14.75-14.37,26.47-20.35,8.3-4.24,24-10.77,35.87-6.94,16.7,5.4,27.62,15.92,31.57,30.42,3.87,14.22,1.12,31.75-8.17,52.13-9.49,20.8-25.57,44-47.79,69C61.91,329.93,36.59,338.34,35.55,338.66Z"/><path class="cls-3" d="M364.66,360.31l0,0-.14.09-.56.39-.2.14-.74.5-.37.25c-1.85,1.24-4.89,3.26-9,5.86s-9,5.7-14.86,9.23l-1.25.75-1.27.77-1.3.77-.25.15-.93.55-.14.08-1.35.8c-4,2.36-8.3,4.85-12.87,7.42l-1.2.68-3.67,2-1.25.69-4.36,2.38-.55.3-1.41.76-1.42.76L303.13,397l-.47.25-1.74.92L297.38,400l-3.6,1.85-.67.34-3,1.49-3,1.49L283.39,407l-2.29,1.11-.35.17-3.84,1.83L273,412l-2,.91L268.56,414l-3.2,1.44-.25.11-4,1.77q-3,1.32-6.08,2.61l-2,.86-1.85.77-2.16.88-2.17.87L242.66,425l-2,.77-.08,0-2.09.8-2.09.79-2.1.77q-2.1.77-4.21,1.52l-2.11.74-4.23,1.45-4.24,1.39-3.44,1.09-1.58.49-1.67.51-1.78.53q-2.22.65-4.44,1.27l-2.51.69-1.57.42-2.14.56-4,1-.18,0-2.12.5-2.11.48-2,.44-1,.22-1.66.34-1.66.33-2.1.41-2.1.38-1.29.23-2.89.48-2.08.32-.83.12-1.65.23-1.67.22q-4.12.54-8.07.83c-12.54,1-24.47,2.2-34.16-1.75-50.13-20.45-80.71-61.48-89.22-81.58-3.29-7.77-7.07-17.58-10.82-29q-1.5-4.56-3-9.45l-.52-1.73c-3.25-10.92-6.34-23-8.94-36-.22-1.1-.44-2.2-.65-3.31l-.15-.79c-.08-.4-.15-.81-.23-1.22a1.93,1.93,0,0,1,0-.22c-1.49-8-2.79-16.34-3.8-24.92-.13-1.09-.25-2.18-.37-3.28q-.31-2.83-.57-5.69h0c-.18-1.9,2.62-30.8,11-57.2a193.21,193.21,0,0,1,9.26-24S64,139.53,89.4,135.78l.28,0,.28,0c.92-.11,2-.18,3.31-.22H98l1.27,0h.69l.7,0,.37,0,.54,0h.06l.62,0h.25l.82,0h.06l1.12.06.95.05h0l.44,0h.23l.7,0,.53,0,.93.06h0l.35,0,1.11.08,1.25.09.64,0,1.95.15h.29l1.31.11.93.07.35,0,.36,0,.84.07.84.07.66.06.66.06h.14l.25,0,.24,0,.63.06.32,0h0l1.6.15h0l.58.06h.25l.26,0,.55.05,1,.1,1.48.15.22,0,.59.06.83.08h.06l.4,0,1,.1,1,.09,1.95.2,2.39.25.46,0,1.13.12,1,.11.26,0,1.29.14.49.06,2.07.23.27,0,.77.09.18,0,3,.34.87.1.2,0,2.17.25,3.6.42q6.91.82,14.25,1.73l.26,0h.06l.83.1,1.78.22L174,143l9.13,1.18,6.11.8,1.51.2,1.28.17h.13l.21,0,6.65.89.62.08,1.68.23,3.31.45,2.54.34,3.43.47,1.68.23.65.09.67.09,15.76,2.19,2.35.33,9.55,1.35,4.5.65,9.38,1.35,2.32.34,6.92,1,2.78.4.66.09,8.26,1.21,1.92.28,3,.44,3.68.54,2.2.33L301.81,161h0l.43.07,1.18.18,1.09.16,2.09.31,2.66.4,1.92.29L321.69,164l.72.11.3,0,2.45.37,1.21.19,1.2.19.3,0,.43.06,1.55.24,2.88.44h0l.13,0H333l.68.1,1.28.2,1.26.19.84.13.95.15.16,0,1,.15,1.07.16,1.05.16.5.08.5.08,3.2.49,4.51.7,1.08.17,4,.63h.07l.18,0,.77.12.31,0,.66.1h0l1.69.26.27,0,1.25.19,1.21.19-.16.34,0,0,0,.05v0l0,.07-.2.45-.12.27-.21.47-.15.33-.12.28-.12.29c-.23.53-.48,1.13-.77,1.81l-.17.41-.62,1.51-.23.59-.18.45-.4,1-.4,1a.2.2,0,0,1,0,.06l-.44,1.12-.14.36-.44,1.14-.11.29c-.11.28-.22.57-.33.87l-.08.22-.33.89-.68,1.86,0,.11q-.62,1.7-1.27,3.55l-.43,1.25-.68,2q-.41,1.21-.82,2.47c-.1.28-.19.57-.28.86l-.36,1.12-.48,1.49c-.21.66-.42,1.34-.63,2s-.49,1.61-.74,2.43a.86.86,0,0,0,0,.11L349,204.9l-.48,1.63c-.48,1.64-1,3.33-1.42,5-.1.37-.2.74-.3,1.11s-.24.9-.36,1.35q-.54,2-1.06,4.14l-.35,1.41c0,.19-.09.37-.14.56-.16.63-.31,1.27-.45,1.9,0,.13-.06.26-.09.39-.11.48-.22,1-.33,1.44l-.1.45c-.09.37-.17.74-.25,1.11s-.21.92-.31,1.39q-.32,1.48-.63,3l-.22,1.08q0,.19-.08.39c-.07.33-.13.66-.2,1s-.08.38-.11.57c-.1.51-.2,1-.29,1.53,0,.07,0,.15,0,.22q-.21,1.08-.4,2.18c-.18,1-.36,2-.52,3-.1.57-.19,1.14-.28,1.72,0,.22-.07.43-.1.65-.11.65-.21,1.31-.31,2l-.18,1.24c-.09.56-.16,1.13-.24,1.7s-.16,1.18-.24,1.77q-.2,1.49-.37,3c-.06.51-.12,1-.18,1.53s-.1.9-.15,1.35c0,.22,0,.44-.07.67a.55.55,0,0,0,0,.12c-.08.74-.15,1.49-.22,2.24,0,.08,0,.16,0,.24-.07.76-.13,1.52-.2,2.28h0v.16c0,.36-.06.72-.09,1.09-.1,1.27-.18,2.54-.25,3.81,0,.59-.07,1.17-.09,1.76v.31c0,.34,0,.68,0,1q-.15,3.37-.18,6.77c0,.56,0,1.13,0,1.7s0,1.11,0,1.67,0,1.12,0,1.68c0,.31,0,.62,0,.93,0,.48,0,1,0,1.43s0,1.13.06,1.7c0,.28,0,.55,0,.83,0,.5,0,1,.07,1.5s.06,1,.09,1.5.06,1,.1,1.49.07,1,.11,1.5q.15,1.83.34,3.66c0,.25,0,.49.08.73.06.53.12,1.06.18,1.6,0,.36.09.71.13,1.07.07.59.15,1.17.23,1.76q.35,2.63.82,5.26c0,.28.1.57.15.85q.26,1.49.57,3c0,.12,0,.23.07.35l0,.17c0,.23.09.46.15.69s0,.18.06.28c.1.51.22,1,.34,1.54s.28,1.21.42,1.8q.28,1.17.59,2.34A110.47,110.47,0,0,0,364.66,360.31Z"/><path class="cls-3" d="M364.66,360.31l0,0-.14.09-.56.39-.2.14-.74.5-.37.25c-1.85,1.24-4.89,3.26-9,5.86s-9,5.7-14.86,9.23l-1.25.75-1.27.77-1.3.77-.25.15-.93.55-.14.08-1.35.8c-4,2.36-8.3,4.85-12.87,7.42l-1.2.68-3.67,2-1.25.69-4.36,2.38-.55.3-1.41.76-1.42.76L303.13,397l-.47.25-1.74.92L297.38,400l-3.6,1.85-.67.34-3,1.49-3,1.49L283.39,407l-2.29,1.11-.35.17-3.84,1.83L273,412l-2,.91L268.56,414l-3.2,1.44-.25.11-4,1.77q-3,1.32-6.08,2.61l-2,.86-1.85.77-2.16.88-2.17.87L242.66,425l-2,.77-.08,0-2.09.8-2.09.79-2.1.77q-2.1.77-4.21,1.52l-2.11.74-4.23,1.45-4.24,1.39-3.44,1.09-1.58.49-1.67.51-1.78.53q-2.22.65-4.44,1.27l-2.51.69-1.57.42-2.14.56c-1.35.35-2.69.68-4,1l-.18,0-2.12.5-2.11.48-2,.44-1,.22-1.66.34-1.66.33-2.1.41-2.1.38-1.29.23-2.89.48-2.08.32-.83.12-1.65.23-1.67.22q-4.12.54-8.07.83H141.59c-26-31.7-40.72-51.21-49.56-69-.76-1.53-1.47-3-2.14-4.55-1.29-2.87-2.42-5.71-3.44-8.58-6.11-17.26-7.8-35.8-10.17-62.19,0-.12,0-.25,0-.38q-.2-2.25-.36-4.58c-1.4-20.66-.24-46,1.88-70.46q.22-2.5.45-5c2.45-26.5,5.93-51.4,8.35-67.3h0c1.67-10.94,2.84-17.61,2.84-17.61l.28,0,.28,0c.92-.11,2-.18,3.31-.22H97.4l2.35.06h.19l.7,0,.91,0h.06l.87,0,.82,0h.06l1.12.06.95.05h0l.44,0h.23l.7,0,.53,0,.93.06h0l.37,0,1.11.08,1.25.09.64,0,2.15.16h.08l1.31.11.93.07.35,0,1.19.1.84.07.66.06.66.06h.14l.25,0,.24,0,1,.09h0l1.6.15h0l.83.08.26,0,.55.05,1,.1,1.48.15.82.08.83.08h.06l2.3.24,1.95.2,2.39.25.46,0,2.4.26,1.29.14.49.06,2.07.23.27,0,.77.09h0l.17,0,3,.34.87.1.2,0,2.17.25,3.6.42q6.91.82,14.25,1.73l.32,0,.83.1,1.78.22L174,143l9.13,1.18,6.11.8,1.51.2,1.41.19.21,0,6.65.89.54.07h.09l1.68.23,3.31.45,2.54.34,3.43.47,2.33.32.67.09,15.76,2.19,2.35.33,9.55,1.35,4.5.65,9.38,1.35,2.32.34,6.92,1,2.78.4.66.09,8.26,1.21,1.92.28,3,.44,3.68.54,2.2.33L301.81,161h0l1.61.25,1.09.16,2.09.31,2.66.4,1.92.29L321.69,164l.15,0,.56.08.3,0,2.45.37,1.21.19,1.2.19.3,0h0l.41.06,1.55.24,2.88.44h0l.13,0H333l.68.1,1.28.2,1.26.19.84.13.95.15.16,0h.1l.9.14,1.07.16,1.05.16.5.08h0l.49.07,3.2.49,4.51.7,1.08.17,4,.63h.07l.18,0,.77.12.31,0,.66.1h0l1.69.26.27,0,1.25.19,1.21.19-.16.34,0,0,0,.05v0l0,.07-.2.45-.12.27-.21.47-.15.33-.12.28-.12.29c-.23.53-.48,1.13-.77,1.81l-.17.41-.62,1.51-.23.59-.18.45-.4,1-.4,1a.2.2,0,0,1,0,.06l-.44,1.12-.14.36-.44,1.14-.11.29c-.11.28-.22.57-.33.87l-.08.22-.33.89q-.34.9-.68,1.86h0l0,.11q-.62,1.7-1.27,3.55l-.43,1.25-.68,2q-.41,1.21-.82,2.47c-.1.28-.19.57-.28.86l-.36,1.12-.48,1.49c-.21.66-.42,1.34-.63,2s-.49,1.61-.74,2.43a.86.86,0,0,0,0,.11L349,204.9c-.16.54-.32,1.08-.48,1.63-.48,1.64-1,3.33-1.42,5-.1.37-.2.74-.3,1.11s-.24.9-.36,1.35q-.54,2-1.06,4.14c-.12.46-.23.93-.35,1.41,0,.19-.09.37-.14.56l-.45,1.9c0,.13-.06.26-.09.39-.11.48-.22,1-.33,1.44l-.1.45c-.09.37-.17.74-.25,1.11s-.21.92-.31,1.39q-.32,1.48-.63,3l-.22,1.08q0,.19-.08.39c-.07.33-.13.66-.2,1s-.08.38-.11.57c-.1.51-.2,1-.29,1.53,0,.07,0,.15,0,.22q-.21,1.08-.4,2.18c-.18,1-.36,2-.52,3-.1.57-.19,1.14-.28,1.72,0,.22-.07.43-.1.65-.11.65-.21,1.31-.31,2l-.18,1.24c-.09.56-.16,1.13-.24,1.7s-.16,1.18-.24,1.77q-.2,1.49-.37,3c-.06.51-.12,1-.18,1.53s-.1.9-.15,1.35c0,.22,0,.44-.07.67h0a1,1,0,0,1,0,.12c-.08.74-.15,1.49-.22,2.24,0,.08,0,.16,0,.24-.07.76-.14,1.52-.2,2.28h0v.16c0,.36-.06.72-.09,1.09-.1,1.27-.18,2.54-.25,3.81,0,.59-.07,1.17-.09,1.76v.31c0,.34,0,.68,0,1q-.15,3.37-.18,6.77c0,.56,0,1.13,0,1.7s0,1.11,0,1.67,0,1.12,0,1.68c0,.31,0,.62,0,.93,0,.48,0,1,0,1.43s0,1.13.06,1.7c0,.28,0,.55,0,.83,0,.5,0,1,.07,1.5s.05,1,.09,1.5.06,1,.1,1.49.07,1,.11,1.5q.15,1.83.34,3.66c0,.25,0,.49.08.73.06.53.12,1.06.18,1.6,0,.36.08.71.13,1.07.07.59.15,1.17.23,1.76q.35,2.63.82,5.26c0,.28.1.57.15.85q.26,1.49.57,3c0,.12,0,.23.07.35l0,.17c0,.23.09.46.15.69s0,.18.06.28q.16.77.34,1.54c.13.6.28,1.21.42,1.8q.28,1.17.59,2.34A110.47,110.47,0,0,0,364.66,360.31Z"/><path class="cls-4" d="M364.66,360.31l0,0-.14.09-.56.39-.2.14-.74.5-.37.25c-1.85,1.24-4.89,3.26-9,5.86-3.59-4.16-7.15-8.41-7.33-8.64A109.72,109.72,0,0,1,326,319.8q-.53-1.81-1-3.62c-.09-.37-.19-.74-.28-1.11a150.13,150.13,0,0,1-4.18-28.83c-.06-1.21-.11-2.42-.15-3.63,0-.42,0-.83,0-1.25a204,204,0,0,1,.94-24.49c.15-1.64.33-3.27.52-4.88,3.32-28.25,11.38-53.36,16.89-68.09,2.3-6.14,4.15-10.47,5-12.47l1.67-3.75,4.51.7,1.08.17,4,.63h.07l.18,0,.77.12.31,0,.66.1h0l1.69.26.27,0,1.25.19,1.21.19-.16.34,0,0,0,.05v0l0,.07-.2.45-.12.27-.21.47-.15.33-.12.28-.12.29c-.23.53-.48,1.13-.77,1.81l-.17.41-.62,1.51-.23.59-.18.45-.4,1-.4,1a.2.2,0,0,1,0,.06l-.44,1.12-.14.36-.44,1.14-.11.29c-.11.28-.22.57-.33.87l-.08.22-.33.89q-.34.9-.68,1.86h0l0,.11q-.62,1.7-1.27,3.55l-.43,1.25-.68,2q-.41,1.21-.82,2.47c-.1.28-.19.57-.28.86l-.36,1.12-.48,1.49c-.21.66-.42,1.34-.63,2s-.49,1.61-.74,2.43a.86.86,0,0,0,0,.11L349,204.9c-.16.54-.32,1.08-.48,1.63-.48,1.64-1,3.33-1.42,5-.1.37-.2.74-.3,1.11s-.24.9-.36,1.35q-.54,2-1.06,4.14c-.12.46-.23.93-.35,1.41,0,.19-.09.37-.14.56l-.45,1.9c0,.13-.06.26-.09.39-.11.48-.22,1-.33,1.44l-.1.45c-.09.37-.17.74-.25,1.11s-.21.92-.31,1.39q-.32,1.48-.63,3l-.22,1.08q0,.19-.08.39c-.07.33-.13.66-.2,1s-.08.38-.11.57c-.1.51-.2,1-.29,1.53,0,.07,0,.15,0,.22q-.21,1.08-.4,2.18c-.18,1-.36,2-.52,3-.1.57-.19,1.14-.28,1.72,0,.22-.07.43-.1.65-.11.65-.21,1.31-.31,2l-.18,1.24c-.09.56-.16,1.13-.24,1.7s-.16,1.18-.24,1.77q-.2,1.49-.37,3c-.06.51-.12,1-.18,1.53s-.1.9-.15,1.35c0,.22,0,.44-.07.67h0a1,1,0,0,1,0,.12c-.08.74-.15,1.49-.22,2.24,0,.08,0,.16,0,.24-.07.76-.14,1.52-.2,2.28h0v.16c0,.36-.06.72-.09,1.09-.1,1.27-.18,2.54-.25,3.81,0,.59-.07,1.17-.09,1.76v.31c0,.34,0,.68,0,1q-.15,3.37-.18,6.77c0,.56,0,1.13,0,1.7s0,1.11,0,1.67,0,1.12,0,1.68c0,.31,0,.62,0,.93,0,.48,0,1,0,1.43s0,1.13.06,1.7c0,.28,0,.55,0,.83,0,.5,0,1,.07,1.5s.05,1,.09,1.5.06,1,.1,1.49.07,1,.11,1.5q.15,1.83.34,3.66c0,.25,0,.49.08.73.06.53.12,1.06.18,1.6,0,.36.08.71.13,1.07.07.59.15,1.17.23,1.76q.35,2.63.82,5.26c0,.28.1.57.15.85q.26,1.49.57,3c0,.12,0,.23.07.35l0,.17c0,.23.09.46.15.69s0,.18.06.28q.16.77.34,1.54c.13.6.28,1.21.42,1.8q.28,1.17.59,2.34A110.47,110.47,0,0,0,364.66,360.31Z"/><path class="cls-5" d="M338.71,255.36a.55.55,0,0,0,0,.12c-.08.74-.15,1.49-.22,2.24,0,.08,0,.16,0,.24-.07.76-.13,1.52-.2,2.28h0c-2.78-.57-8.67-1.76-16.91-3.39C271,246.95,133.31,221.07,84.69,225q-3.54.28-6.93.71c-32.6,4.1-55.17,17.75-66.71,26.53q-.31-2.83-.57-5.69h0c2.84-2.06,6.2-4.3,10.06-6.58a147.91,147.91,0,0,1,57.67-19.23c2-.24,4-.44,6.09-.61,25.37-2,76.3,3.38,151.37,16.07,34.69,5.86,66.77,12,86.19,15.83,8,1.58,13.82,2.76,16.84,3.37Z"/><path class="cls-5" d="M341.68,313.84q-7.74,3.07-15.63,6C243.62,350,151.24,366,109.91,373.18c-8.26,1.43-14.34,2.49-17.88,3.23l-.58.12a14.19,14.19,0,0,1-3,.31c-9.74,0-24-8.83-42.55-26.31-6.46-6.1-12.45-12.34-17.19-17.47q-1.5-4.56-3-9.45l-.52-1.73C29.8,327.08,39,337.23,49.3,347,67.59,364.26,82,373.05,89.89,371.86l.53-.1c3.54-.77,9.88-1.87,18.66-3.39,41.25-7.14,133.58-23.13,215.69-53.3q8-2.94,15.85-6.06c0,.12,0,.23.07.35l0,.17c0,.23.09.46.15.69s0,.18.06.28q.16.77.34,1.54C341.4,312.64,341.54,313.24,341.68,313.84Z"/><path class="cls-6" d="M89.4,135.78s-1.17,6.68-2.84,17.61h0c-22.55,4-56.65,29.41-65.09,35.91a193.21,193.21,0,0,1,9.26-24S64,139.53,89.4,135.78Z"/><path class="cls-4" d="M361.58,170.18l-.16.34,0,0,0,.05v0l0,.07-.2.45-.12.27-.21.47-.15.33-.12.28-.12.29c-.23.53-.48,1.13-.77,1.81l-.17.41-.62,1.51-.23.59-.18.45-.4,1-.4,1a.2.2,0,0,1,0,.06l-.44,1.12-.14.36-.44,1.14-.11.29-.33.87-.08.22-.33.89-.68,1.86h0C293.9,176.95,114,150.57,89.4,153q-1.39.14-2.84.4c1.67-10.94,2.84-17.61,2.84-17.61l.28,0,.28,0,.66-.06.34,0,.35,0c.6,0,1.25-.08,2-.09h3.29c2,0,4.26.09,6.77.22l1.12.06.95.05h0l.44,0,1.46.09.93.06.39,0,1.11.08,1.89.14,2.23.17,1.31.11,1.87.15.6.05.84.07,1.32.12h.14l.25,0,.24,0,2.56.24,1.11.1.55.05,3.33.33.83.08,4.31.44,2.39.25,4.15.45.49.06,2.07.23.27,0,.78.09.17,0,3,.34,1.07.12,2.17.25,3.6.42q6.91.82,14.25,1.73l1.14.14,1.78.22L174,143l9.13,1.18,6.11.8,1.51.2,1.62.22,6.65.89.54.07,1.76.24,3.31.45,2.54.34,3.43.47,3,.41,15.76,2.19,2.35.33,9.55,1.35,4.5.65,4.7.68,4.68.68,2.32.34,6.92,1,2.78.4.66.09,3.3.49,2.48.37,2.47.36,1.92.28,3,.44,3.68.54,2.2.33.22,0,1.68.25,4.22.63,2.35.35.94.14,3,.45,2.53.38,1.66.25,1.09.16,2.09.31,2.66.4,1.92.29,3.25.49,1.07.16,2.29.35,1.94.29,1.92.29.15,0,.87.13,2.45.37,1.21.19,1.2.19.32,0,.41.06,1.55.24,2.88.44h0l.2,0h0l.68.1,1.28.2.26,0,.72.11.28,0,.84.13.95.15.27,0,.9.14,1.07.16,1.05.16.51.08.49.07,3.2.49,4.51.7,1.08.17,4,.63.26,0,.77.12,1,.15h0l1.69.26.27,0,1.25.19Z"/></svg>