<svg id="Capa_1" data-name="Capa 1" xmlns="http://www.w3.org/2000/svg" viewBox="0 0 66 67"><defs><style>.cls-1{fill:#ed1c24;}.cls-2{fill:#fff;}</style></defs><circle class="cls-1" cx="32.29" cy="33.5" r="29.5"/><path class="cls-2" d="M52.38,24.61,41.19,29.37v7.76l11.19,4.68A1.09,1.09,0,0,0,54,40.73v-15A1.08,1.08,0,0,0,52.38,24.61Z"/><path class="cls-2" d="M16.19,42.69,35,23.9H13.52A3.53,3.53,0,0,0,10,27.42V39.17a3.53,3.53,0,0,0,3.52,3.52Z"/><path class="cls-2" d="M20.63,42.69H35a3.53,3.53,0,0,0,3.52-3.52V27.42a3.48,3.48,0,0,0-.64-2Z"/></svg>