<svg id="Capa_1" data-name="Capa 1" xmlns="http://www.w3.org/2000/svg" viewBox="0 0 66 67"><defs><style>.cls-1{fill:#6f6f6e;}.cls-2{fill:#fff;}</style></defs><circle class="cls-1" cx="32.56" cy="33.11" r="29.5"/><g id="OBpmA8.tif"><path class="cls-2" d="M38.66,33.39c0,1.24,0,2.49,0,3.73a6.1,6.1,0,0,1-12.2,0c-.05-2.41-.06-4.82,0-7.22a6.09,6.09,0,1,1,12.18,0c0,1.16,0,2.33,0,3.49Z"/><path class="cls-2" d="M33.6,52.05c1.23,0,2.26,0,3.3,0,.73,0,1.33.3,1.17,1.06a1.53,1.53,0,0,1-1.12,1c-2.91.08-5.82,0-8.73,0-.74,0-1.34-.31-1.16-1.07a1.62,1.62,0,0,1,1.13-1,25.7,25.7,0,0,1,3.32,0c0-1.49,0-2.92,0-4.35,0-.21-.47-.51-.76-.59-5.35-1.29-8.41-5.17-8.41-10.69a5.92,5.92,0,0,1,0-1.74c.15-.44.65-.76,1-1.14.35.38.93.72,1,1.14.17,1.18,0,2.41.2,3.59a8.08,8.08,0,0,0,8.72,6.85A8.26,8.26,0,0,0,40.75,37c0-.79,0-1.58,0-2.37s.32-1.23,1-1.07a1.55,1.55,0,0,1,1,1c.69,6.87-2.8,11.37-8.34,12.57a1.21,1.21,0,0,0-.81.79C33.55,49.23,33.6,50.56,33.6,52.05Z"/><path class="cls-2" d="M32.73,12.1a14.07,14.07,0,0,1,7.4,2.12c.77.45,1.32,1.06.8,1.9s-1.23.51-2,.09a12,12,0,0,0-12.86,0,2.76,2.76,0,0,1-1.69.15c-.19,0-.43-.74-.34-1a2,2,0,0,1,.83-1A13.7,13.7,0,0,1,32.73,12.1Z"/><path class="cls-2" d="M32.49,18.47c1.38.45,2.69.82,3.94,1.31a1.13,1.13,0,0,1,.73,1.69c-.41.76-1.09.66-1.73.3a5.42,5.42,0,0,0-5.77,0c-.68.39-1.33.35-1.71-.36a1.06,1.06,0,0,1,.67-1.6C29.87,19.35,31.16,18.94,32.49,18.47Z"/></g></svg>