<svg id="Capa_1" data-name="Capa 1" xmlns="http://www.w3.org/2000/svg" viewBox="0 0 36 43"><defs><style>.cls-1{fill:#fff;stroke:#fff;stroke-miterlimit:10;stroke-width:0.5px;}</style></defs><g id="Q8XY1O"><path class="cls-1" d="M4.21,19.68l-.21-1a15.57,15.57,0,0,1-.26-4.57,8.11,8.11,0,0,1,1.44-4A6.79,6.79,0,0,1,8.39,7.8a.83.83,0,0,0,.41-.33,8.48,8.48,0,0,1,5-3.58,14.35,14.35,0,0,1,4.37-.48A9.43,9.43,0,0,1,20.93,4a19.72,19.72,0,0,1,6,3.2,13.72,13.72,0,0,1,4.68,6.67,10.92,10.92,0,0,1,.18,5.59c0,.06,0,.12,0,.2a4.3,4.3,0,0,1,.72,0,1.49,1.49,0,0,1,1.29,1.42,4.45,4.45,0,0,1-.39,2.19,7.8,7.8,0,0,1-2.34,3.19,3,3,0,0,1-1.34.64s-.11.09-.13.15c-.5,1.39-1,2.79-1.51,4.16a14.65,14.65,0,0,1-1.16,2.47,12.18,12.18,0,0,1-4.73,4.61,8.36,8.36,0,0,1-2.44.82,9.56,9.56,0,0,1-4.63-.27A9.82,9.82,0,0,1,11,36.45a14.38,14.38,0,0,1-3.26-5.33c-.45-1.27-.89-2.53-1.33-3.8a.26.26,0,0,0-.23-.2,3,3,0,0,1-1.41-.73,7.71,7.71,0,0,1-2.54-4.16,2.85,2.85,0,0,1,0-1.45,1.44,1.44,0,0,1,1.39-1.1ZM30,21.89a.39.39,0,0,0,.3-.35c.11-.44.21-.88.34-1.31a11.37,11.37,0,0,0,.44-4.14,9.62,9.62,0,0,0-1.19-3.92,13.26,13.26,0,0,0-1-1.56A14.06,14.06,0,0,0,25.4,7.25,20.8,20.8,0,0,0,20.71,5a9.36,9.36,0,0,0-2.33-.58,12.7,12.7,0,0,0-4.25.39,7.48,7.48,0,0,0-4.6,3.32,1.29,1.29,0,0,1-.7.56,5.88,5.88,0,0,0-3.29,2.67,7.46,7.46,0,0,0-.89,3,12.49,12.49,0,0,0,.2,3.76c.24,1.14.55,2.26.81,3.39a.69.69,0,0,0,.47.54.88.88,0,0,0,.12-.15c.26-.47.55-.93.77-1.42a23,23,0,0,0,1.81-6.55c0-.39,0-.8.05-1.19a3.15,3.15,0,0,0,0-.53.49.49,0,0,1,.39-.54.42.42,0,0,1,.52.37,6.4,6.4,0,0,1,.07.88c0,.26,0,.53,0,.81h0l.58.05a22.4,22.4,0,0,0,3.84-.26A42.78,42.78,0,0,0,20,12.3c.79-.22,1.57-.49,2.33-.78a6.3,6.3,0,0,0,1.14-.62c.19-.12.35-.22.56-.13a.5.5,0,0,1,.29.5,6.92,6.92,0,0,0,.84,3.24A18.4,18.4,0,0,0,27,17.09c.66.86,1.32,1.73,1.95,2.62A9.26,9.26,0,0,1,30,21.89Zm-23.1.66c.65.42,1.29.83,1.91,1.27a.77.77,0,0,0,.62.14c.75-.14,1.5-.25,2.24-.43,1.4-.34,2.79-.72,4.19-1.07a7.89,7.89,0,0,1,3.95-.06l3.4.86a23.34,23.34,0,0,0,3.3.7.75.75,0,0,0,.56-.11c.41-.29.83-.55,1.25-.82l.86-.58a9,9,0,0,0-1.28-2.56c-.9-1.22-1.85-2.41-2.76-3.63A8.75,8.75,0,0,1,23.8,13.7c-.17-.52-.27-1.06-.41-1.59a27.94,27.94,0,0,1-6.69,1.94,27,27,0,0,1-7,.59.83.83,0,0,0,0,.15c-.22,1-.41,2-.68,3A15.57,15.57,0,0,1,6.92,22.55ZM26.59,25c-.88-.19-1.73-.34-2.57-.54-1.45-.35-2.89-.75-4.34-1.1a6.08,6.08,0,0,0-2-.21,16.59,16.59,0,0,0-3,.58c-1.23.32-2.46.65-3.7.95-.53.13-1.07.19-1.62.29-.07.65-.15,1.31-.21,2,0,0,.05.12.09.15.29.14.58.28.88.39a18.77,18.77,0,0,0,3.21.86,28.06,28.06,0,0,0,3.87.5,16.75,16.75,0,0,0,3-.13,26,26,0,0,0,4.54-.89c.65-.19,1.27-.48,1.9-.72.08,0,.14-.07.12-.18C26.73,26.25,26.66,25.59,26.59,25ZM9,28.06c-.07.47-.15.94-.22,1.42a.39.39,0,0,0,.08.28,10.15,10.15,0,0,0,.87,1A15.79,15.79,0,0,0,15.14,34a8.8,8.8,0,0,0,2.43.58,6.49,6.49,0,0,0,2.36-.28,16.16,16.16,0,0,0,5.17-2.61,9.7,9.7,0,0,0,2-1.9.39.39,0,0,0,.08-.36c-.05-.27-.09-.55-.13-.82s-.06-.39-.09-.55A24.43,24.43,0,0,1,9,28.06ZM8.8,31.17c.09.22.19.44.28.67a12.05,12.05,0,0,0,3.57,4.81,7.9,7.9,0,0,0,4.82,1.91,8.5,8.5,0,0,0,4-.69,11,11,0,0,0,4-3.46,12.61,12.61,0,0,0,1.65-3c0-.07.05-.14.08-.24l-.08.07A16.63,16.63,0,0,1,20,35.25a7.07,7.07,0,0,1-2.55.27,10.89,10.89,0,0,1-3-.75,17.34,17.34,0,0,1-4.43-2.51C9.64,31.91,9.23,31.53,8.8,31.17ZM6,26.07,6,25.82c-.44-1.54-.89-3.09-1.34-4.63-.15-.53-.16-.55-.71-.57H3.71a.53.53,0,0,0-.54.43,2.12,2.12,0,0,0,0,1.09,6.93,6.93,0,0,0,1.71,3.07A3.6,3.6,0,0,0,6,26.07Zm24,0,.05,0c.27-.21.55-.4.8-.63a7,7,0,0,0,1.78-2.73,3,3,0,0,0,.23-1.54.56.56,0,0,0-.62-.56,5.54,5.54,0,0,0-.57.07c-.11,0-.15.07-.18.18-.33,1.2-.67,2.39-1,3.59C30.31,25,30.14,25.51,30,26Zm-.11-2.82-.05,0-2.13,1.4a.3.3,0,0,0-.16.34c.07.53.11,1.06.18,1.59.09.78.2,1.55.31,2.33h.07Zm-23.68,0-.05,0L7.9,28.84c.06,0,.06,0,.07-.06.15-1.2.28-2.41.46-3.61a.64.64,0,0,0-.37-.75C7.42,24,6.81,23.61,6.19,23.2Z"/></g></svg>