<svg id="Capa_1" data-name="Capa 1" xmlns="http://www.w3.org/2000/svg" viewBox="0 0 47 40"><defs><style>.cls-1{fill:#41484f;}</style></defs><g id="_1wJKFw" data-name="1wJKFw"><path class="cls-1" d="M22.84,26.67v5.82c0,1.62,0,3.24,0,4.86a1.45,1.45,0,0,0,.95,1.35A1.59,1.59,0,0,0,26,37.18c0-2.22,0-4.45,0-6.68V25.25a1.62,1.62,0,0,0-1.8-1.8h-4.8V18.28l.29.22c.55.45,1.11.9,1.65,1.37a1.82,1.82,0,0,0,1.22.43c2.22,0,4.44,0,6.66,0a11.55,11.55,0,0,0,1.32-.07,1.38,1.38,0,0,0,1.12-1.18,1.47,1.47,0,0,0-1.53-1.68H23.24a.87.87,0,0,1-.5-.18c-1.76-1.41-3.53-2.82-5.26-4.26a5.93,5.93,0,0,0-3-1.5,24.56,24.56,0,0,0-2.71-.11A1.6,1.6,0,0,0,10,13.07V24.89a1.62,1.62,0,0,0,1.77,1.78h11Zm-11.39,4.8c0,.05,0,.07,0,.1V36c0,.17-.08.2-.22.2-.35,0-.7,0-1.06,0a1.34,1.34,0,0,0,0,2.67c1.82,0,3.64,0,5.46,0a1.19,1.19,0,0,0,1-.51,1.27,1.27,0,0,0,.16-1.39,1.25,1.25,0,0,0-1.16-.77H14.2v-4.7h5l.56,0a1.22,1.22,0,0,0,1.09-.82,1.3,1.3,0,0,0-.28-1.45,1.52,1.52,0,0,0-1.13-.4H8.18c-.29,0-.38-.09-.46-.35Q6,22.36,4.25,16.31a1.35,1.35,0,1,0-2.59.75c.4,1.39.8,2.78,1.19,4.16l2.64,9.17a1.39,1.39,0,0,0,1.35,1.07c1.46,0,2.92,0,4.39,0Zm27.09-6.69h6.52a1.46,1.46,0,1,0,0-2.92H29.12a1.47,1.47,0,1,0,0,2.93H35.6V36.05H34.46a1.44,1.44,0,0,0-1.37,1.42A1.4,1.4,0,0,0,34.42,39q2.65,0,5.31,0a1.3,1.3,0,0,0,1.21-.85,1.45,1.45,0,0,0-1.31-2.05H38.54ZM13.94.82a4.55,4.55,0,1,0,4.55,4.55A4.54,4.54,0,0,0,13.94.82ZM37.12,20.35v0c1.11,0,2.22,0,3.33,0a1,1,0,0,0,.87-.46l4.74-6.79a1.06,1.06,0,0,0,.19-.48.85.85,0,0,0-.58-.9.87.87,0,0,0-1.05.38c-1.46,2.09-2.92,4.19-4.39,6.28a.59.59,0,0,1-.34.21c-.87,0-1.73,0-2.6,0l-3.39,0a1.06,1.06,0,0,0-.35,0,.91.91,0,0,0-.68.91.83.83,0,0,0,.81.79Z"/><path class="cls-1" d="M22.84,26.67h-11A1.62,1.62,0,0,1,10,24.89V13.07a1.6,1.6,0,0,1,1.72-1.76,24.56,24.56,0,0,1,2.71.11,5.93,5.93,0,0,1,3,1.5c1.73,1.44,3.5,2.85,5.26,4.26a.87.87,0,0,0,.5.18h6.93a1.47,1.47,0,0,1,1.53,1.68,1.38,1.38,0,0,1-1.12,1.18,11.55,11.55,0,0,1-1.32.07c-2.22,0-4.44,0-6.66,0a1.82,1.82,0,0,1-1.22-.43c-.54-.47-1.1-.92-1.65-1.37l-.29-.22v5.17h4.8a1.62,1.62,0,0,1,1.8,1.8V30.5c0,2.23,0,4.46,0,6.68a1.59,1.59,0,0,1-2.25,1.52,1.45,1.45,0,0,1-.95-1.35c0-1.62,0-3.24,0-4.86Z"/><path class="cls-1" d="M11.45,31.47h-.22c-1.47,0-2.93,0-4.39,0a1.39,1.39,0,0,1-1.35-1.07L2.85,21.22c-.39-1.38-.79-2.77-1.19-4.16a1.35,1.35,0,1,1,2.59-.75q1.74,6,3.47,12.11c.08.26.17.35.46.35H19.44a1.52,1.52,0,0,1,1.13.4,1.3,1.3,0,0,1,.28,1.45,1.22,1.22,0,0,1-1.09.82l-.56,0h-5v4.7h1.45a1.25,1.25,0,0,1,1.16.77,1.27,1.27,0,0,1-.16,1.39,1.19,1.19,0,0,1-1,.51c-1.82,0-3.64,0-5.46,0a1.34,1.34,0,0,1,0-2.67c.36,0,.71,0,1.06,0,.14,0,.22,0,.22-.2V31.57S11.47,31.52,11.45,31.47Z"/><path class="cls-1" d="M38.54,24.78V36.05h1.09a1.45,1.45,0,0,1,1.31,2.05,1.3,1.3,0,0,1-1.21.85q-2.65,0-5.31,0a1.4,1.4,0,0,1-1.33-1.48,1.44,1.44,0,0,1,1.37-1.42H35.6V24.78H29.09a1.47,1.47,0,1,1,0-2.93H45a1.46,1.46,0,1,1,0,2.92H38.54Z"/><path class="cls-1" d="M13.94.82A4.55,4.55,0,1,1,9.39,5.35,4.53,4.53,0,0,1,13.94.82Z"/><path class="cls-1" d="M37.12,20.35H33.68a.83.83,0,0,1-.81-.79.91.91,0,0,1,.68-.91,1.06,1.06,0,0,1,.35,0l3.39,0c.87,0,1.73,0,2.6,0a.59.59,0,0,0,.34-.21c1.47-2.09,2.93-4.19,4.39-6.28a.87.87,0,0,1,1.05-.38.85.85,0,0,1,.58.9,1.06,1.06,0,0,1-.19.48l-4.74,6.79a1,1,0,0,1-.87.46c-1.11,0-2.22,0-3.33,0Z"/></g></svg>