<svg id="Capa_1" data-name="Capa 1" xmlns="http://www.w3.org/2000/svg" viewBox="0 0 38 40"><defs><style>.cls-1{fill:#41484f;}</style></defs><g id="qouy0f"><path class="cls-1" d="M24.16,38.34a.47.47,0,0,0-.09-.06,2.08,2.08,0,0,1-1.64-2.11c0-1.81,0-3.63,0-5.44a.72.72,0,0,0-.12-.42c-1.12-1.4-2.25-2.78-3.38-4.16a.54.54,0,0,0-.92.08q-1.44,2.57-2.86,5.13a2.29,2.29,0,0,1-1.12,1L9,34.65a2,2,0,0,1-2.72-1A2,2,0,0,1,7.18,31c1.42-.7,2.89-1.31,4.33-2a1,1,0,0,0,.43-.39c.85-1.5,1.68-3,2.51-4.51A3.25,3.25,0,0,0,15.16,22a1.93,1.93,0,0,1,.14-.69c.51-1.72,1-3.43,1.54-5.14l1.09-3.7a4,4,0,0,0-2.42,1.58c-.88,1.38-1.75,2.77-2.64,4.15a1,1,0,0,0-.22,1c.06.15,0,.37-.1.55a5.12,5.12,0,0,1-.28.58l1.81,1a.88.88,0,0,1,.4,1.41q-1.46,2.55-2.92,5.1a.85.85,0,0,1-1.34.37L2.64,24a.83.83,0,0,1-.35-1.33q1.45-2.53,2.89-5.07c.39-.68.76-.79,1.44-.4l1.82,1c.26-.54.54-1,1.19-1,0,0,.1-.09.13-.14.58-1,1.13-2,1.75-2.93a21,21,0,0,1,2-2.81,8.4,8.4,0,0,1,5.8-2.38c1.16-.1,2.35,0,3.56,0,0,.45.1,1,.12,1.47a.67.67,0,0,1-.1.33c-.84,1.46-1.66,2.93-2.55,4.37a1.47,1.47,0,0,0-.14,1.48,12.86,12.86,0,0,1,.41,1.24c.42-.16.76-.32,1.12-.44a.68.68,0,0,0,.52-.64c.24-1.72.54-3.44.83-5.16a2.19,2.19,0,0,1,.25-1,6,6,0,0,1,1-.88c.53.7,1,1.39,1.58,2a11,11,0,0,0,5.45,3.55c.46.13.95.21,1.4.36a1.66,1.66,0,0,1,1.09,1.87A1.69,1.69,0,0,1,32,18.85a12.18,12.18,0,0,1-5.84-2.54l-1-.84c-.42,1.41-.82,2.79-1.24,4.17l-1.3,4.24a.37.37,0,0,0,.08.3c1,1.24,2,2.48,3,3.7a3.06,3.06,0,0,1,.87,2c0,2.05,0,4.1,0,6.16a3.42,3.42,0,0,1-.3,1.25,2,2,0,0,1-1.45,1ZM9.31,18.7l2.07,1.18.3-.59a1.88,1.88,0,0,1-2-1.18Z"/><path class="cls-1" d="M25.09,1.66c-1.5.39-2.1,1.58-2.57,2.88a4.76,4.76,0,0,0-.23,2.79A2.74,2.74,0,0,0,26,9.27a5.42,5.42,0,0,0,3.19-4.1A2.44,2.44,0,0,0,28,2.61a6.29,6.29,0,0,0-2.15-.95Z"/></g></svg>