<svg id="Capa_1" data-name="Capa 1" xmlns="http://www.w3.org/2000/svg" viewBox="0 0 435 230"><defs><style>.cls-1{fill:#dadada;}.cls-2{fill:#c9c8c8;}.cls-3{fill:#f6c68a;}.cls-4{fill:#f0b36c;}.cls-5{fill:#818498;}.cls-6{fill:#adb1cb;}.cls-34,.cls-7{fill:#fff;}.cls-8{fill:#b7b7b7;}.cls-9{fill:#6f7291;}.cls-10{fill:#999dbd;}.cls-11{fill:#7d809b;}.cls-12{fill:#f7dbb8;}.cls-13{fill:#f4c994;}.cls-14{fill:#f1b670;}.cls-15{fill:#393d57;}.cls-16{fill:#f1bc7b;}.cls-17,.cls-19,.cls-25,.cls-27,.cls-36{fill:none;}.cls-17{stroke:#989898;stroke-width:0.02px;}.cls-17,.cls-19,.cls-27,.cls-36{stroke-miterlimit:10;}.cls-18{fill:#454a5f;}.cls-19{stroke:#2c334a;stroke-width:0.06px;}.cls-20{fill:#e6e5e5;}.cls-21{fill:#f9e6d0;}.cls-22{fill:#f9d6ab;}.cls-23{fill:#f9ddba;}.cls-24{fill:#3c3e54;}.cls-25,.cls-36{stroke:#adb1cb;}.cls-25{stroke-linecap:round;stroke-linejoin:round;stroke-width:0.32px;}.cls-26{fill:#eda753;}.cls-27{stroke:#454a5f;stroke-width:0.38px;}.cls-28{fill:#808291;}.cls-29{fill:#d8ac92;}.cls-30{fill:#2c334a;}.cls-31{fill:#707289;}.cls-32{fill:#65687d;}.cls-33{fill:#989898;}.cls-34{opacity:0.82;}.cls-35{fill:#757576;}.cls-36{stroke-width:1.06px;}</style></defs><path class="cls-1" d="M384.49,113.44a16.24,16.24,0,0,0,2.73-11.27c-.78-6.84,4.93-8.27,6.94-5.58S395.58,106.53,384.49,113.44Z"/><path class="cls-1" d="M378.68,115.89a16.24,16.24,0,0,0-5.08-10.42c-5-4.77-1.48-9.52,1.79-8.72S382.82,103.49,378.68,115.89Z"/><path class="cls-1" d="M379.1,116.59a16.23,16.23,0,0,1,9.07,7.21c3.59,5.88,9,3.5,8.9.14S392.09,115.22,379.1,116.59Z"/><path class="cls-1" d="M369.46,123.61a16.23,16.23,0,0,1,9.07,7.21c3.59,5.88,9,3.5,8.9.14S382.45,122.24,369.46,123.61Z"/><path class="cls-1" d="M362.45,132.14a16.23,16.23,0,0,1,9.07,7.21c3.59,5.87,9,3.5,8.9.14S375.45,130.77,362.45,132.14Z"/><path class="cls-1" d="M354.23,143.06a16.26,16.26,0,0,1,9.08,7.22c3.58,5.87,9,3.49,8.9.13S367.23,141.7,354.23,143.06Z"/><path class="cls-1" d="M369.55,123.57a16.24,16.24,0,0,0-5.08-10.42c-5-4.77-1.48-9.52,1.79-8.72S373.69,111.17,369.55,123.57Z"/><path class="cls-1" d="M361.32,132.78a16.24,16.24,0,0,0-5.08-10.42c-5-4.77-1.48-9.51,1.78-8.72S365.46,120.38,361.32,132.78Z"/><path class="cls-1" d="M353.92,142.73a16.28,16.28,0,0,0-5.09-10.42c-5-4.77-1.48-9.52,1.79-8.72S358.06,130.33,353.92,142.73Z"/><path class="cls-1" d="M337.81,172.45l1.14.29c1.6-3.91,3.53-8.23,5.81-12.75a152.31,152.31,0,0,1,9.85-16.81l.11-.16a123.35,123.35,0,0,1,8.16-10.75l.15-.19a108.67,108.67,0,0,1,7.62-8.06l.59-.56a90.68,90.68,0,0,1,8.15-6.78l.19-.14c1.67-1.22,3.4-2.39,5.18-3.49l1.8-1.08a.58.58,0,0,0,.22-.79.59.59,0,0,0-.8-.22l-.12.07a80.17,80.17,0,0,0-7.12,4.68l-.07.05a90.51,90.51,0,0,0-9.06,7.64l-.06.06a108.23,108.23,0,0,0-8,8.54c-.09.12-.19.23-.28.34-2.54,3-4.88,6.16-7,9.26l-.41.58a155.16,155.16,0,0,0-10.17,17.31C341.38,164.08,339.43,168.48,337.81,172.45Z"/><path class="cls-2" d="M325,91.39c0-2.26-1.94-3.79-5.05-3.79a7.63,7.63,0,0,0-6.59,3.11l-3.92-2.55c2.26-3.07,5.9-4.93,10.95-4.93,5.94,0,9.9,2.71,9.9,7.36,0,6.58-6.91,7.19-6.91,12h-5.13C318.25,96.57,325,95.44,325,91.39Zm-7.4,17.67a3.22,3.22,0,1,1,3.24,3.15A3.1,3.1,0,0,1,317.6,109.06Z"/><rect class="cls-3" x="114.9" y="156.28" width="27.9" height="2.63"/><rect class="cls-4" x="127.96" y="156.28" width="1.78" height="2.63"/><rect class="cls-4" x="133.6" y="156.28" width="1.78" height="2.63"/><rect class="cls-4" x="139.24" y="156.28" width="1.78" height="2.63"/><rect class="cls-4" x="116.68" y="156.28" width="1.78" height="2.63"/><rect class="cls-4" x="122.32" y="156.28" width="1.78" height="2.63"/><rect class="cls-3" x="115.73" y="153.65" width="27.9" height="2.63"/><rect class="cls-4" x="128.8" y="153.65" width="1.78" height="2.63"/><rect class="cls-4" x="134.44" y="153.65" width="1.78" height="2.63"/><rect class="cls-4" x="140.07" y="153.65" width="1.78" height="2.63"/><rect class="cls-4" x="117.51" y="153.65" width="1.78" height="2.63"/><rect class="cls-4" x="123.15" y="153.65" width="1.78" height="2.63"/><rect class="cls-3" x="114.9" y="151.02" width="27.9" height="2.63"/><rect class="cls-4" x="127.96" y="151.02" width="1.78" height="2.63"/><rect class="cls-4" x="133.6" y="151.02" width="1.78" height="2.63"/><rect class="cls-4" x="139.24" y="151.02" width="1.78" height="2.63"/><rect class="cls-4" x="116.68" y="151.02" width="1.78" height="2.63"/><rect class="cls-4" x="122.32" y="151.02" width="1.78" height="2.63"/><rect class="cls-3" x="114.49" y="148.39" width="27.9" height="2.63"/><rect class="cls-4" x="127.55" y="148.39" width="1.78" height="2.63"/><rect class="cls-4" x="133.19" y="148.39" width="1.78" height="2.63"/><rect class="cls-4" x="138.83" y="148.39" width="1.78" height="2.63"/><rect class="cls-4" x="116.26" y="148.39" width="1.78" height="2.63"/><rect class="cls-4" x="121.9" y="148.39" width="1.78" height="2.63"/><rect class="cls-3" x="113.65" y="145.76" width="27.9" height="2.63"/><rect class="cls-4" x="126.72" y="145.76" width="1.78" height="2.63"/><rect class="cls-4" x="132.35" y="145.76" width="1.78" height="2.63"/><rect class="cls-4" x="137.99" y="145.76" width="1.78" height="2.63"/><rect class="cls-4" x="115.43" y="145.76" width="1.78" height="2.63"/><rect class="cls-4" x="121.07" y="145.76" width="1.78" height="2.63"/><rect class="cls-3" x="114.49" y="143.13" width="27.9" height="2.63"/><rect class="cls-4" x="127.55" y="143.13" width="1.78" height="2.63"/><rect class="cls-4" x="133.19" y="143.13" width="1.78" height="2.63"/><rect class="cls-4" x="138.83" y="143.13" width="1.78" height="2.63"/><rect class="cls-4" x="116.26" y="143.13" width="1.78" height="2.63"/><rect class="cls-4" x="121.9" y="143.13" width="1.78" height="2.63"/><rect class="cls-3" x="115.73" y="140.5" width="27.9" height="2.63"/><rect class="cls-4" x="128.8" y="140.5" width="1.78" height="2.63"/><rect class="cls-4" x="134.44" y="140.5" width="1.78" height="2.63"/><rect class="cls-4" x="140.07" y="140.5" width="1.78" height="2.63"/><rect class="cls-4" x="117.51" y="140.5" width="1.78" height="2.63"/><rect class="cls-4" x="123.15" y="140.5" width="1.78" height="2.63"/><rect class="cls-3" x="114.9" y="137.87" width="27.9" height="2.63"/><rect class="cls-4" x="127.96" y="137.87" width="1.78" height="2.63"/><rect class="cls-4" x="133.6" y="137.87" width="1.78" height="2.63"/><rect class="cls-4" x="139.24" y="137.87" width="1.78" height="2.63"/><rect class="cls-4" x="116.68" y="137.87" width="1.78" height="2.63"/><rect class="cls-4" x="122.32" y="137.87" width="1.78" height="2.63"/><rect class="cls-3" x="147.03" y="158.91" width="27.9" height="2.63"/><rect class="cls-4" x="160.09" y="158.91" width="1.78" height="2.63"/><rect class="cls-4" x="154.45" y="158.91" width="1.78" height="2.63"/><rect class="cls-4" x="148.81" y="158.91" width="1.78" height="2.63"/><rect class="cls-4" x="171.37" y="158.91" width="1.78" height="2.63"/><rect class="cls-4" x="165.74" y="158.91" width="1.78" height="2.63"/><rect class="cls-3" x="146.19" y="161.54" width="27.9" height="2.63"/><rect class="cls-4" x="159.26" y="161.54" width="1.78" height="2.63"/><rect class="cls-4" x="153.62" y="161.54" width="1.78" height="2.63"/><rect class="cls-4" x="147.98" y="161.54" width="1.78" height="2.63"/><rect class="cls-4" x="170.54" y="161.54" width="1.78" height="2.63"/><rect class="cls-4" x="164.9" y="161.54" width="1.78" height="2.63"/><rect class="cls-3" x="147.03" y="164.17" width="27.9" height="2.63"/><rect class="cls-4" x="160.09" y="164.17" width="1.78" height="2.63"/><rect class="cls-4" x="154.45" y="164.17" width="1.78" height="2.63"/><rect class="cls-4" x="148.81" y="164.17" width="1.78" height="2.63"/><rect class="cls-4" x="171.37" y="164.17" width="1.78" height="2.63"/><rect class="cls-4" x="165.74" y="164.17" width="1.78" height="2.63"/><rect class="cls-3" x="147.44" y="166.8" width="27.9" height="2.63"/><rect class="cls-4" x="160.5" y="166.8" width="1.78" height="2.63"/><rect class="cls-4" x="154.87" y="166.8" width="1.78" height="2.63"/><rect class="cls-4" x="149.23" y="166.8" width="1.78" height="2.63"/><rect class="cls-4" x="171.79" y="166.8" width="1.78" height="2.63"/><rect class="cls-4" x="166.15" y="166.8" width="1.78" height="2.63"/><rect class="cls-3" x="148.27" y="169.43" width="27.9" height="2.63"/><rect class="cls-4" x="161.34" y="169.43" width="1.78" height="2.63"/><rect class="cls-4" x="155.7" y="169.43" width="1.78" height="2.63"/><rect class="cls-4" x="150.06" y="169.43" width="1.78" height="2.63"/><rect class="cls-4" x="172.62" y="169.43" width="1.78" height="2.63"/><rect class="cls-4" x="166.98" y="169.43" width="1.78" height="2.63"/><rect class="cls-3" x="147.44" y="172.06" width="27.9" height="2.63"/><rect class="cls-4" x="160.5" y="172.06" width="1.78" height="2.63"/><rect class="cls-4" x="154.87" y="172.06" width="1.78" height="2.63"/><rect class="cls-4" x="149.23" y="172.06" width="1.78" height="2.63"/><rect class="cls-4" x="171.79" y="172.06" width="1.78" height="2.63"/><rect class="cls-4" x="166.15" y="172.06" width="1.78" height="2.63"/><rect class="cls-3" x="146.19" y="174.69" width="27.9" height="2.63"/><rect class="cls-4" x="159.26" y="174.69" width="1.78" height="2.63"/><rect class="cls-4" x="153.62" y="174.69" width="1.78" height="2.63"/><rect class="cls-4" x="147.98" y="174.69" width="1.78" height="2.63"/><rect class="cls-4" x="170.54" y="174.69" width="1.78" height="2.63"/><rect class="cls-4" x="164.9" y="174.69" width="1.78" height="2.63"/><rect class="cls-3" x="147.03" y="177.32" width="27.9" height="2.63"/><rect class="cls-4" x="160.09" y="177.32" width="1.78" height="2.63"/><rect class="cls-4" x="154.45" y="177.32" width="1.78" height="2.63"/><rect class="cls-4" x="148.81" y="177.32" width="1.78" height="2.63"/><rect class="cls-4" x="171.37" y="177.32" width="1.78" height="2.63"/><rect class="cls-4" x="165.74" y="177.32" width="1.78" height="2.63"/><rect class="cls-3" x="114" y="158.91" width="27.9" height="2.63"/><rect class="cls-4" x="127.07" y="158.91" width="1.78" height="2.63"/><rect class="cls-4" x="121.43" y="158.91" width="1.78" height="2.63"/><rect class="cls-4" x="115.79" y="158.91" width="1.78" height="2.63"/><rect class="cls-4" x="138.35" y="158.91" width="1.78" height="2.63"/><rect class="cls-4" x="132.72" y="158.91" width="1.78" height="2.63"/><rect class="cls-3" x="113.17" y="161.54" width="27.9" height="2.63"/><rect class="cls-4" x="126.24" y="161.54" width="1.78" height="2.63"/><rect class="cls-4" x="120.6" y="161.54" width="1.78" height="2.63"/><rect class="cls-4" x="114.96" y="161.54" width="1.78" height="2.63"/><rect class="cls-4" x="137.52" y="161.54" width="1.78" height="2.63"/><rect class="cls-4" x="131.88" y="161.54" width="1.78" height="2.63"/><rect class="cls-3" x="114" y="164.17" width="27.9" height="2.63"/><rect class="cls-4" x="127.07" y="164.17" width="1.78" height="2.63"/><rect class="cls-4" x="121.43" y="164.17" width="1.78" height="2.63"/><rect class="cls-4" x="115.79" y="164.17" width="1.78" height="2.63"/><rect class="cls-4" x="138.35" y="164.17" width="1.78" height="2.63"/><rect class="cls-4" x="132.72" y="164.17" width="1.78" height="2.63"/><rect class="cls-3" x="114.42" y="166.8" width="27.9" height="2.63"/><rect class="cls-4" x="127.48" y="166.8" width="1.78" height="2.63"/><rect class="cls-4" x="121.85" y="166.8" width="1.78" height="2.63"/><rect class="cls-4" x="116.21" y="166.8" width="1.78" height="2.63"/><rect class="cls-4" x="138.77" y="166.8" width="1.78" height="2.63"/><rect class="cls-4" x="133.13" y="166.8" width="1.78" height="2.63"/><rect class="cls-3" x="115.25" y="169.43" width="27.9" height="2.63"/><rect class="cls-4" x="128.32" y="169.43" width="1.78" height="2.63"/><rect class="cls-4" x="122.68" y="169.43" width="1.78" height="2.63"/><rect class="cls-4" x="117.04" y="169.43" width="1.78" height="2.63"/><rect class="cls-4" x="139.6" y="169.43" width="1.78" height="2.63"/><rect class="cls-4" x="133.96" y="169.43" width="1.78" height="2.63"/><rect class="cls-3" x="114.42" y="172.06" width="27.9" height="2.63"/><rect class="cls-4" x="127.48" y="172.06" width="1.78" height="2.63"/><rect class="cls-4" x="121.85" y="172.06" width="1.78" height="2.63"/><rect class="cls-4" x="116.21" y="172.06" width="1.78" height="2.63"/><rect class="cls-4" x="138.77" y="172.06" width="1.78" height="2.63"/><rect class="cls-4" x="133.13" y="172.06" width="1.78" height="2.63"/><rect class="cls-3" x="113.17" y="174.69" width="27.9" height="2.63"/><rect class="cls-4" x="126.24" y="174.69" width="1.78" height="2.63"/><rect class="cls-4" x="120.6" y="174.69" width="1.78" height="2.63"/><rect class="cls-4" x="114.96" y="174.69" width="1.78" height="2.63"/><rect class="cls-4" x="137.52" y="174.69" width="1.78" height="2.63"/><rect class="cls-4" x="131.88" y="174.69" width="1.78" height="2.63"/><rect class="cls-3" x="114" y="177.32" width="27.9" height="2.63"/><rect class="cls-4" x="127.07" y="177.32" width="1.78" height="2.63"/><rect class="cls-4" x="121.43" y="177.32" width="1.78" height="2.63"/><rect class="cls-4" x="115.79" y="177.32" width="1.78" height="2.63"/><rect class="cls-4" x="138.35" y="177.32" width="1.78" height="2.63"/><rect class="cls-4" x="132.72" y="177.32" width="1.78" height="2.63"/><rect class="cls-3" x="151.86" y="156.28" width="27.9" height="2.63"/><rect class="cls-4" x="164.92" y="156.28" width="1.78" height="2.63"/><rect class="cls-4" x="159.28" y="156.28" width="1.78" height="2.63"/><rect class="cls-4" x="153.64" y="156.28" width="1.78" height="2.63"/><rect class="cls-4" x="176.21" y="156.28" width="1.78" height="2.63"/><rect class="cls-4" x="170.57" y="156.28" width="1.78" height="2.63"/><rect class="cls-3" x="151.03" y="153.65" width="27.9" height="2.63"/><rect class="cls-4" x="164.09" y="153.65" width="1.78" height="2.63"/><rect class="cls-4" x="158.45" y="153.65" width="1.78" height="2.63"/><rect class="cls-4" x="152.81" y="153.65" width="1.78" height="2.63"/><rect class="cls-4" x="175.37" y="153.65" width="1.78" height="2.63"/><rect class="cls-4" x="169.74" y="153.65" width="1.78" height="2.63"/><rect class="cls-3" x="151.86" y="151.02" width="27.9" height="2.63"/><rect class="cls-4" x="164.92" y="151.02" width="1.78" height="2.63"/><rect class="cls-4" x="159.28" y="151.02" width="1.78" height="2.63"/><rect class="cls-4" x="153.64" y="151.02" width="1.78" height="2.63"/><rect class="cls-4" x="176.21" y="151.02" width="1.78" height="2.63"/><rect class="cls-4" x="170.57" y="151.02" width="1.78" height="2.63"/><rect class="cls-3" x="152.27" y="148.39" width="27.9" height="2.63"/><rect class="cls-4" x="165.34" y="148.39" width="1.78" height="2.63"/><rect class="cls-4" x="159.7" y="148.39" width="1.78" height="2.63"/><rect class="cls-4" x="154.06" y="148.39" width="1.78" height="2.63"/><rect class="cls-4" x="176.62" y="148.39" width="1.78" height="2.63"/><rect class="cls-4" x="170.98" y="148.39" width="1.78" height="2.63"/><rect class="cls-3" x="149.4" y="145.76" width="27.9" height="2.63"/><rect class="cls-4" x="162.46" y="145.76" width="1.78" height="2.63"/><rect class="cls-4" x="156.82" y="145.76" width="1.78" height="2.63"/><rect class="cls-4" x="151.18" y="145.76" width="1.78" height="2.63"/><rect class="cls-4" x="173.75" y="145.76" width="1.78" height="2.63"/><rect class="cls-4" x="168.11" y="145.76" width="1.78" height="2.63"/><path class="cls-5" d="M382.61,170.32a1.51,1.51,0,0,0-1.9,1,1.54,1.54,0,0,0,0,1,42.87,42.87,0,0,0-3.51,3.91,23.27,23.27,0,0,0,.23-5.59,1.52,1.52,0,1,0-1.08,0l.27.07a25,25,0,0,1-.5,6.88A65.3,65.3,0,0,0,367.45,194l.77.26a60.81,60.81,0,0,1,3.35-7.69c.67-1.31,1.49-2.8,2.46-4.37a16.16,16.16,0,0,1,5.62-.23,1.5,1.5,0,1,0,2-1.5,1.53,1.53,0,0,0-1.79.71,17.33,17.33,0,0,0-5.2.07,48.57,48.57,0,0,1,6.63-8.32,1.4,1.4,0,0,0,.42.22,1.51,1.51,0,1,0,.93-2.87Z"/><path class="cls-5" d="M368.46,176.12a1.51,1.51,0,1,0,1.4-2,1.49,1.49,0,0,0-1.47,1.23,17.26,17.26,0,0,0-4.91,1.72,48.43,48.43,0,0,1,3.64-10,1.49,1.49,0,0,0,.47.07,1.51,1.51,0,1,0-1.52-1.5,1.47,1.47,0,0,0,.37,1,42.29,42.29,0,0,0-2.09,4.82,23.26,23.26,0,0,0-1.56-5.37,1.54,1.54,0,0,0,.49-1.13,1.51,1.51,0,1,0-1.5,1.52,1.27,1.27,0,0,0,.28,0,24.94,24.94,0,0,1,1.71,6.69,64.78,64.78,0,0,0-3,18.31h.81a60.85,60.85,0,0,1,.74-8.36c.22-1.45.52-3.12.94-4.92a12.85,12.85,0,0,1,1.5-.79A17.17,17.17,0,0,1,368.46,176.12Z"/><path class="cls-6" d="M99.06,127.76c-2.08,4.59-7.09,6.8-7.09,6.8s-1.63-5.22.46-9.81,7.09-6.81,7.09-6.81S101.15,123.17,99.06,127.76Z"/><path class="cls-6" d="M109,148.21c-2.82,4.18-8.12,5.53-8.12,5.53s-.74-5.43,2.08-9.61,8.12-5.53,8.12-5.53S111.82,144,109,148.21Z"/><path class="cls-6" d="M79.35,113.39c3.39,3.73,3.45,9.2,3.45,9.2S77.36,122,74,118.3s-3.45-9.2-3.45-9.2S76,109.67,79.35,113.39Z"/><path class="cls-6" d="M83.18,130.83c5,.19,9,4,9,4s-4.22,3.49-9.25,3.31-9-4-9-4S78.14,130.65,83.18,130.83Z"/><path class="cls-6" d="M91.85,149.65c5,.18,9,4,9,4s-4.22,3.5-9.25,3.31-9-4-9-4S86.81,149.47,91.85,149.65Z"/><path class="cls-6" d="M109.29,193.72h-1a139,139,0,0,0-3.86-27.06,118.75,118.75,0,0,0-8.48-24.08,77.07,77.07,0,0,0-16.07-22.44l.7-.75a77.93,77.93,0,0,1,16.3,22.76,119.27,119.27,0,0,1,8.55,24.3A140,140,0,0,1,109.29,193.72Z"/><path class="cls-6" d="M68.26,151.76a12,12,0,0,1-2.74,7.15,10.32,10.32,0,0,1-.2-14.22A12.07,12.07,0,0,1,68.26,151.76Z"/><path class="cls-6" d="M82.06,162.86a12,12,0,0,1-3.88,6.6,10.33,10.33,0,0,1,2.15-14.06A12,12,0,0,1,82.06,162.86Z"/><path class="cls-6" d="M49.59,148.18a12.07,12.07,0,0,1,5.49,5.34,12.06,12.06,0,0,1-7.66-.09,12,12,0,0,1-5.49-5.33A12.11,12.11,0,0,1,49.59,148.18Z"/><path class="cls-6" d="M58.09,159.2a12.06,12.06,0,0,1,7.65-.18,12,12,0,0,1-5.42,5.4,12,12,0,0,1-7.65.19A12.08,12.08,0,0,1,58.09,159.2Z"/><path class="cls-6" d="M70.45,169.58a12.08,12.08,0,0,1,7.66-.18,12,12,0,0,1-5.42,5.4A12,12,0,0,1,65,175,12.08,12.08,0,0,1,70.45,169.58Z"/><path class="cls-6" d="M97.4,194.85l-.72.35A108.44,108.44,0,0,0,85,177.41a92.51,92.51,0,0,0-14-14.16,60,60,0,0,0-18.79-10.48l.25-.76a60.75,60.75,0,0,1,19,10.63A92.72,92.72,0,0,1,85.6,176.92,108.48,108.48,0,0,1,97.4,194.85Z"/><path class="cls-6" d="M293,60.82l0,0,0-.08.15-.35,0-.09c0-.12.1-.24.14-.36s0,0,0-.08h0a.36.36,0,0,1,0-.09,1.43,1.43,0,0,1,.08-.22v0l0,0,.08-.23,0-.09h0l0-.09.12-.36,0-.09c0-.12.07-.24.11-.36l0-.09V58l2.36,0,1.76,0a14.54,14.54,0,0,0,.46-2,14.24,14.24,0,0,0,.16-2l-1.67-.56-2.23-.75V52c0-.12,0-.25,0-.38v-.08a.91.91,0,0,0,0-.17v-.25c0-.13,0-.26,0-.39v-.09c0-.13,0-.26,0-.38v-.12l2.17-.92,1.63-.68a14.5,14.5,0,0,0-.32-2,13.79,13.79,0,0,0-.6-2l-1.77.1-2.35.14a.43.43,0,0,0,0,0l0-.09a3.65,3.65,0,0,0-.14-.35l0-.09-.15-.35,0-.09h0a.36.36,0,0,1,0-.09l-.1-.21,0,0a.05.05,0,0,0,0,0l0-.09a.61.61,0,0,1-.05-.12l-.05-.1h0l0-.09-.17-.34a.56.56,0,0,0-.05-.08,3.59,3.59,0,0,0-.17-.34.56.56,0,0,0,0-.08l0-.05,1.63-1.69,1.23-1.27A13.28,13.28,0,0,0,294,37.42a14.21,14.21,0,0,0-1.33-1.56l-1.58.79L289,37.7l0,0a.46.46,0,0,1-.07-.07l-.27-.27-.06-.06-.28-.27-.06-.06-.12-.11-.13-.12-.06,0-.29-.26-.07-.06-.29-.25-.07-.06,0,0,.89-2.17.66-1.64a13.7,13.7,0,0,0-3.46-2.16l-1.18,1.32-1.56,1.75-.05,0-.08,0-.36-.16-.08,0-.36-.15-.08,0h0l-.09,0-.23-.08,0,0h0l-.23-.08-.09,0h0l-.09,0-.36-.12-.09,0-.36-.12-.09,0,0,0,0-2.35,0-1.76a13.21,13.21,0,0,0-2-.46,12.93,12.93,0,0,0-2-.16L275.12,29l-.75,2.23h-.12c-.13,0-.26,0-.38,0h-1l-.39,0h-.09l-.39,0h-.11L271,29.19l-.68-1.63a12.82,12.82,0,0,0-2,.31,14,14,0,0,0-2,.61l.1,1.76.14,2.35-.05,0-.09,0-.35.14-.09,0-.36.15-.08,0h0l-.09,0-.21.09,0,0h0l0,0-.22.1-.09,0h0l-.08,0-.34.17-.08,0-.34.18-.08,0-.05,0-1.69-1.64L260.91,31a13.32,13.32,0,0,0-3.29,2.41L258.4,35l1.05,2.11,0,0-.06.06-.28.27-.06.07-.27.28-.06,0-.11.13-.12.12-.05.06-.26.29-.06.07-.25.3-.06.06,0,0L255.6,38,254,37.32A13.58,13.58,0,0,0,252.75,39a13,13,0,0,0-.95,1.81L253.12,42l1.75,1.57,0,0a.36.36,0,0,1,0,.09l-.15.35,0,.09-.15.35,0,.09h0a.42.42,0,0,0,0,.1l-.09.22v0l0,0-.08.22,0,.1h0l0,.08c0,.12-.09.24-.12.37l0,.08-.12.37,0,.09s0,0,0,.05l-2.35,0-1.76,0a12.94,12.94,0,0,0-.46,2,14,14,0,0,0-.17,2l1.68.56,2.23.75v.11c0,.13,0,.26,0,.39s0,.06,0,.09v.47a.91.91,0,0,1,0,.17c0,.06,0,.11,0,.17v.08c0,.13,0,.26,0,.39a.25.25,0,0,1,0,.08l0,.39v.12l-2.17.91-1.62.69a12.82,12.82,0,0,0,.31,2,14.38,14.38,0,0,0,.61,2l1.76-.11,2.35-.13,0,0,0,.08.14.36a.2.2,0,0,0,0,.08c.05.12.09.24.15.36l0,.08h0a.36.36,0,0,0,0,.09l.09.22a.05.05,0,0,1,0,0l0,0,0,.09.06.12,0,.09h0a.3.3,0,0,0,0,.08c0,.12.11.23.17.35l0,.08.18.34,0,.08,0,0-1.64,1.7-1.22,1.27a15,15,0,0,0,1.08,1.73,14.38,14.38,0,0,0,1.33,1.56l1.58-.78,2.11-1h0l.06.07.27.27a.23.23,0,0,0,.07.07l.28.27s0,0,.05,0l.13.12.12.12.06.05.29.26.07,0,.29.26a.18.18,0,0,1,.07,0l0,0-.88,2.18-.67,1.64a13.52,13.52,0,0,0,1.66,1.2,14.26,14.26,0,0,0,1.81,1L263.71,73l1.57-1.76,0,0,.09,0,.35.15.09,0,.35.14.09,0h0l.1,0,.22.08h0l0,0,.22.08.1,0h0l.08,0,.37.12.08,0,.37.11.09,0h.05l0,2.36,0,1.76a14.54,14.54,0,0,0,2,.46,14,14,0,0,0,2,.16l.56-1.67.75-2.23H275l.39,0h.09l.38,0h.12l.91,2.17.69,1.63a14.13,14.13,0,0,0,2-.32,14.34,14.34,0,0,0,2-.6l-.11-1.77-.13-2.35h0l.1,0,.35-.14.09,0,.35-.15.09,0h0l.1,0,.21-.1,0,0h0l.21-.1.09,0h0l.08,0,.35-.17a.2.2,0,0,1,.08,0l.34-.18.08,0,0,0,1.7,1.63,1.27,1.23a13.87,13.87,0,0,0,1.73-1.09A13.34,13.34,0,0,0,290.23,71l-.79-1.57-1.05-2.11,0,0,.07-.07.27-.27.07-.06.27-.28.05-.06.12-.12.11-.13.06-.06.26-.29.06-.07.24-.29.06-.07,0,0,2.18.89,1.63.66a12.5,12.5,0,0,0,1.21-1.65,15.76,15.76,0,0,0,1-1.81l-1.32-1.18Zm-9.42-2.65a11.35,11.35,0,1,1,.65-10.8A11.34,11.34,0,0,1,283.55,58.17Z"/><path class="cls-5" d="M328.2,66.12l-3-.61a14,14,0,0,0-.2-2l2.81-1.22a.45.45,0,0,0,.25-.55l-.6-1.84a.45.45,0,0,0-.53-.3l-3,.66a12.38,12.38,0,0,0-1-1.69L325,56.36a.45.45,0,0,0,0-.6l-1.3-1.44a.45.45,0,0,0-.6-.06l-2.46,1.82a14,14,0,0,0-1.59-1.15l1-2.9a.46.46,0,0,0-.24-.56l-1.77-.78a.44.44,0,0,0-.58.19L316,53.54a13.34,13.34,0,0,0-1.92-.4l-.29-3a.46.46,0,0,0-.45-.41h-1.93a.45.45,0,0,0-.45.41l-.29,3a13.34,13.34,0,0,0-1.92.4l-1.5-2.66a.45.45,0,0,0-.58-.19l-1.77.78a.45.45,0,0,0-.24.56l1,2.9A14.81,14.81,0,0,0,304,56.08l-2.46-1.82a.45.45,0,0,0-.6.06l-1.3,1.44a.45.45,0,0,0,0,.6l2.07,2.26a14.87,14.87,0,0,0-1,1.69l-3-.66a.45.45,0,0,0-.52.3l-.6,1.84a.45.45,0,0,0,.25.55l2.81,1.22a14,14,0,0,0-.2,2l-3,.61a.43.43,0,0,0-.35.48l.2,1.93a.44.44,0,0,0,.45.4l3.06,0a12.78,12.78,0,0,0,.61,1.87L298,72.54a.46.46,0,0,0-.13.59l1,1.68a.47.47,0,0,0,.58.19l2.79-1.28a12,12,0,0,0,1.31,1.45l-1.56,2.65a.44.44,0,0,0,.12.59l1.57,1.14a.46.46,0,0,0,.6-.07l2-2.29A12.47,12.47,0,0,0,308,78l-.35,3a.45.45,0,0,0,.35.5l1.89.4a.46.46,0,0,0,.53-.31l.92-2.92c.32,0,.64,0,1,0s.66,0,1,0l.92,2.92a.45.45,0,0,0,.52.31l1.9-.4A.46.46,0,0,0,317,81l-.35-3a12.47,12.47,0,0,0,1.79-.79l2,2.29a.46.46,0,0,0,.6.07l1.57-1.14a.45.45,0,0,0,.12-.59l-1.56-2.65a12.89,12.89,0,0,0,1.31-1.45L325.32,75a.47.47,0,0,0,.58-.19l1-1.68a.45.45,0,0,0-.12-.59l-2.5-1.77a11.66,11.66,0,0,0,.6-1.87l3.07,0a.44.44,0,0,0,.45-.4l.2-1.93A.43.43,0,0,0,328.2,66.12Zm-24.72-.25A8.88,8.88,0,0,1,311.83,57v6.13a2.78,2.78,0,0,0-2.26,2.73,2.84,2.84,0,0,0,.09.72l-5.33,3.08A8.78,8.78,0,0,1,303.48,65.87Zm7.17,0a1.71,1.71,0,1,1,1.7,1.71A1.7,1.7,0,0,1,310.65,65.87Zm2.23-2.73V57a8.89,8.89,0,0,1,7.4,12.87L315,66.82a2.71,2.71,0,0,0,.17-.95A2.78,2.78,0,0,0,312.88,63.14Zm-8.05,7.45,5.29-3a2.79,2.79,0,0,0,4.32.18l5.31,3.07a8.89,8.89,0,0,1-14.92-.2Z"/><path class="cls-7" d="M408.73,70.4a12.31,12.31,0,0,1,11.83,8.91H396.9A12.31,12.31,0,0,1,408.73,70.4Z"/><path class="cls-7" d="M351.09,66.18a18.13,18.13,0,0,1,17.42,13.13H333.66A18.14,18.14,0,0,1,351.09,66.18Z"/><path class="cls-7" d="M405.15,79.31c-2.67-9.24-13.26-16.14-25.91-16.14S356,70.07,353.33,79.31Z"/><path class="cls-6" d="M386.9,75.85a10.59,10.59,0,0,1,10.17,7.67H376.73A10.58,10.58,0,0,1,386.9,75.85Z"/><path class="cls-6" d="M398.8,78.23a7.31,7.31,0,0,1,7,5.29h-14A7.3,7.3,0,0,1,398.8,78.23Z"/><path class="cls-6" d="M383.67,83.52c-1.36-4.73-6.77-8.26-13.24-8.26s-11.89,3.53-13.25,8.26Z"/><path class="cls-1" d="M177.6,171.68a34.86,34.86,0,0,1,33.51,25.26h-67A34.86,34.86,0,0,1,177.6,171.68Z"/><path class="cls-1" d="M216.82,179.51a24,24,0,0,1,23.12,17.43H193.69A24.06,24.06,0,0,1,216.82,179.51Z"/><path class="cls-1" d="M167,196.94c-4.5-15.57-22.34-27.21-43.66-27.21s-39.16,11.64-43.66,27.21Z"/><path class="cls-8" d="M340.8,211.93h-223a7.47,7.47,0,0,1,0-14.93h223a7.47,7.47,0,0,1,0,14.93Z"/><path class="cls-7" d="M121.13,193.89a8.28,8.28,0,0,1,8,6h-15.9A8.28,8.28,0,0,1,121.13,193.89Z"/><path class="cls-7" d="M82.38,191.06a12.18,12.18,0,0,1,11.71,8.83H70.67A12.18,12.18,0,0,1,82.38,191.06Z"/><path class="cls-7" d="M118.72,199.89c-1.79-6.22-8.91-10.86-17.41-10.86s-15.63,4.64-17.42,10.86Z"/><path class="cls-2" d="M372,189.13A11.52,11.52,0,0,1,383,197.47H360.9A11.5,11.5,0,0,1,372,189.13Z"/><path class="cls-2" d="M318.06,185.19a16.94,16.94,0,0,1,16.29,12.28H301.77A17,17,0,0,1,318.06,185.19Z"/><path class="cls-2" d="M368.61,197.47c-2.5-8.64-12.39-15.1-24.22-15.1s-21.73,6.46-24.23,15.1Z"/><path class="cls-9" d="M150.38,17.68a8.18,8.18,0,0,1,7.87,5.93H142.5A8.19,8.19,0,0,1,150.38,17.68Z"/><path class="cls-9" d="M159.59,19.51a5.65,5.65,0,0,1,5.43,4.1H154.16A5.65,5.65,0,0,1,159.59,19.51Z"/><path class="cls-9" d="M147.88,23.61c-1.06-3.66-5.25-6.39-10.26-6.39s-9.2,2.73-10.26,6.39Z"/><path class="cls-10" d="M169.58,191.84a10.58,10.58,0,0,1,10.17,7.66H159.42A10.57,10.57,0,0,1,169.58,191.84Z"/><path class="cls-10" d="M181.48,194.21a7.3,7.3,0,0,1,7,5.29h-14A7.3,7.3,0,0,1,181.48,194.21Z"/><path class="cls-7" d="M108.7,38.78a15,15,0,0,1,14.39,10.85H94.3A15,15,0,0,1,108.7,38.78Z"/><path class="cls-7" d="M38.53,33.64a22.07,22.07,0,0,1,21.21,16H17.33A22.06,22.06,0,0,1,38.53,33.64Z"/><path class="cls-7" d="M104.34,49.63C101.09,38.38,88.21,30,72.8,30S44.52,38.38,41.26,49.63Z"/><rect class="cls-11" x="126.62" y="103.95" width="4.51" height="22.49" transform="translate(257.76 230.38) rotate(180)"/><polygon class="cls-11" points="128.88 133.95 134.47 122.45 123.29 122.45 128.88 133.95"/><rect class="cls-6" x="115.77" y="111.46" width="4.51" height="22.49"/><polygon class="cls-6" points="118.03 103.95 112.43 115.44 123.62 115.44 118.03 103.95"/><path class="cls-12" d="M333.94,126.19c.38.14.75.29,1.1.46a17.6,17.6,0,0,1,3.87,2.37,19.08,19.08,0,0,1,1.75,1.61,18.58,18.58,0,0,1,2.75,3.8,22.26,22.26,0,0,1,1,2.17,17.85,17.85,0,0,1,1.05,4.41,17.1,17.1,0,0,1,.1,2.38,17.29,17.29,0,0,1-.75,4.63c-.1.38-.23.75-.37,1.13s-.29.75-.46,1.1a17.6,17.6,0,0,1-2.37,3.87,19.08,19.08,0,0,1-1.61,1.75,18.58,18.58,0,0,1-3.8,2.75,22.26,22.26,0,0,1-2.17,1,17.85,17.85,0,0,1-4.41,1,17.1,17.1,0,0,1-2.38.1,17.29,17.29,0,0,1-4.63-.75c-.38-.11-.75-.23-1.13-.37s-.75-.29-1.1-.46a17.6,17.6,0,0,1-3.87-2.37,19.08,19.08,0,0,1-1.75-1.61,18.37,18.37,0,0,1-2.75-3.81,21.07,21.07,0,0,1-1-2.16,17.85,17.85,0,0,1-1.05-4.41,17.1,17.1,0,0,1-.1-2.38,17.29,17.29,0,0,1,.75-4.63c.11-.38.23-.76.37-1.13s.29-.75.46-1.1a17.6,17.6,0,0,1,2.37-3.87,19.08,19.08,0,0,1,1.61-1.75,18.37,18.37,0,0,1,3.81-2.75,21.07,21.07,0,0,1,2.16-1,17.85,17.85,0,0,1,4.41-1,17.1,17.1,0,0,1,2.38-.1,17.29,17.29,0,0,1,4.63.75A11.47,11.47,0,0,1,333.94,126.19Z"/><path class="cls-13" d="M330.94,137.65l6.36-6.89,1.61-1.74a19.08,19.08,0,0,1,1.75,1.61l-1.61,1.74-6.45,7,10.81-4.94a22.26,22.26,0,0,1,1,2.17l-2.15,1-8.53,3.9,9.37-.38,2.36-.09a17.1,17.1,0,0,1,.1,2.38l-2.36.09-9.52.39L344.8,148c-.1.38-.23.75-.37,1.13s-.29.75-.46,1.1l-11-4.1,6.9,6.36,1.73,1.61a19.08,19.08,0,0,1-1.61,1.75l-1.74-1.6-7-6.47,3.95,8.67,1,2.15a22.26,22.26,0,0,1-2.17,1l-1-2.15-3.9-8.53.38,9.37.09,2.36a17.1,17.1,0,0,1-2.38.1l-.09-2.36-.39-9.52L322.6,160c-.38-.11-.75-.23-1.13-.37s-.75-.29-1.1-.46l4.1-11-6.36,6.9-1.61,1.73a19.08,19.08,0,0,1-1.75-1.61l1.6-1.74,6.46-7-8.66,4-2.15,1a21.07,21.07,0,0,1-1-2.16l10.68-4.88-9.37.38-2.36.09a17.1,17.1,0,0,1-.1-2.38l2.36-.09,9.52-.39-11.13-4.15c.11-.38.23-.76.37-1.13s.29-.75.46-1.1l11,4.1-6.9-6.36-1.73-1.61a19.08,19.08,0,0,1,1.61-1.75l1.74,1.61,7,6.45-4-8.66-1-2.15a21.07,21.07,0,0,1,2.16-1l1,2.15,3.9,8.54-.38-9.38-.09-2.36a17.1,17.1,0,0,1,2.38-.1l.1,2.36.38,9.52,4.15-11.13a11.47,11.47,0,0,1,1.13.37c.38.14.75.29,1.1.46Z"/><circle class="cls-14" cx="327.71" cy="142.92" r="15.49"/><circle class="cls-13" cx="327.71" cy="142.92" r="14.62"/><path class="cls-14" d="M331.79,150.93l.66,2.62-3.34.84-.63-2.51a14.39,14.39,0,0,1-6.5-.13l.78-4.53a11.59,11.59,0,0,0,5.85.15c1.58-.4,2.07-.87,1.93-1.44-.52-2.08-9.27,1.89-10.82-4.29-.67-2.67.71-5.41,4.46-6.93l-.65-2.58,3.34-.83.64,2.53a12.8,12.8,0,0,1,5.15.17l-.67,4.47a10.58,10.58,0,0,0-4.93-.08c-1.63.41-2,1-1.89,1.59.5,2,9.25-2,10.78,4.14C336.59,146.68,335.3,149.37,331.79,150.93Z"/><path class="cls-12" d="M352.69,157c.22.34.42.69.61,1a18,18,0,0,1,1.64,4.23,16.85,16.85,0,0,1,.41,2.34,17.52,17.52,0,0,1-.11,4.69,18.65,18.65,0,0,1-.52,2.33,18,18,0,0,1-1.83,4.14,16.22,16.22,0,0,1-1.36,1.95,17.18,17.18,0,0,1-3.4,3.24,11.27,11.27,0,0,1-1,.67c-.34.22-.68.42-1,.61a17.9,17.9,0,0,1-4.22,1.64,17.25,17.25,0,0,1-2.35.41,17.52,17.52,0,0,1-4.69-.11,18.11,18.11,0,0,1-2.32-.52,17.84,17.84,0,0,1-4.15-1.83,16.22,16.22,0,0,1-1.95-1.36,17.18,17.18,0,0,1-3.24-3.4,11.27,11.27,0,0,1-.67-1c-.22-.34-.42-.68-.6-1a17.51,17.51,0,0,1-1.65-4.22,17.25,17.25,0,0,1-.41-2.35,17.86,17.86,0,0,1,2.46-11.16,16.22,16.22,0,0,1,1.36-2,17.46,17.46,0,0,1,3.4-3.24,11.27,11.27,0,0,1,1-.67c.34-.22.69-.42,1-.6a17.58,17.58,0,0,1,4.23-1.65,16.85,16.85,0,0,1,2.34-.41,17.94,17.94,0,0,1,4.69.11,18.65,18.65,0,0,1,2.33.52,18,18,0,0,1,4.14,1.83,16.22,16.22,0,0,1,1.95,1.36A17.46,17.46,0,0,1,352,156,11.27,11.27,0,0,1,352.69,157Z"/><path class="cls-13" d="M343.38,164.26l9.23-1.64,2.33-.41a16.85,16.85,0,0,1,.41,2.34L353,165l-9.38,1.67,11.59,2.61a18.65,18.65,0,0,1-.52,2.33l-2.3-.52L343.27,169l7.68,5.37,1.94,1.35a16.22,16.22,0,0,1-1.36,1.95l-1.93-1.34-7.82-5.46,6.35,10a11.27,11.27,0,0,1-1,.67c-.34.22-.68.42-1,.61l-6.27-9.92,1.64,9.23.41,2.33a17.25,17.25,0,0,1-2.35.41l-.42-2.32-1.66-9.38-2.09,9.29-.52,2.3a18.11,18.11,0,0,1-2.32-.52l.51-2.3,2.06-9.15-5.37,7.69-1.35,1.93a16.22,16.22,0,0,1-1.95-1.36l1.35-1.93,5.45-7.82-10,6.35a11.27,11.27,0,0,1-.67-1c-.22-.34-.42-.68-.6-1l9.92-6.27-9.24,1.64-2.33.41a17.25,17.25,0,0,1-.41-2.35l2.32-.42,9.38-1.66-9.29-2.09-2.3-.52a18.11,18.11,0,0,1,.52-2.32L332,164l-7.69-5.36-1.93-1.36a16.22,16.22,0,0,1,1.36-2l1.93,1.35,7.82,5.45-6.35-10a11.27,11.27,0,0,1,1-.67c.34-.22.69-.42,1-.6l6.28,9.92-1.64-9.24-.41-2.33a16.85,16.85,0,0,1,2.34-.41l.41,2.33,1.67,9.37,2.09-9.29.52-2.3a18.65,18.65,0,0,1,2.33.52l-.52,2.31-2.06,9.15,5.36-7.69,1.36-1.94a16.22,16.22,0,0,1,1.95,1.36l-1.35,1.94L342,162.32,352,156a11.27,11.27,0,0,1,.67,1c.22.34.42.69.61,1Z"/><circle class="cls-14" cx="337.61" cy="166.49" r="15.49"/><circle class="cls-13" cx="337.61" cy="166.49" r="14.62"/><path class="cls-14" d="M336,175.34,335,177.83l-3.17-1.35,1-2.38a14.43,14.43,0,0,1-5.09-4l3.35-3.13a11.72,11.72,0,0,0,4.57,3.65c1.51.65,2.18.56,2.41,0,.85-2-8.52-4.09-6-9.95,1.08-2.54,3.83-3.88,7.74-2.82l1-2.45,3.17,1.36-1,2.4a12.61,12.61,0,0,1,4,3.25l-3.24,3.15a10.71,10.71,0,0,0-3.87-3c-1.55-.66-2.24-.42-2.47.12-.81,1.88,8.55,4,6.07,9.82C342.4,174.86,339.75,176.22,336,175.34Z"/><path class="cls-6" d="M76,45.08a15.14,15.14,0,0,1,14.56,11H61.43A15.16,15.16,0,0,1,76,45.08Z"/><path class="cls-6" d="M93,48.49a10.44,10.44,0,0,1,10,7.57H83A10.46,10.46,0,0,1,93,48.49Z"/><path class="cls-6" d="M71.38,56.06c-2-6.77-9.71-11.82-19-11.82s-17,5-19,11.82Z"/><polygon class="cls-5" points="133.52 204.18 153.25 204.2 159.36 167.06 127.48 167.03 133.52 204.18"/><path class="cls-5" d="M127.52,189.6a6.25,6.25,0,0,1-1.61-.71,10.91,10.91,0,0,1-3.76-4.13,8.53,8.53,0,0,1-1.21-5,4.3,4.3,0,0,1,6.27-3.44A8.49,8.49,0,0,1,130.8,180a11,11,0,0,1,1.46,5.4,4.32,4.32,0,0,1-2,3.92A3.67,3.67,0,0,1,127.52,189.6Zm-1.63-12a2.57,2.57,0,0,0-1.93.21,2.68,2.68,0,0,0-1.36,2.14,6.93,6.93,0,0,0,1,4h0a9.25,9.25,0,0,0,3.15,3.5c1.43.87,2.31.63,2.71.41s1.07-.83,1.11-2.49a9.35,9.35,0,0,0-1.25-4.55,6.91,6.91,0,0,0-2.85-3A3.63,3.63,0,0,0,125.89,177.58Z"/><rect class="cls-15" x="141.95" y="172.11" width="12.11" height="0.67" transform="translate(-24.59 320.28) rotate(-89.94)"/><polygon class="cls-16" points="145.75 176.83 150.26 176.83 151.97 178.62 151.96 185.87 144.27 185.86 144.28 178.61 145.75 176.83"/><line class="cls-17" x1="163.17" y1="36.1" x2="207.55" y2="19.62"/><line class="cls-17" x1="164.6" y1="39.95" x2="208.98" y2="23.47"/><line class="cls-17" x1="166.03" y1="43.81" x2="210.41" y2="27.32"/><line class="cls-17" x1="167.46" y1="47.66" x2="211.84" y2="31.18"/><line class="cls-17" x1="168.89" y1="51.51" x2="213.27" y2="35.03"/><line class="cls-17" x1="170.32" y1="55.36" x2="214.7" y2="38.88"/><line class="cls-17" x1="171.75" y1="59.21" x2="216.13" y2="42.73"/><line class="cls-17" x1="173.18" y1="63.06" x2="217.56" y2="46.58"/><line class="cls-17" x1="174.61" y1="66.91" x2="218.99" y2="50.43"/><line class="cls-17" x1="176.04" y1="70.76" x2="220.42" y2="54.28"/><line class="cls-17" x1="177.47" y1="74.61" x2="221.85" y2="58.13"/><line class="cls-17" x1="202.62" y1="15.35" x2="220.91" y2="64.59"/><line class="cls-17" x1="198.77" y1="16.78" x2="217.06" y2="66.02"/><line class="cls-17" x1="194.92" y1="18.21" x2="213.2" y2="67.45"/><line class="cls-17" x1="191.07" y1="19.64" x2="209.35" y2="68.88"/><line class="cls-17" x1="187.22" y1="21.07" x2="205.5" y2="70.31"/><line class="cls-17" x1="183.37" y1="22.5" x2="201.65" y2="71.74"/><line class="cls-17" x1="179.52" y1="23.93" x2="197.8" y2="73.17"/><line class="cls-17" x1="175.67" y1="25.36" x2="193.95" y2="74.6"/><line class="cls-17" x1="171.81" y1="26.79" x2="190.1" y2="76.03"/><line class="cls-17" x1="167.96" y1="28.22" x2="186.25" y2="77.46"/><line class="cls-17" x1="164.11" y1="29.65" x2="182.4" y2="78.89"/><rect class="cls-7" x="170.94" y="31.25" width="43.14" height="31.74" transform="translate(215.35 243.99) rotate(-110.37)"/><path class="cls-18" d="M187.37,67.92h0a.41.41,0,0,1-.24.52L180,71.1a.4.4,0,0,1-.51-.24h0a.38.38,0,0,1,.23-.51l7.16-2.66A.41.41,0,0,1,187.37,67.92Z"/><path class="cls-18" d="M187.22,68.93a.9.9,0,0,1-1.15-.53.89.89,0,1,1,1.15.53Z"/><path class="cls-18" d="M186.52,65.63h0a.41.41,0,0,1-.24.52l-7.16,2.66a.4.4,0,0,1-.51-.24h0a.38.38,0,0,1,.23-.51L186,65.4A.41.41,0,0,1,186.52,65.63Z"/><path class="cls-18" d="M186.37,66.64a.9.9,0,0,1-1.15-.53.89.89,0,1,1,1.15.53Z"/><path class="cls-18" d="M184.46,60.1h0a.4.4,0,0,1-.24.51l-7.16,2.66a.4.4,0,0,1-.51-.24h0a.4.4,0,0,1,.24-.51L184,59.86A.4.4,0,0,1,184.46,60.1Z"/><path class="cls-18" d="M184.31,61.1a.88.88,0,0,1-1.14-.52.9.9,0,0,1,.52-1.15.89.89,0,0,1,.62,1.67Z"/><path class="cls-18" d="M183.61,57.81h0a.4.4,0,0,1-.24.51L176.21,61a.4.4,0,0,1-.51-.24h0a.4.4,0,0,1,.24-.51l7.16-2.66A.4.4,0,0,1,183.61,57.81Z"/><path class="cls-18" d="M183.46,58.81a.88.88,0,0,1-1.14-.52.9.9,0,0,1,.52-1.15.89.89,0,0,1,.62,1.67Z"/><path class="cls-18" d="M181.55,52.27h0a.39.39,0,0,1-.23.51l-7.16,2.66a.41.41,0,0,1-.52-.23h0a.41.41,0,0,1,.24-.52L181,52A.38.38,0,0,1,181.55,52.27Z"/><circle class="cls-18" cx="181.09" cy="52.44" r="0.89" transform="translate(2.53 112.94) rotate(-34.87)"/><path class="cls-18" d="M180.7,50h0a.39.39,0,0,1-.23.51l-7.16,2.66a.4.4,0,0,1-.52-.23h0a.41.41,0,0,1,.24-.52l7.16-2.65A.38.38,0,0,1,180.7,50Z"/><path class="cls-18" d="M180.55,51a.88.88,0,1,1,.53-1.14A.88.88,0,0,1,180.55,51Z"/><path class="cls-18" d="M178.65,44.44h0a.41.41,0,0,1-.24.52l-7.16,2.66a.4.4,0,0,1-.51-.24h0a.39.39,0,0,1,.23-.51l7.16-2.66A.41.41,0,0,1,178.65,44.44Z"/><path class="cls-18" d="M178.5,45.45a.89.89,0,0,1-1.14-.53.88.88,0,0,1,.52-1.14.89.89,0,0,1,.62,1.67Z"/><path class="cls-18" d="M177.8,42.15h0a.41.41,0,0,1-.24.52l-7.16,2.66a.4.4,0,0,1-.51-.24h0a.4.4,0,0,1,.23-.51l7.16-2.66A.41.41,0,0,1,177.8,42.15Z"/><path class="cls-18" d="M177.65,43.16a.89.89,0,0,1-1.14-.53.88.88,0,0,1,.52-1.14.89.89,0,0,1,.62,1.67Z"/><path class="cls-18" d="M175.74,36.62h0a.39.39,0,0,1-.23.51l-7.16,2.66a.41.41,0,0,1-.52-.23h0a.4.4,0,0,1,.24-.52l7.16-2.66A.4.4,0,0,1,175.74,36.62Z"/><path class="cls-18" d="M175.59,37.62a.89.89,0,1,1,.52-1.14A.88.88,0,0,1,175.59,37.62Z"/><path class="cls-18" d="M174.89,34.33h0a.39.39,0,0,1-.23.51l-7.17,2.66a.4.4,0,0,1-.51-.23h0a.4.4,0,0,1,.24-.52l7.16-2.66A.4.4,0,0,1,174.89,34.33Z"/><path class="cls-18" d="M174.74,35.33a.89.89,0,1,1,.52-1.14A.88.88,0,0,1,174.74,35.33Z"/><path class="cls-19" d="M179.93,37.79c.56,1.23,2.65,3.73,4.2,3.17,2.6-1,2.39-8.38.49-7.57-2,.57,1.48,6.48,3.84,5.72,3-1,1.5-11.39-1-10.42-2.24.74,2.26,9.82,5,9s2.34-5.77.73-5.08,1.06,4.44,3.73,3.46"/><path class="cls-7" d="M366.6,196.49a5.34,5.34,0,0,1,5.12,3.86H361.48A5.33,5.33,0,0,1,366.6,196.49Z"/><path class="cls-7" d="M341.63,194.67a7.85,7.85,0,0,1,7.55,5.68H334.09A7.85,7.85,0,0,1,341.63,194.67Z"/><path class="cls-7" d="M365.05,200.35c-1.16-4-5.74-7-11.22-7s-10.07,3-11.22,7Z"/><rect class="cls-5" x="285.8" y="155.78" width="49.36" height="49.36"/><rect class="cls-7" x="291.78" y="162.55" width="37.4" height="35.83"/><rect class="cls-14" x="291.78" y="162.55" width="37.4" height="5.92"/><path class="cls-7" d="M293.72,166.5h0a.38.38,0,0,1-.38-.38v-6.43a.38.38,0,0,1,.38-.39h0a.38.38,0,0,1,.38.39v6.43A.38.38,0,0,1,293.72,166.5Z"/><path class="cls-7" d="M297.91,166.5h0a.38.38,0,0,1-.38-.38v-6.43a.38.38,0,0,1,.38-.39h0a.38.38,0,0,1,.38.39v6.43A.38.38,0,0,1,297.91,166.5Z"/><path class="cls-7" d="M302.1,166.5h0a.38.38,0,0,1-.38-.38v-6.43a.38.38,0,0,1,.38-.39h0a.38.38,0,0,1,.38.39v6.43A.38.38,0,0,1,302.1,166.5Z"/><path class="cls-7" d="M306.29,166.5h0a.38.38,0,0,1-.38-.38v-6.43a.38.38,0,0,1,.38-.39h0a.38.38,0,0,1,.38.39v6.43A.38.38,0,0,1,306.29,166.5Z"/><path class="cls-7" d="M310.48,166.5h0a.38.38,0,0,1-.38-.38v-6.43a.38.38,0,0,1,.38-.39h0a.38.38,0,0,1,.38.39v6.43A.38.38,0,0,1,310.48,166.5Z"/><path class="cls-7" d="M314.67,166.5h0a.38.38,0,0,1-.38-.38v-6.43a.38.38,0,0,1,.38-.39h0a.39.39,0,0,1,.39.39v6.43A.39.39,0,0,1,314.67,166.5Z"/><path class="cls-7" d="M318.86,166.5h0a.38.38,0,0,1-.38-.38v-6.43a.38.38,0,0,1,.38-.39h0a.39.39,0,0,1,.39.39v6.43A.39.39,0,0,1,318.86,166.5Z"/><path class="cls-7" d="M323.05,166.5h0a.38.38,0,0,1-.38-.38v-6.43a.38.38,0,0,1,.38-.39h0a.39.39,0,0,1,.39.39v6.43A.39.39,0,0,1,323.05,166.5Z"/><path class="cls-7" d="M327.24,166.5h0a.38.38,0,0,1-.38-.38v-6.43a.38.38,0,0,1,.38-.39h0a.39.39,0,0,1,.39.39v6.43A.39.39,0,0,1,327.24,166.5Z"/><rect class="cls-20" x="295.11" y="193" width="12.65" height="0.65"/><rect class="cls-20" x="295.11" y="194.38" width="23.7" height="0.65"/><rect class="cls-2" x="299.66" y="171.98" width="3.42" height="3.42"/><rect class="cls-2" x="304.22" y="171.98" width="3.42" height="3.42"/><rect class="cls-2" x="308.77" y="171.98" width="3.42" height="3.42"/><rect class="cls-2" x="313.32" y="171.98" width="3.42" height="3.42"/><rect class="cls-6" x="317.88" y="171.98" width="3.42" height="3.42"/><rect class="cls-6" x="322.43" y="171.98" width="3.42" height="3.42"/><rect class="cls-2" x="295.11" y="176.73" width="3.42" height="3.42"/><rect class="cls-2" x="299.66" y="176.73" width="3.42" height="3.42"/><rect class="cls-2" x="304.22" y="176.73" width="3.42" height="3.42"/><rect class="cls-2" x="308.77" y="176.73" width="3.42" height="3.42"/><rect class="cls-2" x="313.32" y="176.73" width="3.42" height="3.42"/><rect class="cls-6" x="317.88" y="176.73" width="3.42" height="3.42"/><rect class="cls-6" x="322.43" y="176.73" width="3.42" height="3.42"/><rect class="cls-2" x="295.11" y="181.49" width="3.42" height="3.42"/><rect class="cls-2" x="299.66" y="181.49" width="3.42" height="3.42"/><rect class="cls-2" x="304.22" y="181.49" width="3.42" height="3.42"/><rect class="cls-2" x="308.77" y="181.49" width="3.42" height="3.42"/><rect class="cls-2" x="313.32" y="181.49" width="3.42" height="3.42"/><rect class="cls-6" x="317.88" y="181.49" width="3.42" height="3.42"/><rect class="cls-6" x="322.43" y="181.49" width="3.42" height="3.42"/><rect class="cls-2" x="295.11" y="186.24" width="3.42" height="3.42"/><rect class="cls-2" x="299.66" y="186.24" width="3.42" height="3.42"/><rect class="cls-2" x="304.22" y="186.24" width="3.42" height="3.42"/><rect class="cls-2" x="308.77" y="186.24" width="3.42" height="3.42"/><rect class="cls-2" x="313.32" y="186.24" width="3.42" height="3.42"/><rect class="cls-6" x="317.88" y="186.24" width="3.42" height="3.42"/><rect class="cls-18" x="223.33" y="28.92" width="11.95" height="9.1" rx="0.14"/><rect class="cls-18" x="225.98" y="35.68" width="6.65" height="16.59"/><rect class="cls-18" x="273.26" y="52.21" width="6.75" height="5.14" rx="0.08" transform="translate(79.41 -146.79) rotate(34.42)"/><rect class="cls-18" x="271.4" y="54.99" width="3.76" height="9.37" transform="translate(81.59 -144.03) rotate(34.42)"/><circle class="cls-18" cx="229.3" cy="123.7" r="77.71"/><path class="cls-21" d="M300.26,123.7a71.06,71.06,0,1,1-18.76-48A71,71,0,0,1,300.26,123.7Z"/><path class="cls-22" d="M266.08,90v0l0,0,.07-.16,0,0,.07-.18,0,0h0v0a.76.76,0,0,0,0-.11v0l0-.11v0h0v0l.06-.17v0l.06-.18v-.06l1.12,0,.85,0a7.45,7.45,0,0,0,.22-1,6.45,6.45,0,0,0,.08-1l-.8-.27L267,86h0v-.28a1.09,1.09,0,0,0,0-.18v-.24a1.21,1.21,0,0,0,0-.19v0c0-.06,0-.12,0-.19v0h0l1-.44.78-.33a6.51,6.51,0,0,0-.15-1,7.32,7.32,0,0,0-.29-.94l-.85,0-1.12.07v0l0,0-.06-.17,0,0c0-.06-.05-.11-.07-.17l0,0h0l0,0-.05-.1v0l0,0,0-.06,0,0h0v0l-.09-.16,0,0c0-.06-.05-.11-.08-.16l0,0,0,0,.79-.82.59-.6a6.22,6.22,0,0,0-.53-.84A7.45,7.45,0,0,0,266,78l-.76.37-1,.51h0l0,0a.8.8,0,0,0-.13-.13l0,0-.13-.12,0,0-.06-.06-.06,0,0,0-.14-.12,0,0-.14-.12,0,0h0l.43-1,.32-.78a6.41,6.41,0,0,0-.79-.58,6.61,6.61,0,0,0-.87-.46l-.57.63-.75.84H261l-.17-.08h0l-.17-.07,0,0h0l-.05,0-.1,0h0l-.11,0,0,0h0l-.17-.06-.05,0-.17,0h-.07l0-1.13v-.84a5.15,5.15,0,0,0-1-.22,6.48,6.48,0,0,0-1-.08l-.27.8-.35,1.07h-.94l-.19,0H256l-.44-1-.33-.79a8.17,8.17,0,0,0-1,.16,6,6,0,0,0-.94.29l.05.84.06,1.13h-.06l-.17.07,0,0-.17.07,0,0h0l-.05,0-.1,0h0l-.1,0-.05,0h0l0,0-.16.08,0,0-.17.09,0,0h0l-.81-.78-.61-.59a8.16,8.16,0,0,0-.83.52,5.67,5.67,0,0,0-.74.64l.37.75.5,1h0l0,0a.8.8,0,0,1-.13.13l0,0-.13.14,0,0-.06.06-.06.06,0,0-.12.14,0,0-.12.14,0,0h0l-1-.43-.79-.31a6.7,6.7,0,0,0-.58.79,8,8,0,0,0-.45.87l.63.56.84.75v0l0,0c0,.06,0,.11-.07.17l0,0a.87.87,0,0,1-.07.17v0h0l0,0a.49.49,0,0,0,0,.11v0l0,.1v.05h0l0,0-.06.18v0a1.21,1.21,0,0,0-.05.18l0,0v0l-1.13,0-.85,0a7.3,7.3,0,0,0-.22,1,6.55,6.55,0,0,0-.07,1l.8.27,1.07.36h0v0a1.08,1.08,0,0,0,0,.18s0,0,0,.05v.3a.19.19,0,0,0,0,.08v0a1.28,1.28,0,0,0,0,.19v0c0,.06,0,.12,0,.18v0h0l-1,.44-.78.33a6.71,6.71,0,0,0,.15,1,7.17,7.17,0,0,0,.29.93l.85,0,1.12-.06v0l0,0a1.34,1.34,0,0,0,.07.18v0c0,.05.05.11.08.17v0h0l0,0,.05.11v0h0l0,0,0,.06,0,0h0l0,0a1.3,1.3,0,0,0,.08.17l0,0,.09.16,0,0v0l-.79.81-.58.61a5.5,5.5,0,0,0,.52.83,6.58,6.58,0,0,0,.63.75l.76-.38,1-.5h0l0,0a1.59,1.59,0,0,0,.13.13l0,0,.14.13,0,0,.06.06.06,0,0,0,.14.12,0,0,.14.12,0,0h0l-.43,1-.32.78a5.84,5.84,0,0,0,.8.58,5.93,5.93,0,0,0,.86.46l.57-.63.75-.85h0l0,0,.17.08h0l.17.07,0,0h0l.05,0,.11,0h0l.11,0,0,0h0l.18.06h0l.17.06h.07l0,1.13v.84a7.45,7.45,0,0,0,1,.22,6.58,6.58,0,0,0,1,.08l.27-.8.36-1.07h1.18l.44,1,.32.78a6.31,6.31,0,0,0,1-.15,6.86,6.86,0,0,0,.94-.29l0-.85-.06-1.12h.06l.17-.07,0,0,.17-.07,0,0h0l0,0,.1,0h0l.1-.05.05,0h0l0,0,.17-.08,0,0,.16-.09,0,0h0l.81.78.61.59a7.19,7.19,0,0,0,.83-.52,7.88,7.88,0,0,0,.75-.64l-.38-.76-.5-1h0l0,0,.13-.13,0,0,.13-.13,0,0,.05-.06.06-.06,0,0,.13-.14,0,0a.76.76,0,0,0,.11-.14l0,0h0l1,.42.79.32a6.7,6.7,0,0,0,.58-.79,8.07,8.07,0,0,0,.46-.87l-.64-.56Zm-4.51-1.27a5.44,5.44,0,1,1,.31-5.18A5.45,5.45,0,0,1,261.57,88.7Z"/><path class="cls-22" d="M281.5,75.65a71,71,0,0,0-31.95-20l-.24.11a12.82,12.82,0,0,0,.31,2,14.38,14.38,0,0,0,.61,2l1.76-.11,2.35-.13,0,0,0,.08.14.36a.2.2,0,0,0,0,.08c0,.12.1.24.15.36l0,.08h0a.36.36,0,0,0,0,.09l.09.22a.05.05,0,0,1,0,0l0,0,0,.09.06.12,0,.09h0a.3.3,0,0,0,0,.08c0,.12.11.23.17.35l0,.08.18.34,0,.08,0,0-1.64,1.7-1.22,1.27a15,15,0,0,0,1.08,1.73,14.38,14.38,0,0,0,1.33,1.56l1.58-.78,2.11-1.06,0,0,.06.07.27.27a.23.23,0,0,0,.07.07l.27.27.06,0,.13.12.12.11.06.06.29.26.07,0,.3.26.06,0,0,0-.88,2.18-.67,1.63a12.6,12.6,0,0,0,1.66,1.21,14.26,14.26,0,0,0,1.81,1L263.71,73l1.57-1.76,0,0,.09,0,.35.15.09,0,.35.14.09,0h0l.1,0,.22.08h0l0,0,.22.08.1,0h0l.08,0,.37.12.08,0,.37.11.09,0h.05l0,2.36,0,1.76a14.54,14.54,0,0,0,2,.46,14,14,0,0,0,2,.16l.56-1.67.75-2.23H275l.39,0h.09l.38,0h.12l.91,2.17.69,1.63a14.13,14.13,0,0,0,2-.32,14.34,14.34,0,0,0,2-.6Z"/><path class="cls-23" d="M290,99.87c-3.23,4.14-5.4,9.27-9.64,12.37-5,3.68-11.86,3.7-17.44,6.47-11.86,5.89-14.62,21.78-24.34,30.77-9.17,8.47-23,9.43-35.39,7.53-4.09-.63-8.18-1.53-12.32-1.55a43,43,0,0,0-12.46,2.09,79.08,79.08,0,0,0-9.43,3.51q1.31,2.1,2.74,4.09A71,71,0,0,0,294.37,95.36,30.14,30.14,0,0,0,290,99.87Z"/><path class="cls-24" d="M211.45,59.8l14.61,67a3.73,3.73,0,0,0,4.65,2.8h0a3.74,3.74,0,0,0,2.55-4.79Z"/><path class="cls-24" d="M257,161.4,229.38,120a2.89,2.89,0,0,0-4.14-.71h0a2.9,2.9,0,0,0-.46,4.18Z"/><circle class="cls-6" cx="229.21" cy="124.1" r="2.22" transform="matrix(0.32, -0.95, 0.95, 0.32, 38.29, 301.55)"/><line class="cls-25" x1="229.21" y1="124.1" x2="239.84" y2="168.55"/><rect class="cls-6" x="199.61" y="65.2" width="1.85" height="18.48" transform="matrix(0.87, -0.5, 0.5, 0.87, -10.35, 110.24)"/><rect class="cls-6" x="178.63" y="86.19" width="1.85" height="18.48" transform="translate(7.13 203.21) rotate(-60)"/><rect class="cls-6" x="178.63" y="143.53" width="1.85" height="18.48" transform="translate(137.03 384.65) rotate(-120)"/><rect class="cls-6" x="199.61" y="164.51" width="1.85" height="18.48" transform="translate(287.33 424.5) rotate(-150)"/><rect class="cls-6" x="256.95" y="164.51" width="1.85" height="18.48" transform="translate(568.08 195.29) rotate(150)"/><rect class="cls-6" x="277.94" y="143.53" width="1.85" height="18.48" transform="translate(550.6 -12.35) rotate(120)"/><rect class="cls-6" x="277.94" y="86.19" width="1.85" height="18.48" transform="translate(222.08 -193.79) rotate(60)"/><rect class="cls-6" x="256.95" y="65.2" width="1.85" height="18.48" transform="translate(71.77 -118.97) rotate(30)"/><path class="cls-26" d="M223.12,59.67V81.09h-1.56v-20h-5.24V59.67Z"/><path class="cls-26" d="M242.82,79.68v1.41H228.1V80l9.06-9c2.54-2.54,3-4,3-5.66,0-2.69-1.87-4.38-5.42-4.38a7.63,7.63,0,0,0-6.15,2.48l-1.1-1a9.45,9.45,0,0,1,7.38-2.93c4.19,0,6.88,2.17,6.88,5.66,0,2-.67,3.85-3.49,6.64l-7.89,7.86Z"/><path class="cls-26" d="M291.69,128.41c0,3.55-2.57,6.18-7.5,6.18-3.15,0-6.06-1.16-7.56-2.87l.8-1.2a9.11,9.11,0,0,0,6.76,2.63c3.85,0,5.9-1.83,5.9-4.74s-1.95-4.74-6.24-4.74h-1.34v-1.13l6.33-8.11H277.43V113h13.43v1.1l-6.43,8.23C289.3,122.48,291.69,124.92,291.69,128.41Z"/><path class="cls-26" d="M237.07,183.46c0,3.92-3,6.46-7.13,6.46-5.63,0-8.6-4-8.6-10.74,0-7.25,3.86-11,9.52-11a9.43,9.43,0,0,1,4.87,1.11l-.65,1.25a8,8,0,0,0-4.22-1c-4.8,0-8,3.15-8,9.36a17.25,17.25,0,0,0,.18,2.57c.89-2.81,3.58-4.4,6.82-4.4C234.2,177.1,237.07,179.61,237.07,183.46Zm-1.56,0c0-3.06-2.2-5-5.81-5s-5.94,2.23-5.94,5.1c0,2.51,2.11,5,6.12,5C233.22,188.57,235.51,186.58,235.51,183.49Z"/><path class="cls-26" d="M181.43,123.05c0,7.25-3.85,11-9.51,11a9.43,9.43,0,0,1-4.87-1.11l.64-1.25a8,8,0,0,0,4.23,1c4.8,0,8-3.15,8-9.36a17.33,17.33,0,0,0-.18-2.57c-.89,2.81-3.58,4.4-6.83,4.4-4.28,0-7.16-2.51-7.16-6.36s3-6.46,7.13-6.46C178.46,112.31,181.43,116.35,181.43,123.05ZM179,118.68c0-2.51-2.11-5-6.12-5-3.33,0-5.63,2-5.63,5.08s2.21,5.05,5.82,5.05S179,121.55,179,118.68Z"/><circle class="cls-27" cx="229.3" cy="28.41" r="13.97" transform="translate(164.53 250.21) rotate(-80.78)"/><path class="cls-28" d="M208.59,104.57a.94.94,0,0,0-.93.94v9.19H194.18v-9.19a.94.94,0,1,0-1.87,0v97.61a.94.94,0,1,0,1.87,0V195h13.48v8.1a.94.94,0,1,0,1.87,0V105.51A.94.94,0,0,0,208.59,104.57Zm-14.41,49.27V146.1h13.48v7.74Zm13.48,2v7.74H194.18v-7.74Zm-13.48-11.83v-7.73h13.48v7.73Zm0,21.62h13.48v7.73H194.18Zm13.48-31.4H194.18v-7.74h13.48Zm-13.48,41.18h13.48v7.74H194.18Zm13.48-58.7v7.74H194.18v-7.74ZM194.18,193v-7.74h13.48V193Z"/><path class="cls-7" d="M198.69,151.83s-.48,1.65-.19,1.74,7,.39,7.53.1-1-.77-1-.77a43.38,43.38,0,0,0-5-1.07A6.77,6.77,0,0,0,198.69,151.83Z"/><path class="cls-7" d="M197.75,129.53c.39-.77.83-1.16,1.55-1.16a1.41,1.41,0,0,1,1.4,1.45l-.76,22.07a.64.64,0,0,1-.64.62.65.65,0,0,1-.65-.62l0-1C197.38,135.83,196.59,132.33,197.75,129.53Z"/><path class="cls-29" d="M195.48,110c.55-2.58,1.93-3,2.89-3l.19,0a1.4,1.4,0,0,1,1.5,1.34l.76,22.07a.65.65,0,0,1-.6.67.62.62,0,0,1-.33-.07,2.24,2.24,0,0,1-1.59-1.65C197.33,125.11,194.77,113.37,195.48,110Z"/><path class="cls-7" d="M184.05,128.46a1.68,1.68,0,0,1,1.94,0,1.41,1.41,0,0,1,.25,2l-13.84,17.2a.65.65,0,0,1-.89.11.64.64,0,0,1-.15-.88l.55-.79C180,133.28,181.45,130,184.05,128.46Z"/><path class="cls-7" d="M190.71,109.28c1.63-2.08,3.06-1.86,3.9-1.41a.6.6,0,0,1,.19.06,1.38,1.38,0,0,1,.75,1.86l-9,20.16a.64.64,0,0,1-.83.33.6.6,0,0,1-.27-.2,2.25,2.25,0,0,1-.7-2.19C185.72,123.66,188.58,112,190.71,109.28Z"/><path class="cls-24" d="M202.71,152.15a8.48,8.48,0,0,1-3.18.51,11.47,11.47,0,0,1-1.2-.06c-.09.6-.13,1.29.16,1.33.51,0,7.86.28,7.9-.06C206.48,153.19,204.51,152.55,202.71,152.15Z"/><path class="cls-7" d="M172,146.24s-1.69.28-1.65.59,2.75,6.5,3.22,6.81.27-1.21.27-1.21a43.53,43.53,0,0,0-1.25-5A6.16,6.16,0,0,0,172,146.24Z"/><path class="cls-24" d="M173.51,150a8.61,8.61,0,0,1-1.85-2.63c-.19-.38-.34-.75-.48-1.11-.57.18-1.21.45-1.12.73.18.48,3.2,7.18,3.52,7.07C174.22,153.83,173.94,151.78,173.51,150Z"/><path class="cls-24" d="M190.19,109.17s-4.8,8.73-5.9,14.16c0,0,2.06,4.41,5.32,4.41a11.17,11.17,0,0,1,6.44,1.89c1.16.74,3.38,3.1,6.95,2.81,0,0-.14-15.17-3.05-23.67Z"/><path class="cls-30" d="M182.59,88.2c-.49-3,2.55-7.17,5.82-6.54a3.25,3.25,0,0,0,.93.11,2,2,0,0,0,1.2-.79,16.78,16.78,0,0,1,2.13-2.53,3.9,3.9,0,0,1,4.88.15,4.31,4.31,0,0,1,1,4.54,6.3,6.3,0,0,1-3.32,3.45,5,5,0,0,0-1.07.59,9.5,9.5,0,0,0-1.26,1.88,3.11,3.11,0,0,1-1.74,1.14,22.65,22.65,0,0,1-2.74.13c-1.06.13-2.07.69-3.14.59A3.22,3.22,0,0,1,182.59,88.2Z"/><path class="cls-7" d="M212.34,76.69a1.68,1.68,0,0,1-.13-1.48c.48-1.24,1.47-3.57,2.25-3.84,1.07-.38.12,3.83-2,5.57Z"/><path class="cls-31" d="M211.86,76c-1.43,2.75-3.62,9.18-3.81,11.14-.16,1.62.83,1.69.87,1.71a1.33,1.33,0,0,0,1.47-.82l2.87-11.56Z"/><path class="cls-31" d="M189.74,110.13c-.27.09-.14-5.54.51-9.56a66.88,66.88,0,0,1,1.59-14.35c1-3.17,2.59-4.9,5.22-3.63.83.39,1.62,2.73,2,5.21s.84,2-.52,5.62c-.49,1.3.73,10.06,1.34,12.38a30.84,30.84,0,0,0,.75,3.63,5.93,5.93,0,0,1-1.46.79C195.5,111.54,193.39,109,189.74,110.13Z"/><path class="cls-31" d="M195.48,82.8a1.43,1.43,0,0,0-1.74,1.48c-.19.51.46,1.35,1.1,1.53L209.34,89c.23.07.36-.31.44-.53a.45.45,0,0,0,0-.23,1.8,1.8,0,0,0-.93-1.44C206.25,85.35,197.84,83,195.48,82.8Z"/><path class="cls-7" d="M195.06,105.86a1.67,1.67,0,0,1,1.46-.28c1.29.36,3.7,1.13,4,1.87.48,1-3.79.5-5.74-1.41Z"/><path class="cls-32" d="M195.14,86.43a1.46,1.46,0,0,0-1-2,1.4,1.4,0,0,0-1.7.51l-6.37,11.93c-.12.18.2.41.4.55a.4.4,0,0,0,.21.09,1.64,1.64,0,0,0,1.57-.39C190.24,95.24,194.44,88.48,195.14,86.43Z"/><path class="cls-32" d="M196.05,105.44a51.11,51.11,0,0,0-8-8.6c-1.36-.9-1.89-.07-1.92,0a1.34,1.34,0,0,0,0,1.69l8.85,8Z"/><path class="cls-30" d="M195,81.51a4.24,4.24,0,0,1-2.61-3.45c-.19-3.36,3.23-4.94,5.05-3.79a2.23,2.23,0,0,1,1.15,2.84C198.34,77.47,195,81.51,195,81.51Z"/><path class="cls-7" d="M194.23,78.33l2.69-.19a40.62,40.62,0,0,1,0,5.19c-.11.41-.78.58-1.5.38s-1.11-.59-1.12-1h0A34.32,34.32,0,0,0,194.23,78.33Z"/><path class="cls-7" d="M194.42,78.72c.41,2.13,2.22,3.57,3.52,3.32s1.59-2.1,1.18-4.22-1.67-3-3-2.75S194,76.6,194.42,78.72Z"/><path class="cls-30" d="M197.73,74.85a5.37,5.37,0,0,1-3.18,3.8c-1.37.49-1.8-1.65-1.8-1.65l1.35-2a3.5,3.5,0,0,1,1.93-.77C196.1,74.2,197.73,74.85,197.73,74.85Z"/><path class="cls-30" d="M198.69,76.48s-2.37-.87-2.71-1.69.87-.72.87-.72A3.12,3.12,0,0,1,198.69,76.48Z"/><path class="cls-30" d="M194.91,74.64a1.34,1.34,0,0,0,.36-1.83A1.28,1.28,0,0,0,193,73a1.32,1.32,0,0,0,.46,1.66A1.47,1.47,0,0,0,194.91,74.64Z"/><path class="cls-7" d="M193.37,79.5c.22.5,1,.92,1.33.77s.28-.59.07-1.09-.7-.83-1.06-.68A.7.7,0,0,0,193.37,79.5Z"/><path class="cls-7" d="M256.22,131.07a1.63,1.63,0,0,0-.42-1.38c-.89-.95-2.64-2.69-3.44-2.65-1.11,0,1.29,3.5,3.81,4.32Z"/><path class="cls-31" d="M278.79,135.66a1.4,1.4,0,0,1,1.45,1.69c.1.52-.66,1.24-1.3,1.31l-14.46.79c-.23,0-.29-.35-.34-.58a.53.53,0,0,1,0-.22,1.76,1.76,0,0,1,1.12-1.24A55.33,55.33,0,0,1,278.79,135.66Z"/><path class="cls-31" d="M256.31,130a50.17,50.17,0,0,1,8.84,7.33c1,1.27.17,1.83.15,1.87a1.31,1.31,0,0,1-1.65.07l-8.27-8.16Z"/><path class="cls-7" d="M284.15,206.71l.17-.05a.85.85,0,0,0,.49-1.1l-2.19-5.72a.85.85,0,1,0-1.59.61l2.19,5.72A.85.85,0,0,0,284.15,206.71Z"/><path class="cls-7" d="M275.29,207.07l.17,0a.85.85,0,0,0,.49-1.1l-2.19-5.72a.85.85,0,1,0-1.59.61l2.19,5.72A.84.84,0,0,0,275.29,207.07Z"/><path class="cls-10" d="M284,202.55l-.13-.37c-.08-.24-.17-.47-.26-.7-.17-.46-.34-.92-.52-1.37l-1.06-2.72L280,192c-.7-1.8-1.4-3.6-2.07-5.4-.33-.9-.66-1.8-1-2.7-.15-.45-.3-.89-.44-1.34s-.28-.88-.38-1.29a4.5,4.5,0,0,1-.1-.44l0-.14.28-1.41.58-2.85,1.17-5.69,2.33-11.39-5.29-.9L273.53,170l-.78,5.76-.39,2.88-.19,1.46,0,.18v.09s0,.1,0,.17a1.21,1.21,0,0,0,0,.18v.14s0,.09,0,.12v.19a2.51,2.51,0,0,0,.05.31,6.86,6.86,0,0,0,.24.88c.16.52.34,1,.51,1.47s.37.93.55,1.39c.38.92.76,1.82,1.15,2.71.78,1.8,1.58,3.57,2.38,5.34l2.42,5.29,1.2,2.63c.19.44.39.88.58,1.31.09.22.19.44.28.65l.12.31.1.26,2.46-.7C284.12,202.8,284.08,202.68,284,202.55ZM276,180.68h0v.05A.21.21,0,0,1,276,180.68Z"/><path class="cls-10" d="M275.16,202.55l-.19-.73-.39-1.43-.8-2.83-1.59-5.65q-.79-2.82-1.53-5.64c-.24-.94-.48-1.88-.7-2.81-.11-.46-.21-.93-.3-1.38-.05-.23-.09-.46-.13-.68s-.08-.44-.1-.63,0-.17,0-.24l0-.05.1-.34.44-1.39.89-2.8,1.78-5.59,3.57-11.19L271,157.7l-2.83,11.41-1.42,5.7-.7,2.86-.35,1.43-.09.38,0,.19,0,.07,0,.11a.31.31,0,0,0,0,.09l0,.08v.26a4.68,4.68,0,0,0,0,.62c0,.17,0,.32.07.47s.11.55.17.81.13.51.19.75c.13.5.27,1,.41,1.47.28,1,.57,1.9.87,2.85.6,1.88,1.22,3.74,1.85,5.6l1.9,5.57,1,2.77.46,1.38.22.68.11.34.08.28,2.5-.52c0-.17-.06-.3-.09-.43ZM269.4,180.4v0Z"/><path class="cls-11" d="M283.92,147.15l-.12,1c-.1.81-.23,1.63-.39,2.47-.07.34-.13.69-.21,1-.15.73-.33,1.46-.53,2.21-.09.33-.18.67-.28,1-.14.51-.31,1-.48,1.56q-.15.49-.33,1c-.15.44-.78,2.28-.95,2.73a11.88,11.88,0,0,0-2.95-.53,37.39,37.39,0,0,1-5-.09,9.7,9.7,0,0,1-2.41-.78c.11-.24.69-1.88.79-2.11s.28-.65.42-1,.31-.73.45-1.07l.18-.44c.08-.19.15-.37.22-.55.27-.65.51-1.28.73-1.88.13-.34.25-.67.37-1,.19-.54.37-1.06.53-1.56s.22-.7.33-1,.13-.46.2-.69c1.05-3.69,1.2-6.13.94-7.85a4.32,4.32,0,0,1,1.62-4.07l.49-.38a3.83,3.83,0,0,1,6.12,2.31,23.18,23.18,0,0,1,.38,3.22c0,.44,0,.89.05,1.35A42.35,42.35,0,0,1,283.92,147.15Z"/><path class="cls-24" d="M282.74,205.59a2.93,2.93,0,0,0,1.38.27,3.94,3.94,0,0,0,.89-.09.33.33,0,0,1,.4.26c.12.64.24,1.61-.11,1.65-.51.06-7.87.28-7.91-.06C277.27,206.72,280.84,205.87,282.74,205.59Z"/><path class="cls-24" d="M273.79,205.59a2.9,2.9,0,0,0,1.38.27,3.94,3.94,0,0,0,.89-.09.33.33,0,0,1,.4.26c.12.64.24,1.61-.11,1.65-.51.06-7.87.28-7.92-.06C268.32,206.72,271.89,205.87,273.79,205.59Z"/><path class="cls-30" d="M276.25,133.14a2.54,2.54,0,0,1,.37-1.8c.57-.77.72.25.72.25Z"/><path class="cls-30" d="M282.55,132c-.07.09-1,1.71-1.32,1.69s-.06-1.35-.06-1.35Z"/><path class="cls-30" d="M277.54,128.89a2,2,0,0,1,.17-1.51c.42-.54,1.09-1.07,3.29-.25a.71.71,0,0,1,.44.78l-.16.94Z"/><path class="cls-7" d="M281.56,131.31c-.43,1.32-.89,2.38-1.84,2.81a2.82,2.82,0,0,1-1.2.25,2.58,2.58,0,0,1-.9-.2,1.69,1.69,0,0,1-1.23-1.51,7.66,7.66,0,0,1,.58-2.85c.68-2.08,2.06-2.8,3.32-2.38S282.24,129.24,281.56,131.31Z"/><path class="cls-7" d="M281.79,131.32l-2.34-.51a38.73,38.73,0,0,0-.7,4.56c.05.37.62.6,1.28.52s1.05-.37,1.1-.7h0A32.1,32.1,0,0,1,281.79,131.32Z"/><path class="cls-30" d="M282.46,132.14a1.09,1.09,0,0,1-1-.51,7.42,7.42,0,0,1-.85-2.95c-.06-1.18.32-1.42.32-1.42s2.14.56,2.47,1.37C283.93,129.83,282.46,132.14,282.46,132.14Z"/><path class="cls-30" d="M281.15,130.06l-1,3a.84.84,0,0,1-.73.57l-.38,0a.38.38,0,0,1-.41-.42l.07-.64a.31.31,0,0,0-.2-.34l-1.33-.56a.32.32,0,0,0-.39.12l-.37.53a1,1,0,0,0,.4,1.52l.79.39a1.29,1.29,0,0,0,.54.12h.07l.3,0h0l1-.08a1.51,1.51,0,0,0,1.28-1l1-3Z"/><path class="cls-7" d="M282.47,131.67c-.14.45-.77.88-1.1.77s-.29-.49-.14-.94.54-.79.87-.68A.61.61,0,0,1,282.47,131.67Z"/><path class="cls-30" d="M280.92,128.26l-1.34-.43a2,2,0,0,0-1.37.07l-.59.25,1-1.05,1.21-.06,1.33.53Z"/><path class="cls-7" d="M284.8,153.76a1.62,1.62,0,0,0-1.43-.24c-1.25.37-3.58,1.15-3.91,1.89-.45,1,3.71.42,5.57-1.48Z"/><path class="cls-31" d="M281.38,138.69a1.39,1.39,0,0,1,.22-2.21c.31-.44,1.34-.39,1.84,0l10.6,9.85c.19.15,0,.46-.18.65a.39.39,0,0,1-.17.14,1.73,1.73,0,0,1-1.67,0C289.4,145.91,282.83,140.49,281.38,138.69Z"/><path class="cls-31" d="M283.43,153.59a49.48,49.48,0,0,1,8.79-7.38c1.42-.72,1.83.16,1.86.19a1.3,1.3,0,0,1-.22,1.62l-9.51,6.68Z"/><rect class="cls-33" x="239.66" y="88.68" width="33.06" height="33.06"/><polygon class="cls-33" points="263.43 118.01 267.65 131.33 259.81 118.01 263.43 118.01"/><rect class="cls-21" x="244.47" y="94.44" width="23.43" height="0.59"/><rect class="cls-21" x="244.47" y="98.93" width="23.43" height="0.59"/><rect class="cls-21" x="244.47" y="103.41" width="23.43" height="0.59"/><rect class="cls-21" x="244.47" y="107.9" width="23.43" height="0.59"/><rect class="cls-21" x="244.47" y="112.39" width="15.34" height="0.64"/><circle class="cls-7" cx="212.1" cy="96.42" r="2.22"/><path class="cls-3" d="M119.54,98.8l4.55,4.55a26,26,0,0,1,36.8,0l4.55-4.55A32.47,32.47,0,0,0,119.54,98.8Z"/><path class="cls-3" d="M136,105.65a17.33,17.33,0,0,1,18.82,3.82l4.55-4.55a23.77,23.77,0,0,0-33.66,0l4.55,4.55A17.23,17.23,0,0,1,136,105.65Z"/><path class="cls-3" d="M142.49,106.61A15,15,0,0,0,131.78,111l4.55,4.55a8.78,8.78,0,0,1,9.45-1.92,8.57,8.57,0,0,1,2.87,1.92L153.2,111a15,15,0,0,0-10.71-4.43Z"/><path class="cls-3" d="M147.08,117.16a6.31,6.31,0,0,0-2.13-1.42,6.52,6.52,0,0,0-4.91,0,6.26,6.26,0,0,0-2.14,1.42l4.59,4.59Z"/><path class="cls-34" d="M166.29,53.74a19.29,19.29,0,1,0-32,14.52,11.9,11.9,0,0,1,4,8.91v.52a2.59,2.59,0,0,0,2.6,2.58l12.47,0a2.6,2.6,0,0,0,2.58-2.6v-.51a12.06,12.06,0,0,1,4-9A19.23,19.23,0,0,0,166.29,53.74Z"/><path class="cls-14" d="M156.89,53.51l-.23-.43s-2.89,1.46-5.12.75a4.81,4.81,0,0,0,2.05-3.53,2.92,2.92,0,0,0-1.46-2.93,2.5,2.5,0,0,0-2.7.26,3.24,3.24,0,0,0-.77,3.52,4.37,4.37,0,0,0,1.89,2.77,7.27,7.27,0,0,1-3.53,1h0v0h0a7.29,7.29,0,0,1-3.54-1,4.38,4.38,0,0,0,1.88-2.78,3.25,3.25,0,0,0-.78-3.51,2.5,2.5,0,0,0-2.7-.25,2.92,2.92,0,0,0-1.46,2.93,4.84,4.84,0,0,0,2.07,3.53c-2.23.72-5.1-.72-5.13-.74l-.22.44.32.15A47.22,47.22,0,0,1,141,61.09a59.13,59.13,0,0,1,4,19.18l.49,0a59.73,59.73,0,0,0-4-19.35A52.64,52.64,0,0,0,138.18,54a8,8,0,0,0,.93.28,6.11,6.11,0,0,0,3.84-.08,8,8,0,0,0,3.81,1.24l.05,24.83h.49l-.05-24.84a7.92,7.92,0,0,0,3.8-1.25,6,6,0,0,0,3.84.07c.34-.09.66-.19.93-.28a51.72,51.72,0,0,0-3.23,6.92,60.08,60.08,0,0,0-3.94,19.37h.49a59.17,59.17,0,0,1,3.91-19.19,48.24,48.24,0,0,1,3.51-7.41A3.43,3.43,0,0,0,156.89,53.51Zm-16-3.21a2.46,2.46,0,0,1,1.19-2.47,2,2,0,0,1,.93-.23,2,2,0,0,1,1.24.42,2.81,2.81,0,0,1,.62,3A3.86,3.86,0,0,1,143,53.64,4.46,4.46,0,0,1,140.88,50.3ZM151,53.62a3.82,3.82,0,0,1-1.89-2.6,2.81,2.81,0,0,1,.6-3,2.07,2.07,0,0,1,2.18-.2,2.43,2.43,0,0,1,1.19,2.46A4.41,4.41,0,0,1,151,53.62Z"/><path class="cls-35" d="M148,93.23h-1.87a3.08,3.08,0,0,1-3.09-3.08l0-7.61a2.4,2.4,0,0,1,2.4-2.41h3.24a2.4,2.4,0,0,1,2.41,2.4l0,7.61A3.09,3.09,0,0,1,148,93.23Z"/><path class="cls-33" d="M150.77,91.12l-7.39,0a3.27,3.27,0,0,1-3.28-3.27l0-7.66a.06.06,0,0,1,.06-.06l13.82,0a.06.06,0,0,1,.06.06v7.66A3.26,3.26,0,0,1,150.77,91.12Z"/><path class="cls-35" d="M154.26,89.23l-14.38,0a1,1,0,1,1,0-2.05l14.38,0a1,1,0,1,1,0,2Z"/><path class="cls-35" d="M154.25,86.27l-14.38,0a1,1,0,0,1,0-2l14.38,0a1,1,0,1,1,0,2Z"/><path class="cls-35" d="M154.25,83.32l-14.38,0a1,1,0,1,1,0-2l14.38,0a1,1,0,1,1,0,2Z"/><polyline class="cls-36" points="293.64 135.98 314.06 115.56 320.72 122.21 346.68 96.26"/><polygon class="cls-6" points="352.55 90.48 336.22 95.74 347.29 106.81 352.55 90.48"/><circle class="cls-7" cx="243.28" cy="156.94" r="2.22"/><circle class="cls-7" cx="256.95" cy="145.01" r="3.98"/></svg>