<svg id="Capa_1" data-name="Capa 1" xmlns="http://www.w3.org/2000/svg" viewBox="0 0 25 25"><defs><style>.cls-1{fill:none;stroke:gray;stroke-miterlimit:10;}</style></defs><path class="cls-1" d="M23.39,13a11,11,0,1,1-11-11,11,11,0,0,1,11,11"/><path class="cls-1" d="M16.4,14.11a1.23,1.23,0,0,0-.89-.4,1.26,1.26,0,0,0-.9.4l-.84.81-.2-.1-.27-.14a9,9,0,0,1-2.17-1.93,5.43,5.43,0,0,1-.71-1.1l.61-.59.22-.22a1.16,1.16,0,0,0,0-1.79l-.72-.7-.25-.25c-.15-.16-.32-.32-.49-.48a1.31,1.31,0,0,0-.89-.37,1.35,1.35,0,0,0-.9.37H8l-.9.88a1.86,1.86,0,0,0-.57,1.2,4.42,4.42,0,0,0,.33,1.92,11.14,11.14,0,0,0,2,3.29A12.46,12.46,0,0,0,13,18.09a6.69,6.69,0,0,0,2.32.67h.17a2,2,0,0,0,1.53-.64,0,0,0,0,1,0,0,5,5,0,0,1,.46-.47c.11-.1.23-.21.34-.33a1.3,1.3,0,0,0,.4-.89,1.23,1.23,0,0,0-.41-.89Z"/></svg>