<svg id="Capa_1" data-name="Capa 1" xmlns="http://www.w3.org/2000/svg" viewBox="0 0 280 281"><defs><style>.cls-1{fill:#b1b1b1;}</style></defs><path class="cls-1" d="M140,274.93c-74.64,0-135.36-60.74-135.36-135.39S65.38,4.15,140,4.15,275.38,64.88,275.38,139.54,214.66,274.93,140,274.93m0-261.65C70.42,13.28,13.8,69.92,13.8,139.54S70.42,265.79,140,265.79s126.22-56.64,126.22-126.25S209.62,13.28,140,13.28"/><path class="cls-1" d="M176,55.9H104A12.6,12.6,0,0,0,91.46,68.48V214.69A12.6,12.6,0,0,0,104,227.27h72a12.6,12.6,0,0,0,12.59-12.58V68.48A12.6,12.6,0,0,0,176,55.9M97.17,78.75h85.69V187.29H97.17ZM104,61.61h72a6.88,6.88,0,0,1,6.87,6.87V73H97.17V68.48A6.88,6.88,0,0,1,104,61.61m72,160H104a6.88,6.88,0,0,1-6.87-6.87V193h85.69v21.69a6.88,6.88,0,0,1-6.87,6.87"/><path class="cls-1" d="M140,195.85a11.43,11.43,0,1,0,11.43,11.43A11.44,11.44,0,0,0,140,195.85M140,213a5.71,5.71,0,1,1,5.71-5.71A5.71,5.71,0,0,1,140,213"/><path class="cls-1" d="M128.6,70.18H140a2.86,2.86,0,0,0,0-5.72H128.6a2.86,2.86,0,1,0,0,5.72"/><path class="cls-1" d="M148.59,70.18h2.86a2.86,2.86,0,0,0,0-5.72h-2.86a2.86,2.86,0,0,0,0,5.72"/><path class="cls-1" d="M216,69a2.85,2.85,0,1,0-4,4,27.43,27.43,0,0,1,0,38.71,2.85,2.85,0,0,0,0,4,2.84,2.84,0,0,0,4,0A33.11,33.11,0,0,0,216,69"/><path class="cls-1" d="M204,75.05a2.85,2.85,0,0,0-4,4,18.78,18.78,0,0,1,0,26.5,2.85,2.85,0,0,0,0,4,2.84,2.84,0,0,0,4,0,24.46,24.46,0,0,0,0-34.58"/><path class="cls-1" d="M68.05,73a2.85,2.85,0,0,0-4-4,33.11,33.11,0,0,0,0,46.78,2.81,2.81,0,0,0,2,.84,2.86,2.86,0,0,0,2-4.88,27.39,27.39,0,0,1,0-38.71"/><path class="cls-1" d="M80.07,75.05a2.87,2.87,0,0,0-4,0,24.48,24.48,0,0,0,0,34.58,2.86,2.86,0,0,0,4-4,18.76,18.76,0,0,1,0-26.5,2.85,2.85,0,0,0,0-4"/></svg>