<svg id="Capa_1" data-name="Capa 1" xmlns="http://www.w3.org/2000/svg" viewBox="0 0 26.03 26"><defs><style>.cls-1{fill:#f8b133;}</style></defs><g id="OUfyV4"><path class="cls-1" d="M13,25.19a12.19,12.19,0,1,1,12.18-12A12.16,12.16,0,0,1,13,25.19ZM23.34,13A10.32,10.32,0,1,0,13,23.31,10.29,10.29,0,0,0,23.34,13Z"/><path class="cls-1" d="M13.16,14.46a5.81,5.81,0,0,1,4.48,2,4.2,4.2,0,0,1,.9,1.47.64.64,0,0,1-.38.83.67.67,0,0,1-.87-.34c-.16-.27-.31-.56-.49-.81a4,4,0,0,0-2-1.45,4.51,4.51,0,0,0-4,.39,3.81,3.81,0,0,0-1.57,1.75.68.68,0,0,1-.82.49A.65.65,0,0,1,8,17.87,5,5,0,0,1,9.27,16a5.76,5.76,0,0,1,3.05-1.45C12.63,14.49,12.94,14.48,13.16,14.46Z"/><path class="cls-1" d="M11.3,9.7a1.39,1.39,0,0,1-1.4,1.41A1.37,1.37,0,0,1,8.48,9.68,1.4,1.4,0,0,1,9.9,8.27,1.42,1.42,0,0,1,11.3,9.7Z"/><path class="cls-1" d="M16.36,8.28A1.41,1.41,0,0,1,17.78,9.7a1.38,1.38,0,0,1-1.41,1.4A1.36,1.36,0,0,1,15,9.69,1.39,1.39,0,0,1,16.36,8.28Z"/></g></svg>