<svg id="Capa_1" data-name="Capa 1" xmlns="http://www.w3.org/2000/svg" viewBox="0 0 36 43"><defs><style>.cls-1{fill:#fff;}</style></defs><g id="DHSOEm"><path class="cls-1" d="M12.59,42a2.92,2.92,0,0,1-1.09-.46,2.42,2.42,0,0,1-1-2c0-1.92,0-3.84,0-5.76V27.6a.88.88,0,0,1,.13.11,10.57,10.57,0,0,0,3.54,2.72c.33.16.68.28,1,.41.1,0,.18.07.18.23v8.32a2.62,2.62,0,0,1-.31,1.34,2.49,2.49,0,0,1-1.61,1.21l-.12,0Z"/><path class="cls-1" d="M19.5,42a2.87,2.87,0,0,1-1.15-.49,2.33,2.33,0,0,1-1-1.86c0-1.93,0-3.86,0-5.79V31.36a10.58,10.58,0,0,0,4.86-.55v2.42c0,1.53,0,3.07,0,4.61a18.18,18.18,0,0,1,0,2.09,2.35,2.35,0,0,1-1.88,2l-.13,0Z"/><path class="cls-1" d="M16.87,3.08l.35.09a3.6,3.6,0,0,1,2.76,3,3.65,3.65,0,1,1-4.34-3L16,3.08Z"/><path class="cls-1" d="M26.5,25.57a3.7,3.7,0,0,1,1.29,1l3.12,3.12,3.83,3.83A2.44,2.44,0,0,1,33,37.67a2.38,2.38,0,0,1-1.69-.7l-3.23-3.23L24.9,30.6c-.37-.37-.75-.74-1.1-1.12a7.47,7.47,0,0,1-.52-.7,9.09,9.09,0,0,1-7.68.73A8.87,8.87,0,0,1,11.07,26,9.12,9.12,0,0,1,23.74,13.33a8.86,8.86,0,0,1,3.81,5.56A9.06,9.06,0,0,1,26.5,25.57ZM18.67,13.82a7.09,7.09,0,1,0,7.08,7.1A7.07,7.07,0,0,0,18.67,13.82Z"/><path class="cls-1" d="M13,12c-.44.35-.85.65-1.25,1A10.12,10.12,0,0,0,9.4,15.89a.26.26,0,0,1-.26.17H2.43a2,2,0,0,1-1.92-2.8A1.91,1.91,0,0,1,2.34,12C4,12,5.59,12,7.21,12H13Z"/><path class="cls-1" d="M24.35,12H25c1.74,0,3.48,0,5.22,0a2.07,2.07,0,0,1,2.11,1.66,2,2,0,0,1-1.91,2.41c-.77,0-1.54,0-2.31,0a.31.31,0,0,1-.21-.16A10.58,10.58,0,0,0,26.58,14,12.89,12.89,0,0,0,24.35,12Z"/><path class="cls-1" d="M22.26,20.91c0,1.41,0,2.81,0,4.22a.34.34,0,0,1-.16.3,5.61,5.61,0,0,1-3.91,1.13,5.66,5.66,0,0,1-5.11-6.66,5.4,5.4,0,0,1,3.07-4.08,5.56,5.56,0,0,1,5.92.54.37.37,0,0,1,.18.36v4.19Z"/></g></svg>