<svg id="Capa_1" data-name="Capa 1" xmlns="http://www.w3.org/2000/svg" viewBox="0 0 36 43"><defs><style>.cls-1{fill:#fff;}</style></defs><g id="_5PvJZE" data-name="5PvJZE"><path class="cls-1" d="M26.9,14.66c.61.24.68.35.68,1,0,1.08,0,2.16,0,3.23a5.52,5.52,0,0,1-1.12,3.53,15.14,15.14,0,0,1-3.07,3.22,5.76,5.76,0,0,1-.71.46,1.41,1.41,0,0,1-1.47,0,8.6,8.6,0,0,1-1.79-1.39l-.25-.24-.91.71a1.22,1.22,0,0,1-1.06.29,1.71,1.71,0,0,1-.66-.29c-1-.8-1.94-1.61-2.87-2.45a22.91,22.91,0,0,1-3.37-3.79,17.05,17.05,0,0,1-3-6.62,8.42,8.42,0,0,1,0-3.5,4.88,4.88,0,0,1,3.9-3.92A5.56,5.56,0,0,1,16.6,6.53c.3.29.57.62.87,1l.16-.18A7,7,0,0,1,20.83,5a5.57,5.57,0,0,1,6,1.78,5.48,5.48,0,0,1,1,2.73A10.89,10.89,0,0,1,27,14.39C27,14.47,26.94,14.56,26.9,14.66Zm-8.55,8.89-.9-1.18a5.16,5.16,0,0,1-1.09-3.08c0-1.28,0-2.55,0-3.83a.71.71,0,0,1,.55-.75c1.57-.5,3.13-1,4.69-1.52a1.2,1.2,0,0,1,.75,0l3.19,1c.13,0,.22,0,.28-.11a10.24,10.24,0,0,0,.8-4.23,4.32,4.32,0,0,0-1-2.68,4.46,4.46,0,0,0-4.71-1,6.06,6.06,0,0,0-2.65,2.26.93.93,0,0,1-1.61,0,8.94,8.94,0,0,0-1-1.24,4.32,4.32,0,0,0-4.19-1.19,3.7,3.7,0,0,0-3,2.9,6.57,6.57,0,0,0-.1,2.38,12.83,12.83,0,0,0,1.31,4.14,22.55,22.55,0,0,0,4,5.56,30.22,30.22,0,0,0,3.55,3.13.25.25,0,0,0,.36,0C17.83,24,18.09,23.76,18.35,23.55Zm8-5.81h0c0-.59,0-1.18,0-1.78a.23.23,0,0,0-.19-.26l-4.06-1.3a.62.62,0,0,0-.33,0l-4,1.3a.26.26,0,0,0-.21.29c0,1,0,2.09,0,3.14a3.91,3.91,0,0,0,.73,2.34A15,15,0,0,0,20.44,24c.39.36.85.66,1.28,1a.38.38,0,0,0,.49,0,10.08,10.08,0,0,0,.82-.59,15,15,0,0,0,2.31-2.47,4.34,4.34,0,0,0,1-2.27C26.4,19,26.36,18.37,26.36,17.74Z"/><path class="cls-1" d="M21.77,32.54c.12-.47.26-.93.36-1.41a10.6,10.6,0,0,1,2.08-4.34c.68-.85,1.35-1.7,2-2.54a2.2,2.2,0,0,1,1.82-.88,1.07,1.07,0,0,1,1,.74,2.26,2.26,0,0,1-.24,2.08c-.22.36-.48.71-.72,1.06a2.19,2.19,0,0,0-.11.2c.27-.1.49-.16.7-.25.42-.18.84-.37,1.25-.57a1.9,1.9,0,0,0,.94-1c.46-1,.93-2.06,1.4-3.1a3.06,3.06,0,0,1,.87-1.15,1.41,1.41,0,0,1,1.75-.1A1.45,1.45,0,0,1,35.41,23l-1.62,3.9c-.25.59-.5,1.18-.74,1.77a1.9,1.9,0,0,1-.61.79,25.13,25.13,0,0,0-4.18,4c-.31.4-.55.85-.82,1.28a.21.21,0,0,0,.06.33,1.07,1.07,0,0,1,.33,1.23q-.31.82-.66,1.65a1.08,1.08,0,0,1-1.49.54l-2.61-1.11L20.3,36.21a1.09,1.09,0,0,1-.62-1.44c.2-.55.42-1.09.65-1.63a1.06,1.06,0,0,1,1.21-.62Zm4.48,2a8.77,8.77,0,0,1,1.54-2.35,29.24,29.24,0,0,1,3.82-3.56,1.31,1.31,0,0,0,.37-.47c.57-1.35,1.13-2.71,1.7-4.07l.57-1.39c.06-.14.13-.31,0-.39s-.26,0-.33.12a4,4,0,0,0-.52.77c-.48,1-.93,2-1.39,3.05a3.09,3.09,0,0,1-1.44,1.5A16.68,16.68,0,0,1,27,29a.71.71,0,0,1-.79-.26.73.73,0,0,1,0-.85l.59-.85,1-1.42A1.13,1.13,0,0,0,28,24.58a1.12,1.12,0,0,0-.85.51c-.67.83-1.35,1.66-2,2.49a8.81,8.81,0,0,0-1.59,3c-.22.78-.42,1.56-.62,2.34a.27.27,0,0,0,.12.2c.24.12.48.21.73.32ZM26.67,36l-5.28-2.24-.56,1.4,5.28,2.24Z"/><path class="cls-1" d="M8.61,27.42c-.32-.43-.59-.79-.85-1.17a2.31,2.31,0,0,1-.42-1.73,1.24,1.24,0,0,1,1.71-1.1,2.1,2.1,0,0,1,1.13.66c1,1.13,1.92,2.24,2.82,3.4a9.35,9.35,0,0,1,1.6,3.58c.09.38.22.75.35,1.13a.27.27,0,0,0,.2.14,1.13,1.13,0,0,1,1.12.77c.19.45.39.9.59,1.36a1.12,1.12,0,0,1-.62,1.6L11,38.47a1.09,1.09,0,0,1-1.54-.57c-.23-.51-.45-1-.66-1.54s0-1.06.65-1.53a11.86,11.86,0,0,0-.69-1A20.76,20.76,0,0,0,5.17,30.3c-.35-.28-.73-.55-1.08-.85a1.7,1.7,0,0,1-.43-.53C2.82,27.05,2,25.17,1.15,23.29a1.48,1.48,0,0,1,.6-2,1.29,1.29,0,0,1,1.34.05,2.78,2.78,0,0,1,1,1.16c.53,1.07,1,2.14,1.56,3.22a1.8,1.8,0,0,0,.92.92c.59.24,1.18.46,1.77.69Zm1.94,6.95,3.19-1.46c.15-.07.1-.16.07-.26-.13-.43-.27-.85-.37-1.28a8.39,8.39,0,0,0-1.5-3.3C11.1,27,10.2,26,9.3,24.91a1.25,1.25,0,0,0-.49-.31c-.22-.1-.27,0-.29.19a1.31,1.31,0,0,0,.29.87c.55.74,1.09,1.48,1.63,2.23A.68.68,0,0,1,9.74,29a17,17,0,0,1-3.44-1.1,3.4,3.4,0,0,1-1.78-1.76c-.46-1-.94-2-1.45-3a2.87,2.87,0,0,0-.57-.69c-.12-.12-.28,0-.29.13a.52.52,0,0,0,0,.24c.82,1.84,1.64,3.67,2.47,5.51a.73.73,0,0,0,.2.26c.42.34.85.65,1.26,1A16.12,16.12,0,0,1,10.55,34.37ZM9.94,36l.6,1.38L15.76,35l-.6-1.38Z"/><path class="cls-1" d="M22.56,21.21c0,.48,0,1,0,1.45a.57.57,0,0,1-.59.64.58.58,0,0,1-.59-.65c0-1,0-2,0-2.93,0-.23-.07-.3-.29-.29-.63,0-1.25,0-1.88,0-.43,0-.69-.23-.69-.6s.26-.6.69-.6c.64,0,1.28,0,1.93,0,.18,0,.24-.05.24-.23,0-.63,0-1.25,0-1.88a.6.6,0,1,1,1.2,0V18c0,.18.05.24.23.24.67,0,1.34,0,2,0a.57.57,0,0,1,.58.38.53.53,0,0,1-.14.63.82.82,0,0,1-.47.17c-.65,0-1.3,0-1.95,0-.19,0-.26.05-.26.25,0,.51,0,1,0,1.53Z"/></g></svg>