<svg id="Capa_1" data-name="Capa 1" xmlns="http://www.w3.org/2000/svg" viewBox="0 0 36 43"><defs><style>.cls-1{fill:#fff;}</style></defs><g id="GWBQkl"><path class="cls-1" d="M31,39.15H5.09l-.12,0a2.06,2.06,0,0,1-1.75-2c0-.54,0-1.08,0-1.61V5.35a2,2,0,0,1,1.69-2l.3,0H31.1l.12,0a2,2,0,0,1,1.7,1.9q0,6.89,0,13.78c0,3.44,0,6.88,0,10.33v7.74a2.07,2.07,0,0,1-1.65,2Zm.62-17.93h0V15q0-4.77,0-9.54a.75.75,0,0,0-.82-.82H5.34a.85.85,0,0,0-.23,0,.8.8,0,0,0-.57.89c0,2.84,0,5.69,0,8.54v8.1q0,3.76,0,7.53c0,2.4,0,4.8,0,7.2a.77.77,0,0,0,.86.88H30.83a.72.72,0,0,0,.72-.52,1.38,1.38,0,0,0,.06-.46q0-3.21,0-6.42Z"/><path class="cls-1" d="M22.13,35.31,23.73,32c.26-.55.52-1.09.77-1.65a1.4,1.4,0,0,0,.1-.54c0-1.74,0-3.48,0-5.21,0-.28,0-.28.28-.27A5.53,5.53,0,0,1,28,25.4a5.81,5.81,0,0,1,.05,9.32,5.57,5.57,0,0,1-5.49.81C22.44,35.47,22.3,35.39,22.13,35.31Z"/><path class="cls-1" d="M18,30.37h5.72l-2.46,5.16A5.6,5.6,0,0,1,18,30.37Z"/><path class="cls-1" d="M24.9,19.62H20.79A.85.85,0,0,1,20.42,18a1.84,1.84,0,0,1,.41,0h7.8a3.58,3.58,0,0,1,.73,0,.82.82,0,0,1,.64.86.8.8,0,0,1-.73.78c-.58,0-1.17,0-1.75,0H24.9Z"/><path class="cls-1" d="M11.57,23.65h4.2a.85.85,0,0,1,.89.94.87.87,0,0,1-.94.77h-8a2.24,2.24,0,0,1-.52-.05.8.8,0,0,1-.66-.91.87.87,0,0,1,.86-.75h4.22Z"/><path class="cls-1" d="M11.57,35.89H7.32a.79.79,0,0,1-.81-.65.82.82,0,0,1,.41-.94,1,1,0,0,1,.42-.08h8.42a.83.83,0,0,1,.86.56.82.82,0,0,1-.31.95,1,1,0,0,1-.52.16Z"/><path class="cls-1" d="M11.58,30.62H7.39a.84.84,0,0,1-.84-.51.83.83,0,0,1,.78-1.17c1.26,0,2.51,0,3.77,0h4.67a.84.84,0,1,1,0,1.67c-1.39,0-2.79,0-4.18,0Z"/><path class="cls-1" d="M24.91,9.06H20.7a.8.8,0,0,1-.87-.85.84.84,0,0,1,.87-.83h8.41a.85.85,0,0,1,.68,1.4.77.77,0,0,1-.62.28H24.91Z"/><path class="cls-1" d="M24.92,12.67c1.39,0,2.78,0,4.17,0a.9.9,0,0,1,.9.85.88.88,0,0,1-.9.84H20.74a.85.85,0,0,1-.9-.67.82.82,0,0,1,.8-1Z"/><path class="cls-1" d="M7.38,18.4h9.86l.27,0c.24,0,.37.17.36.36a.37.37,0,0,1-.41.33H7.13c-.37,0-.47-.14-.47-.51V8.41A.75.75,0,0,1,6.75,8a.32.32,0,0,1,.57.07.83.83,0,0,1,.06.35v10Z"/><path class="cls-1" d="M17.19,18.12H15.84c0-.07,0-.13,0-.19,0-1.75,0-3.49,0-5.24a1.18,1.18,0,0,1,.14-.55c.33-.61.7-1.21,1.05-1.81a.18.18,0,0,1,.09-.08C17.23,12.87,17.22,15.48,17.19,18.12Z"/><path class="cls-1" d="M9.15,15.14l-1.51,3a2.69,2.69,0,0,1,.21-1.71c.32-.51.56-1.08.83-1.62.18-.36.25-.39.62-.23l1.46.62.33.13c.19-.39.37-.78.55-1.16L12.18,13c.13-.26.21-.3.48-.22l1.37.44c.13,0,.22,0,.29-.1l2.24-3.84a1,1,0,0,0,.06-.14l-.28,0,1.17-.9L17.3,9.71l-.18-.21L17,9.73c-.76,1.29-1.51,2.59-2.27,3.89-.2.33-.26.35-.63.23s-.82-.25-1.22-.39a.23.23,0,0,0-.32.15c-.33.71-.67,1.42-1,2.12-.13.28-.22.31-.5.19Z"/><path class="cls-1" d="M24,23.68v5.76H18.25A5.67,5.67,0,0,1,24,23.68Zm-.36.35a1,1,0,0,0-.24,0,10.27,10.27,0,0,0-1.47.4,5.33,5.33,0,0,0-3.33,4.43c0,.24,0,.27.24.27h4.8Z"/><path class="cls-1" d="M13.9,14.2c.68.09.68.09,1.28-.63v4.54H13.9Z"/><path class="cls-1" d="M13.24,18.11H11.93l0,0c0-.63,0-1.27,0-1.9a3.2,3.2,0,0,1,.22-.9c.17-.43.4-.84.6-1.26,0-.1.1-.19.23-.13s.3,0,.3.26c0,1.28,0,2.56,0,3.85A.74.74,0,0,1,13.24,18.11Z"/><path class="cls-1" d="M11.26,18.12H9.93V15.87l1.27.51a.14.14,0,0,1,.06.11Z"/><path class="cls-1" d="M9.27,15.75v2.36H8.05l1.19-2.37Z"/></g></svg>