<svg id="Capa_1" data-name="Capa 1" xmlns="http://www.w3.org/2000/svg" viewBox="0 0 16.03 16"><defs><style>.cls-1{fill:#e20613;}.cls-2{fill:#fff;}</style></defs><circle class="cls-1" cx="8.02" cy="8" r="7.38"/><g id="MsHfNR"><path class="cls-2" d="M11.69,8.07a3.65,3.65,0,0,0-1.14-2.79,3.51,3.51,0,0,0-2-.94,3.74,3.74,0,0,0-2.61.57A3.44,3.44,0,0,0,4.37,7.32,4.91,4.91,0,0,0,4.31,8a.51.51,0,1,1-1,0A4.59,4.59,0,0,1,4.4,5,4.67,4.67,0,0,1,7.13,3.39a4.34,4.34,0,0,1,3.13.53,4.68,4.68,0,0,1,2.35,3.26,4.38,4.38,0,0,1-.76,3.45,4.72,4.72,0,0,1-2.92,2,5.43,5.43,0,0,1-.81.1.5.5,0,1,1,0-1,3.6,3.6,0,0,0,3.51-2.87,1.87,1.87,0,0,0,0-.25C11.67,8.38,11.68,8.19,11.69,8.07Z"/><path class="cls-2" d="M7.3,6.79V5.62a.49.49,0,0,1,.4-.51.5.5,0,0,1,.6.48V7.68a.26.26,0,0,0,.07.18L9.74,9.23a.49.49,0,0,1,.14.5.5.5,0,0,1-.82.23L7.43,8.34A.51.51,0,0,1,7.3,8Z"/></g><path class="cls-2" d="M6.35,12.7a.53.53,0,0,1-.13.2A.9.9,0,0,1,6,13a.74.74,0,0,1-.25.05A.75.75,0,0,1,5.51,13a.9.9,0,0,1-.2-.14.66.66,0,0,1-.18-.45.47.47,0,0,1,0-.24.46.46,0,0,1,.13-.2.66.66,0,0,1,.2-.14.75.75,0,0,1,.26,0,.74.74,0,0,1,.25,0,.66.66,0,0,1,.2.14.46.46,0,0,1,.13.2.47.47,0,0,1,.05.24A.53.53,0,0,1,6.35,12.7Z"/><polygon class="cls-2" points="6.31 11.4 5.22 11.4 5.07 8.04 6.46 8.04 6.31 11.4"/></svg>