<svg id="Capa_1" data-name="Capa 1" xmlns="http://www.w3.org/2000/svg" xmlns:xlink="http://www.w3.org/1999/xlink" viewBox="0 0 301 301"><defs><style>.cls-1,.cls-6{fill:none;}.cls-2{fill:#ebc002;}.cls-3{clip-path:url(#clip-path);}.cls-4{fill:#e3ae00;}.cls-5{fill:#fff;}.cls-6{stroke:#fff;stroke-miterlimit:10;stroke-width:5px;}</style><clipPath id="clip-path"><path class="cls-1" d="M145.62,70.77l186.94,60.94-107,180.14L97,195.42h0l1.54-7.83-1.27-6.35.85-5.51h0l-3.44-9.17-2-12.26-.11-7.48-1.27-9.89-.43-12.48,2.55-10.09L86.74,95.65S125.25,102,145.62,70.77Z"/></clipPath></defs><circle class="cls-2" cx="145.82" cy="146.82" r="131.82"/><g class="cls-3"><circle class="cls-4" cx="145.7" cy="146.68" r="131.82"/></g><path class="cls-5" d="M205,119.47h.11c.46-9.25.93-18.53,1.4-27.93h-1.37c-3.09,0-6.18,0-9.27,0a99.49,99.49,0,0,1-22.69-2.42c-7.94-2-15.15-5.35-21-11.23-2.2-2.21-4.16-4.67-6.28-7.08a1.56,1.56,0,0,0-.27.14c-.72.85-1.46,1.68-2.14,2.56-6.69,8.73-15.68,13.63-26.26,16-8.07,1.77-16.25,2.12-24.46,2.1H85.19c.18,3.75.34,7.32.55,10.88a.84.84,0,0,0,.6.57c2.91,0,5.82,0,8.86,0v-2.91a3.75,3.75,0,0,1,.47-.14h1.86c7.5-.07,15-.25,22.4-1.66,9.1-1.74,17.29-5.32,24.16-11.66L145.81,85c.3.27.51.45.72.65A51.5,51.5,0,0,0,165.59,97.5a80.31,80.31,0,0,0,23,4.21c2.54.14,5.08.22,7.78.33-.31,6.11-.63,12.16-.93,18.06l.27,0-.25,0s-1.61,28.78-1.82,31.54h0s0,.28-.08.56c-.55,6.23-1,12.48-1.66,18.71A47.85,47.85,0,0,1,188,186.4c-2.84,6.09-7.42,10.65-12.87,14.4-8.87,6.08-18.75,10.12-28.72,13.94a2.12,2.12,0,0,1-1.4-.08c-1.82-.66-3.62-1.38-5.41-2.11-7.83-3.19-15.56-6.61-22.56-11.41-2.33-1.6-4.5-3.44-6.8-5.22a12.18,12.18,0,0,1-8.82,5.22c.49.53.78.87,1.1,1.18a60.18,60.18,0,0,0,11.51,8.5c9.88,5.82,20.49,10,31.18,14a2,2,0,0,0,1.3,0c10.06-3.81,20.07-7.73,29.46-13,5.43-3.08,10.63-6.51,14.83-11.2,5.6-6.26,8.54-13.79,9.76-21.95,1-7,1.57-14,2.29-21,.16-1.57.19-3.16.27-4.45l-.23,0,.18,0Z"/><path class="cls-5" d="M198.91,91.52c-8.21,0-16.39-.33-24.46-2.1-10.58-2.32-19.57-7.22-26.26-16-.68-.88-1.43-1.71-2.15-2.56,0,0-.13-.07-.26-.14-2.12,2.41-4.08,4.87-6.28,7.08-5.83,5.88-13,9.27-21,11.23A99.49,99.49,0,0,1,95.83,91.5c-3.09,0-6.18,0-9.27,0H85.19c.47,9.4.94,18.68,1.4,27.93h.11l1.92,33.71.17,0-.22,0c.08,1.29.11,2.88.27,4.45.72,7,1.25,14,2.29,21,1.22,8.16,4.15,15.69,9.75,21.95,4.21,4.69,9.41,8.12,14.84,11.2,9.39,5.31,19.4,9.23,29.46,13a2,2,0,0,0,1.3,0c10.69-4,21.3-8.19,31.18-14a60.18,60.18,0,0,0,11.51-8.5c.32-.31.61-.65,1.1-1.18a12.18,12.18,0,0,1-8.82-5.22c-2.3,1.78-4.47,3.62-6.8,5.22-7,4.8-14.73,8.22-22.56,11.41-1.79.73-3.59,1.45-5.41,2.11a2.12,2.12,0,0,1-1.4.08c-10-3.82-19.85-7.86-28.72-13.94-5.45-3.75-10-8.31-12.87-14.4a47.85,47.85,0,0,1-3.94-15.49c-.64-6.23-1.11-12.48-1.67-18.71,0-.28-.07-.56-.07-.56h0c-.21-2.76-1.83-31.54-1.83-31.54l-.24,0,.27,0c-.31-5.9-.62-11.95-.93-18.06,2.7-.11,5.24-.19,7.78-.33a80.18,80.18,0,0,0,23-4.21,51.46,51.46,0,0,0,19.07-11.83c.2-.2.42-.38.72-.65l1.72,1.59c6.87,6.34,15.06,9.92,24.16,11.66,7.4,1.41,14.9,1.59,22.4,1.66H196a3.75,3.75,0,0,1,.47.14V103c3,0,6,0,8.86,0a.86.86,0,0,0,.6-.57c.21-3.56.37-7.13.55-10.88Z"/><polygon class="cls-6" points="178.16 138.51 152.88 138.51 152.88 114.26 137.4 114.26 137.4 138.51 114.19 138.51 114.19 153.99 137.4 153.99 137.4 178.24 152.88 178.24 152.88 153.99 178.16 153.99 178.16 138.51"/><path class="cls-5" d="M189.45,59.85a9.24,9.24,0,1,1,9.24-9.24A9.24,9.24,0,0,1,189.45,59.85Zm0-17.33a8.09,8.09,0,1,0,8.09,8.09A8.1,8.1,0,0,0,189.45,42.52Z"/><rect class="cls-5" x="188.87" y="37.4" width="1.15" height="4.54"/><rect class="cls-5" x="187.41" y="36.83" width="4.09" height="1.15"/><rect class="cls-5" x="188.87" y="59.81" width="1.15" height="4.54"/><rect class="cls-5" x="187.41" y="63.78" width="4.09" height="1.15"/><rect class="cls-5" x="195.1" y="42.11" width="4.54" height="1.16" transform="translate(27.62 152.07) rotate(-45)"/><rect class="cls-5" x="198.4" y="39.04" width="1.16" height="4.09" transform="translate(29.2 152.69) rotate(-44.99)"/><rect class="cls-5" x="179.26" y="57.96" width="4.54" height="1.16" transform="translate(11.78 145.5) rotate(-45)"/><rect class="cls-5" x="179.35" y="58.1" width="1.16" height="4.09" transform="translate(10.17 144.84) rotate(-45)"/><rect class="cls-5" x="198.12" y="50.17" width="3.49" height="0.89"/><rect class="cls-5" x="201.16" y="49.04" width="0.89" height="3.14"/><rect class="cls-5" x="177.72" y="50.17" width="3.49" height="0.89"/><rect class="cls-5" x="177.28" y="49.04" width="0.89" height="3.14"/><rect class="cls-5" x="196.79" y="56.76" width="1.16" height="4.54" transform="translate(16.09 156.89) rotate(-45.01)"/><rect class="cls-5" x="196.93" y="60.06" width="4.09" height="1.16" transform="translate(15.4 158.46) rotate(-45)"/><rect class="cls-5" x="180.95" y="40.92" width="1.16" height="4.54" transform="translate(22.63 141.01) rotate(-45)"/><rect class="cls-5" x="177.88" y="41" width="4.09" height="1.16" transform="translate(23.3 139.4) rotate(-45)"/><circle class="cls-5" cx="185.14" cy="47.2" r="0.58"/><circle class="cls-5" cx="188.67" cy="50.32" r="0.58"/><circle class="cls-5" cx="184.56" cy="52.77" r="0.58"/><circle class="cls-5" cx="194.44" cy="52.18" r="0.58"/><circle class="cls-5" cx="189.45" cy="55.89" r="0.78"/><circle class="cls-5" cx="193.76" cy="47.89" r="0.68"/><path class="cls-5" d="M58.78,148.19a7.45,7.45,0,1,1,7.45-7.45A7.46,7.46,0,0,1,58.78,148.19Zm0-14a6.52,6.52,0,1,0,6.52,6.52A6.53,6.53,0,0,0,58.78,134.22Z"/><rect class="cls-5" x="58.32" y="130.09" width="0.93" height="3.66"/><rect class="cls-5" x="57.13" y="129.63" width="3.29" height="0.93"/><rect class="cls-5" x="58.32" y="148.15" width="0.93" height="3.66"/><rect class="cls-5" x="57.13" y="151.35" width="3.29" height="0.93"/><rect class="cls-5" x="63.34" y="133.89" width="3.66" height="0.93" transform="translate(-75.92 85.43) rotate(-45)"/><rect class="cls-5" x="65.99" y="131.41" width="0.93" height="3.29" transform="translate(-74.61 85.94) rotate(-44.99)"/><rect class="cls-5" x="50.56" y="146.66" width="3.66" height="0.93" transform="translate(-88.69 80.14) rotate(-45)"/><rect class="cls-5" x="50.63" y="146.77" width="0.93" height="3.3" transform="translate(-89.98 79.61) rotate(-45)"/><rect class="cls-5" x="65.77" y="140.38" width="2.81" height="0.72"/><rect class="cls-5" x="68.22" y="139.48" width="0.71" height="2.53"/><rect class="cls-5" x="49.33" y="140.38" width="2.81" height="0.72"/><rect class="cls-5" x="48.97" y="139.48" width="0.71" height="2.53"/><rect class="cls-5" x="64.7" y="145.7" width="0.93" height="3.66" transform="translate(-85.24 89.32) rotate(-45.01)"/><rect class="cls-5" x="64.81" y="148.35" width="3.29" height="0.93" transform="translate(-85.77 90.58) rotate(-45)"/><rect class="cls-5" x="51.93" y="132.93" width="0.93" height="3.66" transform="translate(-79.94 76.52) rotate(-45)"/><rect class="cls-5" x="49.45" y="132.99" width="3.3" height="0.93" transform="translate(-79.4 75.22) rotate(-45)"/><circle class="cls-5" cx="55.31" cy="137.99" r="0.47"/><circle class="cls-5" cx="58.15" cy="140.51" r="0.47"/><circle class="cls-5" cx="54.84" cy="142.48" r="0.47"/><circle class="cls-5" cx="62.81" cy="142.01" r="0.47"/><circle class="cls-5" cx="58.78" cy="145" r="0.63"/><circle class="cls-5" cx="62.25" cy="138.54" r="0.55"/></svg>