<svg id="Capa_1" data-name="Capa 1" xmlns="http://www.w3.org/2000/svg" xmlns:xlink="http://www.w3.org/1999/xlink" viewBox="0 0 301 301"><defs><style>.cls-1{fill:none;}.cls-2{fill:#f19001;}.cls-3{clip-path:url(#clip-path);}.cls-4{fill:#dc800b;}.cls-5,.cls-6{fill:#fff;}.cls-6{stroke:#fff;stroke-miterlimit:10;stroke-width:0.51px;}</style><clipPath id="clip-path"><path class="cls-1" d="M149,77.51l188,55.21L224.42,314.05,100.64,196.35,99,173.7l-4.17-3.29,2.89-9.74-2.27-10.86V139.49L94.29,135l-1.76-7L95,122.42h0v-7.5l-.75-9.18-4.87.78L88,92.12S119.64,105.11,149,77.51Z"/></clipPath></defs><circle class="cls-2" cx="149.03" cy="147.94" r="132.69"/><g class="cls-3"><circle class="cls-4" cx="148.9" cy="147.79" r="132.69"/></g><path class="cls-5" d="M208.7,120.4h.1c.47-9.32.94-18.66,1.42-28.13h-1.38c-3.12,0-6.23,0-9.34,0a100.24,100.24,0,0,1-22.84-2.44c-8-2-15.25-5.38-21.11-11.3-2.22-2.23-4.19-4.71-6.33-7.13a1.56,1.56,0,0,0-.27.14c-.72.86-1.47,1.69-2.15,2.58-6.73,8.78-15.79,13.72-26.44,16.05-8.12,1.78-16.35,2.13-24.62,2.11h-7.6c.18,3.77.35,7.36.56,10.95a.87.87,0,0,0,.6.58c2.93,0,5.86,0,8.92,0v-2.93a2.3,2.3,0,0,1,.47-.13c.63,0,1.25,0,1.87,0,7.55-.07,15.1-.25,22.55-1.67,9.16-1.75,17.41-5.36,24.32-11.74l1.73-1.6c.3.27.52.45.72.65a51.92,51.92,0,0,0,19.2,11.92,80.87,80.87,0,0,0,23.16,4.23c2.56.14,5.12.22,7.84.33-.32,6.16-.63,12.25-.94,18.18h0s-1.62,29-1.83,31.75h0s0,.28-.07.56c-.55,6.28-1,12.57-1.68,18.84a48,48,0,0,1-4,15.6c-2.86,6.12-7.47,10.72-13,14.48-8.93,6.13-18.88,10.19-28.91,14a2.18,2.18,0,0,1-1.42-.08c-1.83-.67-3.64-1.39-5.44-2.13-7.89-3.2-15.66-6.65-22.71-11.48-2.35-1.61-4.52-3.47-6.84-5.26a12.31,12.31,0,0,1-8.88,5.26c.49.54.78.88,1.1,1.19a60.23,60.23,0,0,0,11.59,8.55c9.94,5.86,20.63,10.07,31.39,14.11a2,2,0,0,0,1.3,0c10.13-3.83,20.21-7.77,29.66-13.12,5.47-3.1,10.7-6.55,14.93-11.28,5.64-6.29,8.59-13.88,9.82-22.09,1-7,1.58-14.08,2.31-21.13.16-1.59.19-3.19.27-4.49l-.23,0,.18,0Z"/><path class="cls-5" d="M202.61,92.26c-8.27,0-16.5-.33-24.62-2.11-10.65-2.33-19.7-7.27-26.43-16.05-.68-.89-1.44-1.72-2.16-2.58a1.56,1.56,0,0,0-.27-.14c-2.14,2.42-4.11,4.9-6.32,7.13-5.87,5.92-13.12,9.33-21.12,11.3a100.24,100.24,0,0,1-22.84,2.44c-3.11,0-6.22,0-9.33,0H88.14c.47,9.47.94,18.81,1.41,28.13h.11l1.94,33.93.17,0-.22,0c.07,1.3.1,2.9.27,4.49.72,7,1.26,14.13,2.3,21.13,1.23,8.21,4.18,15.8,9.82,22.09,4.23,4.73,9.47,8.18,14.94,11.28,9.45,5.35,19.52,9.29,29.65,13.12a2,2,0,0,0,1.31,0c10.76-4,21.44-8.25,31.38-14.11a60.23,60.23,0,0,0,11.59-8.55c.32-.31.61-.65,1.1-1.19a12.27,12.27,0,0,1-8.87-5.26c-2.32,1.79-4.5,3.65-6.84,5.26-7.06,4.83-14.83,8.28-22.72,11.48-1.8.74-3.61,1.46-5.44,2.13a2.15,2.15,0,0,1-1.41.08c-10-3.85-20-7.91-28.91-14-5.49-3.76-10.09-8.36-13-14.48a48,48,0,0,1-4-15.6c-.64-6.27-1.12-12.56-1.68-18.84,0-.28-.07-.56-.07-.56h0C100.82,150,99.19,121,99.19,121h0c-.3-5.93-.62-12-.94-18.18,2.72-.11,5.28-.19,7.84-.33a80.94,80.94,0,0,0,23.17-4.23,51.88,51.88,0,0,0,19.19-11.92c.2-.2.42-.38.72-.65l1.73,1.6c6.92,6.38,15.16,10,24.32,11.74,7.46,1.42,15,1.6,22.55,1.67.62,0,1.25,0,1.87,0a2.15,2.15,0,0,1,.47.13v2.93c3.06,0,6,0,8.92,0a.91.91,0,0,0,.61-.58c.21-3.59.37-7.18.56-10.95Z"/><path class="cls-6" d="M166.17,156.3c1.45-2.79,2.75-5.68,4.4-8.36a53.8,53.8,0,0,1,4.9-6.56,8.18,8.18,0,0,1,2.79-1.8c3-1.41,5.9-1.05,7.88.85s2.39,4.84,1,7.85c-1.55,3.42-3.37,6.72-4.87,10.16-2.36,5.42-4.54,10.93-6.82,16.39-4.43,10.61-12.27,15.85-23.81,15.87-4.76,0-9.53.16-14.27-.14a19.6,19.6,0,0,1-18.31-19c-.2-14.76-.11-29.53,0-44.3,0-4.79,3.89-8,8.56-6.91a15.72,15.72,0,0,1,2.32.87,24.28,24.28,0,0,0,0-2.85c-.73-5.82,4.58-10.26,10.83-7.24.46-2.19,1.35-4.22,3.43-5.2a9,9,0,0,1,4.36-.95c4.08.34,5.49,2.66,6.26,9.68.28-.09.55-.16.81-.26,5.15-2.11,10,1.07,10,6.64q0,16.56,0,33.13v1.89Zm-44.3-6.88c0,7.11,0,14.22,0,21.33a17.14,17.14,0,0,0,16.92,17c4.75.06,9.51.09,14.27,0,8.6-.17,14.9-4.18,18.72-11.86,1.8-3.61,3.24-7.41,4.86-11.11q3.49-8,7-15.92c.35-.8.78-1.58,1.08-2.4a3.46,3.46,0,0,0-.64-3.93,3.35,3.35,0,0,0-3.76-.66,6,6,0,0,0-2.47,1.28,50.71,50.71,0,0,0-4.73,6c-2.5,3.89-4.74,7.94-7.2,11.85l0,0a1.73,1.73,0,0,1-3-.41c-.09-.23-.19-.45-.28-.68a2,2,0,0,1,0-.7q0-10.31,0-20.62c0-5.82,0-11.64,0-17.45a4.13,4.13,0,0,0-2.52-4.26c-3-1.27-6.09,1.28-5.4,5,.91,5,1.4,10,.34,15-.71,3.33-.33,6.7-.47,10.05-.06,1.34-1.17,2.17-2.06,1.48a2.8,2.8,0,0,1-.77-2c-.06-5.93,0-11.86,0-17.8,0-5.4,0-10.81,0-16.21,0-2-.64-3.61-2.58-4.39-2.75-1.12-5.45.87-5.45,4,0,11.64,0,23.27,0,34.9,0,.53.16,1.17-.07,1.56s-.94,1.22-1.43,1.22-1.05-.75-1.3-1.3a4.35,4.35,0,0,1-.07-1.74q0-14.44,0-28.9c0-2-.55-3.62-2.46-4.48-2.81-1.26-5.59.81-5.6,4.18q0,16.12,0,32.25c0,.53.14,1.16-.1,1.56a2.1,2.1,0,0,1-1.38,1c-.45,0-1-.61-1.3-1.1a3.63,3.63,0,0,1-.09-1.56c0-7.34,0-14.69,0-22,0-2.92-1.59-4.66-4.14-4.6s-3.89,1.77-3.89,4.65Q121.87,138.59,121.87,149.42Z"/><path class="cls-5" d="M113.88,76.39a8.67,8.67,0,1,1,8.67-8.66A8.68,8.68,0,0,1,113.88,76.39Zm0-16.25a7.59,7.59,0,1,0,7.59,7.59A7.6,7.6,0,0,0,113.88,60.14Z"/><rect class="cls-5" x="113.34" y="55.34" width="1.08" height="4.26"/><rect class="cls-5" x="111.96" y="54.8" width="3.83" height="1.08"/><rect class="cls-5" x="113.34" y="76.35" width="1.08" height="4.26"/><rect class="cls-5" x="111.96" y="80.07" width="3.83" height="1.08"/><rect class="cls-5" x="119.18" y="59.76" width="4.26" height="1.08" transform="translate(-7.11 103.44) rotate(-45)"/><rect class="cls-5" x="122.27" y="56.88" width="1.08" height="3.83" transform="translate(-5.61 104.03) rotate(-44.99)"/><rect class="cls-5" x="104.32" y="74.61" width="4.26" height="1.08" transform="translate(-21.96 97.28) rotate(-45)"/><rect class="cls-5" x="104.4" y="74.74" width="1.08" height="3.83" transform="translate(-23.47 96.66) rotate(-45)"/><rect class="cls-5" x="122.01" y="67.31" width="3.27" height="0.83"/><rect class="cls-5" x="124.86" y="66.25" width="0.83" height="2.94"/><rect class="cls-5" x="102.88" y="67.31" width="3.27" height="0.83"/><rect class="cls-5" x="102.47" y="66.25" width="0.83" height="2.94"/><rect class="cls-5" x="120.77" y="73.49" width="1.08" height="4.26" transform="translate(-17.93 107.95) rotate(-45.01)"/><rect class="cls-5" x="120.9" y="76.58" width="3.83" height="1.08" transform="translate(-18.56 109.43) rotate(-45)"/><rect class="cls-5" x="105.91" y="58.63" width="1.08" height="4.26" transform="translate(-11.79 93.07) rotate(-45)"/><rect class="cls-5" x="103.03" y="58.71" width="3.83" height="1.08" transform="translate(-11.16 91.56) rotate(-45)"/><circle class="cls-5" cx="109.84" cy="64.53" r="0.55"/><circle class="cls-5" cx="113.15" cy="67.46" r="0.55"/><circle class="cls-5" cx="109.3" cy="69.75" r="0.55"/><circle class="cls-5" cx="118.56" cy="69.2" r="0.55"/><circle class="cls-5" cx="113.88" cy="72.68" r="0.73"/><circle class="cls-5" cx="117.92" cy="65.17" r="0.64"/><path class="cls-5" d="M67.4,138.92a7.48,7.48,0,1,1,7.48-7.48A7.48,7.48,0,0,1,67.4,138.92Zm0-14A6.55,6.55,0,1,0,74,131.44,6.55,6.55,0,0,0,67.4,124.9Z"/><rect class="cls-5" x="66.94" y="120.76" width="0.93" height="3.67"/><rect class="cls-5" x="65.75" y="120.29" width="3.31" height="0.93"/><rect class="cls-5" x="66.94" y="138.88" width="0.93" height="3.67"/><rect class="cls-5" x="65.75" y="142.09" width="3.31" height="0.93"/><rect class="cls-5" x="71.97" y="124.57" width="3.68" height="0.93" transform="translate(-66.79 88.81) rotate(-45)"/><rect class="cls-5" x="74.64" y="122.08" width="0.93" height="3.31" transform="translate(-65.49 89.32) rotate(-44.99)"/><rect class="cls-5" x="59.16" y="137.38" width="3.67" height="0.93" transform="translate(-79.61 83.51) rotate(-45)"/><rect class="cls-5" x="59.23" y="137.5" width="0.93" height="3.31" transform="translate(-80.91 82.97) rotate(-45)"/><rect class="cls-5" x="74.41" y="131.08" width="2.82" height="0.72"/><rect class="cls-5" x="76.88" y="130.17" width="0.72" height="2.54"/><rect class="cls-5" x="57.92" y="131.08" width="2.82" height="0.72"/><rect class="cls-5" x="57.56" y="130.17" width="0.72" height="2.54"/><rect class="cls-5" x="73.34" y="136.42" width="0.93" height="3.67" transform="translate(-76.15 92.72) rotate(-45.01)"/><rect class="cls-5" x="73.46" y="139.08" width="3.31" height="0.93" transform="translate(-76.68 93.98) rotate(-45)"/><rect class="cls-5" x="60.53" y="123.6" width="0.93" height="3.67" transform="translate(-70.83 79.87) rotate(-45)"/><rect class="cls-5" x="58.04" y="123.67" width="3.31" height="0.93" transform="translate(-70.29 78.57) rotate(-45)"/><circle class="cls-5" cx="63.92" cy="128.69" r="0.47"/><circle class="cls-5" cx="66.77" cy="131.21" r="0.47"/><circle class="cls-5" cx="63.45" cy="133.19" r="0.47"/><circle class="cls-5" cx="71.44" cy="132.71" r="0.47"/><circle class="cls-5" cx="67.4" cy="135.72" r="0.63"/><circle class="cls-5" cx="70.89" cy="129.24" r="0.55"/><path class="cls-5" d="M80.46,198a7.5,7.5,0,1,1,7.5-7.5A7.51,7.51,0,0,1,80.46,198Zm0-14.07A6.57,6.57,0,1,0,87,190.53,6.58,6.58,0,0,0,80.46,184Z"/><rect class="cls-5" x="79.99" y="179.81" width="0.94" height="3.68"/><rect class="cls-5" x="78.8" y="179.34" width="3.32" height="0.93"/><rect class="cls-5" x="79.99" y="197.99" width="0.94" height="3.69"/><rect class="cls-5" x="78.8" y="201.21" width="3.32" height="0.93"/><rect class="cls-5" x="85.04" y="183.63" width="3.69" height="0.94" transform="translate(-104.73 115.36) rotate(-45)"/><rect class="cls-5" x="87.72" y="181.14" width="0.94" height="3.32" transform="translate(-103.41 115.86) rotate(-44.99)"/><rect class="cls-5" x="72.19" y="196.49" width="3.68" height="0.94" transform="translate(-117.59 110.03) rotate(-45)"/><rect class="cls-5" x="72.26" y="196.6" width="0.94" height="3.32" transform="translate(-118.89 109.49) rotate(-45)"/><rect class="cls-5" x="87.49" y="190.17" width="2.83" height="0.72"/><rect class="cls-5" x="89.96" y="189.25" width="0.72" height="2.55"/><rect class="cls-5" x="70.94" y="190.17" width="2.83" height="0.72"/><rect class="cls-5" x="70.58" y="189.25" width="0.72" height="2.55"/><rect class="cls-5" x="86.42" y="195.51" width="0.94" height="3.68" transform="translate(-114.12 119.28) rotate(-45.01)"/><rect class="cls-5" x="86.53" y="198.19" width="3.32" height="0.94" transform="translate(-114.64 120.54) rotate(-45)"/><rect class="cls-5" x="73.56" y="182.66" width="0.94" height="3.68" transform="translate(-108.78 106.39) rotate(-45)"/><rect class="cls-5" x="71.07" y="182.73" width="3.32" height="0.94" transform="translate(-108.24 105.08) rotate(-45)"/><circle class="cls-5" cx="76.96" cy="187.76" r="0.47"/><circle class="cls-5" cx="79.82" cy="190.29" r="0.47"/><circle class="cls-5" cx="76.49" cy="192.28" r="0.47"/><circle class="cls-5" cx="84.51" cy="191.8" r="0.47"/><circle class="cls-5" cx="80.46" cy="194.81" r="0.64"/><circle class="cls-5" cx="83.95" cy="188.32" r="0.55"/><path class="cls-5" d="M187.71,81.71a9.3,9.3,0,1,1,9.3-9.3A9.32,9.32,0,0,1,187.71,81.71Zm0-17.44a8.14,8.14,0,1,0,8.14,8.14A8.16,8.16,0,0,0,187.71,64.27Z"/><rect class="cls-5" x="187.13" y="59.12" width="1.16" height="4.57"/><rect class="cls-5" x="185.65" y="58.54" width="4.11" height="1.16"/><rect class="cls-5" x="187.13" y="81.67" width="1.16" height="4.57"/><rect class="cls-5" x="185.65" y="85.66" width="4.11" height="1.16"/><rect class="cls-5" x="193.39" y="63.86" width="4.57" height="1.16" transform="translate(11.75 157.24) rotate(-45)"/><rect class="cls-5" x="196.72" y="60.77" width="1.16" height="4.11" transform="translate(13.34 157.87) rotate(-44.99)"/><rect class="cls-5" x="177.45" y="79.8" width="4.57" height="1.16" transform="translate(-4.2 150.63) rotate(-45)"/><rect class="cls-5" x="177.54" y="79.94" width="1.16" height="4.11" transform="translate(-5.81 149.97) rotate(-45)"/><rect class="cls-5" x="196.43" y="71.96" width="3.51" height="0.89"/><rect class="cls-5" x="199.5" y="70.83" width="0.89" height="3.16"/><rect class="cls-5" x="175.9" y="71.96" width="3.51" height="0.89"/><rect class="cls-5" x="175.46" y="70.83" width="0.89" height="3.16"/><rect class="cls-5" x="195.1" y="78.6" width="1.16" height="4.57" transform="translate(0.14 162.1) rotate(-45.01)"/><rect class="cls-5" x="195.24" y="81.92" width="4.11" height="1.16" transform="translate(-0.55 163.67) rotate(-45)"/><rect class="cls-5" x="179.15" y="62.65" width="1.16" height="4.57" transform="translate(6.72 146.11) rotate(-45)"/><rect class="cls-5" x="176.06" y="62.74" width="4.11" height="1.16" transform="translate(7.4 144.49) rotate(-45)"/><circle class="cls-5" cx="183.37" cy="68.98" r="0.59"/><circle class="cls-5" cx="186.92" cy="72.12" r="0.59"/><circle class="cls-5" cx="182.79" cy="74.58" r="0.59"/><circle class="cls-5" cx="192.73" cy="73.99" r="0.59"/><circle class="cls-5" cx="187.71" cy="77.73" r="0.79"/><circle class="cls-5" cx="192.05" cy="69.67" r="0.69"/></svg>