<svg id="Capa_1" data-name="Capa 1" xmlns="http://www.w3.org/2000/svg" xmlns:xlink="http://www.w3.org/1999/xlink" viewBox="0 0 301 301"><defs><style>.cls-1{fill:none;}.cls-2{fill:#39a935;}.cls-3{clip-path:url(#clip-path);}.cls-4{fill:#2c8836;}.cls-5{fill:#fff;}</style><clipPath id="clip-path"><path class="cls-1" d="M145.89,72l186.59,60.81-106.8,179.8L97.38,196.44h0l1.53-7.82-1.27-6.34.85-5.5h0l-3.43-9.15-2-12.23L93,147.93l-1.27-9.87-.42-12.45,2.54-10.08L87.13,96.86S125.56,103.19,145.89,72Z"/></clipPath></defs><circle class="cls-2" cx="146.1" cy="147.93" r="131.57"/><g class="cls-3"><circle class="cls-4" cx="145.97" cy="147.79" r="131.57"/></g><path class="cls-5" d="M205.11,120.63h.11c.46-9.24.93-18.5,1.4-27.89h-1.37c-3.08,0-6.17,0-9.26,0a99.12,99.12,0,0,1-22.64-2.42c-7.93-2-15.12-5.34-20.94-11.21-2.19-2.21-4.15-4.66-6.27-7.06-.13.06-.22.08-.26.14-.72.84-1.47,1.67-2.14,2.55-6.68,8.71-15.66,13.6-26.22,15.92-8,1.76-16.21,2.11-24.41,2.09-2.45,0-4.91,0-7.54,0,.19,3.73.35,7.3.56,10.86a.84.84,0,0,0,.6.57c2.9,0,5.81,0,8.84,0v-2.91a3.26,3.26,0,0,1,.47-.13h1.85c7.49-.08,15-.25,22.36-1.66,9.08-1.73,17.26-5.31,24.12-11.64l1.71-1.58c.3.26.52.44.72.64a51.21,51.21,0,0,0,19,11.81,79.91,79.91,0,0,0,23,4.21c2.53.13,5.07.21,7.77.32-.32,6.1-.63,12.14-.93,18l.27,0-.25,0s-1.61,28.73-1.82,31.48h0s0,.28-.07.57c-.55,6.22-1,12.45-1.67,18.67a47.72,47.72,0,0,1-3.93,15.47c-2.84,6.07-7.4,10.63-12.84,14.36-8.85,6.08-18.71,10.1-28.67,13.92a2.26,2.26,0,0,1-1.4-.08c-1.81-.66-3.61-1.38-5.4-2.11-7.82-3.18-15.52-6.59-22.52-11.39-2.32-1.59-4.48-3.43-6.78-5.21a12.19,12.19,0,0,1-8.8,5.22c.49.53.77.87,1.09,1.18a60.8,60.8,0,0,0,11.49,8.48c9.86,5.8,20.45,10,31.12,14a2,2,0,0,0,1.3,0c10-3.8,20-7.71,29.4-13,5.42-3.07,10.61-6.49,14.81-11.18,5.59-6.24,8.52-13.76,9.73-21.9,1-6.94,1.57-14,2.29-21,.16-1.57.19-3.16.27-4.45l-.22,0h.17Z"/><path class="cls-5" d="M199.08,92.73c-8.2,0-16.36-.33-24.41-2.09-10.56-2.32-19.54-7.21-26.21-15.92-.68-.88-1.43-1.71-2.14-2.55,0-.06-.14-.08-.27-.14-2.12,2.4-4.07,4.85-6.27,7.06-5.82,5.87-13,9.26-20.94,11.21A99.06,99.06,0,0,1,96.2,92.72c-3.09,0-6.17,0-9.26,0H85.57c.48,9.39.94,18.65,1.41,27.89h.1L89,154.27h.17l-.22,0c.08,1.29.11,2.88.27,4.45.72,7,1.25,14,2.29,21,1.22,8.14,4.14,15.66,9.73,21.9,4.2,4.69,9.39,8.11,14.81,11.18,9.37,5.31,19.37,9.22,29.41,13a2,2,0,0,0,1.29,0c10.67-4,21.26-8.18,31.12-14a60.8,60.8,0,0,0,11.49-8.48c.32-.31.6-.65,1.1-1.18a12.21,12.21,0,0,1-8.81-5.22c-2.3,1.78-4.45,3.62-6.78,5.21-7,4.8-14.7,8.21-22.52,11.39-1.79.73-3.58,1.45-5.4,2.11a2.25,2.25,0,0,1-1.4.08c-10-3.82-19.81-7.84-28.66-13.92-5.44-3.73-10-8.29-12.85-14.36A47.72,47.72,0,0,1,100.11,172c-.63-6.22-1.11-12.45-1.66-18.67,0-.29-.07-.56-.07-.57h0c-.21-2.75-1.82-31.48-1.82-31.48l-.24,0,.27,0c-.31-5.89-.62-11.93-.93-18,2.69-.11,5.23-.19,7.76-.32a79.85,79.85,0,0,0,23-4.21,51.33,51.33,0,0,0,19-11.81c.2-.2.42-.38.71-.64l1.72,1.58c6.85,6.33,15,9.91,24.11,11.64,7.39,1.41,14.87,1.58,22.36,1.66h1.85a3,3,0,0,1,.47.13v2.91c3,0,5.94,0,8.85,0a.83.83,0,0,0,.59-.57c.21-3.56.38-7.13.56-10.86C204,92.73,201.54,92.72,199.08,92.73Z"/><path class="cls-5" d="M137.29,158.77l38.29-38a2.84,2.84,0,0,1,4.13.13l6.49,7.28a2.84,2.84,0,0,1-.11,3.91l-48.72,48.73a2.86,2.86,0,0,1-4.06,0l-23-23.83a2.86,2.86,0,0,1,.16-4.11l6.72-6A2.85,2.85,0,0,1,121,147l12.31,11.84A2.85,2.85,0,0,0,137.29,158.77Z"/></svg>