<svg id="Capa_1" data-name="Capa 1" xmlns="http://www.w3.org/2000/svg" xmlns:xlink="http://www.w3.org/1999/xlink" viewBox="0 0 301 301"><defs><style>.cls-1{fill:none;}.cls-2{fill:#e00c19;}.cls-3{clip-path:url(#clip-path);}.cls-4{fill:#c41a21;}.cls-5{opacity:0.99;}.cls-6,.cls-7{fill:#fff;}.cls-7{stroke:#fff;stroke-miterlimit:10;stroke-width:0.22px;}</style><clipPath id="clip-path"><path class="cls-1" d="M147.11,74.91,340,133.23,191.57,323.44,96.93,186l-7-5.73,1.6-4.06-.39-24.45L89,144.94c.26-.41,2.19-8.73,2.19-8.73l2.52-29.05L87.41,96.91S117.87,102.37,147.11,74.91Z"/></clipPath></defs><circle class="cls-2" cx="153.01" cy="148.37" r="132.01"/><g class="cls-3"><circle class="cls-4" cx="152.88" cy="148.22" r="132.01"/></g><g id="h8MWaR.tif" class="cls-5"><path class="cls-6" d="M144.69,72.21c-2.12,2.41-4.09,4.87-6.29,7.09-5.83,5.89-13.05,9.28-21,11.25A99.72,99.72,0,0,1,94.68,93c-3.1,0-6.2,0-9.29,0H84c.47,9.42.94,18.71,1.4,28l9.61.63c-.3-5.9-.61-12-.93-18.08,2.7-.11,5.25-.19,7.79-.33a80.39,80.39,0,0,0,23-4.21A51.68,51.68,0,0,0,144,87.12l.71-.64c.59.54,1.16,1.06,1.72,1.59,6.88,6.34,15.09,9.93,24.2,11.67,7.41,1.41,14.92,1.59,22.43,1.66l1.86,0a2.3,2.3,0,0,1,.47.13v2.92c3,0,6,0,8.87,0a.87.87,0,0,0,.6-.58c.21-3.57.38-7.14.56-10.89H197.9c-8.23,0-16.42-.33-24.5-2.1-10.59-2.32-19.6-7.23-26.29-16-.68-.88-1.43-1.71-2.15-2.56C144.91,72.29,144.82,72.27,144.69,72.21Z"/><path class="cls-6" d="M189.24,202.76a12.26,12.26,0,0,1-8.83-5.23c-2.31,1.78-4.47,3.62-6.8,5.22-7,4.81-14.75,8.24-22.6,11.43-1.79.73-3.59,1.45-5.41,2.11a2.22,2.22,0,0,1-1.41.09c-10-3.83-19.88-7.87-28.76-14-5.46-3.75-10-8.31-12.88-14.41a47.72,47.72,0,0,1-4-15.52c-.64-6.24-1.12-12.49-1.67-18.73,0-.29-.07-.57-.07-.57l-9.45,1.57c.07,1.29.1,2.88.26,4.46.73,7,1.26,14.06,2.3,21,1.22,8.16,4.16,15.71,9.77,22,4.21,4.71,9.41,8.14,14.85,11.22,9.4,5.32,19.43,9.25,29.51,13.06a2,2,0,0,0,1.3,0c10.7-4,21.33-8.21,31.22-14a60.29,60.29,0,0,0,11.52-8.51C188.46,203.63,188.75,203.29,189.24,202.76Z"/><path class="cls-6" d="M138.67,169.58h12.14V116.1H138.67Z"/><path class="cls-6" d="M150.85,186.1V173.84H138.58v3.56c0,2.55,0,5.11,0,7.66,0,.35.42,1,.66,1C143.09,186.12,146.91,186.1,150.85,186.1Z"/><polygon class="cls-6" points="85.42 120.97 87.49 156.51 96.93 153.75 95.03 121.6 85.42 120.97"/></g><path class="cls-7" d="M217.82,169a24.23,24.23,0,1,1,5.41-33.85A24.26,24.26,0,0,1,217.82,169Zm-26.67-36.8A21.21,21.21,0,1,0,220.78,137,21.23,21.23,0,0,0,191.15,132.22Z"/><rect class="cls-7" x="185.26" y="120.23" width="3.03" height="11.9" transform="translate(-38.5 133.62) rotate(-35.93)"/><rect class="cls-7" x="177.92" y="119.85" width="10.72" height="3.02" transform="translate(-36.34 130.65) rotate(-35.93)"/><rect class="cls-7" x="219.74" y="167.79" width="3.03" height="11.91" transform="translate(-59.86 162.9) rotate(-35.93)"/><rect class="cls-7" x="219.38" y="177.06" width="10.72" height="3.02" transform="translate(-62.02 165.87) rotate(-35.93)"/><rect class="cls-7" x="202.28" y="118.88" width="11.91" height="3.03" transform="translate(56.53 307.05) rotate(-80.93)"/><rect class="cls-7" x="207.66" y="109.16" width="3.03" height="10.72" transform="translate(63.08 303) rotate(-80.92)"/><rect class="cls-7" x="193.02" y="176.89" width="11.9" height="3.03" transform="translate(-8.56 346.78) rotate(-80.93)"/><rect class="cls-7" x="196.52" y="178.93" width="3.03" height="10.72" transform="translate(-15.15 350.81) rotate(-80.93)"/><rect class="cls-7" x="221.13" y="132.21" width="9.15" height="2.33" transform="translate(-35.32 157.84) rotate(-35.93)"/><rect class="cls-7" x="228.25" y="126.58" width="2.32" height="8.23" transform="translate(-33.04 159.5) rotate(-35.93)"/><rect class="cls-7" x="177.83" y="163.6" width="9.15" height="2.33" transform="translate(-61.98 138.4) rotate(-35.93)"/><rect class="cls-7" x="177.54" y="163.33" width="2.32" height="8.23" transform="matrix(0.81, -0.59, 0.59, 0.81, -64.26, 136.74)"/><rect class="cls-7" x="231.86" y="149.12" width="3.03" height="11.91" transform="translate(43.5 361.13) rotate(-80.94)"/><rect class="cls-7" x="233.89" y="154.5" width="10.72" height="3.03" transform="translate(47.48 367.69) rotate(-80.93)"/><rect class="cls-7" x="173.85" y="139.87" width="3.03" height="11.9" transform="translate(3.72 296.02) rotate(-80.93)"/><rect class="cls-7" x="164.12" y="143.37" width="10.72" height="3.03" transform="translate(-0.3 289.42) rotate(-80.93)"/><circle class="cls-7" cx="189.22" cy="148.79" r="1.53"/><circle class="cls-7" cx="201.5" cy="149.99" r="1.53"/><circle class="cls-7" cx="196.54" cy="161.49" r="1.53"/><circle class="cls-7" cx="216.62" cy="145.05" r="1.53"/><circle class="cls-7" cx="211.73" cy="160.61" r="2.05"/><circle class="cls-7" cx="208.56" cy="136.98" r="1.79"/></svg>