<svg id="Capa_1" data-name="Capa 1" xmlns="http://www.w3.org/2000/svg" viewBox="0 0 25 25"><defs><style>.cls-1{fill:#575756;}</style></defs><g id="_8jr6pg" data-name="8jr6pg"><path class="cls-1" d="M5.47,4.15c.12-.72,0-1.48.39-1.92s1-.18,1.58-.19c1.73-.05.63,1.4,1.11,2.07h7.16c0-.41,0-.82,0-1.23,0-.57.2-.84.81-.86,1.89,0,1.89-.06,2,1.8a2.51,2.51,0,0,0,.08.33c.58,0,1.16,0,1.74,0A1.51,1.51,0,0,1,22,5.76Q22,13,22,20.28a1.48,1.48,0,0,1-1.66,1.62q-8.28,0-16.55,0a1.48,1.48,0,0,1-1.64-1.65q0-7.23,0-14.45A1.53,1.53,0,0,1,3.8,4.15C4.35,4.14,4.91,4.15,5.47,4.15ZM2.79,8.74v.78c0,3.47,0,6.93,0,10.4,0,1.11.24,1.34,1.36,1.34H20c1.13,0,1.37-.23,1.37-1.34V9.6c0-.27,0-.55,0-.86ZM21.33,8a23.59,23.59,0,0,0,0-2.39,1,1,0,0,0-.59-.73,14.87,14.87,0,0,0-2.11,0c-.2,1.9-.2,1.93-.86,1.93s-1.37.12-1.73-.2-.31-1.12-.43-1.7h-7c-.35.66.42,1.75-.84,1.89a2.74,2.74,0,0,1-1.8-.19c-.36-.29-.3-1.11-.44-1.75a10.31,10.31,0,0,0-1.84,0,1.14,1.14,0,0,0-.76.72A19.58,19.58,0,0,0,2.81,8ZM7.71,6.08V2.67a7.55,7.55,0,0,0-1.07,0c-.15,0-.39.22-.39.34,0,1,0,2,0,3.06Zm10.2,0c0-1,0-2,0-3,0-.14-.14-.39-.24-.4a9.87,9.87,0,0,0-1.21,0V6.11h.95Z"/><path class="cls-1" d="M19.16,12.09c-1.46,0-1.36.13-1.36-1.33,0-1.15,0-1.15,1.27-1.15,1.44,0,1.36-.15,1.35,1.33C20.42,12.1,20.42,12.1,19.16,12.09Zm-.63-1.77v1h1.18v-1Z"/><path class="cls-1" d="M5,16.17c-1.44,0-1.28.13-1.3-1.31,0-1.16,0-1.16,1.18-1.16,1.66,0,1.42-.1,1.43,1.39C6.34,16.4,6.31,16.15,5,16.17Zm-.58-1.79v1.07H5.6V14.38Z"/><path class="cls-1" d="M19.14,13.7c1.28,0,1.28,0,1.28,1.33,0,1.14,0,1.15-1.13,1.13-1.63,0-1.49.27-1.48-1.45C17.81,13.7,17.81,13.7,19.14,13.7Zm-.63,1.74h1.2v-1h-1.2Z"/><path class="cls-1" d="M9.69,12.1H9c-.41,0-.57-.19-.56-.6.05-2.28-.33-1.83,1.82-1.9.56,0,.84.14.77.74a2.8,2.8,0,0,0,0,.41C11,12.31,11.09,12.08,9.69,12.1Zm-.55-.72h1.19v-1H9.14Z"/><path class="cls-1" d="M14.48,9.61c1.41,0,1.22,0,1.22,1.25s.17,1.25-1.24,1.23-1.33.26-1.33-1.28S13.11,9.63,14.48,9.61ZM15,11.38v-1H13.81v1Z"/><path class="cls-1" d="M9.68,16.17c-1.41,0-1.23.14-1.25-1.28a4,4,0,0,0,0-.49c-.06-.5.14-.75.66-.7h.28c1.9,0,1.6-.26,1.65,1.67,0,.59-.15.89-.78.8A5.23,5.23,0,0,0,9.68,16.17Zm-.51-1.79v1.07h1.15V14.38Z"/><path class="cls-1" d="M14.42,16.17c-1.36,0-1.29.21-1.29-1.25S13,13.71,14.46,13.7s1.24,0,1.24,1.23C15.71,16.34,15.86,16.15,14.42,16.17Zm.56-.7V14.39H13.81v1.08Z"/><path class="cls-1" d="M5.07,20.25c-1.43,0-1.35.19-1.35-1.34,0-1.1,0-1.1,1.17-1.1,1.6,0,1.43-.2,1.44,1.31C6.34,20.25,6.34,20.25,5.07,20.25Zm.54-.66V18.51H4.45v1.08Z"/><path class="cls-1" d="M14.43,17.81c1.44,0,1.27-.17,1.27,1.31a1.43,1.43,0,0,1,0,.62c-.09.2-.3.46-.48.49a7,7,0,0,1-1.59,0,.72.72,0,0,1-.46-.43,1.75,1.75,0,0,1,0-.69C13.14,17.63,13,17.83,14.43,17.81Zm-.61.68v1.08H15V18.49Z"/><path class="cls-1" d="M9.73,20.26c-1.48,0-1.28.13-1.3-1.31,0-.18,0-.37,0-.55,0-.41.12-.63.55-.59.12,0,.23,0,.35,0,1.7,0,1.67,0,1.7,1.69,0,.57-.16.82-.74.76A5.23,5.23,0,0,0,9.73,20.26Zm-.56-1.77v1.08h1.16V18.49Z"/></g></svg>