<svg id="Capa_1" data-name="Capa 1" xmlns="http://www.w3.org/2000/svg" viewBox="0 0 38.03 38"><defs><style>.cls-1{fill:#989898;}</style></defs><g id="r9Klw9"><path class="cls-1" d="M5.55,33.73a6.74,6.74,0,0,1-.89-.45,2,2,0,0,1-.81-1.67c0-3,0-6.08,0-9.12a.65.65,0,0,1,0-.11H8.05v7.11H30V22.37h4.23v.37c0,2.88,0,5.77,0,8.66a2.18,2.18,0,0,1-1.64,2.28s0,0-.07,0Z"/><path class="cls-1" d="M16.07,10.83H13a2.17,2.17,0,0,1-.36,0c-.42-.06-.5-.22-.25-.56s.51-.63.77-.95l5.26-6.36c.07-.08.13-.16.2-.23a.66.66,0,0,1,1.14,0C21,4.27,22.2,5.85,23.43,7.42c.72.93,1.44,1.88,2.15,2.82a1.88,1.88,0,0,1,.16.23c.15.29,0,.49-.29.54A3.46,3.46,0,0,1,25,11H22.06V21.21c0,.6-.12.72-.71.72q-2.25,0-4.5,0h-.33c-.32,0-.45-.18-.45-.5V10.83Z"/></g></svg>