<svg id="App_360" data-name="App 360" xmlns="http://www.w3.org/2000/svg" viewBox="0 0 512 520"><defs><style>.cls-1{fill:#979797;}.cls-2{fill:#545252;}.cls-3{fill:#25282d;}.cls-4{fill:#332f2a;}.cls-5{fill:#f6f8f9;}.cls-6{fill:#4f4e4d;}.cls-7{fill:#fff;}.cls-8{fill:#231f20;}.cls-9{fill:#0c1517;}.cls-10{fill:#9deefc;}.cls-11{fill:#5a5b5b;}.cls-12{fill:#4c4b4b;}.cls-13{fill:#606061;}</style></defs><title>uso_01</title><path class="cls-1" d="M194.1,293.68s20.18-2.78,20.18,28.27c0,0-1.38,15.47.14,24.46,0,0,.39,11.44-2.27,19.28,0,0-19.59,33.53-3.62,38.37,0,0,14.17,5.25,54.65-24.12,0,0,33.56-21.52,57.08-47,0,0,9.81-7.94,11.37-21.16,0,0-6.33-30.44-5.86-39.9,0,0,1.17-41.74,21.33-78.64,0,0,47.82-71-6.1-110.7,0,0-60.25-49.35-143.47-15.91,0,0-25.63,9.3-20.63,23.75,0,0,19.69-12.91,36.1,3.69,0,0,29.54,40.13,0,79.79,0,0-37,60-45.48,70.11C167.53,244,141.9,278.31,194.1,293.68Z"/><path class="cls-2" d="M194.12,293.52a13.86,13.86,0,0,1,2.48,0,17.26,17.26,0,0,1,2.5.35,16.69,16.69,0,0,1,8.68,4.87,20.44,20.44,0,0,1,3,4,31.09,31.09,0,0,1,3.26,9.37c.16.81.29,1.63.4,2.45s.21,1.64.28,2.46.13,1.65.17,2.47.06,1.65.07,2.47V322c-.15,2-.25,4.06-.32,6.09s-.11,4.07-.11,6.1q0,1.52,0,3l0,1.52.08,1.52c0,.51.07,1,.1,1.51s.07,1,.14,1.5.1,1,.17,1.5l.23,1.48v.11c0,.84,0,1.65,0,2.47s0,1.64,0,2.46-.06,1.64-.11,2.46-.12,1.64-.18,2.46-.16,1.64-.28,2.46-.24,1.64-.37,2.45l-.25,1.22c-.08.41-.18.81-.28,1.22s-.19.81-.32,1.21l-.36,1.21,0,.07-.06.11a105.49,105.49,0,0,0-4.82,9.82,72.61,72.61,0,0,0-3.6,10.26,37.64,37.64,0,0,0-1,5.25,19.08,19.08,0,0,0,.06,5.17,8.06,8.06,0,0,0,2,4.3,6.64,6.64,0,0,0,1.89,1.37,8.47,8.47,0,0,0,1.13.45l.15,0,.12,0h0l.12,0,.13,0,.59.1a20.61,20.61,0,0,0,5.23-.16,43.4,43.4,0,0,0,5.3-1.14c1.75-.49,3.48-1.08,5.2-1.71s3.41-1.35,5.08-2.11c3.35-1.51,6.64-3.18,9.86-5s6.38-3.7,9.49-5.7,6.17-4.07,9.19-6.2l2.25-1.61.56-.4.28-.2.35-.23,1.15-.76q2.31-1.53,4.59-3.12,9.13-6.32,17.91-13.12c5.84-4.55,11.56-9.23,17.1-14.12q4.16-3.66,8.14-7.5c2.65-2.56,5.26-5.16,7.78-7.84l.06-.07.07-.06c.33-.27.72-.62,1.06-1s.7-.69,1-1c.68-.72,1.33-1.47,2-2.24a35.65,35.65,0,0,0,3.32-4.93c.24-.43.47-.87.69-1.31s.43-.89.63-1.34c.4-.9.76-1.82,1.07-2.76.15-.47.3-.94.44-1.41s.26-.95.36-1.43.21-1,.3-1.45.15-1,.23-1.46V312q-1.49-7.53-2.76-15.08c-.84-5-1.63-10.09-2.23-15.18-.29-2.55-.54-5.1-.61-7.7,0-.65,0-1.3,0-2s.06-1.29.1-1.92c.08-1.28.19-2.56.31-3.83.48-5.1,1.18-10.17,2-15.21.42-2.52.9-5,1.41-7.54s1.07-5,1.68-7.49l.46-1.86.49-1.86c.31-1.24.67-2.47,1-3.7.69-2.47,1.43-4.91,2.21-7.35l1.22-3.64,1.29-3.62,1.38-3.59,1.46-3.56,1.54-3.52,1.62-3.49,1.7-3.45,1.8-3.41h0l0,0c1.73-2.65,3.31-5.43,4.81-8.23s2.91-5.67,4.2-8.57a130.48,130.48,0,0,0,6.54-17.88,98.1,98.1,0,0,0,3.43-18.65,71.08,71.08,0,0,0-.88-18.83,57,57,0,0,0-6.4-17.65,59.37,59.37,0,0,0-11.83-14.65C346,88,345.39,87.5,344.78,87l-1.83-1.51-3.81-2.9c-2.55-1.87-5.23-3.61-8-5.25a141.29,141.29,0,0,0-17.07-8.71A150.82,150.82,0,0,0,296,62.19a147,147,0,0,0-18.76-4.05q-4.75-.7-9.54-1.1t-9.59-.46c-3.2,0-6.4,0-9.6.18s-6.39.44-9.57.82-6.35.84-9.49,1.44c-1.58.27-3.14.62-4.71.94s-3.12.71-4.67,1.09a166.76,166.76,0,0,0-18.3,5.74l-4.47,1.75c-1.44.59-2.87,1.25-4.27,2a48.68,48.68,0,0,0-7.91,4.92A21.59,21.59,0,0,0,179.23,82,10.35,10.35,0,0,0,178,85.88a9.63,9.63,0,0,0,.52,4L175.95,89c.43-.28.78-.47,1.17-.69s.76-.41,1.15-.6q1.16-.58,2.35-1.07A37,37,0,0,1,185.51,85a31.54,31.54,0,0,1,10.34-1,27,27,0,0,1,10.08,2.79c.78.4,1.54.81,2.28,1.28s1.45.95,2.15,1.47,1.36,1.06,2,1.63,1.26,1.16,1.87,1.76l.09.09.07.1c.58.81,1.05,1.55,1.55,2.33s1,1.56,1.4,2.35q1.35,2.37,2.53,4.83a83.31,83.31,0,0,1,4.08,10.08,72.65,72.65,0,0,1,3.77,21.37,62.62,62.62,0,0,1-3.3,21.47c-.59,1.72-1.24,3.43-2,5.09s-1.53,3.3-2.39,4.91c-.44.79-.87,1.6-1.35,2.37l-.7,1.17-.73,1.15c-1,1.53-2,3-3.11,4.48l.07-.1q-10.1,16.11-20.37,32.11-5.15,8-10.39,15.93-2.62,4-5.28,7.92c-1.78,2.63-3.57,5.25-5.4,7.85-.92,1.3-1.85,2.59-2.81,3.87-.49.64-1,1.28-1.49,1.9a17.29,17.29,0,0,0-1.29,1.86,37,37,0,0,0-3.87,8.41,28.53,28.53,0,0,0-1.37,9.09,22.59,22.59,0,0,0,2,8.93,26.51,26.51,0,0,0,5.31,7.6,40.6,40.6,0,0,0,7.42,5.82A76.62,76.62,0,0,0,194.12,293.52Zm-.07.31a75.36,75.36,0,0,1-17.79-7.25,41.52,41.52,0,0,1-7.71-5.79,27.6,27.6,0,0,1-5.69-7.8,23.86,23.86,0,0,1-2.31-9.37,29.27,29.27,0,0,1,1.26-9.57,38.58,38.58,0,0,1,3.9-8.84,18.81,18.81,0,0,1,1.39-2.06c.48-.6.95-1.23,1.42-1.86.93-1.27,1.83-2.56,2.72-3.87,1.78-2.61,3.53-5.25,5.26-7.89s3.44-5.31,5.15-8q5.11-8,10.13-16.06,10.09-16.09,20-32.3l0,0,0-.06c1-1.42,2-2.85,3-4.34l.7-1.11.66-1.13c.45-.75.85-1.52,1.27-2.29.81-1.54,1.57-3.11,2.25-4.71s1.29-3.23,1.85-4.87a59.59,59.59,0,0,0,3-20.46c0-1.73-.17-3.46-.35-5.19s-.43-3.44-.74-5.15a74.57,74.57,0,0,0-2.62-10.09,80,80,0,0,0-4-9.67q-1.15-2.35-2.45-4.62-.65-1.13-1.34-2.23c-.46-.72-1-1.48-1.42-2.12l.16.19c-.55-.54-1.11-1.08-1.7-1.59s-1.18-1-1.8-1.45S207,91.36,206.38,91s-1.33-.77-2-1.12a24,24,0,0,0-8.79-2.42,28,28,0,0,0-9.19.87A33.43,33.43,0,0,0,182,89.79q-1.08.45-2.12,1l-1,.54c-.33.18-.69.39-.95.55L176,93,175.27,91a13,13,0,0,1-.68-5.4,13.7,13.7,0,0,1,1.59-5.17,20.32,20.32,0,0,1,3.07-4.23A31.05,31.05,0,0,1,183,72.76a51.14,51.14,0,0,1,8.5-5.24c1.48-.74,3-1.42,4.54-2l4.56-1.75A170.08,170.08,0,0,1,219.31,58c1.59-.39,3.18-.74,4.78-1.09s3.2-.66,4.81-.93c3.21-.59,6.46-1,9.7-1.42s6.51-.62,9.78-.79,6.54-.19,9.81-.13,6.54.25,9.79.52,6.5.68,9.73,1.17a147,147,0,0,1,19.11,4.26,148.6,148.6,0,0,1,18.35,6.71,143.76,143.76,0,0,1,17.28,9.05c2.77,1.71,5.47,3.52,8.08,5.49l1,.76.13.1.06.05h0l.24.19.48.38c.64.5,1.29,1,1.92,1.51l1.87,1.58c.62.53,1.21,1.1,1.81,1.65a61.34,61.34,0,0,1,12,15.3,59.15,59.15,0,0,1,6.35,18.25,72.54,72.54,0,0,1,.67,19.23,101.86,101.86,0,0,1-3.68,18.85,131.59,131.59,0,0,1-6.72,18c-1.33,2.91-2.74,5.79-4.26,8.62s-3.11,5.6-4.88,8.31l0,0-1.79,3.38-1.7,3.42-1.61,3.47-1.52,3.51-1.44,3.54-1.36,3.57-1.28,3.6-1.2,3.63c-.77,2.43-1.5,4.87-2.18,7.32-.34,1.23-.67,2.46-1,3.69L332,234.5l-.44,1.86c-.59,2.48-1.11,5-1.6,7.46s-.94,5-1.33,7.51q-1.2,7.53-1.8,15.14c-.09,1.27-.18,2.53-.24,3.8,0,.64-.06,1.25-.07,1.9s0,1.23,0,1.86c.11,2.5.39,5,.72,7.54.66,5,1.53,10.05,2.44,15.06s1.91,10,3,15l0,.18,0,.16c-.07.52-.13,1-.22,1.57s-.18,1-.29,1.55-.24,1-.37,1.54-.29,1-.44,1.52c-.32,1-.69,2-1.1,3-.22.48-.42,1-.66,1.44s-.47.94-.72,1.41a38,38,0,0,1-3.46,5.3c-.65.84-1.33,1.65-2.05,2.43-.36.39-.73.77-1.11,1.15s-.76.73-1.22,1.12l.13-.12a223.45,223.45,0,0,1-15.94,15.68q-8.32,7.46-17.17,14.32-4.41,3.44-8.92,6.74c-3,2.2-6,4.38-9.11,6.49q-2.31,1.58-4.65,3.13l-1.18.77-.15.1-.07,0,0,0,0,0-.29.2-.57.41-2.28,1.62c-3.06,2.14-6.15,4.24-9.32,6.24s-6.37,3.95-9.66,5.76-6.64,3.52-10.1,5c-1.72.77-3.49,1.46-5.26,2.13s-3.59,1.24-5.44,1.74a45.84,45.84,0,0,1-5.65,1.17,23,23,0,0,1-5.94.12c-.26,0-.52-.08-.79-.14l-.21,0-.14,0-.22-.07.06,0-.1,0-.19-.06a11,11,0,0,1-1.46-.6,9.14,9.14,0,0,1-2.58-1.9,9.31,9.31,0,0,1-1.74-2.65,12.15,12.15,0,0,1-.85-2.93,21,21,0,0,1,0-5.83,40,40,0,0,1,1.13-5.57,74.8,74.8,0,0,1,3.84-10.53,107.35,107.35,0,0,1,5.05-10l-.08.18.35-1.12c.13-.37.21-.76.31-1.14s.2-.76.28-1.15l.25-1.16c.14-.78.29-1.57.4-2.36s.21-1.59.31-2.38.16-1.6.22-2.4.11-1.6.15-2.4.07-1.61.08-2.41,0-1.61,0-2.4v.11l-.21-1.55c-.07-.52-.1-1-.16-1.55s-.08-1-.11-1.55-.07-1-.08-1.55l-.05-1.55,0-1.54q0-1.54,0-3.08c0-1,0-2.05.09-3.08s.09-2,.15-3.07c.12-2,.27-4.09.46-6.14V322c0-.81,0-1.62,0-2.43s-.05-1.62-.11-2.42-.12-1.61-.22-2.41-.2-1.6-.34-2.4a30.15,30.15,0,0,0-3-9.16,19.64,19.64,0,0,0-2.76-3.95,16.67,16.67,0,0,0-3.73-3.07,16.27,16.27,0,0,0-4.51-1.84,16.82,16.82,0,0,0-2.42-.41,13.49,13.49,0,0,0-2.45,0H194Z"/><path class="cls-1" d="M169.59,90s-23.21,19.83-28.83,51.2c0,0-2.46,10.26,4.34,14.53,0,0,4.5,4.11-.18,14.84,0,0-6.65,13.14-15.72,20.83,0,0-10.24,8.61-8.83,16.45,0,0,.86,6.53,10.08,9.38,0,0,4.69,1.23,2.86,11.42a76.94,76.94,0,0,1-2.62,10.56s-2.89,8.76.78,12.07c0,0,2.58,3.46,8.44,4.07,0,0-5.82,8.65-1.48,12.11,0,0,1.17,2.31,7,2.42,0,0,6.72,1.84,6.25,10.61,0,0-4.06,15.37,13,20.91,0,0,19,10.45,52-6.38,0,0,17.11-7.84,21.57-9.46,0,0,24.22-7.53,27.51-30.59,0,0,1.72-13.68-1.25-24.14,0,0-1.09-7.53,7.66-11.38,0,0,36.26-10.92,20.63-70.88,0,0-4.49-79-67.52-78.41C225.31,70.14,196.24,69.55,169.59,90Z"/><path class="cls-2" d="M170,90.46c-1.16,1-2.28,2.13-3.37,3.26s-2.16,2.29-3.2,3.48-2,2.4-3,3.63-1.93,2.49-2.85,3.76-1.82,2.57-2.68,3.89c-.43.66-.86,1.32-1.27,2s-.83,1.34-1.22,2-.8,1.35-1.17,2-.77,1.37-1.12,2.07c-.74,1.39-1.42,2.8-2.09,4.22-.32.72-.66,1.42-1,2.14l-.91,2.17-.84,2.19c-.27.73-.52,1.48-.78,2.21s-.48,1.49-.72,2.23l-.35,1.12-.31,1.13c-.43,1.5-.78,3-1.13,4.55l-.45,2.3-.12.6c0,.18-.07.37-.1.55-.06.37-.11.75-.16,1.13a19.13,19.13,0,0,0,0,4.54,12.13,12.13,0,0,0,1.32,4.24,8.66,8.66,0,0,0,3,3.16l.07,0,0,0a4,4,0,0,1,.37.42c.1.13.2.27.29.4a7.24,7.24,0,0,1,.48.84,9.23,9.23,0,0,1,.66,1.77,12.76,12.76,0,0,1,.38,3.66,22.25,22.25,0,0,1-1.54,7c-.11.28-.21.56-.33.83l-.17.41-.09.21,0,.1,0,.09,0,.05c-.27.53-.55,1-.84,1.56q-.86,1.54-1.77,3-1.83,3-3.88,5.89c-1.37,1.92-2.83,3.78-4.39,5.56q-1.17,1.33-2.43,2.6c-.84.84-1.73,1.66-2.62,2.42a36.23,36.23,0,0,0-4.66,5,21.32,21.32,0,0,0-3.29,5.84,8.67,8.67,0,0,0-.06,6.24,11.57,11.57,0,0,0,4.14,5,16,16,0,0,0,2.94,1.61c.26.11.52.22.79.32s.53.2.8.28l.38.13a3.06,3.06,0,0,1,.57.24,4.66,4.66,0,0,1,.87.61,6.93,6.93,0,0,1,2,3.36,13.57,13.57,0,0,1,.44,3.66,34.17,34.17,0,0,1-1,7c-.49,2.29-1,4.57-1.75,6.83-.09.28-.18.56-.29.85l-.14.39-.12.39c-.16.54-.3,1.09-.42,1.64a22.24,22.24,0,0,0-.49,3.34,12,12,0,0,0,.17,3.28,5,5,0,0,0,1.39,2.7l0,0,0,.06c.08.11.21.26.34.39s.26.26.39.39a10,10,0,0,0,.87.71c.15.11.3.22.46.32s.31.21.48.3c.32.2.66.37,1,.54l.52.23a5.35,5.35,0,0,0,.53.21l.54.19.55.16c.37.12.75.17,1.12.26.19,0,.38.06.57.09l.57.08h0l.95.14-.52.77c-.14.21-.29.45-.43.67l-.41.7q-.4.71-.74,1.44a17.71,17.71,0,0,0-1.13,3,8.2,8.2,0,0,0-.29,3.07,3.73,3.73,0,0,0,1.34,2.52h0l.12.1,0,.06.08.12.12.15a3.44,3.44,0,0,0,.3.28l.34.26c.12.08.24.16.37.23s.26.15.4.2.27.13.41.18a8.56,8.56,0,0,0,.87.29c.29.1.6.14.9.22l.92.15.93.09.94,0h.11a6.64,6.64,0,0,1,.84.33c.27.12.52.26.78.41a9.79,9.79,0,0,1,1.41,1,9.54,9.54,0,0,1,2.16,2.69,10.75,10.75,0,0,1,1.1,3.22c.06.28.09.56.12.84s0,.56.07.84,0,.56,0,.84l0,.84v.07a14.1,14.1,0,0,0-.29,1.62c-.07.55-.11,1.11-.13,1.66a19,19,0,0,0,.17,3.33,16,16,0,0,0,2.23,6.24,16.26,16.26,0,0,0,4.65,4.78,23.7,23.7,0,0,0,6.1,2.93h0a24.59,24.59,0,0,0,4.2,1.58,38,38,0,0,0,4.42,1,48.79,48.79,0,0,0,9,.58,67.87,67.87,0,0,0,17.86-3,85.24,85.24,0,0,0,8.54-3.07c1.4-.57,2.77-1.21,4.15-1.84s2.69-1.34,4.09-2l8.28-3.79c2.77-1.25,5.54-2.5,8.33-3.71l2.1-.9,2.14-.86a40.46,40.46,0,0,0,4.17-1.71,49.45,49.45,0,0,0,7.73-4.56,42.23,42.23,0,0,0,6.66-5.93,34.88,34.88,0,0,0,5.07-7.24,32.47,32.47,0,0,0,3-8.26c.16-.72.29-1.44.4-2.16s.17-1.45.23-2.18c.12-1.48.2-3,.24-4.45a77.53,77.53,0,0,0-.22-8.89,46.46,46.46,0,0,0-1.51-8.69l0-.06v0a7.6,7.6,0,0,1-.05-1q0-.5.05-1a11.58,11.58,0,0,1,2-5.47c.19-.27.39-.53.6-.78s.43-.5.66-.73.47-.46.71-.68.5-.43.76-.62.53-.39.8-.57.55-.34.83-.51.57-.31.85-.46l.88-.41h0l.07,0a19.81,19.81,0,0,0,2.24-.92q1.12-.54,2.19-1.16a33.66,33.66,0,0,0,4.09-2.82,36.51,36.51,0,0,0,6.79-7.2,41.16,41.16,0,0,0,4.74-8.68,50.3,50.3,0,0,0,2.74-9.52c.29-1.63.54-3.27.7-4.92s.28-3.31.32-5,0-3.32,0-5c0-.83-.07-1.66-.11-2.49s-.11-1.66-.19-2.49c-.15-1.66-.33-3.31-.56-5s-.49-3.3-.79-4.94-.64-3.28-1-4.91c-.19-.81-.37-1.63-.57-2.44l-.61-2.43,0-.08v-.09A106.69,106.69,0,0,0,290.51,138q-.94-5.3-2.31-10.5T285,117.2a104.39,104.39,0,0,0-4.18-9.91,83.25,83.25,0,0,0-5.29-9.35c-1-1.51-2-3-3.11-4.39s-2.23-2.81-3.45-4.12-2.48-2.6-3.78-3.83-2.69-2.38-4.13-3.45a52.36,52.36,0,0,0-9.17-5.64A57.48,57.48,0,0,0,231,71.08l-2.72-.14-2.72,0c-1.82,0-3.62.08-5.43.23a93.58,93.58,0,0,0-10.79,1.59,101.83,101.83,0,0,0-10.55,2.78,100,100,0,0,0-10.17,3.91A95.3,95.3,0,0,0,170,90.46Zm-.81-1a96.61,96.61,0,0,1,18.89-11.3,101.37,101.37,0,0,1,10.3-4,103.33,103.33,0,0,1,10.69-2.86,95.07,95.07,0,0,1,11-1.65c1.84-.16,3.71-.28,5.56-.26l2.78,0,2.78.14a62.41,62.41,0,0,1,11,1.73,56.7,56.7,0,0,1,10.47,3.77,54,54,0,0,1,9.48,5.77c1.49,1.1,2.89,2.31,4.27,3.54s2.67,2.55,3.9,3.92,2.42,2.78,3.56,4.22S276,95.45,277,97a85,85,0,0,1,5.45,9.53,100.83,100.83,0,0,1,4.27,10.07q1.87,5.14,3.26,10.42t2.35,10.65a108.22,108.22,0,0,1,1.41,10.84l0-.18.62,2.46c.2.82.38,1.65.58,2.47.37,1.65.71,3.31,1,5s.58,3.34.81,5,.42,3.36.58,5.05c.08.84.13,1.69.19,2.54s.09,1.7.12,2.54c0,1.7.07,3.4,0,5.1s-.17,3.4-.35,5.09-.43,3.38-.74,5.06a52.06,52.06,0,0,1-2.87,9.85,42.93,42.93,0,0,1-5,9,38.25,38.25,0,0,1-7.14,7.51,35.4,35.4,0,0,1-4.31,3q-1.13.66-2.32,1.23a21.09,21.09,0,0,1-2.49,1l.1,0-.8.37c-.26.14-.52.27-.77.41s-.51.29-.74.46-.48.32-.71.5-.45.36-.67.54-.43.38-.62.59-.39.41-.57.63-.36.44-.52.67a9.87,9.87,0,0,0-1.45,3,10,10,0,0,0-.32,1.66c0,.28,0,.56,0,.84a6.77,6.77,0,0,0,0,.79l0-.1a48,48,0,0,1,1.5,9,79,79,0,0,1,.16,9.07c-.06,1.51-.15,3-.28,4.52-.07.76-.13,1.49-.26,2.28s-.26,1.51-.43,2.25a33.77,33.77,0,0,1-3.19,8.59,36.23,36.23,0,0,1-5.34,7.46,43.5,43.5,0,0,1-6.92,6,50.61,50.61,0,0,1-8,4.58,41.64,41.64,0,0,1-4.27,1.7l-2.1.82-2.1.88c-2.79,1.18-5.57,2.39-8.35,3.62l-8.31,3.71c-1.35.61-2.73,1.33-4.11,2s-2.78,1.25-4.2,1.82a86,86,0,0,1-8.63,3,68.53,68.53,0,0,1-18.05,2.94,50.57,50.57,0,0,1-9.15-.63,38.52,38.52,0,0,1-4.49-1,25,25,0,0,1-4.32-1.62l0,0a24.26,24.26,0,0,1-6.24-3,16.48,16.48,0,0,1-7.17-11.39,19.6,19.6,0,0,1-.21-3.43q0-.86.12-1.72a14.62,14.62,0,0,1,.29-1.72v.07l0-.81c0-.27,0-.54,0-.81s0-.54-.07-.8-.07-.53-.12-.79a9.78,9.78,0,0,0-1.06-3,8.77,8.77,0,0,0-2-2.44,9,9,0,0,0-1.31-.91c-.23-.13-.47-.25-.71-.36a5.94,5.94,0,0,0-.72-.27l.11,0-1,0-1-.08-1-.14c-.33-.07-.65-.12-1-.22a9.67,9.67,0,0,1-1-.3c-.16-.06-.31-.13-.47-.19s-.31-.15-.46-.23-.3-.17-.45-.26-.29-.2-.43-.31a4.4,4.4,0,0,1-.4-.37,2.48,2.48,0,0,1-.38-.49l.14.17h0a4.61,4.61,0,0,1-1.2-1.42,5.19,5.19,0,0,1-.56-1.74,9.21,9.21,0,0,1,.28-3.47,18.8,18.8,0,0,1,1.16-3.2q.35-.77.76-1.51l.42-.74c.15-.25.29-.48.45-.73l.43.91h0l-.62-.08c-.21,0-.41,0-.62-.09-.41-.09-.82-.15-1.22-.27l-.61-.16-.59-.2a6.18,6.18,0,0,1-.59-.22l-.58-.24c-.38-.18-.76-.36-1.12-.58-.19-.1-.36-.22-.54-.33s-.35-.23-.52-.35a11.2,11.2,0,0,1-1-.79c-.16-.14-.31-.29-.46-.44a6.1,6.1,0,0,1-.45-.51l.09.1a6.29,6.29,0,0,1-1.84-3.37,13.17,13.17,0,0,1-.25-3.65,23.6,23.6,0,0,1,.49-3.55c.13-.58.27-1.16.43-1.74L130,239l.15-.43c.1-.26.18-.53.27-.81.68-2.17,1.19-4.43,1.65-6.69a33.75,33.75,0,0,0,.89-6.74,12.06,12.06,0,0,0-.4-3.24,5.39,5.39,0,0,0-1.5-2.61,3,3,0,0,0-.56-.4l-.22-.1-.48-.16c-.29-.09-.58-.19-.86-.3s-.57-.22-.85-.34a17.57,17.57,0,0,1-3.24-1.77,13.18,13.18,0,0,1-4.73-5.65,8.42,8.42,0,0,1-.55-1.84,9.71,9.71,0,0,1-.14-1.89,12.23,12.23,0,0,1,.7-3.65,22.89,22.89,0,0,1,3.55-6.29,37.79,37.79,0,0,1,4.9-5.23,47.28,47.28,0,0,0,4.91-4.86c1.52-1.73,3-3.55,4.3-5.43s2.63-3.81,3.83-5.78q.9-1.48,1.75-3c.28-.5.56-1,.82-1.51l0,0v0l0-.1.08-.2.17-.39c.11-.26.21-.53.31-.79a20.81,20.81,0,0,0,1.46-6.54A11.3,11.3,0,0,0,146,159a7.75,7.75,0,0,0-.55-1.5,5.76,5.76,0,0,0-.39-.68l-.14-.21-.25-.3.07,0a10.14,10.14,0,0,1-3.47-3.71,13.56,13.56,0,0,1-1.47-4.75,20.54,20.54,0,0,1,0-4.88q.07-.61.17-1.21c0-.2.07-.4.12-.61s.08-.38.12-.56l.47-2.34c.36-1.55.71-3.1,1.16-4.63l.32-1.15.36-1.14c.24-.76.46-1.52.74-2.27s.52-1.5.8-2.25l.86-2.23.93-2.2c.31-.73.66-1.45,1-2.17.68-1.44,1.38-2.87,2.13-4.27.36-.71.75-1.4,1.14-2.1s.78-1.39,1.19-2.07.82-1.37,1.24-2,.85-1.35,1.29-2c.87-1.33,1.79-2.64,2.72-3.93s1.91-2.56,2.9-3.8,2-2.47,3.08-3.67,2.14-2.37,3.26-3.52,2.26-2.26,3.48-3.34h0Z"/><path class="cls-3" d="M254,191s7.58-26.08,30.94-17.07c0,0,19.15,5.23,20.24,37.13,0,0-2.5,13.76,2,20.37,0,0,.16-7.07,1.25-9.53,0,0,3,10.61,2.34,15.68,0,0-.16,15.22,8.28,18.6,0,0-3.56-6.38-.63-13.07,0,0,3.6,20.82,7.5,24.79,0,0,2.31.8,7.28-9.14,0,0,18.37-32.4,27.44-45,0,0,32.81-38,23.42-103.94,0,0-5.63-34.44-26.57-28.6,0,0,4.08-37.21-53.13-45.82,0,0-117.53-16.3-147.23,39.05,0,0-10.16,14.76-2.19,20.45,0,0,2.91,2.2,8.47,1.29,0,0,13.41-3,13.29,11.43,0,0,1.17,8.3-3.4,14.64,0,0,8.67-3.81,9.49-15.22a36.12,36.12,0,0,1-3.48,27.37s10.47-3.38,12.5-23.68c0,0,5.31,15.37-.31,29.36,0,0,8.28-6.46,10.31-20.76,0,0,4.53,12,1.25,21.6,0,0,7.34-3.54,8.13-16.91,0,0,8.13,5.83,8,26.73,0,0-.63,16.23,12,21.07,4.24,1.1,12.42,2.44,12.54,19.73,0,0-.47,11.36,6.33,11.72,0,0,3.5.68,2.78-4A29.51,29.51,0,0,1,254,191Z"/><path class="cls-3" d="M151.85,148.15s4.4-3.46,15.05-1.36a28.19,28.19,0,0,1,15.69,9.32s2,2.52-.33,3.48c0,0-2.07.88-5.35-1.34,0,0-7-5.36-18.34-3.52,0,0-4.75,1.52-6.84-.92a4.32,4.32,0,0,1-1.17-3.25A2.91,2.91,0,0,1,151.85,148.15Z"/><path class="cls-2" d="M163.35,177.76s0,.14-.06.38,0,.26,0,.42,0,.34,0,.53,0,.39.08.61.1.43.14.65.13.45.23.67a6.06,6.06,0,0,0,.31.67l.16.34.19.32.19.32.14.21c.21.3.32.51.46.69s.26.36.37.53c.23.34.44.6.57.82s.21.33.21.33l-.36-.16-.4-.21a3.31,3.31,0,0,1-.49-.31c-.17-.13-.36-.27-.55-.42a5.4,5.4,0,0,1-.56-.54,4.19,4.19,0,0,1-.53-.65c-.08-.12-.17-.24-.25-.36l-.21-.39a4.67,4.67,0,0,1-.33-.82,2.24,2.24,0,0,1-.11-.42c0-.14-.06-.28-.07-.42a4.34,4.34,0,0,1,0-.81,3.64,3.64,0,0,1,.13-.71,3.15,3.15,0,0,1,.47-1A1.72,1.72,0,0,1,163.35,177.76Z"/><path class="cls-4" d="M130.6,212.57s1-1.53,6.6.08a76.21,76.21,0,0,1,7.31,2.39s1.84.88-2.62.59c0,0-8.13-.13-10.24-1.35C131.66,214.29,129.9,213.55,130.6,212.57Z"/><path class="cls-2" d="M137.09,200.79l.39-.09c.25-.05.63-.14,1.11-.19a17.42,17.42,0,0,1,1.75-.14,17.71,17.71,0,0,1,2.29.09,17.17,17.17,0,0,1,2.69.47c.47.13,1,.27,1.43.44a14.19,14.19,0,0,1,1.45.6l.73.35.71.41.36.21.19.12.18.13c.23.17.44.34.66.52a17.27,17.27,0,0,1,2.39,2.41,10.7,10.7,0,0,1,1.7,3,6.12,6.12,0,0,1,.22,3.42,5.83,5.83,0,0,1-.61,1.54c-.14.23-.28.45-.44.66l-.24.3-.12.15,0,0,0,0h0l0,0-.08.07A7,7,0,0,1,149,217a7,7,0,0,1-1.76-.33c-.23-.08-.44-.14-.61-.22l-.43-.21-.36-.17.38.1.46.12.63.11a7.8,7.8,0,0,0,1.69.07A7,7,0,0,0,151,216a6.61,6.61,0,0,0,2-1.37l0-.05v0h0l0,0,0,0,.09-.14.19-.27c.12-.19.22-.38.32-.58a5.38,5.38,0,0,0,.42-1.27,4.62,4.62,0,0,0,0-1.36,6.81,6.81,0,0,0-.33-1.38,9.47,9.47,0,0,0-1.53-2.6,15.9,15.9,0,0,0-2.16-2.25l-.59-.49-.14-.11-.14-.09-.32-.21-.64-.41-.66-.35a19.16,19.16,0,0,0-2.63-1.14,22.12,22.12,0,0,0-2.51-.67c-.79-.17-1.53-.26-2.19-.34s-1.24-.1-1.72-.11C137.64,200.74,137.09,200.79,137.09,200.79Z"/><path class="cls-5" d="M211.09,219.12s9.16-16.69,43.44-38.4c0,0,13.08-9.69,20.8.82l4.73-3.78s-8.67-13.88-26.48-4.76c0,0-31.5,17-49.78,40.8,0,0-5.2,7.63-1.56,9.47C202.22,223.27,206.39,228.48,211.09,219.12Z"/><path class="cls-6" d="M205.16,225.62h0a5,5,0,0,1-3.53-1.64,3.13,3.13,0,0,1-1.49-2c-.83-3.17,2.49-8.17,2.88-8.73l0,0c18.19-23.65,49.76-40.87,50.08-41a26.43,26.43,0,0,1,12-3.22,19.14,19.14,0,0,1,15.73,8.29l.42.68-6.11,4.89-.57-.78a10.23,10.23,0,0,0-8.58-4.52c-5.58,0-10.86,3.85-10.86,3.85l-.11.08c-33.69,21.33-43,37.9-43.13,38.06C209.89,223.57,207.61,225.62,205.16,225.62Zm-.62-11.3c-.92,1.35-3.13,5.23-2.61,7.24a1.31,1.31,0,0,0,.71.89l.18.09.12.15a3.23,3.23,0,0,0,2.21,1.1c1.67,0,3.43-1.76,5.1-5.09.39-.72,9.67-17.16,43.74-38.74.49-.36,5.95-4.23,12-4.23a11.85,11.85,0,0,1,9.48,4.51l3.32-2.66a17.54,17.54,0,0,0-13.68-6.78,24.57,24.57,0,0,0-11.12,3C253.7,174,222.49,191,204.54,214.33Z"/><path class="cls-5" d="M240.32,261s24.37-15.12,36.13-31.65c0,0,11.76-14.34,7.26-30.88l4.15-3.1s9,19.63-7.65,40.2c0,0-16.61,21.85-41.45,35.54,0,0-4.62,1.78-6.2-1.56,0,0-1.48-2.68,2.36-4.63C234.92,264.93,239.88,261.28,240.32,261Z"/><path class="cls-6" d="M236.13,272.51a4.51,4.51,0,0,1-4.39-2.54,3.75,3.75,0,0,1-.2-2.76,5.38,5.38,0,0,1,2.9-3c1-.7,5-3.65,5.4-3.91.24-.15,24.35-15.21,35.87-31.4l0,0c.11-.14,11.41-14.19,7.09-30.08l-.16-.59,5.56-4.16.48,1a34.78,34.78,0,0,1,2.51,12.74c.16,7-1.5,17.56-10.28,28.4-.15.2-17,22.14-41.72,35.77l-.11.05A9.42,9.42,0,0,1,236.13,272.51Zm41.06-42.6c-11.74,16.48-36.13,31.72-36.38,31.88s-3.43,2.48-5.33,3.88l-.13.08c-2.8,1.43-2.13,3.08-2,3.4a2.72,2.72,0,0,0,2.75,1.55,7.36,7.36,0,0,0,2.24-.39c24.34-13.44,40.93-35,41.09-35.26,14-17.22,9.5-33.87,8-38.2l-2.68,2C288.85,215.19,277.91,229,277.19,229.91Z"/><path class="cls-7" d="M166.26,178.8s2.94.54,6.79-1.77c0,0,4.9-3.19,7.92-3.81a3.54,3.54,0,0,0,1.59-1.35s-.93-.63-4.84-1.44c0,0-9.64-1.55-11.46-3.28,0,0-1.84,1.17-2,5.41C164.3,172.56,164.27,177.46,166.26,178.8Z"/><path class="cls-8" d="M167.08,179.31h0a5.67,5.67,0,0,1-.87-.06l-.13,0-.08-.06c-2.16-1.46-2.16-6.41-2.16-6.62.12-4.44,2.08-5.73,2.17-5.79l.31-.2.26.25c1.41,1.34,8.57,2.73,11.21,3.15,3.91.81,4.93,1.45,5,1.52l.34.23-.2.36a4,4,0,0,1-1.77,1.54l-.13,0c-2.9.59-7.71,3.71-7.71,3.71A12.31,12.31,0,0,1,167.08,179.31Zm-.64-.94a5.66,5.66,0,0,0,.64,0h0a11.28,11.28,0,0,0,5.73-1.76c.19-.12,4.94-3.2,8-3.85a3.39,3.39,0,0,0,1-.75,24.57,24.57,0,0,0-4.25-1.17c-.93-.15-8.94-1.47-11.35-3.13-.46.48-1.43,1.85-1.51,4.83C164.76,173.83,165,177.3,166.44,178.37Z"/><ellipse class="cls-9" cx="166.98" cy="172.76" rx="2.68" ry="6.27"/><path class="cls-9" d="M159.65,162.16s8,6.05,22.8,8.19c0,0,1.55.09,1.61.92a8,8,0,0,1-2.48,1.61s-.76-1-4.4-1.54c0,0-4.76-.71-7.82-1.4,0,0-7.38-.76-10.68-5.31a10.82,10.82,0,0,0,3.13,1s-3.89-1.54-4-5.17A10.6,10.6,0,0,0,159.65,162.16Z"/><path class="cls-7" d="M169,172.28a.57.57,0,0,1-.59.55h0a.57.57,0,0,1-.59-.55v-.84a.57.57,0,0,1,.59-.55h0a.57.57,0,0,1,.59.55Z"/><path class="cls-7" d="M167.9,173.3s.71.27,1.11-.12c0,0,0,1.07-.38,1.43,0,0-.74.54-.74,0,0,0,0-.11,0-.36A7.47,7.47,0,0,0,167.9,173.3Z"/><path class="cls-5" d="M251,251.75c-6.51.4-17.06-3.45-17.06-3.45-13.18-5.31-16-16-16-16-2.11-6.8-2.6-17-2.6-17s-.53-8.94-1.58-10.72c0,0-1.05-2.42-5.63,0,0,0-4.88,2.56-5.82,3.09-19.61,11.09-46.89,13.53-46.89,13.53a255.37,255.37,0,0,0-26.83,3.92,2.42,2.42,0,0,0-1.79,1.88,58.64,58.64,0,0,0-.18,7.38h0c-.2,2.23,0,11.53,0,11.53a150,150,0,0,0,2,15.72c6,32.36,31.49,42.87,31.49,42.87,7.5,2.59,17.41,10.53,17.41,10.53l.19.08h0c2.66,3.61,9,6.08,9,6.08,21.67,3.29,38.08-9.15,38.08-9.15,24.69-18.22,28.44-51.5,28.44-51.5C254.5,250.83,251,251.75,251,251.75Z"/><path class="cls-10" d="M126.93,234.29s11.76-3,38.33-5.65c0,0,22.37-2,37.84-12,0,0,5.25-3.49,4.92,3,0,0-1.66,35.82,35,39a2.83,2.83,0,0,1,2.51,3.7s-5.18,37.4-35.46,50.7c0,0-18.84,8.33-31.09,3,0,0-11.07-9-18.57-11.59,0,0-25.47-10.51-31.49-42.87a150,150,0,0,1-2-15.72S126.74,236.52,126.93,234.29Z"/><path class="cls-11" d="M153.86,188.41a3.39,3.39,0,0,1-2.87,3.86h0a3.43,3.43,0,0,1-3.92-2.83l-5.47-34.79a3.39,3.39,0,0,1,2.87-3.86h0a3.43,3.43,0,0,1,3.92,2.83Z"/><path class="cls-11" d="M147.73,164.81l-.83-6.57,130.65,3.29s11.1-.25,19.23,7.09c0,0,8.12,8,9.76,9.38,0,0,8.56,7.57,4.81,20.49,0,0-1.52,5-5.59,3.81,0,0-3-1.08-1.32-6.53a16.36,16.36,0,0,0-2.7-14.8s-8.72-11.18-20.09-13.49a110.84,110.84,0,0,0-13.66-.78Z"/><path class="cls-7" d="M143.2,151.35l6.88,40.94s-1.92.32-2.92-2.43l-5.65-35.62A3.36,3.36,0,0,1,143.2,151.35Z"/><path class="cls-1" d="M255.61,219.69c0,5.19,2.5,7.73,2.5,7.73C264,235.72,280,225,280,225c22.54-15,21.55-45.35,21.55-45.35C299.85,153,279.89,157,279.89,157a27.94,27.94,0,0,0-20.34,15.07c-2.86,4.73-3.49,11.45-3.49,11.45s-1.14,9.76-3,15.68"/><path class="cls-2" d="M255.7,219.69c0,.34,0,.69.09,1s.08.67.15,1,.13.67.22,1,.19.65.29,1,.23.64.37.94a9.21,9.21,0,0,0,.45.9,8.75,8.75,0,0,0,.53.85c.1.14.2.27.3.39a4.41,4.41,0,0,0,.31.35h0l0,0a7.39,7.39,0,0,0,1.45,1.42,6.75,6.75,0,0,0,1.79.92,10.08,10.08,0,0,0,4.07.4,25.81,25.81,0,0,0,8.09-2.41c1.29-.6,2.56-1.25,3.8-2,.62-.35,1.23-.72,1.82-1.11s1.19-.82,1.74-1.23a45.29,45.29,0,0,0,6.32-5.67,47.83,47.83,0,0,0,5.2-6.74,52.63,52.63,0,0,0,4-7.56,54.37,54.37,0,0,0,2.7-8.12c.36-1.38.64-2.78.89-4.19s.45-2.82.59-4.24.25-2.84.29-4.26c0-.71,0-1.42,0-2.13v-.53c0-.13,0-.34,0-.51,0-.35-.06-.72-.11-1.07a35.57,35.57,0,0,0-1.88-8.24,20.82,20.82,0,0,0-4.2-7.14,15.65,15.65,0,0,0-6.9-4.34,17.58,17.58,0,0,0-4.07-.74,16.16,16.16,0,0,0-4.1.23l-1.07.21-1,.25c-.33.07-.67.18-1,.28s-.67.2-1,.32a25.92,25.92,0,0,0-3.85,1.66,27,27,0,0,0-6.7,5,29.07,29.07,0,0,0-2.73,3.18,24.09,24.09,0,0,0-2.19,3.52l0,.07v0c-.28.48-.57,1-.82,1.47-.13.25-.25.51-.36.77s-.23.52-.33.78c-.22.52-.41,1.06-.59,1.6s-.35,1.09-.5,1.64c-.31,1.1-.58,2.23-.78,3.36-.11.57-.19,1.12-.27,1.71l-.27,1.74q-.28,1.74-.6,3.46t-.71,3.44q-.38,1.72-.84,3.42c-.15.57-.31,1.13-.49,1.69s-.37,1.12-.56,1.67a.15.15,0,0,1-.07.07l-.11-.12h0c.14-.57.3-1.13.42-1.7s.25-1.14.37-1.71q.35-1.71.62-3.44c.19-1.15.34-2.3.51-3.46s.31-2.31.44-3.47l.19-1.73c0-.57.11-1.18.19-1.76.16-1.18.37-2.34.64-3.5.13-.58.29-1.16.46-1.73s.35-1.14.57-1.71c.1-.28.21-.56.33-.84s.23-.56.36-.83c.25-.56.54-1.09.83-1.63l0,.09a24.08,24.08,0,0,1,2.24-3.88,29.26,29.26,0,0,1,2.81-3.45A28.36,28.36,0,0,1,271,159a27.94,27.94,0,0,1,4.15-1.78c.35-.13.71-.24,1.08-.34s.72-.22,1.1-.3l1.12-.25,1.07-.19a18.05,18.05,0,0,1,4.6-.18,19.41,19.41,0,0,1,4.48.89,16.93,16.93,0,0,1,7.55,5,21.69,21.69,0,0,1,4.26,7.77,37.52,37.52,0,0,1,1.56,8.58c0,.36,0,.72.07,1.08,0,.19,0,.33,0,.56v.55c0,.72-.05,1.45-.1,2.17q-.15,2.16-.42,4.3t-.66,4.27c-.26,1.42-.57,2.82-.9,4.22a71.09,71.09,0,0,1-2.53,8.27,53.12,53.12,0,0,1-3.67,7.88,44.28,44.28,0,0,1-5.05,7.16,39.65,39.65,0,0,1-6.51,6c-.62.45-1.18.83-1.82,1.26s-1.27.77-1.91,1.13a42.06,42.06,0,0,1-4,2,25.8,25.8,0,0,1-8.63,2.28,10.83,10.83,0,0,1-4.53-.65,7.59,7.59,0,0,1-3.54-2.86l0,0a5,5,0,0,1-.35-.45c-.11-.15-.21-.3-.3-.46a9.43,9.43,0,0,1-.51-.95,9.84,9.84,0,0,1-.41-1c-.13-.33-.22-.67-.32-1s-.17-.68-.22-1a10.41,10.41,0,0,1-.14-1c0-.35,0-.7-.06-1s0-.69,0-1l.09-.09Z"/><path class="cls-12" d="M276,194.75a32.57,32.57,0,0,1-3.43-4.11,31.67,31.67,0,0,1-2.76-4.6q-.29-.61-.55-1.23c-.17-.41-.33-.84-.48-1.26s-.29-.86-.4-1.29-.22-.88-.31-1.32-.16-.9-.2-1.35-.07-.91-.09-1.37,0-.92.06-1.38.12-.92.2-1.37v.05a14.4,14.4,0,0,1,1-3.44,15.26,15.26,0,0,1,1.73-3.12,13.21,13.21,0,0,1,2.48-2.62,13.35,13.35,0,0,1,3.11-1.87,15.39,15.39,0,0,1,3.47-1c.3-.06.6-.09.89-.13l.22,0h.72a14.65,14.65,0,0,1,1.82.11,14.9,14.9,0,0,1,3.52.86,12.17,12.17,0,0,1,3.18,1.76,12.51,12.51,0,0,1,4.16,5.77,19,19,0,0,1,.86,3.41c0,.34.05.59.08.89l.05.86c0,.57,0,1.15.06,1.72,0,1.15,0,2.29,0,3.44s-.13,2.29-.25,3.43-.29,2.27-.54,3.39a20.71,20.71,0,0,1-1,3.29,24.62,24.62,0,0,0,.7-3.34c.17-1.12.25-2.25.32-3.38s.06-2.27,0-3.4-.07-2.26-.14-3.39c0-.56-.09-1.13-.14-1.69l-.08-.84c0-.27-.06-.59-.1-.81a18,18,0,0,0-.92-3.18,12.81,12.81,0,0,0-1.58-2.87,10.84,10.84,0,0,0-2.3-2.29,11.75,11.75,0,0,0-2.87-1.54,13.55,13.55,0,0,0-3.21-.76,13.27,13.27,0,0,0-1.65-.09H281l-.21,0c-.27,0-.55.07-.82.13a14.27,14.27,0,0,0-3.17.93,12,12,0,0,0-2.81,1.67,12.85,12.85,0,0,0-2.27,2.34,14.39,14.39,0,0,0-2.6,5.95v.05c-.08.41-.18.82-.22,1.25s-.07.84-.1,1.27,0,.85,0,1.28.09.85.14,1.28.15.85.25,1.27.21.84.33,1.26.26.83.41,1.24.31.82.48,1.22.35.8.53,1.2.38.79.58,1.18q.61,1.17,1.31,2.3t1.48,2.21C274.9,193.35,275.43,194.07,276,194.75Z"/><path class="cls-12" d="M273.38,195.82c-1-1-2.08-1.87-3.17-2.72-.28-.21-.55-.42-.84-.61s-.58-.38-.87-.57l-.45-.25c-.15-.08-.31-.15-.46-.22a4,4,0,0,0-.47-.17,3.4,3.4,0,0,0-.47-.09h0a3,3,0,0,0-.78-.05,2.58,2.58,0,0,0-.77.16,2.16,2.16,0,0,0-.67.37,1.81,1.81,0,0,0-.28.26,1.9,1.9,0,0,0-.23.3,1.21,1.21,0,0,0-.13.22c-.08.16-.13.25-.13.25l-.06.21a7.57,7.57,0,0,0-.18.79,9.4,9.4,0,0,0-.15,1.62c0,.27,0,.54,0,.81s.08.53.12.8a7.54,7.54,0,0,0,.21.78,5.65,5.65,0,0,0,.29.75,7.27,7.27,0,0,0,.37.71c.13.22.3.47.45.69s.32.45.48.67.34.41.5.61l0,0a2.78,2.78,0,0,1,.51.69,3,3,0,0,1,.29.77,3.31,3.31,0,0,1,0,1.61,5,5,0,0,1-.67,1.4l-.23.3-.2.27-.41.57-3.27,4.52-.41.56a2.84,2.84,0,0,0-.24.49,3.41,3.41,0,0,0-.26,1.15,2.44,2.44,0,0,0,.2,1.08,2.72,2.72,0,0,0,.68.89c.16.12.31.26.47.36a2.8,2.8,0,0,0,.51.25,2.51,2.51,0,0,0,1.09.17,2.34,2.34,0,0,0,1-.34,4,4,0,0,0,.91-.76l0,.05,3.36-4.71,0,.06a2.06,2.06,0,0,1,.2-.28l.2-.22a2.85,2.85,0,0,1,.47-.36,3,3,0,0,1,1.09-.4,4.83,4.83,0,0,1,2.56.48l.22.1.08,0,.07,0a4.76,4.76,0,0,0,.73.21,6.12,6.12,0,0,0,1.6.11,7.65,7.65,0,0,0,3.11-.93,11.6,11.6,0,0,0,2.66-2,22.45,22.45,0,0,0,2.16-2.63,17.17,17.17,0,0,0,2.49-6.29,17.31,17.31,0,0,0,.26-3.38l-.06-.85a6.81,6.81,0,0,0-.09-.85,14.14,14.14,0,0,0-.34-1.67c-.15-.54-.28-1.12-.49-1.64a16.11,16.11,0,0,0-.69-1.57,13.47,13.47,0,0,0-4.39-5.19,33.52,33.52,0,0,1-3-2,25.75,25.75,0,0,1-2.71-2.34,13.18,13.18,0,0,1-2.2-2.81,5.23,5.23,0,0,1-.71-3.42,5.14,5.14,0,0,0,.9,3.31,12.93,12.93,0,0,0,2.28,2.65,25.38,25.38,0,0,0,2.77,2.18c1,.67,2,1.26,3,1.85A14.29,14.29,0,0,1,286,188a17.06,17.06,0,0,1,.77,1.65c.24.57.38,1.14.56,1.73a15.18,15.18,0,0,1,.4,1.77,7.56,7.56,0,0,1,.12.9l.09.91a17.15,17.15,0,0,1-.21,3.63,18.37,18.37,0,0,1-2.57,6.78,21.57,21.57,0,0,1-2.3,2.86,12.92,12.92,0,0,1-3,2.28,9,9,0,0,1-3.67,1.11,7.52,7.52,0,0,1-2-.12,6.07,6.07,0,0,1-1-.28l-.13-.05-.13-.06-.18-.08a3,3,0,0,0-.36-.15,2.85,2.85,0,0,0-1.4-.21,1.58,1.58,0,0,0-.58.2l-.17.11-.14.14-.09.11,0,.06-3.38,4.7,0,0,0,0a5.27,5.27,0,0,1-1.24,1,3.69,3.69,0,0,1-1.62.51,3.79,3.79,0,0,1-1.67-.27,4.08,4.08,0,0,1-.74-.38c-.23-.15-.42-.33-.63-.5a4,4,0,0,1-1-1.33,3.66,3.66,0,0,1-.29-1.63,4.61,4.61,0,0,1,.37-1.55,3.74,3.74,0,0,1,.4-.74l.42-.56L264,206.1l.42-.56.42-.54a3.94,3.94,0,0,0,.55-1.08,2.33,2.33,0,0,0,.07-1.13,2.06,2.06,0,0,0-.19-.53,2.79,2.79,0,0,0-.21-.34l-.12-.12c-.19-.24-.39-.48-.56-.72s-.33-.48-.48-.73-.31-.48-.46-.75a8.14,8.14,0,0,1-.39-.81,6.42,6.42,0,0,1-.29-.84,8.26,8.26,0,0,1-.2-.87c0-.29-.09-.59-.1-.88s0-.59,0-.88a9.61,9.61,0,0,1,.22-1.74,8.27,8.27,0,0,1,.24-.85l.08-.22a1.53,1.53,0,0,1,.12-.22,2.72,2.72,0,0,1,.25-.39,2.43,2.43,0,0,1,.3-.36,2.34,2.34,0,0,1,.36-.31,2.72,2.72,0,0,1,.84-.42,3.08,3.08,0,0,1,.92-.15,3.39,3.39,0,0,1,.92.11h0a3.65,3.65,0,0,1,.56.13,4.43,4.43,0,0,1,.51.21c.16.09.32.16.48.25l.45.28c.29.2.58.4.86.62s.55.44.82.66c.54.45,1,.93,1.55,1.41S272.91,195.31,273.38,195.82Z"/><path class="cls-6" d="M194.17,322.74h0a50.24,50.24,0,0,1-7.5-.56l-.2-.05c-.27-.1-6.43-2.52-9.28-6.2l-.09,0-.1-.08c-.1-.08-9.87-7.87-17.13-10.38l-.05,0a50.52,50.52,0,0,1-13.77-9.48,61.46,61.46,0,0,1-18.27-34.07,152.53,152.53,0,0,1-2-15.82V246c0-.38-.17-9.25,0-11.58a53.22,53.22,0,0,1,.19-7.52,3.25,3.25,0,0,1,2.55-2.61,259.59,259.59,0,0,1,26.9-3.93c.26,0,27.29-2.55,46.5-13.41.95-.54,5.65-3,5.85-3.11a8.68,8.68,0,0,1,3.93-1.18,3.17,3.17,0,0,1,3,1.57c1.09,2,1.59,9.57,1.68,11.08,0,.11.51,10.14,2.56,16.76,0,.14,2.88,10.32,15.44,15.38.06,0,9.42,3.41,15.71,3.41l.88,0a3.11,3.11,0,0,1,.35,0,2.51,2.51,0,0,1,1.88.88c1.3,1.43,1.66,4.39,1.1,9a86.56,86.56,0,0,1-5,19.13c-3.71,9.78-10.86,23.45-23.79,33A55.72,55.72,0,0,1,194.17,322.74Zm-7.11-2.34a48.33,48.33,0,0,0,7.11.53,54.75,54.75,0,0,0,30.16-9.51c24.09-17.77,28.05-50.56,28.09-50.88.66-5.51-.23-7.16-.65-7.62a.89.89,0,0,0-.38-.27l-.25.05,0,0c-.34,0-.69,0-1.06,0-6.62,0-16-3.39-16.38-3.54-13.49-5.43-16.43-16.13-16.55-16.59-2.11-6.8-2.61-16.73-2.63-17.15-.2-3.36-.77-9.14-1.46-10.31L213,205a1.43,1.43,0,0,0-1.29-.53,6.92,6.92,0,0,0-3.05,1c-.05,0-4.88,2.56-5.8,3.08-19.56,11.06-47,13.62-47.26,13.65a256.36,256.36,0,0,0-26.73,3.91c-.83.13-1.07,1.16-1.07,1.16a49.75,49.75,0,0,0-.16,7.2v.09c-.19,2.1,0,10.87,0,11.41a150.51,150.51,0,0,0,2,15.59,59.68,59.68,0,0,0,17.67,33,50,50,0,0,0,13.25,9.17c7.24,2.51,16.42,9.69,17.55,10.59l.38.16.12.23C180.9,317.82,186.28,320.08,187.06,320.4Z"/><path class="cls-13" d="M249.26,373.11s56.15-24.85,81.39-61.84c0,0,1.14-2.55,2.71-1,4.43,4.46,8.09,17,8.09,17,1.78,6,14,22.08,14,22.08,9.14,10.53,36.57,48,36.57,48,18.73,23.91,29.51,53.9,29.51,53.9,16.21,39.12,18,89.36,18,89.36H135.18c0-7,.94-43.27.94-43.27.45-62.67,63.14-124.92,63.14-124.92,3.9-6,9.24-6.19,9.24-6.19s3.52-.35,3.21,1.88c0,0-8,18,7.86,15.14A137.22,137.22,0,0,0,249.26,373.11Z"/></svg>