<svg id="App_360" data-name="App 360" xmlns="http://www.w3.org/2000/svg" viewBox="0 0 512 520"><defs><style>.cls-1{fill:#d3d4d3;}.cls-2{fill:#5c5e69;}.cls-3{fill:#565758;}.cls-4{fill:#888989;}.cls-5{fill:#fff;}.cls-6{fill:#3f3f3f;}.cls-7{fill:#0c1517;}.cls-8{fill:#171818;}.cls-9{fill:#151415;}.cls-10{fill:#f6f8f9;}.cls-11{fill:#4f4e4d;}.cls-12{fill:#9deefc;}.cls-13{fill:#918f8f;}</style></defs><title>uso_02</title><path class="cls-1" d="M186.56,310.59s4-.81,21.45-1.29c0,0,21.84-2,25.69,9,0,0,2.28,8.75,2.7,11.16,0,0,8.78,30.89,9.53,37.3,0,0,5.19,21.48-9.25,41,0,0-38.28,52.14-44.69,84.87,0,0,70.44-28.6,87.95-52.37,0,0,58.28-67.53,113.78-50,0,0-8.33-13.78-15.08-24.58,0,0-29.85-44.59-32.84-93.86,0,0,20.81-79-10.78-98.62,0,0-58.06-27.58-96.91,27,0,0-15.8,32,10.67,45.21,0,0,18.07,25.94-47.39,42,0,0-35.86,2.81-27.54,18.49C173.86,306,175.71,311.89,186.56,310.59Z"/><path class="cls-2" d="M190.75,494.11l.33-1.7c6.37-32.56,44.47-84.72,44.85-85.25,14-18.93,9.15-40,9.09-40.23l0-.11c-.74-6.27-9.42-36.85-9.51-37.16l0-.09c-.4-2.27-2.51-10.41-2.68-11-2.72-7.61-15.57-8.43-21-8.43-2.23,0-3.73.13-3.73.13H208c-17,.47-21.26,1.27-21.26,1.27l-.11,0a26.05,26.05,0,0,1-3.06.19h0c-8.29,0-10.33-4.61-10.61-5.37-1.66-3.16-1.77-6.08-.33-8.7,4.93-9,26.85-11,28.58-11.09,34.17-8.41,44.87-19.44,47.83-27.21a15.09,15.09,0,0,0-.94-13.16c-11-5.6-16.41-15.39-15.55-28.34a52.87,52.87,0,0,1,4.68-18l.08-.13c8.92-12.54,19.59-21.79,31.74-27.5a74,74,0,0,1,31.76-6.9,89.37,89.37,0,0,1,34.58,7.05l.09.05c7.42,4.61,12.61,12.78,15.43,24.27,2.23,9.08,3,20.27,2.25,33.26a242,242,0,0,1-6.45,42c3,48.38,32.38,92.8,32.67,93.25,6.7,10.7,15,24.48,15.11,24.61l1.28,2.13-2.37-.75a62.55,62.55,0,0,0-18.9-2.87c-25,0-49.19,14.26-65.06,26.23a206.79,206.79,0,0,0-28.8,26.3c-17.5,23.71-85.44,51.48-88.33,52.65Zm56.11-127.55c.29,1.29,4.74,22.58-9.42,41.72-.37.51-36.9,50.53-44.16,82.77C204,486.58,263.53,461,279.2,439.67l0-.06A208.29,208.29,0,0,1,308.33,413c16.11-12.15,40.67-26.63,66.22-26.63a64.77,64.77,0,0,1,17.13,2.27c-2.58-4.26-8.69-14.29-13.83-22.5-.28-.42-30-45.34-33-94.3v-.15l0-.15a239.54,239.54,0,0,0,6.43-41.79c1.13-20-.87-45.85-16.75-55.77a87.61,87.61,0,0,0-33.73-6.85c-25.24,0-46.07,11.29-61.93,33.54A52,52,0,0,0,234.45,218c-.8,12.37,4.16,21.32,14.75,26.6l.21.11.14.2a16.85,16.85,0,0,1,1.29,15c-4.51,11.95-21.07,21.51-49.22,28.43l-.15,0c-.23,0-22.63,1.87-27.16,10.13-1.14,2.08-1,4.36.38,7l.07.16c.05.16,1.48,4.15,8.86,4.15h0a24.11,24.11,0,0,0,2.81-.17c.49-.09,5-.84,21.54-1.3.23,0,1.7-.14,3.88-.14,7.22,0,19.77,1.26,22.75,9.72l0,.08c.09.36,2.26,8.7,2.71,11.19C237.83,331,246.08,360.11,246.86,366.57Z"/><path class="cls-3" d="M203.29,460.36s44-15,72.92-55.28c0,0,24.64-34.22,62.4-43.64,0,0,25.46-7.42,43.83,10.62,0,0,16.47,21.65,24.07,39.57,0,0,23.94,54.44,20.38,138.19H175s13.87-64.74,25-85.81A5.63,5.63,0,0,1,203.29,460.36Z"/><path class="cls-1" d="M203.34,86.89S176,105.34,167.71,136.84a54.17,54.17,0,0,0,0,22.91s3.18,12.88-2.86,24.66c0,0-18.37,28.47-22.67,36.82,0,0-8.35,13.12,6.28,16.3,0,0,9.07,1.43,9.7,7,0,0-.64,5.57-1.71,11.13,0,0-3.46,3.34-2.27,6.92,0,0,1.19,4.45,7.44,4.22,0,0-4.19,1.05-5.07,3.64,0,0-1.93,4.43,2.21,6.7a3.89,3.89,0,0,0,3.3,0s.52,4.61-1.51,12.25c0,0-3.46,12,3.34,16.46,0,0,8.75,8.87,32.61,1.87,0,0,16.54-4.61,20-5.57,0,0,35.63-10.26,55-24.1,0,0,18.61-10.26,25.77-35.31,0,0,5.49-20.28,7.16-24.1,0,0,33.48-48,23.94-91.3,0,0-10.66-50.74-80.49-53.45C247.88,73.85,223.78,72.65,203.34,86.89Z"/><path class="cls-2" d="M179.73,311.3h0c-10.93,0-15.74-4.12-16.43-4.76-7.2-4.77-3.8-16.94-3.65-17.46a41.14,41.14,0,0,0,1.53-10.71,4.53,4.53,0,0,1-.73.06,5.15,5.15,0,0,1-2.1-.45,6.06,6.06,0,0,1-2.67-7.88,5.7,5.7,0,0,1,2.43-2.78,7,7,0,0,1-4.82-4.46c-1.17-3.56,1.49-6.77,2.3-7.64.94-4.95,1.54-9.89,1.63-10.68-.65-4.72-8.82-6.07-8.82-6.07l-.14,0c-4.54-1-7.47-3-8.73-6-2.13-5.1,1.46-11.08,1.83-11.67,4.26-8.26,21.61-35.19,22.67-36.83,5.78-11.3,2.8-23.84,2.77-24a54.67,54.67,0,0,1,0-23.37c8.26-31.47,35.74-50.3,36-50.48,17.62-12.27,37.87-13.23,43.65-13.23.92,0,1.43,0,1.43,0,16.07.62,30.33,3.85,42.41,9.58A75.59,75.59,0,0,1,315,101c11.42,13.06,14.16,25.6,14.27,26.13,5,22.58-1.84,46.41-8.44,62.43a173.56,173.56,0,0,1-15.59,29.53c-1.66,3.91-7,23.69-7.08,23.89-7,24.49-25,35.21-26.17,35.86-19.24,13.76-54.84,24.11-55.2,24.21-3.47.95-19.88,5.52-20,5.57A61.19,61.19,0,0,1,179.73,311.3Zm-16.9-35.7L163,277c0,.2.51,4.88-1.54,12.59,0,.13-3.19,11.46,2.94,15.44l.16.13s4.43,4.28,15.17,4.28h0a59.36,59.36,0,0,0,16.5-2.65c.18,0,16.6-4.63,20.06-5.57.34-.1,35.69-10.37,54.66-24l.09-.06c.18-.1,18.36-10.39,25.32-34.75.22-.82,5.52-20.38,7.2-24.22l.09-.16a171.79,171.79,0,0,0,15.47-29.29c6.49-15.76,13.2-39.18,8.33-61.28,0-.13-2.78-12.68-13.91-25.37-10.27-11.71-30-26-65.69-27.34,0,0-.5,0-1.37,0-5.65,0-25.41.93-42.59,12.9-.28.19-27.18,18.64-35.26,49.42a53.77,53.77,0,0,0,0,22.47c.13.51,3.19,13.33-2.95,25.28l0,.08c-.18.28-18.4,28.53-22.62,36.74l0,.07c0,.06-3.52,5.64-1.7,10,1,2.4,3.48,4,7.37,4.89.69.11,9.76,1.72,10.46,7.81v.21s-.65,5.67-1.72,11.21l-.06.29-.21.21s-3,3-2,5.95l0,.05c0,.14,1.14,3.73,6.5,3.52l9-.34-8.7,2.19c-1,.26-3.83,1.32-4.41,3l0,.07c-.16.37-1.46,3.7,1.77,5.49a3.39,3.39,0,0,0,1.27.26,2.37,2.37,0,0,0,1.16-.28Z"/><path class="cls-4" d="M173.2,159s6.59-10.67,27.32,1.05c0,0,6.77,3.85,9.75,5.25,0,0,3.67,2,3.85,2.56,0,0,2.56,2.57-2.86.48a105.29,105.29,0,0,1-13.56-5s-4.3-1.79-6.52-2.59c0,0-7.69-2.86-13.07,1.17a5,5,0,0,0-.88,1.63s-.66,1.91-2.33-.06a10.94,10.94,0,0,1-1.86-2.74A2.17,2.17,0,0,1,173.2,159Z"/><path class="cls-4" d="M251.31,157s-.26,23.54,11,34c0,0,12.54,12.57,6.57,30,0,0,10.82-1.59,9.86-24,0,0,.74-22,19.78-19.64,0,0,23.33,2,15.7,35.31a142.09,142.09,0,0,1-7.73,14.85c-1.82,3,0,13.4,0,13.4s3.54,73.23-53.73,60.29c0,0,13.84,39.61,79.69,17.18,0,0,16.71-5.38,30.07-4.41,0,0,17.88-2.43,33.95-35.12,4.41-9,8.51-19,8.51-19,37.93-92.28-2.87-172-2.87-172S385.79,37,331.15,49.43c0,0-14.79-30.78-104.27-5.25l-5,1.45c-16.69,3.58-37.39,17.21-37.39,17.21C152.18,81.76,170,115.17,170,115.17s7.73,15.25,27.84,13.34c0,0-10.86-6.7-12.88-13.26,0,0,16.82,13.86,34.6,14.1a38.31,38.31,0,0,1-9.7-6.86s-4.29-3.74-4-8.27c0,0,8.59,10.42,22.43,13,0,0,7,1.59,9.46,5.41a14.92,14.92,0,0,0-6.36-11.29s-5.17-2.65-4.93-7.19c0,0,7.64,7.51,12,10.45,0,0,8.75,5.57,11.37,21.71A73.76,73.76,0,0,1,251.31,157Z"/><path class="cls-2" d="M151.28,234.87a19.49,19.49,0,0,1,9.66.84,24,24,0,0,0,3.75,1.31s1.53.61.66,1.38c0,0-1,.93-4.81-.59a18.63,18.63,0,0,0-5.27-1.68,24,24,0,0,0-3.51-.54S149,235,151.28,234.87Z"/><path class="cls-2" d="M161.74,225.12c.87-.07,1.74-.08,2.61-.07s1.74.07,2.61.16c.43,0,.87.09,1.3.15s.86.14,1.3.22.86.17,1.29.27.85.22,1.28.35.84.28,1.26.43.83.33,1.23.53a12.79,12.79,0,0,1,1.19.65l.57.37.55.42a8.36,8.36,0,0,1,1,1,4.88,4.88,0,0,1,.43.55l.2.29.17.31a4,4,0,0,1,.31.64,4.46,4.46,0,0,1,.24.67,6.61,6.61,0,0,1,.17.69l.09.7v0a5.89,5.89,0,0,1,0,.87,7.19,7.19,0,0,1-.08.84c0,.28-.11.55-.18.82a6.06,6.06,0,0,1-.29.79,4.59,4.59,0,0,1-.41.74,3.9,3.9,0,0,1-.52.67,3.78,3.78,0,0,1-.61.58,4.26,4.26,0,0,1-.69.47l-.74.37-.78.24a3.46,3.46,0,0,1-.79.16l-.79.11h-.79c-.26,0-.53,0-.79,0l-1.55-.2,1.55-.05c.26,0,.51-.06.76-.09l.76-.09.73-.19a3.68,3.68,0,0,0,.71-.22l.69-.28.62-.38a1.24,1.24,0,0,0,.2-.13l.36-.32a3,3,0,0,0,.48-.52,3.09,3.09,0,0,0,.39-.58,3.68,3.68,0,0,0,.3-.64,5.67,5.67,0,0,0,.21-.67c0-.23.09-.47.12-.7a6.16,6.16,0,0,0,0-.71,5.06,5.06,0,0,0,0-.68v0q-.05-.29-.09-.58a5.56,5.56,0,0,0-.15-.57,3.45,3.45,0,0,0-.21-.55,3,3,0,0,0-.27-.52l-.15-.25-.17-.24a3.91,3.91,0,0,0-.37-.46,8.33,8.33,0,0,0-.86-.84l-.48-.38-.51-.34a11.77,11.77,0,0,0-1.08-.61c-.37-.2-.75-.37-1.13-.54s-.78-.32-1.18-.45-.8-.27-1.21-.39-.82-.24-1.23-.35c-.83-.21-1.66-.4-2.51-.56l-1.27-.23-1.28-.2C163.46,225.32,162.61,225.2,161.74,225.12Z"/><path class="cls-5" d="M190.06,176.28s4.73,1,7.32,2.92a25.66,25.66,0,0,0,6.17,2.14s.06.41-.86.87c0,0-.91.5-1.34.78,0,0-6.9,4.39-11.9,4.63,0,0-1.17,0-.93-1.69,0,0,2-5.49.6-8.27,0,0-1.44-1.25-.63-1.38A5.46,5.46,0,0,1,190.06,176.28Z"/><ellipse class="cls-6" cx="189.12" cy="181.49" rx="2.84" ry="5.53"/><path class="cls-7" d="M188.23,176.86s1.75,0,2.12,3.84a10.22,10.22,0,0,1-.42,4.12s-1.17,2.81-2.3,1.37a7.19,7.19,0,0,1-1.34-4.56,11.79,11.79,0,0,1,.36-2.83S187.12,176.86,188.23,176.86Z"/><path class="cls-5" d="M190.91,180.87a.85.85,0,0,1-.85.85h0a.85.85,0,0,1-.85-.85v-.66a.85.85,0,0,1,.85-.85h0a.85.85,0,0,1,.85.85Z"/><path class="cls-5" d="M190.67,183.39a.61.61,0,0,1-.61.61h0a.61.61,0,0,1-.61-.61v-.47a.61.61,0,0,1,.61-.61h0a.61.61,0,0,1,.61.61Z"/><path class="cls-8" d="M185.17,191a4.86,4.86,0,0,1,4.45-2.78,27.45,27.45,0,0,0,10.18-4s3-1.93,3.76-2.35a2.23,2.23,0,0,0-1.37.24,45.59,45.59,0,0,1-6.08,3.28s-3.73,1.49-5.85,1.46c0,0-3.89-.7-5.09,1.71A3.36,3.36,0,0,0,185.17,191Z"/><path class="cls-9" d="M181.43,171.35a14.25,14.25,0,0,0,9.19,3.64,20,20,0,0,1,7.34,3.1s4.47,3.19,9.26,3.61c0,0-1.59.57-5.35-.29a25.54,25.54,0,0,1-6.51-2,17.15,17.15,0,0,0-6.84-1.27s-4.87.82-6.54-3.36A9.52,9.52,0,0,1,181.43,171.35Z"/><path class="cls-10" d="M227.45,222.93s20.64-15.51,30.3-20.76c0,0,15.31-8.83,21.65-16.7,0,0,15.63-20.64,35.19.36l-3.73,5.52s-14.63-16.8-28.35-.26c0,0-10.13,10.62-22,16.56,0,0-24.6,15-31.6,25,0,0-4.27,3.83-7.11.59C221.8,233.2,219.16,229.79,227.45,222.93Z"/><path class="cls-11" d="M224.57,235.44a4.52,4.52,0,0,1-3.47-1.62l0,0c-.33-.42-2.95-4.34,5.79-11.57.88-.66,20.84-15.64,30.45-20.86.13-.08,15.22-8.82,21.37-16.47.27-.36,7.25-9.42,17.92-9.42,6.39,0,12.67,3.27,18.68,9.72l.51.55L311,192.88l-.8-.92c-.06-.07-6.4-7.22-14.33-7.22-4.53,0-8.77,2.34-12.6,6.94l0,0c-.1.11-10.36,10.78-22.22,16.73-1,.62-24.59,15.11-31.29,24.69l-.06.09-.08.07A8.6,8.6,0,0,1,224.57,235.44Zm-2-2.81a2.61,2.61,0,0,0,2,.94,6.67,6.67,0,0,0,3.65-1.59c7.12-10.06,30.8-24.52,31.81-25.14l.07,0c11.33-5.68,21.2-15.8,21.72-16.35,4.19-5,8.91-7.59,14-7.59,7.11,0,12.83,4.94,14.91,7l2.66-3.93c-5.48-5.7-11.13-8.59-16.8-8.59-9.75,0-16.38,8.61-16.38,8.61-6.46,8-21.37,16.67-22,17-9.51,5.17-30,20.54-30.21,20.7C221,229.44,222.4,232.36,222.55,232.63Z"/><path class="cls-10" d="M236.7,242A55,55,0,0,0,269,247.14s14.5-2.74,32.16-15.63c0,0,5.78-2.87,6.38-15.87l6.87-4.13s-1,17.5-11.71,26c0,0-15.82,13-33,15.59,0,0-17.63,3.18-34.33-5.09,0,0-4.42-2-3.72-5.89C231.67,242.13,232.64,239.51,236.7,242Z"/><path class="cls-11" d="M261.26,254.65A60,60,0,0,1,235,248.86c-.18-.08-5-2.37-4.22-6.89l0-.15a3,3,0,0,1,2.86-1.82,7,7,0,0,1,3.53,1.22,53.37,53.37,0,0,0,24.05,5.53,55.35,55.35,0,0,0,7.65-.53c.1,0,14.48-2.86,31.74-15.45l.14-.08s5.3-2.9,5.86-15.07l0-.5,8.82-5.31-.11,1.78c0,.73-1.2,18-12.06,26.69-.64.53-16.21,13.23-33.45,15.78A53.17,53.17,0,0,1,261.26,254.65Zm-28.68-12.24c-.46,3,3.17,4.74,3.2,4.76a58.16,58.16,0,0,0,25.48,5.61,52.56,52.56,0,0,0,8.26-.58c16.78-2.49,32.45-15.26,32.6-15.39,8.22-6.57,10.57-18.88,11.17-23.52l-4.83,2.91c-.7,12.3-6,15.69-6.79,16.12-17.6,12.83-31.88,15.64-32.48,15.75a57.24,57.24,0,0,1-8,.56c-14.68,0-24.59-5.56-25-5.8a5.14,5.14,0,0,0-2.57-1A1.15,1.15,0,0,0,232.58,242.41Z"/><path class="cls-12" d="M253.44,245.51s2.39,2.54-.4,4.29c0,0-46.24,35.27-95.35,28.47,0,0-6.5-.09-8.08-8.39,0,0-10-13-12.7-21.76A40.11,40.11,0,0,1,138,221s5.86-14.42,10.78-22a11.61,11.61,0,0,1,1.91-3.64,8.79,8.79,0,0,1,4.45-3.14s9.86-3.54,37.3,10.3c0,0,29.82,15,48.32,12.53,0,0,4.06-1.27,4.57,2.63,0,0,2.79,21.55,8.11,27.67"/><path class="cls-12" d="M149.19,199.38s4.56-3,16.57.54c0,0,18.06,5.38,31,12,0,0,27.53,12.95,42.56,9,0,0,.93,17.79,7.22,26.06,0,0-14,9.57-40.45,19,0,0-21.34,9.07-55.28,6.11a12.57,12.57,0,0,1-.74-2.58s-9.3-12.47-12.22-20.75c0,0-4.79-12.75.44-26.22C138.3,222.48,144.7,206.6,149.19,199.38Z"/><path class="cls-12" d="M170.55,280.09h0a95.1,95.1,0,0,1-13-.87c-.79,0-7.19-.69-8.86-8.93-1.25-1.65-10.12-13.5-12.72-21.85a40.72,40.72,0,0,1,1.11-27.77c.24-.59,5.89-14.44,10.78-22a13.52,13.52,0,0,1,2-3.79,9.72,9.72,0,0,1,4.94-3.5,13.29,13.29,0,0,1,4-.45c5.75,0,16.33,1.87,34,10.81.25.13,25.43,12.71,43.45,12.71a32.53,32.53,0,0,0,4.26-.26,6.31,6.31,0,0,1,1.62-.22,3.84,3.84,0,0,1,4.07,3.64c0,.22,2.81,21.34,7.89,27.18l.11.14a3.7,3.7,0,0,1-.68,5.69,162.64,162.64,0,0,1-24.87,14.75C214.83,272.06,193.47,280.09,170.55,280.09Zm-11.73-87.33a11.92,11.92,0,0,0-3.37.35l-.07,0a7.82,7.82,0,0,0-3.93,2.77,11.31,11.31,0,0,0-1.77,3.31l0,.17-.09.14c-4.81,7.43-10.64,21.71-10.69,21.85a39.41,39.41,0,0,0-1.09,26.43l0,.05c2.62,8.49,12.45,21.34,12.55,21.47l.14.18,0,.22c1.41,7.41,6.94,7.62,7.18,7.63h.11a93.22,93.22,0,0,0,12.73.86c43.2,0,81.55-28.86,81.93-29.15l.07,0a2.15,2.15,0,0,0,.86-1.27,2.27,2.27,0,0,0-.62-1.72l-.07-.09c-5.44-6.29-8.2-27.26-8.32-28.15a2,2,0,0,0-2.21-2,4.44,4.44,0,0,0-1.15.15l-.16,0a34.29,34.29,0,0,1-4.58.29c-18.46,0-43.24-12.38-44.29-12.91C173.72,194.14,163.37,192.76,158.82,192.76Z"/><path class="cls-1" d="M279.56,202.48s-1.24-9.27,5.8-21.92a30.16,30.16,0,0,1,21-15s18.39-3.64,20,20.63c0,0,.91,27.62-19.86,41.25,0,0-14.75,9.72-20.21,2.17,0,0-2.31-2.31-2.31-7"/><path class="cls-2" d="M279.48,202.49a22.79,22.79,0,0,1-.11-4.79,38.19,38.19,0,0,1,.65-4.76,45.44,45.44,0,0,1,3-9.13l.5-1.1c.17-.36.36-.72.54-1.08l.55-1.07.26-.51c.1-.19.2-.38.3-.55a27.46,27.46,0,0,1,2.8-4,29.13,29.13,0,0,1,16.29-10l1.19-.24c.4-.07.77-.17,1.2-.22a16.86,16.86,0,0,1,2.44-.08,18.85,18.85,0,0,1,4.77.81c.39.12.77.26,1.14.4s.75.3,1.11.49a12,12,0,0,1,1.07.56l.52.31.5.34a16.13,16.13,0,0,1,3.51,3.3,20.77,20.77,0,0,1,2.49,4.12,30,30,0,0,1,1.58,4.55c.18.78.37,1.56.51,2.35s.29,1.58.36,2.38l.13,1.2,0,.3V187c0,.81,0,1.61,0,2.41a59.71,59.71,0,0,1-1.2,9.54c-.32,1.57-.74,3.13-1.19,4.67s-1,3.07-1.59,4.56a45.31,45.31,0,0,1-4.46,8.58,44,44,0,0,1-2.92,3.88c-.53.61-1.09,1.21-1.64,1.8s-1.14,1.15-1.75,1.69a39.05,39.05,0,0,1-3.79,3c-.67.45-1.33.93-2,1.34s-1.41.8-2.13,1.17a37.33,37.33,0,0,1-4.44,1.94,23.93,23.93,0,0,1-4.72,1.23,15.75,15.75,0,0,1-2.46.16,11.13,11.13,0,0,1-2.47-.35,8,8,0,0,1-2.28-1.06,7.42,7.42,0,0,1-1.76-1.79l0,0c-.13-.14-.22-.27-.32-.4s-.18-.28-.27-.41a8.61,8.61,0,0,1-.47-.86,9.3,9.3,0,0,1-.37-.89,3.59,3.59,0,0,1-.16-.45l-.13-.47-.13-.46a2.83,2.83,0,0,1-.09-.47l-.14-.95a2.43,2.43,0,0,1,0-.48v-.48l0-1H284l.1.93,0,.46a2.31,2.31,0,0,0,.07.46l.2.91a2.74,2.74,0,0,0,.12.45l.15.44.15.44a3.34,3.34,0,0,0,.18.42,8.89,8.89,0,0,0,.41.82,8,8,0,0,0,.49.77c.09.12.17.25.27.36s.19.23.29.32h0l0,0a6.32,6.32,0,0,0,3.7,2.35,10.15,10.15,0,0,0,2.24.2,14.65,14.65,0,0,0,2.27-.26,30.94,30.94,0,0,0,8.65-3.35c.68-.37,1.36-.77,2-1.18s1.27-.88,1.9-1.32a39.64,39.64,0,0,0,3.59-3,40.89,40.89,0,0,0,6-7.09,47.4,47.4,0,0,0,4.41-8.22c.61-1.44,1.13-2.92,1.62-4.4s.88-3,1.24-4.53a63.18,63.18,0,0,0,1.47-9.29c.07-.78.11-1.57.14-2.35v-.85l0-.29-.08-1.17c0-.79-.17-1.56-.25-2.34s-.26-1.55-.41-2.32-.34-1.53-.6-2.27c-.12-.37-.22-.75-.36-1.12l-.43-1.09a18.54,18.54,0,0,0-2.35-4,14.4,14.4,0,0,0-7.63-5.13,16.28,16.28,0,0,0-2.29-.46,19,19,0,0,0-2.33-.13,16.07,16.07,0,0,0-2.31.18c-.36,0-.76.17-1.13.26l-1.14.29a30.59,30.59,0,0,0-8.47,3.8,31.65,31.65,0,0,0-7,6.09,27.86,27.86,0,0,0-2.72,3.75c-.1.17-.19.32-.28.49l-.29.54-.56,1c-.18.35-.38.69-.56,1l-.51,1.06a49.74,49.74,0,0,0-3.3,8.8,45.43,45.43,0,0,0-.94,4.62l-.14,1.17c0,.39-.07.78-.09,1.18a20.17,20.17,0,0,0,0,2.36Z"/><path class="cls-1" d="M302.42,198.6s-7.76-8.39-6.08-16c0,0,1-8.71,10.21-9.75,0,0,9.46-.89,11.19,9.49,0,0,1,8.69-.91,14.14"/><path class="cls-2" d="M302.42,198.6a27.72,27.72,0,0,1-2.86-3.41,26.57,26.57,0,0,1-2.29-3.85,20.71,20.71,0,0,1-.86-2.09c-.12-.36-.24-.72-.34-1.09s-.19-.74-.26-1.11-.14-.75-.17-1.14-.06-.77-.08-1.15,0-.78,0-1.16.1-.77.16-1.16v.06a12.3,12.3,0,0,1,.79-2.91,13.74,13.74,0,0,1,1.43-2.64c.13-.21.31-.4.46-.6a5.83,5.83,0,0,1,.49-.58,10.46,10.46,0,0,1,1.11-1l.6-.47c.2-.15.43-.27.64-.41s.43-.27.65-.39l.69-.31c.23-.1.46-.22.7-.3l.72-.22.72-.22.74-.13.74-.12.19,0H307a11.94,11.94,0,0,1,1.51.1,12.16,12.16,0,0,1,2.93.74,10,10,0,0,1,2.64,1.5,10.58,10.58,0,0,1,3.43,4.89,16.35,16.35,0,0,1,.7,2.87c0,.3,0,.5.06.75l0,.72c0,.48,0,1,0,1.44,0,1,0,1.92,0,2.88s-.12,1.92-.22,2.87a26.92,26.92,0,0,1-.47,2.84,17.9,17.9,0,0,1-.83,2.74,20.59,20.59,0,0,0,.54-2.8c.13-.94.18-1.89.23-2.83a53.9,53.9,0,0,0-.11-5.67l-.12-1.41-.07-.7c0-.22-.05-.49-.08-.67a15.32,15.32,0,0,0-.76-2.64,10.75,10.75,0,0,0-1.28-2.37,8.8,8.8,0,0,0-1.87-1.89,9.56,9.56,0,0,0-2.33-1.27,10.78,10.78,0,0,0-2.6-.63,10.57,10.57,0,0,0-1.34-.07h-.46l-.17,0-.67.12-.67.11-.64.19-.65.19c-.21.07-.41.18-.62.26l-.61.27c-.2.11-.38.23-.57.34s-.39.22-.57.35l-.53.41a10.59,10.59,0,0,0-1.85,1.93,12.45,12.45,0,0,0-1.34,2.34,11.73,11.73,0,0,0-.78,2.57v.06c-.07.34-.15.68-.18,1s-.06.7-.09,1,0,.71,0,1.06.07.71.11,1.06A18.16,18.16,0,0,0,298,191a28.49,28.49,0,0,0,2,3.92q.56.95,1.19,1.86C301.53,197.43,302,198,302.42,198.6Z"/><path class="cls-1" d="M298.75,199.81s-4.25-4.3-6.19-4.4a2.66,2.66,0,0,0-3.08,1.45,7.6,7.6,0,0,0,.52,6.26,15.31,15.31,0,0,0,1.32,1.84s1.69,1.52-.34,3.9l-3.91,5.24a3.07,3.07,0,0,0,.82,4.28,3,3,0,0,0,4.19-.62l3.1-4.28s.94-1.68,3.57-.34c0,0,5,2.43,10.07-4.6a15.38,15.38,0,0,0,2-13.65,13.52,13.52,0,0,0-5.19-6.87s-8.75-4.72-8-9.31"/><path class="cls-2" d="M298.75,199.81c-.94-.87-1.93-1.69-2.94-2.47-.26-.19-.51-.38-.78-.56s-.53-.35-.8-.51a7.94,7.94,0,0,0-.84-.42,4,4,0,0,0-.43-.15,3.32,3.32,0,0,0-.42-.07h0a2.78,2.78,0,0,0-.7,0,2.41,2.41,0,0,0-.69.14,2.09,2.09,0,0,0-.6.33,2.14,2.14,0,0,0-.47.5,3.36,3.36,0,0,0-.18.3l-.08.16,0,.15a6.69,6.69,0,0,0-.17.72,8.46,8.46,0,0,0-.14,1.48c0,.25,0,.49,0,.74s.07.49.11.73a7,7,0,0,0,.19.7,5,5,0,0,0,.27.68,6.56,6.56,0,0,0,.34.64c.12.2.28.42.42.62s.3.41.44.61.31.37.46.55l0,0a2.58,2.58,0,0,1,.49.64,2.76,2.76,0,0,1,.28.72,3,3,0,0,1-.05,1.52,4.49,4.49,0,0,1-.63,1.3l-.21.28-.11.14v0h0l0,0h0l0,0,0,.06-.37.52-3,4.12-.38.51-.06.11-.11.24a3.13,3.13,0,0,0-.25,1.11,2.05,2.05,0,0,0,.21.94,2.33,2.33,0,0,0,.62.78l.21.17.05,0,0,0,0,0,.09.06a2.8,2.8,0,0,0,.46.21,2.31,2.31,0,0,0,1,.13,2.08,2.08,0,0,0,.92-.3,3.58,3.58,0,0,0,.81-.68l0,.06,3.09-4.29,0,.07a1.92,1.92,0,0,1,.19-.27l.19-.2a2.66,2.66,0,0,1,.44-.34,2.83,2.83,0,0,1,1-.37,3.94,3.94,0,0,1,1.94.24,3.38,3.38,0,0,1,.42.17l.21.09.05,0h0l.08,0a4.43,4.43,0,0,0,.65.19,6.12,6.12,0,0,0,1.43.11A7.09,7.09,0,0,0,304,212a11.17,11.17,0,0,0,2.44-1.79c.35-.38.72-.74,1-1.14s.66-.81,1-1.23a14.87,14.87,0,0,0,1.46-2.73,15.56,15.56,0,0,0,.88-3l.13-.77.07-.77a15.47,15.47,0,0,0,.05-1.55c0-.52-.06-1-.13-1.55a13.1,13.1,0,0,0-.31-1.53c-.14-.49-.26-1-.45-1.5a14.42,14.42,0,0,0-.63-1.43,12.25,12.25,0,0,0-4-4.71,30.53,30.53,0,0,1-2.7-1.81,23.85,23.85,0,0,1-2.49-2.13,12.14,12.14,0,0,1-2-2.57,4.73,4.73,0,0,1-.66-3.14,4.63,4.63,0,0,0,.85,3,11.83,11.83,0,0,0,2.11,2.4,23.31,23.31,0,0,0,2.54,2c.89.61,1.79,1.13,2.77,1.66a13.07,13.07,0,0,1,4.49,4.87,15.55,15.55,0,0,1,.72,1.51c.22.53.35,1.05.52,1.59a14.18,14.18,0,0,1,.37,1.64c.1.55.14,1.11.19,1.67a15.4,15.4,0,0,1-.21,3.36,16.8,16.8,0,0,1-.9,3.24,16.17,16.17,0,0,1-1.55,3c-.32.47-.68.89-1,1.34s-.76.84-1.13,1.25a12.49,12.49,0,0,1-2.76,2,8.46,8.46,0,0,1-3.38,1,7.5,7.5,0,0,1-1.79-.13,5.59,5.59,0,0,1-.91-.27l-.11,0-.11-.05-.16-.07a2.31,2.31,0,0,0-.33-.13,2.59,2.59,0,0,0-1.24-.18,1.43,1.43,0,0,0-.5.18,1.27,1.27,0,0,0-.21.16l-.09.09,0,.06,0,.07-3.11,4.27,0,0,0,0a4.91,4.91,0,0,1-1.15.94,3.43,3.43,0,0,1-1.49.47,3.59,3.59,0,0,1-1.53-.23,4.08,4.08,0,0,1-.69-.34l-.11-.07-.11-.08h0l-.07-.06-.29-.23a3.62,3.62,0,0,1-.93-1.22,3.33,3.33,0,0,1-.31-1.53,4.18,4.18,0,0,1,.33-1.45c0-.11.1-.22.15-.33a2.89,2.89,0,0,1,.22-.37l.39-.51,3.1-4.06.39-.51.39-.49a3.46,3.46,0,0,0,.51-1,2,2,0,0,0,.07-1,1.85,1.85,0,0,0-.43-.86l0,0c-.17-.22-.36-.44-.52-.66s-.31-.44-.45-.66-.28-.43-.42-.69a7.54,7.54,0,0,1-.36-.75,5.91,5.91,0,0,1-.27-.78,7.66,7.66,0,0,1-.19-.8c0-.27-.08-.54-.09-.81s0-.54,0-.82a8.74,8.74,0,0,1,.22-1.61,7.3,7.3,0,0,1,.23-.78c0-.07,0-.12.09-.22l.11-.18.15-.24a3.23,3.23,0,0,1,.72-.71,2.65,2.65,0,0,1,.78-.37,2.92,2.92,0,0,1,.84-.12,3.19,3.19,0,0,1,.84.1h0a3.52,3.52,0,0,1,.52.12,4.39,4.39,0,0,1,.47.19,8.26,8.26,0,0,1,.86.49c.27.18.54.37.79.57s.51.4.76.6c.49.41,1,.85,1.43,1.3S298.32,199.34,298.75,199.81Z"/><path class="cls-13" d="M199.09,471.47s-3.19,20.19,3.8,32.92c0,0,46.91-17.38,73.67-61.38,0,0,33.12-54.54,61.62-61.22,0,0,26-7,55.54,11.43,0,0-30.44-14.58-52.41-9.47,0,0-22,2.69-52.6,49,0,0-11,15.42-13.09,18.92,0,0-26.45,42-75.47,58.61C200.16,510.27,192.25,488.62,199.09,471.47Z"/></svg>