<svg id="App_360" data-name="App 360" xmlns="http://www.w3.org/2000/svg" viewBox="0 0 512 520"><defs><style>.cls-1{fill:#ceccce;}.cls-2{fill:#4f535a;}.cls-3{fill:#fff;}.cls-4{fill:#3f3f3f;}.cls-5{fill:#0c1517;}.cls-6{fill:#171818;}.cls-7{fill:#151415;}.cls-8{fill:#4c494a;}.cls-9{fill:#333;}.cls-10{fill:#717373;}.cls-11{fill:#787979;}.cls-12{fill:#f6f8f9;}.cls-13{fill:#4f4e4d;}.cls-14{fill:#43474e;}.cls-15{fill:#9deefc;}.cls-16{fill:#424342;}</style></defs><title>uso_03</title><path class="cls-1" d="M180.36,307.55s4-1,21.44-1.6c0,0,21.83-2.42,25.67,11.09,0,0,2.28,10.83,2.7,13.82,0,0,8.77,38.25,9.53,46.2,0,0,5.19,26.6-9.24,50.77,0,0-38.26,64.57-44.66,105.1,0,0,70.4-35.41,87.89-64.85,0,0,58.24-83.63,113.71-61.87,0,0-8.32-17.07-15.08-30.44,0,0-29.83-55.22-32.82-116.23,0,0,20.8-97.81-10.77-122.13,0,0-58-34.16-96.85,33.48,0,0-15.79,39.65,10.67,56,0,0,18.06,32.13-47.36,52,0,0-35.84,3.48-27.52,22.9C167.67,301.83,169.52,309.15,180.36,307.55Z"/><path class="cls-2" d="M184.35,534.92l.34-2.16c6.36-40.28,44.42-104.85,44.8-105.5,14.05-23.54,9.16-49.72,9.11-50l0-.11c-.74-7.78-9.42-45.67-9.51-46.05l0-.09c-.4-2.83-2.53-13-2.68-13.71-2.6-9.05-14.12-10.41-20.76-10.41-2.2,0-3.68.16-3.68.16h-.1c-16.94.58-21.17,1.56-21.17,1.56l-.14,0a21.43,21.43,0,0,1-3.11.24h0c-8.36,0-10.52-5.8-10.8-6.69-1.86-4.38-1.76-8.37.31-11.86,5.93-10,26.15-12.34,28-12.54,25.51-7.78,41.73-18.69,46.92-31.55a23.48,23.48,0,0,0-.2-18.59c-11-6.94-16.37-19-15.52-35a77.49,77.49,0,0,1,4.67-22.22l.07-.14c8.92-15.53,19.6-27,31.76-34.08a62.57,62.57,0,0,1,31.91-8.59,74.24,74.24,0,0,1,34.73,8.78l.12.08c7.42,5.72,12.61,15.82,15.42,30,2.22,11.23,3,25.06,2.24,41.11a365.61,365.61,0,0,1-6.45,52c3,60,32.38,115.06,32.68,115.61,6.7,13.25,15,30.31,15.1,30.48l1.26,2.59L387,407.26a51.16,51.16,0,0,0-18.76-3.54c-24.91,0-49,17.64-64.85,32.44a232.83,232.83,0,0,0-28.74,32.53c-7.36,12.36-24.47,27.09-50.85,43.81-19.61,12.42-37.31,21.35-37.48,21.44Zm56.47-158c.26,1.43,4.77,27.79-9.39,51.51-.37.63-36.85,62.53-44.14,102.5,11.56-6,70-37.34,85.44-63.4l0-.07a235,235,0,0,1,29.07-32.92,154.49,154.49,0,0,1,30.43-22.67c12.51-6.88,24.6-10.37,36-10.37a53.44,53.44,0,0,1,16.94,2.73c-2.56-5.24-8.69-17.73-13.85-27.93A297.7,297.7,0,0,1,356,340.93c-7.17-19.63-16-49.67-17.6-81.33v-.15l0-.14a362.51,362.51,0,0,0,6.43-51.79c1.62-35.52-4.17-59.43-16.73-69.17a73.51,73.51,0,0,0-33.53-8.44c-25.11,0-45.86,14-61.68,41.47a76.89,76.89,0,0,0-4.48,21.5c-.81,15.39,4.14,26.51,14.72,33.05l.25.15.14.25c.21.37,5.07,9.25.47,20.72-5.52,13.75-21.83,24.84-48.48,32.95l-.22,0c-.21,0-20.93,2.15-26.44,11.46-1.71,2.89-1.76,6.12-.15,9.88l.06.17c.05.2,1.45,5.1,8.65,5.1h0a19.15,19.15,0,0,0,2.74-.21c.59-.13,5.2-1.05,21.57-1.62.28,0,1.75-.17,3.9-.17,7.28,0,19.94,1.57,22.93,12.08l0,.08c.09.44,2.27,10.8,2.71,13.85C231.77,332.77,240,368.94,240.82,376.9Z"/><path class="cls-1" d="M186.93,85.15s-21.61,18.24-23.31,51.63c0,0-.28,16.06,2,25.49,0,0,2.42,10.31-5.26,21.12,0,0-12.52,17.32-16.78,22.15,0,0-9.92,10.49,1.33,16.62,0,0,5.35,2.29,8.34,3.86,0,0,4.73,1.56,2.42,8.68,0,0-1.92,5.9-3,7.18,0,0-2,4.87,3.13,9.24,0,0,1.53,1.28,1.32,2.45a17.1,17.1,0,0,1-1.88,3.16s-3.49,3.34-1.71,7.25c0,0,1.71,4.55,3.63,6.19,0,0,1.88,3.87,1.46,11,0,0-1,14.93,3.73,20.37,0,0,5.41,8.28,18,6,0,0,39.15-9.14,68.73-24.78,0,0,27.59-11.24,30-36.84,0,0,4.2-28.09,8.89-34.92,0,0,10.88-55.82,72.75-40.6,0,0,23.32-91.45-61.44-113.42C299.3,57,235.58,38,186.93,85.15Z"/><path class="cls-3" d="M183.71,167s5.84,1.58,8.92,4.25c0,0,4.47,2.58,7.55,3.18,0,0,0,.52-1.15,1,0,0-1.19.55-1.74.86,0,0-9,4.94-15.27,4.83,0,0-1.46,0-1-2.19,0,0,3-6.7,1.42-10.3,0,0-1.69-1.68-.67-1.78A6.83,6.83,0,0,1,183.71,167Z"/><ellipse class="cls-4" cx="182.1" cy="173.43" rx="6.93" ry="3.57" transform="translate(-2.8 343.86) rotate(-86.27)"/><path class="cls-5" d="M181.36,167.56s2.19.14,2.34,5c0,0,.11,3.29-.86,5.12,0,0-1.69,3.42-3,1.53a9,9,0,0,1-1.31-5.82,14.76,14.76,0,0,1,.68-3.51S180,167.46,181.36,167.56Z"/><path class="cls-3" d="M184.28,172.67a1,1,0,0,1-1.07.94h0a1,1,0,0,1-.94-1.07l.05-.77a1,1,0,0,1,1.07-.94h0a1,1,0,0,1,.94,1.07Z"/><path class="cls-3" d="M183.89,175.93a.77.77,0,0,1-.81.71h0a.76.76,0,0,1-.71-.81l0-.59a.76.76,0,0,1,.81-.71h0a.76.76,0,0,1,.71.81Z"/><path class="cls-6" d="M177.61,182a14.23,14.23,0,0,1,4.5-.32,31.87,31.87,0,0,0,13.14-3.94s3.93-2.17,4.89-2.64a2.8,2.8,0,0,0-1.74.18,57.17,57.17,0,0,1-7.88,3.61s-4.79,1.56-7.43,1.35c0,0-3.39-.17-4.57.77A3.62,3.62,0,0,0,177.61,182Z"/><path class="cls-7" d="M193.43,169.89s5.34,4.36,11.29,5.27c0,0-2,.58-6.67-.81,0,0-5.15-1.22-8-3.06a21.51,21.51,0,0,0-8.45-2.15,5.83,5.83,0,0,1-7-4.07,4.9,4.9,0,0,1-.82-3.24s1.17,4.37,10.21,3.5a9.06,9.06,0,0,1,4.8,1.65S192.45,169.16,193.43,169.89Z"/><path class="cls-8" d="M171.11,153.24s1.64,1.26,4-1.09c0,0,6.22-6.85,27.14,2.1,0,0,1.73.79,2.49,1.2,0,0,1.49.92,1.58.23,0,0,.24-1-3.24-3,0,0-15-9.21-27-6.78,0,0-4.47.79-5.8,3.72A2.53,2.53,0,0,0,171.11,153.24Z"/><path class="cls-9" d="M149.23,220.59s.07-.65,3.15-.32c0,0,4.13.78,5.79,2.32,0,0,1.4,1.22.69,1.63,0,0-1.22.69-3.34-.48a25.84,25.84,0,0,0-3.89-1.83S149.32,221.1,149.23,220.59Z"/><path class="cls-2" d="M160.79,225.15a12.86,12.86,0,0,0,1.82.86,7.93,7.93,0,0,0,1.89.5l.47,0a3.34,3.34,0,0,0,.46,0,3.07,3.07,0,0,0,.45-.08,2.69,2.69,0,0,0,.42-.14,2.42,2.42,0,0,0,.38-.21,2.34,2.34,0,0,0,.34-.27,2.7,2.7,0,0,0,.29-.33c.1-.11.16-.25.25-.37l0,0a5.77,5.77,0,0,0,.32-1.06A8.33,8.33,0,0,0,168,223c0-.19,0-.39,0-.58a5.37,5.37,0,0,0,0-.58l0-.58-.06-.58c0-.39-.14-.77-.19-1.16s-.19-.76-.28-1.15l-.38-1.12c-.16-.36-.3-.73-.45-1.1l-.53-1.08c-.17-.36-.4-.7-.58-1l-.3-.53a5.26,5.26,0,0,0-.32-.46,9.13,9.13,0,0,0-.77-.88,8.65,8.65,0,0,0-.89-.78,9.08,9.08,0,0,0-1-.65,9.2,9.2,0,0,0-1.09-.51l-.57-.2-.59-.17.62,0c.21,0,.41.06.62.1a7.33,7.33,0,0,1,1.2.36,8.52,8.52,0,0,1,1.14.55,9.28,9.28,0,0,1,1,.73,7.33,7.33,0,0,1,.93.88,6,6,0,0,1,.42.52l.35.52c.23.35.48.69.67,1.06l.6,1.11c.17.38.35.77.52,1.15s.28.8.42,1.2.23.82.33,1.23a12.66,12.66,0,0,1,.2,1.27l.06.64v.64a6.2,6.2,0,0,1,0,.64,5.87,5.87,0,0,1-.05.64,9.47,9.47,0,0,1-.24,1.27,6.48,6.48,0,0,1-.46,1.26v0h0a4.07,4.07,0,0,1-.35.45,3.57,3.57,0,0,1-.41.4,3.4,3.4,0,0,1-1,.57,3.52,3.52,0,0,1-.56.14,3.65,3.65,0,0,1-.56,0,4.05,4.05,0,0,1-.55,0c-.18,0-.36-.05-.53-.09a7.47,7.47,0,0,1-1.94-.78A9.83,9.83,0,0,1,160.79,225.15Z"/><path class="cls-10" d="M152.29,243.88s.87-1.93,4.18-.76a40.36,40.36,0,0,1,7.52,4.05s4.43,3,7.28,3.16c0,0,3,.33,4.13-.79,0,0,.48-.45.67.32,0,0,.63,1-1.64,3,0,0-7.72,8.13-12.73,10.05,0,0-6.39,3.12-8.43.44a5.72,5.72,0,0,1,1.22-5.7,13.64,13.64,0,0,0,1.36-1.7s.92-1.55,1.27-2.35c0,0,.52-1-1.57-2.67A9.66,9.66,0,0,1,152.29,243.88Z"/><path class="cls-11" d="M197.39,493s44.47-18.54,73.61-68.45c0,0,24.88-42.38,63-54,0,0,25.7-9.19,44.25,13.15,0,0,16.62,26.82,24.3,49,0,0,20.05,55.38,18.35,106.62H183.14s7.25-35.39,11.52-42.41A4.73,4.73,0,0,1,197.39,493Z"/><path class="cls-2" d="M176,308.86c-9.57,0-14-6.05-14.43-6.73-4.84-5.68-4-20.35-3.91-21a24.34,24.34,0,0,0-1.3-10.42c-1.94-1.8-3.55-6-3.71-6.38-2-4.43,1.76-8.09,1.92-8.25a6.48,6.48,0,0,0,1.63-2.71c0-.43-.55-1.18-1-1.57-5.56-4.75-3.47-10-3.38-10.27l.05-.13.09-.11c.7-.84,2.1-4.67,2.82-6.89,2-6.19-1.69-7.49-1.84-7.54l-.13-.06c-2.92-1.53-8.22-3.81-8.27-3.83l-.08,0c-3.35-1.82-5.28-4.22-5.74-7.11-.87-5.5,4-10.7,4.18-10.92,4.17-4.72,16.58-21.89,16.71-22.06,7.33-10.32,5.14-20.29,5.14-20.29-2.3-9.52-2-25.15-2-25.81A79.32,79.32,0,0,1,175.16,98a64.65,64.65,0,0,1,11.17-13.47C213.78,57.9,246,52.32,268.24,52.32a121.69,121.69,0,0,1,31.31,3.82c19.49,5,34.91,14.23,45.79,27.27,8.71,10.44,14.55,23.35,17.34,38.37,4.75,25.51-1,48.63-1.08,48.86l-.22.86-.87-.21a84,84,0,0,0-19.92-2.6c-18,0-32.19,7.14-42.14,21.24a62.06,62.06,0,0,0-9.59,21.27l0,.18-.11.15c-4.47,6.5-8.59,33.57-8.74,34.52-1.29,13.52-9.53,23-16.23,28.6a60.49,60.49,0,0,1-14.29,8.94c-29.34,15.51-68.51,24.75-68.91,24.84A25,25,0,0,1,176,308.86Zm-22.59-66.54c-.23.68-1.29,4.53,2.92,8.12.19.16,1.91,1.66,1.62,3.3v.07a8.22,8.22,0,0,1-2.15,3.6c-.11.1-3,2.95-1.5,6.22l0,.06c.45,1.21,1.94,4.6,3.37,5.82l.14.12.08.17c.08.17,2,4.17,1.55,11.47,0,.15-.88,14.63,3.52,19.73l.07.1c.16.24,4,6,13,6a23.14,23.14,0,0,0,4.15-.39c.35-.08,39.33-9.28,68.47-24.69l.08,0c.27-.11,27.12-11.34,29.45-36.09v0c.17-1.15,4.22-28,8.93-35.14A63.29,63.29,0,0,1,297,188.88c7.08-10,20.4-22,43.61-22a85,85,0,0,1,19.46,2.44c1-4.4,5-24.91.84-47.28-6.27-33.58-27.07-55.17-61.84-64.18a119.85,119.85,0,0,0-30.83-3.75c-21.89,0-53.66,5.5-80.68,31.68l0,0c-.21.18-21.33,18.4-23,51,0,.13-.25,16,2,25.23.1.44,2.42,10.84-5.4,21.86-.52.71-12.6,17.41-16.84,22.23-.06.07-4.47,4.81-3.73,9.43.37,2.3,2,4.25,4.78,5.79.53.23,5.43,2.34,8.32,3.85.73.3,5.26,2.48,2.89,9.77C156.31,235.58,154.61,240.76,153.46,242.32Z"/><path class="cls-8" d="M180.76,91.74s35.77.92,59.38,58.5c0,0,9.21,23.45,11.47,33.9,0,0,3,14,13,12.27,0,0,7.95-.75,9.92-14.33,0,0,4.16-5.51,22.72,7.29,0,0,5.42,2.23,3.15,12.69,0,0-12.34,50.68,12.34,84.84,0,0,27.5,39.11,77.84,18.77,0,0,40.68-18.49,25.32-66.84a51.67,51.67,0,0,0-25-29s28.3-83-22-139.34c0,0-58.17-67.84-164.13-20.48,0,0-34.49,15.36-44.51,38.61,0,0-3.31,8.75,4.37,13.55,0,0,6.52,5,10.37-2.12C174.95,100,179.47,93.28,180.76,91.74Z"/><path class="cls-12" d="M251.07,262.29s8.54-18.35,11.64-50.1c0,0,2-19.49,2.72-24.09,0,0,2.34-22.12,26.08-19.84,0,0,5.63,1.71,5,5.29,0,0-.2,2-6,1.17,0,0-16.35-1.46-19.13,13.66,0,0-2.37,28.92-3.63,35.39,0,0-4.1,31.73-9.82,41A9,9,0,0,1,251.07,262.29Z"/><path class="cls-13" d="M257.37,265.69a9.7,9.7,0,0,1-7-2.78l-.42-.44.26-.55c.08-.18,8.51-18.61,11.56-49.81.08-.8,2-19.53,2.72-24.13.11-.89,2.81-20.78,23.63-20.78,1.11,0,2.26.06,3.43.17l.18,0c.26.08,6.36,2,5.61,6.29-.07.45-.57,2.12-4.38,2.12a19.15,19.15,0,0,1-2.59-.2s-.39,0-1,0c-3.44,0-14.84.93-17.07,12.92-.14,1.71-2.39,29-3.63,35.42-.22,1.66-4.23,32.06-9.94,41.32l-.23.38-.44,0S257.77,265.69,257.37,265.69Zm-5.22-3.61a8.09,8.09,0,0,0,5.28,1.81c5.43-9.49,9.41-39.92,9.45-40.23v-.06c1.23-6.35,3.59-35,3.61-35.29v-.09c2.46-13.39,15-14.43,18.85-14.43.76,0,1.22,0,1.22,0A18,18,0,0,0,293,174c2.1,0,2.56-.56,2.61-.65.43-2.54-3.66-4-4.29-4.22-1.08-.1-2.14-.15-3.16-.15-8.22,0-14.39,3.22-18.34,9.58a25.6,25.6,0,0,0-3.5,9.57v.09c-.71,4.52-2.69,23.85-2.71,24C260.83,240.7,253.61,258.67,252.15,262.08Z"/><path class="cls-12" d="M279.19,272.34s15.29-28.86,20.82-60c0,0,3.32-17.64,2.81-25.85,0,0-.41-7.54.48-9.35,0,0,1.71-3.35,4.05,0a58.8,58.8,0,0,1,.85,13.33,159.5,159.5,0,0,1-5.28,38.17s-10.25,36.18-19.13,49.19C283.8,277.79,278.17,276.18,279.19,272.34Z"/><path class="cls-13" d="M284.17,278.83l-.62-.18c-2.24-.64-6.21-2.83-5.23-6.54l0-.1,0-.09c.15-.29,15.29-29.1,20.73-59.73,0-.18,3.3-17.63,2.8-25.64-.07-1.31-.38-7.88.57-9.81.11-.22,1.07-2,2.78-2a3.6,3.6,0,0,1,2.81,1.84l.11.16,0,.19a59.12,59.12,0,0,1,.87,13.54,162.16,162.16,0,0,1-5.31,38.36c-.42,1.49-10.4,36.48-19.25,49.46ZM280,272.66c-.51,2.23,2.16,3.56,3.4,4.05,8.61-13.21,18.52-48,18.62-48.36a159.87,159.87,0,0,0,5.25-37.92v-.09a57.26,57.26,0,0,0-.81-12.89c-.45-.6-.89-.92-1.23-.92s-1,.68-1.18,1c-.56,1.15-.53,6.07-.38,8.89.51,8.22-2.69,25.34-2.82,26.07C295.56,242.5,281,270.75,280,272.66Z"/><path class="cls-1" d="M272.75,191.71A88.2,88.2,0,0,1,275,178.66s4.52-18.9,22.37-23.48c0,0,11-3.78,17.81,8a32.71,32.71,0,0,1,0,31.57s-6,9.86-9.94,18.15a26.43,26.43,0,0,1-11.27,12.82s-11,6.57-20.48-.22c0,0-3.76-2.38-1.93-9.59"/><path class="cls-2" d="M272.66,191.7c0-1,.12-2,.21-2.95s.22-2,.34-2.94l.19-1.47.09-.74c0-.24.09-.49.13-.73l.56-2.91.28-1.46c.11-.51.25-1,.4-1.46q.44-1.44,1-2.83c.37-.93.77-1.85,1.22-2.74s.92-1.78,1.43-2.64,1.06-1.7,1.63-2.53c.29-.41.6-.81.9-1.21s.63-.79,1-1.17c.66-.76,1.34-1.5,2.07-2.2.36-.35.73-.7,1.11-1s.76-.66,1.17-1l.6-.47.62-.44.62-.44.64-.4.64-.4.67-.36c.44-.24.89-.48,1.35-.69s.91-.44,1.38-.62.93-.39,1.41-.54,1-.33,1.44-.46l1.46-.38h0a13.38,13.38,0,0,1,2.43-.44,16.34,16.34,0,0,1,2.42,0,15.27,15.27,0,0,1,4.7,1,15.58,15.58,0,0,1,4.11,2.43,19,19,0,0,1,3.24,3.46l.67,1,.62,1a22,22,0,0,1,1.1,2.09,36.55,36.55,0,0,1,1.68,4.4,38,38,0,0,1,1.1,4.59,33.82,33.82,0,0,1,.48,4.71,32.61,32.61,0,0,1-.21,4.74,30.2,30.2,0,0,1-.9,4.68c-.1.39-.21.77-.34,1.14s-.24.76-.37,1.13c-.28.74-.55,1.5-.88,2.22s-.67,1.45-1,2.16l-.13.27,0,0,0,.06,0,.06-.07.13-.29.51-.59,1-2.3,4L310.27,205l-1.11,2-1,2.08c-.69,1.39-1.38,2.77-2.08,4.15l0-.08a23.15,23.15,0,0,1-1.4,2.91,28,28,0,0,1-1.72,2.69,29.19,29.19,0,0,1-2,2.47c-.36.39-.74.76-1.11,1.15s-.79.72-1.18,1.08-.83.67-1.25,1-.88.61-1.32.91-.92.54-1.38.82l-.35.2-.34.19-.72.36a24.68,24.68,0,0,1-6.06,1.93,19.73,19.73,0,0,1-6.36.15,16.39,16.39,0,0,1-6-2.09c-.45-.28-.9-.55-1.33-.87a7,7,0,0,1-.65-.49,5.43,5.43,0,0,1-.58-.61,7.16,7.16,0,0,1-1.34-2.93,10.12,10.12,0,0,1-.17-3.15,15.78,15.78,0,0,1,.6-3.05l.17,0a17.28,17.28,0,0,0-.34,3,9.6,9.6,0,0,0,.36,3A6.62,6.62,0,0,0,273,224.5a4.6,4.6,0,0,0,.5.49,6.66,6.66,0,0,0,.6.4c.42.28.85.52,1.29.76a16.6,16.6,0,0,0,2.76,1.11,16.3,16.3,0,0,0,2.91.55,19,19,0,0,0,5.91-.37,24.26,24.26,0,0,0,5.61-2l.65-.34.33-.19.32-.19c.42-.26.85-.5,1.25-.79s.81-.56,1.2-.87.77-.62,1.14-.94.73-.67,1.08-1,.69-.71,1-1.08a27.43,27.43,0,0,0,1.84-2.34,27.93,27.93,0,0,0,1.6-2.51,21.49,21.49,0,0,0,1.28-2.63l0-.06v0q1.06-2.1,2.15-4.19l1.08-2.09,1.15-2,2.31-4.09,2.39-4,.61-1,.31-.5.08-.12,0-.06v0h0l0,0,.13-.25c.36-.67.73-1.34,1-2s.61-1.39.91-2.1c.14-.36.26-.72.39-1.08s.25-.72.36-1.09a31.36,31.36,0,0,0,1.46-9,32.21,32.21,0,0,0-1.22-9.13,30.7,30.7,0,0,0-1.59-4.35,21.77,21.77,0,0,0-2.34-4,16.34,16.34,0,0,0-3.2-3.28,13.77,13.77,0,0,0-1.91-1.25,15.08,15.08,0,0,0-2.08-.9,14.3,14.3,0,0,0-4.44-.73,15.38,15.38,0,0,0-2.25.15,12.35,12.35,0,0,0-2.15.49l-.05,0-1.38.43c-.46.15-.9.33-1.35.5-.89.36-1.77.73-2.62,1.18-.43.21-.85.44-1.26.68s-.82.48-1.23.74l-.6.38-.58.42-.58.42-.56.44-.56.45-.54.47c-.37.3-.72.63-1.07,1-.7.65-1.36,1.35-2,2.07-.32.36-.62.74-.93,1.1s-.59.76-.88,1.15c-.57.78-1.12,1.56-1.63,2.39A40.65,40.65,0,0,0,277,174.7c-.39.88-.75,1.78-1.07,2.7-.16.45-.31.92-.44,1.37l-.35,1.43-.71,2.85-.18.71-.15.72-.29,1.44c-.19,1-.41,1.92-.55,2.89s-.34,1.93-.47,2.91Z"/><path class="cls-14" d="M295.15,193.11a34.79,34.79,0,0,1-5.76-8.84c-.17-.41-.35-.82-.5-1.24s-.3-.84-.44-1.26-.26-.85-.36-1.29-.2-.88-.28-1.32-.14-.89-.17-1.34-.06-.9-.07-1.36,0-.91.06-1.36.11-.91.18-1.36v.05a15.3,15.3,0,0,1,.88-3.38,15.64,15.64,0,0,1,1.58-3.1,12.71,12.71,0,0,1,5.26-4.57,13.92,13.92,0,0,1,3.35-1.05l.87-.13a6.36,6.36,0,0,1,.93,0,13.3,13.3,0,0,1,5.13,1.15,11.29,11.29,0,0,1,3,1.94,13.06,13.06,0,0,1,3.61,5.92l.23.83.19.84c.07.28.1.56.15.85l.07.42,0,.13v.32c.08,1.13.12,2.25.13,3.37s0,2.25,0,3.37-.14,2.24-.26,3.36-.28,2.23-.52,3.33a22,22,0,0,1-.91,3.23,26.74,26.74,0,0,0,.64-3.28c.16-1.1.24-2.21.3-3.32,0-.55,0-1.11.05-1.67v-1.67c0-1.11,0-2.22-.11-3.33s-.15-2.22-.26-3.31a17.06,17.06,0,0,0-.75-3.14,14.3,14.3,0,0,0-1.36-2.91,10.45,10.45,0,0,0-4.69-4.1,11.77,11.77,0,0,0-3-.87,11.9,11.9,0,0,0-1.58-.13,5.14,5.14,0,0,0-.74,0l-.79.12a13,13,0,0,0-3,.94A11.62,11.62,0,0,0,291.3,168a14.41,14.41,0,0,0-1.51,2.83,14.65,14.65,0,0,0-.88,3.07v0h0c-.08.41-.17.82-.21,1.24s-.07.84-.1,1.26,0,.85,0,1.27.07.85.12,1.27.13.85.22,1.27.19.84.29,1.26.23.83.37,1.24.28.82.43,1.22a35,35,0,0,0,2.22,4.72q.65,1.14,1.37,2.24C294.12,191.69,294.61,192.41,295.15,193.11Z"/><path class="cls-14" d="M292.72,194.18c-.93-1-1.91-1.87-2.92-2.73a18.89,18.89,0,0,0-1.58-1.2l-.42-.26c-.14-.09-.29-.15-.43-.22a3.29,3.29,0,0,0-.44-.18,2.76,2.76,0,0,0-.43-.09h0a2.55,2.55,0,0,0-.75-.05,2.31,2.31,0,0,0-.73.17,2.06,2.06,0,0,0-.62.41,2.6,2.6,0,0,0-.46.59c-.06.11-.11.23-.17.34a2.37,2.37,0,0,0-.11.35c-.06.26-.12.52-.16.79s-.08.53-.1.8,0,.54,0,.8,0,.53,0,.8.07.53.11.79a7.65,7.65,0,0,0,.19.77,6,6,0,0,0,.27.74,7.62,7.62,0,0,0,.34.71c.12.22.28.47.42.69s.3.45.45.68.31.41.47.62l0,0a2.8,2.8,0,0,1,.47.69,3.21,3.21,0,0,1,.27.75,3.55,3.55,0,0,1,0,1.57,5.2,5.2,0,0,1-.6,1.39l-.77,1.14-3,4.52-.38.56,0,.07,0,0h0l0,0h0v0l-.06.12-.12.27a3.83,3.83,0,0,0-.26,1.14,2.74,2.74,0,0,0,.14,1.09,2.81,2.81,0,0,0,.59.92l.21.19.24.21a2.64,2.64,0,0,0,.45.26,2.22,2.22,0,0,0,1,.21,2,2,0,0,0,1-.32,3.71,3.71,0,0,0,.85-.76l0,.05,3.12-4.72,0,.06a2.28,2.28,0,0,1,.28-.39,2.8,2.8,0,0,1,.31-.3,2.63,2.63,0,0,1,.75-.43,3,3,0,0,1,1.64-.11,5.12,5.12,0,0,1,1.39.52,3,3,0,0,0,.49.21,4.33,4.33,0,0,0,.54.14,5.31,5.31,0,0,0,2.28-.06,6.84,6.84,0,0,0,2.16-.93,10.37,10.37,0,0,0,1.88-1.53,3.89,3.89,0,0,0,.42-.45l.41-.47a10.85,10.85,0,0,0,.76-1l.37-.51.09-.13.1-.14.16-.25c.22-.35.42-.71.61-1.08a17.49,17.49,0,0,0,1-2.3,18.58,18.58,0,0,0,.67-2.41c.09-.41.14-.82.21-1.23s.08-.83.12-1.25,0-.83,0-1.25,0-.83-.06-1.25a10.9,10.9,0,0,0-.16-1.24l-.09-.62-.15-.61c-.11-.41-.19-.81-.31-1.22s-.26-.79-.42-1.18a16.81,16.81,0,0,0-1.11-2.25,14.69,14.69,0,0,0-1.46-2,12.44,12.44,0,0,0-1.84-1.69h0c-.5-.31-1-.65-1.43-1s-.91-.7-1.36-1.07a24,24,0,0,1-2.5-2.38,13,13,0,0,1-2-2.82,8.19,8.19,0,0,1-.33-.8,4,4,0,0,1-.13-.41,3.13,3.13,0,0,1-.1-.42,4.75,4.75,0,0,1-.1-.85c0-.14,0-.29,0-.43l.05-.42,0,.43c0,.14,0,.28,0,.43a4.7,4.7,0,0,0,.15.83,3,3,0,0,0,.12.4,3.74,3.74,0,0,0,.15.39c.11.26.24.51.37.76a12.69,12.69,0,0,0,2.07,2.66A23.53,23.53,0,0,0,297.1,179q.68.51,1.38,1c.47.31.95.62,1.42.9h0a13.13,13.13,0,0,1,2,1.74,15.47,15.47,0,0,1,1.62,2.11,16.33,16.33,0,0,1,1.25,2.34c.18.41.34.82.48,1.24s.24.85.36,1.27l.17.64.12.65a11.81,11.81,0,0,1,.2,1.32c0,.44.1.88.1,1.33s0,.89,0,1.33-.05.89-.1,1.33-.12.88-.2,1.32a19.85,19.85,0,0,1-.67,2.58,18.77,18.77,0,0,1-1,2.47c-.2.4-.41.79-.64,1.18l-.19.3-.09.13-.1.14-.39.54a10.9,10.9,0,0,1-.81,1.06l-.44.51a4.56,4.56,0,0,1-.46.49,11.69,11.69,0,0,1-2.11,1.73,8.15,8.15,0,0,1-2.56,1.11,6.63,6.63,0,0,1-2.84.08,5.69,5.69,0,0,1-.71-.18,4.56,4.56,0,0,1-.7-.3,4.05,4.05,0,0,0-1-.39,1.63,1.63,0,0,0-.91,0,1.29,1.29,0,0,0-.37.21l-.15.15-.06.08,0,.05,0,.06-3.15,4.7,0,0,0,0a5,5,0,0,1-1.17,1,3.31,3.31,0,0,1-1.59.51,3.46,3.46,0,0,1-1.62-.34,3.73,3.73,0,0,1-.71-.44l-.27-.24a2.63,2.63,0,0,1-.28-.27,4.05,4.05,0,0,1-.84-1.37,4,4,0,0,1-.19-1.59,5,5,0,0,1,.36-1.5c.05-.12.1-.23.16-.35l.1-.19,0-.07,0,0,0-.07.39-.56,3.12-4.45.39-.56.39-.54a4.2,4.2,0,0,0,.5-1.08,2.57,2.57,0,0,0,.05-1.12,2.24,2.24,0,0,0-.17-.53,2,2,0,0,0-.28-.44l0,0c-.17-.24-.36-.48-.52-.73s-.3-.48-.44-.73-.28-.48-.42-.75a8.54,8.54,0,0,1-.35-.81,6.85,6.85,0,0,1-.27-.84,8.51,8.51,0,0,1-.18-.85c0-.29-.08-.58-.09-.87s0-.58,0-.87,0-.58.06-.86a8.59,8.59,0,0,1,.14-.85c.06-.28.13-.56.21-.84a2.87,2.87,0,0,1,.16-.44c.07-.13.14-.27.22-.39a3.13,3.13,0,0,1,.6-.69,2.57,2.57,0,0,1,.79-.47,2.79,2.79,0,0,1,.89-.17,2.94,2.94,0,0,1,.9.11h0a3,3,0,0,1,.54.13,3.74,3.74,0,0,1,.48.22c.15.09.31.16.44.26l.42.29a19.13,19.13,0,0,1,1.55,1.29c.49.45,1,.93,1.42,1.42S292.29,193.67,292.72,194.18Z"/><path class="cls-12" d="M285.72,254.64a8.1,8.1,0,0,1,5.17,7.25c2.85,39.7-26.37,59.45-26.37,59.45-3.61,3.29-12.85,11.14-12.85,11.14-1.84,2.32-11.58,9.62-11.58,9.62-15.69,12.28-22.41-8.53-22.41-8.53-6.82-16.11-24.78-14.8-24.78-14.8-11.09.22-16.45-3.49-16.45-3.49-6.2-3.25-2.39-6.69-2.39-6.69,47.75-5.36,66.72-42.13,66.72-42.13,8.82-14.41,10.82-16.43,10.82-16.43s1.94-3.54,9.91-2C261.49,248.09,278.4,251.56,285.72,254.64Z"/><path class="cls-15" d="M179.32,312.47s45.34-3.19,68.87-45.13c0,0,5.51-9.64,6-10.61,0,0,1.93-4.2,10.46-1.41,0,0,18.49,5.21,19.5,5.76,0,0,2.54,1.07,1.9,6.92,0,0-.25,32.09-23.26,48.69,0,0-11.5,9.58-18.67,16.81,0,0-12,10.59-20.29,9.8,0,0-2.83-1.63-6.17-9.73,0,0-4.91-14.31-23.71-14.82,0,0-10.7.75-17.31-3.33,0,0-2.95-1.38-3.44-3A18.92,18.92,0,0,0,179.32,312.47Z"/><path class="cls-13" d="M230.73,346.88c-9.42,0-13.59-12.06-13.9-13-5.61-13.21-19-14.24-23-14.24-.58,0-.92,0-.92,0h-.05c-10.82.21-16.32-3.21-16.93-3.61-2.41-1.28-3.74-2.78-4-4.47a4.54,4.54,0,0,1,1.36-3.6l.28-.26.29,0a88.83,88.83,0,0,0,50.76-22.85c10.47-9.64,15.22-18.72,15.26-18.81l0-.06c8-13,10.42-16,10.86-16.5s2.09-2.71,6.83-2.71a20.55,20.55,0,0,1,4,.43c.7.14,17.08,3.53,24.4,6.6a8.94,8.94,0,0,1,5.72,8.05A69,69,0,0,1,279.51,307a63.15,63.15,0,0,1-14.43,15c-3.46,3.15-11.94,10.37-12.77,11.07-2,2.46-11.29,9.41-11.69,9.71C237.19,345.51,233.86,346.88,230.73,346.88Zm-36.86-29c4.25,0,18.59,1.11,24.63,15.37l0,.07s3.92,11.79,12.2,11.79c2.71,0,5.68-1.24,8.8-3.69,2.7-2,10-7.64,11.43-9.47l.12-.13s9.27-7.88,12.83-11.12l.1-.08a62.63,62.63,0,0,0,14.07-14.67A67.25,67.25,0,0,0,290,262v-.08a7.16,7.16,0,0,0-4.62-6.41c-7.16-3-23.89-6.46-24.06-6.5a18.75,18.75,0,0,0-3.62-.39c-4.14,0-5.28,1.83-5.28,1.83l-.1.17-.08.09c-.08.08-2.15,2.32-10.67,16.24-.36.69-5.12,9.6-15.63,19.27a90.59,90.59,0,0,1-51.45,23.27,2.6,2.6,0,0,0-.67,1.93c.14,1.06,1.2,2.14,3.05,3.11l.09.06s5.28,3.53,15.9,3.33C193,317.87,193.31,317.85,193.87,317.85Z"/><path class="cls-16" d="M157.13,253.28a7,7,0,0,0,.76.13c.24,0,.54.06.87.08s.72,0,1.13,0h1.33c.47,0,1-.06,1.48-.08l.78-.06.8-.08c.54,0,1.09-.13,1.63-.19l.82-.11.39-.05.4-.07,1.56-.31c1-.21,2-.43,2.76-.64a16.63,16.63,0,0,0,1.91-.62l.52-.24.18-.1-.13.16a4.33,4.33,0,0,1-.42.41,8.78,8.78,0,0,1-1.77,1.12,18.62,18.62,0,0,1-2.73,1.08c-.51.16-1,.31-1.59.44l-.42.09-.44.07-.85.13c-.57.06-1.14.14-1.7.16s-1.12,0-1.66,0-1.06,0-1.55-.1a11.36,11.36,0,0,1-1.38-.22,9.35,9.35,0,0,1-2-.63,4.4,4.4,0,0,1-.52-.27Z"/></svg>