<svg id="App_360" data-name="App 360" xmlns="http://www.w3.org/2000/svg" viewBox="0 0 512 520"><defs><style>.cls-1{fill:#b8b5b7;}.cls-2{fill:#43474e;}.cls-3{fill:#383637;}.cls-4{fill:#fff;}.cls-5{fill:#3f3f3f;}.cls-6{fill:#0c1517;}.cls-7{fill:#171818;}.cls-8{fill:#332f2a;}.cls-9{fill:#6d6f6e;}.cls-10{fill:#f6f8f9;}.cls-11{fill:#9deefc;}.cls-12{fill:#4f4e4d;}</style></defs><title>uso_04</title><path class="cls-1" d="M338.34,316.3s-9.44-33.82,9.85-70.19c0,0,30.45-67.23,8.54-97.81,0,0-69.12-12.14-121.76,40.43,0,0-63.12,71.44-62.29,96.51,0,0-2.89,13.78,13.16,10.81,0,0,19.84-4.75,21.28,8.06,0,0,5.17,31,8.68,38.64,0,0,5.58,11.57-1.45,21.29a34.47,34.47,0,0,0-2.89,4.2s-13.16,17.84-16.88,29.14c0,0,26.31,31.69,69.3-1.93,0,0,62.55-42.43,68.19-50.56,0,0,8.75-9.26,10.71-15.46a50.42,50.42,0,0,1-3.13-8S338.66,317.62,338.34,316.3Z"/><path class="cls-2" d="M225.6,411.79h0a43,43,0,0,1-31.69-13.85l-.31-.38.15-.46c3.63-11,15.86-27.82,16.94-29.3a34.3,34.3,0,0,1,3-4.3c6.6-9.13,1.4-20.25,1.35-20.36-3.53-7.68-8.54-37.61-8.75-38.88v0c-.61-5.4-4.84-8.14-12.56-8.14a37.18,37.18,0,0,0-7.6.83l-.08,0c-5.82,1.07-10,.13-12.36-2.77-2.74-3.37-2-8.18-1.85-9-.66-25.22,59.93-94.1,62.51-97l0,0c36.51-36.45,81.07-41.9,104.39-41.9a117.1,117.1,0,0,1,18.15,1.23l.36.06.21.29c9.24,12.9,10.61,33.45,4.09,61.09A232.45,232.45,0,0,1,349,246.47l0,0a104.54,104.54,0,0,0-12.05,48.26,86.8,86.8,0,0,0,2.25,21.2c.35,1.4,1.33,5.16,1.33,5.16l0,.08a49.71,49.71,0,0,0,3,7.76l.18.37-.11.34c-1.95,6.16-10.11,15-10.87,15.76-5.89,8.27-65.47,48.75-68.36,50.71C251.13,406.53,238.08,411.79,225.6,411.79Zm-30-14.62a42.12,42.12,0,0,0,30,12.85h0c12.09,0,24.78-5.14,37.74-15.27l0,0c.62-.42,62.47-42.43,68-50.33l.08-.1c.08-.09,8.33-8.86,10.4-14.8a47.38,47.38,0,0,1-3-7.88c-.09-.34-1-3.82-1.31-5.09-.09-.32-2.38-8.69-2.33-21.67a106.31,106.31,0,0,1,12.25-49.12,230.75,230.75,0,0,0,12.43-37.28c4.37-18.52,7.27-43.78-3.6-59.33A120.16,120.16,0,0,0,338.73,148c-23,0-67.07,5.37-103.12,41.36-1.35,1.54-62.85,71.59-62.05,95.88v.11l0,.1s-.93,4.67,1.47,7.62c1.92,2.35,5.54,3.08,10.64,2.14a38.35,38.35,0,0,1,8-.88c8.64,0,13.59,3.35,14.32,9.68.16,1,5.22,31,8.61,38.4.23.48,5.72,12.15-1.53,22.17a31.65,31.65,0,0,0-2.79,4l0,.1-.07.09C212,368.94,199.42,386.11,195.58,397.17Z"/><path class="cls-1" d="M191.41,98.15s-20.39,21.22-25.07,40.5c0,0-3,10.75-2.76,18.32,0,0-.79,13.95-16,29.55,0,0-3.41,3.51-4.86,4.65,0,0-15.12,13-6.51,23.66,0,0,4.55,5.3,9,6.89,0,0,5.51,7.72,1.79,16.6,0,0-5.92,9.09,4.82,12.4,0,0-8.32,4.11-1.57,10.45,0,0,2.53,2.27,5.22,2,0,0,2.72,9.2.52,12.92,0,0-3.41,8.71,2.24,16,0,0,7.37,10.4,20.87,9,0,0,13.78-1.52,24.73-11.43,0,0,37-20.87,55-26.24,0,0,19.42.21,23.35-20.66,0,0,16.19-29.41,28.59-36.3,0,0,43.12-35.82,17.5-90C328.21,116.47,269.94,41.39,191.41,98.15Z"/><path class="cls-2" d="M176.53,302.1a24.39,24.39,0,0,1-19-9.47c-5.86-7.58-2.49-16.47-2.34-16.85l.06-.13c1.52-2.56.34-8.7-.42-11.57a9.32,9.32,0,0,1-5-2.17c-2.33-2.18-3.29-4.3-3-6.4a7.46,7.46,0,0,1,3.07-4.59,8.41,8.41,0,0,1-4.93-4.73c-1.36-3.77.92-7.69,1.3-8.29,3.09-7.49-.78-14.2-1.58-15.47-4.48-1.75-8.86-6.82-9-7-9.06-11.23,6.45-24.77,6.6-24.91,1.41-1.11,4.76-4.56,4.76-4.56,14.41-14.81,15.7-28.2,15.76-29-.26-7.62,2.66-18.1,2.79-18.55,4.68-19.26,24.45-40,25.29-40.87l.12-.1C210.53,83.24,230.64,76,250.67,76c24.44,0,44.41,10.84,56.86,19.94a117.24,117.24,0,0,1,21.3,19.84l.18.26c5.91,12.48,8.65,25,8.16,37.31a72.58,72.58,0,0,1-7.3,28.73,81.37,81.37,0,0,1-18.59,25l-.14.09C299.51,213.67,284.12,241,283,243c-3.93,20.41-22.29,21.21-24.06,21.24-17.31,5.22-52.59,25-54.58,26.08A49.22,49.22,0,0,1,179.18,302,25,25,0,0,1,176.53,302.1Zm-19.75-25.61c-.27.74-2.9,8.59,2.13,15.1.08.12,6.37,8.75,17.62,8.75a23.21,23.21,0,0,0,2.46-.13c.13,0,13.63-1.61,24.23-11.21l.16-.11c.37-.21,37.28-21,55.15-26.32l.13,0h.13c.78,0,18.76-.23,22.47-19.94l0-.14.07-.12c.66-1.21,16.39-29.6,28.85-36.6a79.88,79.88,0,0,0,18.1-24.4c6.8-14.14,12.17-36.79-.85-64.37a116.08,116.08,0,0,0-21-19.56c-12.23-8.93-31.83-19.57-55.77-19.57-19.63,0-39.38,7.07-58.68,21-1.16,1.22-20.34,21.69-24.8,40,0,.14-3,10.73-2.73,18.08V157c0,.58-1,14.46-16.23,30.12-.14.14-3.47,3.57-4.94,4.73-.11.1-14.34,12.53-6.37,22.41,0,0,4.43,5.13,8.57,6.61l.26.09.16.22c.24.33,5.75,8.22,1.89,17.46l-.07.14s-2.31,3.64-1.16,6.81c.7,1.92,2.55,3.36,5.5,4.26l2.12.65-2,1s-3.3,1.68-3.68,4.28c-.22,1.49.56,3.09,2.33,4.74,0,0,2.24,2,4.53,1.78l.72-.07.21.7C156.42,263.33,159.07,272.44,156.77,276.49Z"/><path class="cls-3" d="M239.08,114.17s8.06,2.93,3.17,38.26c0,0-1.52,14.88,10.61,22.73,0,0,15.22,8.47,11.92,25.62,0,0-3.1,17.77-13.64,24.8,0,0,12,3.1,20.46-1.24,0,0,5.37-24.18,13.23-33.48,0,0,10.33-14.47,30.79-6.41,0,0,14.95,6,4.48,40.43,0,0-10.68,29.41,7.09,38.92,0,0,7.92,5,14.4,1.45,0,0,16-26.31,26.17-36.23,0,0,38.3-37.33,28.66-110.21l1.14.54c8.68,4,8.27,15.58,8.27,15.58,7.39-18.6-11.07-29.9-11.07-29.9,10.06,1.24,15.15,9.92,15.15,9.92-5.51-27-25.76-21.9-25.76-21.9,4.56-8.56-.21-17.91-.21-17.91-12.12-25.76-52-28.1-52-28.1-33.48-2.07-52.21-9.37-52.21-9.37-47.5-15.15-54,1.24-54,1.24-8.54-4.06,3-8.47,3-8.47-27.17.62-19,14.67-19,14.67-15.57-5.79,2.41-14.05,2.41-14.05-20.87,3.31-20.37,15.34-20.37,15.34s-40.17,11.25-29.85,48.44c0,0,5.92,18.18,26.59,13.91,0,0,13.64-2.76,16,5.37,0,0,1.65,7.72-3.58,10.06,0,0,8.13.69,11.16-5.92,0,0,2.07-5.37-.55-10.33,0,0,6.06,3.17,6.06,10.2a13.84,13.84,0,0,1-8,9.92s10.64.72,16.53-5.58c0,0,4.8-5.58,1.24-11,0,0,6.54,4,4.41,10.88a10.53,10.53,0,0,1-6.27,5.58s11.26,1,13.88-5C239.39,122.95,241.35,119.3,239.08,114.17Z"/><path class="cls-3" d="M168.27,154.39s-3.1-3.75,2.38-6.61c0,0,22.52-11.24,42.57,7.46a14.52,14.52,0,0,1,2.65,3.66s1.95,3.91-2.5,1.17c0,0-12.45-7.85-23-8.4,0,0-8.2-.62-13.16,5.86a3.86,3.86,0,0,1-5.27.41S168.86,155.45,168.27,154.39Z"/><path class="cls-4" d="M185.89,166.5s5.13,1.39,7.84,3.73a28.24,28.24,0,0,0,6.63,2.79s0,.46-1,.9c0,0-1,.48-1.53.76,0,0-7.89,4.33-13.4,4.24,0,0-1.28,0-.9-1.92,0,0,2.6-5.88,1.25-9,0,0-1.49-1.47-.59-1.56A6,6,0,0,1,185.89,166.5Z"/><ellipse class="cls-5" cx="184.48" cy="172.17" rx="6.09" ry="3.13" transform="translate(0.68 345.06) rotate(-86.27)"/><path class="cls-6" d="M183.83,167s1.92.12,2.05,4.37a11.27,11.27,0,0,1-.76,4.5s-1.49,3-2.63,1.34a7.92,7.92,0,0,1-1.15-5.11,13,13,0,0,1,.6-3.08S182.61,166.93,183.83,167Z"/><path class="cls-4" d="M185.81,173.15a.52.52,0,0,1-.55.48h0a.52.52,0,0,1-.48-.55l0-.4a.52.52,0,0,1,.55-.48h0a.52.52,0,0,1,.48.55Z"/><path class="cls-4" d="M186,171.15a.67.67,0,0,1-.71.63h0a.67.67,0,0,1-.63-.71l0-.52a.67.67,0,0,1,.71-.63h0a.67.67,0,0,1,.63.71Z"/><path class="cls-7" d="M180.53,179.69a12.5,12.5,0,0,1,3.95-.28A28,28,0,0,0,196,175.95s3.45-1.91,4.3-2.32a2.45,2.45,0,0,0-1.52.16,50.28,50.28,0,0,1-6.92,3.17s-4.2,1.37-6.53,1.19c0,0-3-.15-4,.68A3.18,3.18,0,0,0,180.53,179.69Z"/><path class="cls-7" d="M180.84,165a38,38,0,0,1,12.59,3.92,33,33,0,0,0,6.35,3.46.89.89,0,0,1,.57.87s0,.34-.29.16c0,0-.7-.29-1.77-.63a35.2,35.2,0,0,1-6.71-2.23,31.6,31.6,0,0,0-9.47-2.43s-2.27-.21-3-1.73a7,7,0,0,1-.21-2.54A2.75,2.75,0,0,0,180.84,165Z"/><path class="cls-8" d="M146.79,217.35s1-1.55,6.57.08a75,75,0,0,1,7.27,2.42s1.83.89-2.6.6c0,0-8.08-.13-10.18-1.36C147.84,219.09,146.09,218.35,146.79,217.35Z"/><path class="cls-2" d="M153.24,205.44l.39-.09c.25-.05.63-.14,1.11-.19a17.07,17.07,0,0,1,1.74-.14,17.42,17.42,0,0,1,2.28.09,16.88,16.88,0,0,1,2.67.48c.46.13.94.27,1.42.44a14,14,0,0,1,1.44.61l.72.36.7.41.35.21.11.06.26.19c.23.17.44.35.65.53a17.29,17.29,0,0,1,2.37,2.43,10.83,10.83,0,0,1,1.69,3,6.26,6.26,0,0,1,.22,3.45,5.94,5.94,0,0,1-.6,1.55c-.14.23-.28.45-.43.67l-.24.3L170,220l0,0,0,0h0l0,0-.08.07a6.85,6.85,0,0,1-4.77,1.73,6.85,6.85,0,0,1-1.75-.32c-.23-.08-.44-.14-.61-.22l-.43-.21-.35-.17.38.11.45.13.62.11a7.63,7.63,0,0,0,1.68.07,6.87,6.87,0,0,0,2.06-.53,6.58,6.58,0,0,0,2-1.39l0-.05v0h0l0,0,0,0,.09-.14.19-.28c.12-.19.22-.39.32-.59a5.49,5.49,0,0,0,.43-1.29,4.79,4.79,0,0,0,0-1.38,7,7,0,0,0-.33-1.4,9.63,9.63,0,0,0-1.53-2.63,16,16,0,0,0-2.16-2.28l-.59-.49-.14-.11-.14-.1-.32-.21-.64-.41-.66-.36a18.78,18.78,0,0,0-2.63-1.15,21.57,21.57,0,0,0-2.5-.68c-.79-.17-1.53-.26-2.18-.34s-1.24-.1-1.71-.11C153.79,205.39,153.24,205.44,153.24,205.44Z"/><path class="cls-9" d="M339.92,316.3c3.18,4.94,4.41,15.36,4.41,15.36,1.65,5.65,13,20.8,13,20.8,8.47,9.92,33.89,45.26,33.89,45.26,17.36,22.52,27.35,50.77,27.35,50.77,15,36.85,16.67,84.17,16.67,84.17h-294c0-6.61,2.2-40.5,2.2-40.5.41-59,62.92-116.63,62.92-116.63a72.31,72.31,0,0,1,5.06-7.29s9,18.12,45.26,3.24c0,0,54.55-24.18,81.63-55.17C338.34,316.3,339.21,315.19,339.92,316.3Z"/><path class="cls-10" d="M304.14,228.27c5.08-8.68.41-10,.41-10-4.11-1.07-7.65,7.23-7.65,7.23-13.8,26.8-41.54,39-41.54,39-33.58-5.08-25.57-45.6-25.57-45.6,8.12-3.3,34.89-17.74,34.89-17.74,31.22-15,47.71-13.73,47.71-13.73,4.82,2.2,6.25,1.14,6.25,1.14,6.72-2.44-1.81-7.23-1.81-7.23-15.71-3.93-50.42,11.47-50.42,11.47-14.47,7.34-39.12,18.91-39.12,18.91-39.68,12.92-80.18,1.31-80.18,1.31-10.33-4.49-13.09-1.65-13.09-1.65-2,1.53,1.45,11,1.45,11,2.62,39.4,15.59,62,15.59,62,11,20,29.19,23.6,29.19,23.6,22.32,4.5,43.4-12.91,43.4-12.91,16.53-11.37,32.79-21.35,32.79-21.35s7.72-5.08,12.13-8.71c0,0,20.94-14.67,32-32Z"/><path class="cls-11" d="M135.64,222.35c2.82,35.34,11.44,51.84,11.44,51.84C153.28,289.85,161,296.9,161,296.9c11.47,8.23,24.73,7,24.73,7,17.36-.93,34.54-13.61,34.54-13.61,8-5.51,29.41-19.29,29.41-19.29-33.89-4.34-28.1-50.53-28.1-50.53-33.81,8.36-74.52-.64-74.52-.64-7-3.48-11.91-2.79-11.91-2.79s-1,.24-.52,1.84c0,0,.46,1.88.86,2.91Z"/><path class="cls-12" d="M187.84,309.55h0a39.35,39.35,0,0,1-7.76-.76c-.75-.15-18.71-3.87-29.79-24-.12-.21-13.06-23.14-15.68-62.22-1.11-3.06-3.31-10-1.16-11.8.29-.27,1.4-1.1,4-1.1s6,.87,10,2.59a158.29,158.29,0,0,0,38.9,4.74h0a131.51,131.51,0,0,0,40.65-6c1.25-.59,25.07-11.78,39-18.87l0,0c1.12-.5,27.68-12.19,44.8-12.19a25.82,25.82,0,0,1,6.19.67l.12,0,.1.06c.85.48,5.05,3,4.83,5.75-.11,1.31-1.14,2.34-3.07,3.06a3.41,3.41,0,0,1-1.65.34,13.38,13.38,0,0,1-5.19-1.41l-.83,0c-4.19,0-19.89,1-46.28,13.67-1,.56-26,14-34.49,17.57-.51,3.07-3,20.81,5.52,32.88,4.28,6.09,10.72,9.84,19.13,11.17,2.68-1.25,28-13.6,40.86-38.5.4-.94,3.51-7.84,7.7-7.84a3.82,3.82,0,0,1,1,.12A3.68,3.68,0,0,1,307,219.6c.86,2.15.14,5.22-2.14,9.11l-.05.08-3.48,4.72c-10.84,17.05-31.22,31.65-32,32.2-4.59,3.63-12.38,8.64-12.38,8.64-.26.16-16.5,10.15-32.81,21.37C223.14,296.57,207,309.55,187.84,309.55Zm-50.4-98.16a4.51,4.51,0,0,0-2.8.63l-.08.07c-.77.59.06,5.33,1.74,9.95l0,.12v.13c2.58,38.75,15.34,61.37,15.47,61.6,10.67,19.44,28.42,23.14,28.59,23.18a37.58,37.58,0,0,0,7.42.73c18.75,0,35.08-13.32,35.25-13.45l.06,0C239.51,283,255.81,273,256,272.91c0,0,7.79-5,12.32-8.6l0,0c.21-.15,20.76-14.74,31.56-31.74l0-.05,3.47-4.71c2.46-4.21,2.45-6.42,2-7.52a2,2,0,0,0-1.09-1.16,2,2,0,0,0-.5-.06c-2.62,0-5.29,4.9-6.09,6.79l0,.06c-13.78,26.77-41.68,39.32-42,39.44l-.24.1-.25,0c-9-1.37-16-5.39-20.58-12-9.71-13.81-5.89-33.85-5.73-34.69l.09-.47.44-.18c8-3.24,34.54-17.55,34.81-17.7,26.76-12.86,42.8-13.86,47.08-13.86.72,0,1.1,0,1.1,0h.17l.14.06c3.72,1.7,5.15,1.3,5.38,1.21l.12-.12.09,0c.72-.26,1.93-.81,2-1.57.1-1.18-2.19-3.06-3.83-4a24.31,24.31,0,0,0-5.65-.59c-16.56,0-43.18,11.64-44.06,12-14.32,7.26-38.88,18.79-39.13,18.91l-.1,0a133.24,133.24,0,0,1-41.25,6.15h0a159.49,159.49,0,0,1-39.44-4.83l-.11,0C143,212.22,139.87,211.39,137.45,211.39Z"/><path class="cls-1" d="M279.2,206.74a80.18,80.18,0,0,1,2.43-12.91s4.91-18.7,24.27-23.23a17.25,17.25,0,0,1,19.33,7.95,29.93,29.93,0,0,1-.05,31.23s-6.52,9.75-10.79,18a26.79,26.79,0,0,1-12.23,12.68s-12,6.5-22.22-.22c0,0-4.08-2.36-2.1-9.48"/><path class="cls-2" d="M279.11,206.73c.05-1,.15-2,.25-3s.26-2,.4-3,.27-2,.5-3l.64-3,.16-.74.08-.37.1-.38c.14-.5.3-1,.47-1.47.34-1,.73-1.91,1.15-2.85s.89-1.85,1.39-2.74,1-1.76,1.61-2.62,1.18-1.68,1.83-2.48c.32-.4.65-.79,1-1.17s.69-.76,1.05-1.13c.71-.74,1.47-1.44,2.25-2.11a29.65,29.65,0,0,1,2.45-1.89c.85-.58,1.73-1.13,2.63-1.63.44-.27.91-.48,1.37-.71s.94-.43,1.41-.64l.71-.3.72-.27c.48-.18,1-.36,1.46-.5s1-.31,1.48-.42l1.5-.36h0a15.18,15.18,0,0,1,2.46-.42,18.7,18.7,0,0,1,2.45-.07,18,18,0,0,1,4.81.83,17.16,17.16,0,0,1,4.37,2.12,18.44,18.44,0,0,1,3.61,3.21,21.49,21.49,0,0,1,1.48,1.91l.67,1c.22.34.42.69.61,1a32.6,32.6,0,0,1,3.89,13.8,30.49,30.49,0,0,1-.17,4.84,28.53,28.53,0,0,1-1,4.76c-.21.78-.5,1.54-.77,2.31-.15.38-.31.75-.47,1.13s-.32.75-.5,1.11-.35.73-.53,1.1l-.58,1.07-.15.27-.07.13,0,0,0,.06,0,.06-.32.5-.64,1-2.52,4-2.44,4.08-1.21,2L317.5,224c-.76,1.38-1.51,2.77-2.28,4.15l0-.08a23,23,0,0,1-1.59,3,30.28,30.28,0,0,1-1.92,2.72c-.34.44-.72.85-1.08,1.27s-.76.81-1.16,1.2-.81.77-1.23,1.13-.85.72-1.29,1.05-.9.66-1.36,1l-1.41.89-1.48.78-.36.18-.38.18-.77.34a28.63,28.63,0,0,1-6.36,1.82,23.57,23.57,0,0,1-6.62.17,19,19,0,0,1-3.25-.68,18.15,18.15,0,0,1-3.08-1.22c-.25-.11-.49-.25-.73-.39s-.49-.26-.71-.42l-.69-.45-.16-.11-.19-.14c-.12-.09-.23-.19-.33-.29a6.6,6.6,0,0,1-1.7-2.91,9.25,9.25,0,0,1-.3-3.29,14.34,14.34,0,0,1,.65-3.19l.17,0a15.31,15.31,0,0,0-.4,3.16A8.74,8.74,0,0,0,278,237a6.07,6.07,0,0,0,1.66,2.5l.19.16.23.16.18.11.68.4c.22.14.46.24.7.36s.47.24.71.34a17.11,17.11,0,0,0,3,1,17.71,17.71,0,0,0,3.08.49,22.66,22.66,0,0,0,3.12,0,23.94,23.94,0,0,0,3.1-.41,28.2,28.2,0,0,0,6-1.88l.7-.33.34-.17.36-.19,1.36-.75,1.31-.84c.42-.3.83-.62,1.25-.92s.79-.67,1.19-1,.75-.71,1.13-1.07.71-.75,1.06-1.14.68-.79,1-1.2a28.55,28.55,0,0,0,1.8-2.54,21.48,21.48,0,0,0,1.44-2.69l0-.06v0c.77-1.4,1.57-2.79,2.36-4.18L317.1,221l1.26-2,2.52-4.07,2.61-4,.67-1,.33-.49,0-.06v0h0l0,0,.07-.13.15-.25.59-1c.19-.34.36-.69.54-1s.36-.69.51-1,.32-.71.48-1.06c.28-.72.58-1.44.81-2.19a27.3,27.3,0,0,0,1.12-4.53,28.11,28.11,0,0,0,.35-4.66,29.4,29.4,0,0,0-1.58-9.24,28.13,28.13,0,0,0-1.88-4.32c-.19-.35-.38-.69-.59-1s-.44-.65-.66-1A21,21,0,0,0,323,176a16.14,16.14,0,0,0-3.55-3,15.06,15.06,0,0,0-4.25-1.86,17,17,0,0,0-4.59-.57,17.69,17.69,0,0,0-2.3.17,14.13,14.13,0,0,0-2.21.47h0l-1.42.41c-.48.13-.94.31-1.4.47s-.92.34-1.38.52l-.69.27-.67.31c-.45.21-.9.4-1.33.64s-.88.44-1.3.69c-.86.48-1.69,1-2.49,1.56s-1.59,1.15-2.34,1.78-1.48,1.29-2.17,2c-.35.35-.69.7-1,1.07s-.66.73-1,1.11c-.64.75-1.24,1.53-1.82,2.33s-1.12,1.63-1.62,2.48-1,1.71-1.43,2.6-.85,1.79-1.22,2.71c-.18.46-.35.92-.51,1.39l-.11.34-.1.37-.19.72-.78,2.9c-.29,1-.47,1.95-.69,2.93s-.45,2-.6,3-.37,2-.51,3Z"/><path class="cls-1" d="M303.51,208.12s-9.47-10-7.38-19.05a13.8,13.8,0,0,1,12.54-11.52s11.58-1,13.66,11.3c0,0,1.16,10.3-1.17,16.76"/><path class="cls-2" d="M303.51,208.12a32.36,32.36,0,0,1-3.41-4.06,31.41,31.41,0,0,1-2.75-4.57c-.2-.4-.38-.81-.55-1.22s-.33-.83-.48-1.26-.29-.85-.4-1.29-.22-.88-.31-1.32-.16-.89-.2-1.35-.07-.91-.08-1.37a13.44,13.44,0,0,1,.07-1.37,13.77,13.77,0,0,1,.2-1.37V189a14.2,14.2,0,0,1,1-3.44,15.13,15.13,0,0,1,1.76-3.1,13.44,13.44,0,0,1,5.59-4.39,15.45,15.45,0,0,1,3.42-1c.29-.06.59-.08.88-.13l.46-.06h.47a15.1,15.1,0,0,1,1.79.1,15.44,15.44,0,0,1,3.48.81,12.51,12.51,0,0,1,3.17,1.68,12.13,12.13,0,0,1,2.55,2.53,13,13,0,0,1,1.71,3.13,17.07,17.07,0,0,1,.91,3.41l0,.22V189l0,.43.05.86c0,.58,0,1.15.06,1.73,0,1.15,0,2.3,0,3.45s-.14,2.3-.26,3.44-.3,2.28-.55,3.4a20.42,20.42,0,0,1-1,3.29,24.08,24.08,0,0,0,.73-3.34c.18-1.12.26-2.26.34-3.39a63.1,63.1,0,0,0-.08-6.81c0-.57-.09-1.13-.13-1.7l-.08-.85,0-.42,0-.18,0-.2a16,16,0,0,0-1-3.18,12.61,12.61,0,0,0-1.63-2.83,10.93,10.93,0,0,0-2.34-2.24A12.19,12.19,0,0,0,314,179a14.13,14.13,0,0,0-3.19-.72,13.71,13.71,0,0,0-1.63-.08h-.39l-.39.05c-.27,0-.55.07-.82.12a14.34,14.34,0,0,0-3.15.9,12.17,12.17,0,0,0-2.81,1.63,13,13,0,0,0-2.29,2.31,14.19,14.19,0,0,0-2.66,5.93v.05c-.08.41-.18.82-.23,1.24a12.45,12.45,0,0,0-.1,1.26c0,.42,0,.85,0,1.27s.09.85.14,1.27a21,21,0,0,0,1.47,5c.17.4.35.8.54,1.19s.38.79.59,1.17.42.77.63,1.15.45.75.68,1.13q.7,1.12,1.48,2.18C302.41,206.75,302.93,207.45,303.51,208.12Z"/><path class="cls-1" d="M300.87,209.18s-4.62-4.71-6.73-4.83a2.91,2.91,0,0,0-3.36,1.57,8.29,8.29,0,0,0,.55,6.83,16.64,16.64,0,0,0,1.43,2s1.83,1.67-.39,4.25l-4.29,5.7a3.35,3.35,0,0,0,.88,4.68,3.29,3.29,0,0,0,4.57-.66l3.4-4.66s1-1.83,3.89-.36c0,0,5.44,2.67,11-5a16.78,16.78,0,0,0,2.29-14.89,14.75,14.75,0,0,0-5.64-7.52s-9.53-5.18-8.71-10.19"/><path class="cls-2" d="M300.87,209.18c-1-1-2.08-1.87-3.18-2.72-.28-.21-.56-.42-.84-.61s-.58-.38-.87-.57l-.45-.25-.46-.22a4.43,4.43,0,0,0-.47-.17,3.66,3.66,0,0,0-.47-.09h0a3.06,3.06,0,0,0-.78-.06,2.67,2.67,0,0,0-.77.15,2.32,2.32,0,0,0-.67.36,2.38,2.38,0,0,0-.52.55,1.81,1.81,0,0,0-.2.33l-.09.17-.05.16a7.19,7.19,0,0,0-.19.79,9.16,9.16,0,0,0-.17,1.62c0,.27,0,.54,0,.81s.07.53.11.8a7.55,7.55,0,0,0,.21.78c0,.13.08.26.13.38l.16.37a7.19,7.19,0,0,0,.37.71c.13.22.3.46.45.69s.32.45.48.67.34.41.5.61l0,0a2.76,2.76,0,0,1,.51.68,3,3,0,0,1,.29.77,3.24,3.24,0,0,1-.06,1.62,4.82,4.82,0,0,1-.69,1.39l-.23.3-.11.15v0h0l0,0-.05.07-.41.56L289,224.48l-.41.56-.12.22s-.09.18-.12.28a3.28,3.28,0,0,0-.25,1.15,2.32,2.32,0,0,0,.23,1.07,2.64,2.64,0,0,0,.7.88l.24.19.06,0,0,0,0,0,.1.07a3.17,3.17,0,0,0,.52.24,2.62,2.62,0,0,0,1.1.16,2.38,2.38,0,0,0,1-.34,4,4,0,0,0,.91-.75l0,.05,3.39-4.66,0,.06a1.68,1.68,0,0,1,.13-.19,2.91,2.91,0,0,1,.27-.3,2.84,2.84,0,0,1,.46-.35,3,3,0,0,1,1.07-.38,4.19,4.19,0,0,1,2.06.27,3.65,3.65,0,0,1,.45.19l.22.1.05,0h0l.08,0a5,5,0,0,0,.72.22,6.78,6.78,0,0,0,1.59.13,7.83,7.83,0,0,0,3.12-.86,12.27,12.27,0,0,0,2.7-2c.38-.42.79-.81,1.15-1.25s.73-.88,1.06-1.34a16.33,16.33,0,0,0,1.61-3,17,17,0,0,0,1-3.27l.15-.84.08-.85,0-.43v-1.28c0-.28,0-.57-.06-.85a7.19,7.19,0,0,0-.09-.85l-.14-.84c0-.14,0-.28-.08-.42l-.11-.41c-.16-.54-.28-1.12-.49-1.64a15.78,15.78,0,0,0-.69-1.57,13.41,13.41,0,0,0-4.41-5.17,33.41,33.41,0,0,1-2.95-2,25.91,25.91,0,0,1-2.71-2.32,13.2,13.2,0,0,1-2.21-2.79,5.15,5.15,0,0,1-.72-3.42,5.06,5.06,0,0,0,.9,3.31,12.92,12.92,0,0,0,2.29,2.63,25.49,25.49,0,0,0,2.76,2.16c1,.67,2,1.25,3,1.84a14.19,14.19,0,0,1,4.85,5.32,16.63,16.63,0,0,1,.77,1.65c.24.57.38,1.14.56,1.73l.13.44c0,.15.06.3.09.45l.17.9a8.08,8.08,0,0,1,.11.91c0,.3.07.61.08.91a16.81,16.81,0,0,1-.24,3.64,18.19,18.19,0,0,1-1,3.51,17.5,17.5,0,0,1-1.69,3.25c-.35.51-.74,1-1.11,1.45s-.82.9-1.23,1.36a13.53,13.53,0,0,1-3,2.2,9.13,9.13,0,0,1-3.65,1,8.08,8.08,0,0,1-1.93-.15,6.05,6.05,0,0,1-1-.29l-.12,0-.12-.05-.18-.08a2.62,2.62,0,0,0-.36-.15,2.92,2.92,0,0,0-1.4-.21,1.67,1.67,0,0,0-.59.2,1.5,1.5,0,0,0-.24.18l-.1.11-.06.08,0,.06L294,229.11l0,0,0,0a5.27,5.27,0,0,1-1.23,1,3.64,3.64,0,0,1-1.58.5,3.83,3.83,0,0,1-1.63-.25,4.39,4.39,0,0,1-.73-.36l-.19-.12,0,0h0l0,0-.08-.06-.31-.25a5,5,0,0,1-.56-.59,3.82,3.82,0,0,1-.43-.71,3.54,3.54,0,0,1-.32-1.63,4.46,4.46,0,0,1,.36-1.55c0-.12.11-.24.17-.36a3.09,3.09,0,0,1,.23-.39l.42-.55,3.39-4.42.43-.55.43-.54a3.84,3.84,0,0,0,.57-1.08,2.27,2.27,0,0,0,.08-1.13,2,2,0,0,0-.19-.53,2,2,0,0,0-.3-.44l0,0c-.19-.24-.39-.47-.56-.71s-.33-.48-.48-.72-.31-.47-.46-.75a8.08,8.08,0,0,1-.39-.81l-.17-.42c0-.14-.09-.29-.13-.43a8.34,8.34,0,0,1-.2-.87c0-.29-.09-.59-.1-.88s0-.59,0-.88a9.5,9.5,0,0,1,.24-1.74,7.87,7.87,0,0,1,.25-.85c0-.08,0-.13.09-.23l.12-.2a2.37,2.37,0,0,1,.26-.38,2.93,2.93,0,0,1,.67-.64,2.84,2.84,0,0,1,.84-.4,3.14,3.14,0,0,1,.9-.13,3.43,3.43,0,0,1,.9.11h0a3.79,3.79,0,0,1,.56.13,4.73,4.73,0,0,1,.51.21c.16.08.32.16.48.25l.45.28c.29.2.58.4.86.62s.55.44.82.66.54.45.79.69.51.48.77.72Q300.15,208.42,300.87,209.18Z"/></svg>