<svg id="App_360" data-name="App 360" xmlns="http://www.w3.org/2000/svg" viewBox="0 0 512 520"><defs><style>.cls-1{fill:#d3d4d3;}.cls-2{fill:#5c5e69;}.cls-3{fill:#565758;}.cls-4{fill:#7e8080;}.cls-5{fill:#757777;}.cls-6{fill:#fff;}.cls-7{fill:#3f3f3f;}.cls-8{fill:#0c1517;}.cls-9{fill:#171818;}.cls-10{fill:#151415;}.cls-11{fill:#f6f8f9;}.cls-12{fill:#4f4e4d;}.cls-13{fill:#9deefc;}</style></defs><title>uso_05</title><path class="cls-1" d="M175.18,306.61s4-.81,21.42-1.29c0,0,21.81-1.95,25.65,8.94,0,0,2.27,8.74,2.7,11.14,0,0,8.76,30.84,9.52,37.25,0,0,5.19,21.44-9.24,40.94,0,0-38.22,52.06-44.62,84.74,0,0,70.34-28.55,87.82-52.29,0,0,58.19-67.43,113.61-49.88,0,0-8.31-13.76-15.06-24.54,0,0-29.81-44.52-32.79-93.72,0,0,20.78-78.87-10.76-98.48,0,0-58-27.54-96.77,27,0,0-15.77,32,10.66,45.14,0,0,18,25.91-47.32,42,0,0-35.81,2.81-27.5,18.46C162.5,302,164.34,307.9,175.18,306.61Z"/><path class="cls-2" d="M179.44,489.77l.31-1.6c6.36-32.5,44.39-84.57,44.77-85.1,14-18.95,9.14-40,9.09-40.21l0-.1c-.74-6.26-9.4-36.8-9.49-37.11l0-.09c-.4-2.27-2.52-10.42-2.68-11-2.73-7.63-15.58-8.46-21-8.46-2.23,0-3.72.13-3.72.13h-.07c-17,.47-21.23,1.27-21.23,1.27l-.11,0a26,26,0,0,1-3,.19h0c-8.26,0-10.28-4.6-10.55-5.33-1.65-3.14-1.76-6-.33-8.64,4.91-8.94,26.8-10.91,28.5-11,34.19-8.41,44.88-19.46,47.81-27.25a15.29,15.29,0,0,0-1-13.16c-11-5.58-16.36-15.34-15.51-28.25a52.73,52.73,0,0,1,4.67-18l.07-.12c8.9-12.51,19.55-21.74,31.67-27.44a73.88,73.88,0,0,1,31.69-6.88,89.16,89.16,0,0,1,34.5,7l.09,0c7.4,4.6,12.57,12.74,15.38,24.2,2.22,9.07,3,20.23,2.25,33.19A241.56,241.56,0,0,1,335.07,268c3,48.33,32.34,92.7,32.63,93.14,6.69,10.68,15,24.44,15.08,24.57l1.21,2-2.23-.71a62.5,62.5,0,0,0-18.89-2.87c-25,0-49.14,14.25-65,26.2a206.6,206.6,0,0,0-28.76,26.27c-17.46,23.66-85.29,51.39-88.17,52.56Zm55.9-127.26c.28,1.25,4.74,22.51-9.4,41.61-.37.51-36.93,50.56-44.12,82.77,10.38-4.35,70.2-30,85.9-51.36l0-.05a207.93,207.93,0,0,1,29-26.53c16.08-12.12,40.59-26.58,66.09-26.58a64.59,64.59,0,0,1,17.22,2.3c-2.54-4.18-8.7-14.31-13.88-22.58a220.12,220.12,0,0,1-15.33-28.52c-7.17-15.83-16-40.07-17.59-65.62v-.14l0-.14a239.21,239.21,0,0,0,6.42-41.74c1.12-20-.87-45.82-16.75-55.74a87.51,87.51,0,0,0-33.7-6.85c-25.22,0-46,11.28-61.88,33.52a52,52,0,0,0-4.47,17.29c-.81,12.38,4.16,21.33,14.76,26.62l.2.1.13.18a16.77,16.77,0,0,1,1.28,15c-4.49,11.91-21,21.45-49.11,28.35l-.14,0c-.23,0-22.62,1.87-27.16,10.15-1.15,2.09-1,4.39.38,7l.06.15c.05.16,1.48,4.18,8.9,4.18h0a24.15,24.15,0,0,0,2.81-.17c.47-.09,4.93-.84,21.51-1.3.22,0,1.69-.14,3.87-.14,7.19,0,19.7,1.26,22.66,9.67l0,.07c.09.36,2.26,8.69,2.71,11.17C226.31,327,234.55,356.06,235.34,362.5Z"/><path class="cls-3" d="M191.88,456.15s44-14.94,72.81-55.2c0,0,24.61-34.17,62.3-43.58,0,0,25.42-7.41,43.76,10.6,0,0,16.44,21.62,24,39.51,0,0,21.24,39.94,21.21,112.51H172.82s6.5-41.84,16.35-60.73A3.83,3.83,0,0,1,191.88,456.15Z"/><path class="cls-1" d="M191.93,83.24S162.62,96,156.35,133.11a54.07,54.07,0,0,0,0,22.87s3.18,12.87-2.86,24.62c0,0-18.34,28.43-22.63,36.77,0,0-8.34,13.1,6.27,16.28,0,0,9.05,1.43,9.69,7,0,0-.64,5.56-1.71,11.12,0,0-3.45,3.34-2.26,6.91,0,0,1.19,4.45,7.43,4.21,0,0-4.19,1.05-5.06,3.63,0,0-1.93,4.43,2.2,6.69a3.88,3.88,0,0,0,3.3,0s.52,4.61-1.51,12.23c0,0-3.45,12,3.34,16.44,0,0,8.74,8.85,32.56,1.87,0,0,16.52-4.61,20-5.56,0,0,35.58-10.24,54.88-24.06,0,0,18.58-10.24,25.73-35.26,0,0,5.48-20.25,7.15-24.06,0,0,33.43-48,23.9-91.17,0,0-10.64-50.67-80.37-53.37C236.4,70.21,212.34,69,191.93,83.24Z"/><path class="cls-2" d="M168.36,307.26c-10.92,0-15.7-4.12-16.37-4.74-7.16-4.74-3.78-16.86-3.63-17.37a41,41,0,0,0,1.53-10.77,4.45,4.45,0,0,1-.78.07A5.08,5.08,0,0,1,147,274a6,6,0,0,1-2.64-7.8,5.72,5.72,0,0,1,2.51-2.81,7,7,0,0,1-4.89-4.46c-1.16-3.54,1.51-6.75,2.29-7.59.94-5,1.54-9.92,1.64-10.69-.65-4.76-8.85-6.11-8.94-6.12h0c-4.51-1-7.43-3-8.67-6-2.12-5.07,1.47-11,1.82-11.6,4.25-8.25,21.6-35.17,22.63-36.77,5.78-11.3,2.8-23.84,2.77-24a54.66,54.66,0,0,1,0-23.27,70.25,70.25,0,0,1,20.39-39.32A59.47,59.47,0,0,1,191.5,82.47c17.58-12.21,37.73-13.16,43.5-13.16.92,0,1.43,0,1.43,0,16,.62,30.27,3.84,42.33,9.56A75.42,75.42,0,0,1,303.4,97.33c11.4,13,14.12,25.54,14.24,26.07,5,22.53-1.84,46.32-8.43,62.3a173.2,173.2,0,0,1-15.57,29.48c-1.66,3.9-7,23.66-7.07,23.86-7,24.45-25,35.15-26.1,35.77-19.21,13.73-54.75,24.06-55.11,24.17-3.46.94-19.85,5.52-20,5.56A61,61,0,0,1,168.36,307.26Zm-16.91-35.51.15,1.31c0,.19.51,4.86-1.53,12.55,0,.13-3.2,11.47,3,15.47l.15.12s4.44,4.29,15.19,4.29a59.34,59.34,0,0,0,16.5-2.65c.18,0,16.57-4.62,20-5.56.34-.1,35.64-10.36,54.59-23.93l.09-.06c.18-.1,18.35-10.39,25.31-34.73.22-.82,5.51-20.35,7.19-24.17l.08-.15A170.42,170.42,0,0,0,307.59,185c6.48-15.74,13.19-39.14,8.32-61.22,0-.13-2.77-12.67-13.9-25.35-10.27-11.7-30-25.94-65.64-27.32,0,0-.5,0-1.37,0-5.64,0-25.39.93-42.56,12.89l-.15.08a58.73,58.73,0,0,0-15.23,10.88,68.51,68.51,0,0,0-19.83,38.33l0,.08a54.08,54.08,0,0,0,0,22.46c.13.51,3.18,13.29-2.94,25.2l0,.08c-.18.28-18.37,28.49-22.59,36.69l0,.07s-3.53,5.65-1.7,10c1,2.41,3.5,4.07,7.4,4.92.68.11,9.71,1.7,10.4,7.75v.2s-.65,5.66-1.72,11.18l-.05.27-.2.19s-3,3-2,6l0,.05c0,.14,1.15,3.76,6.54,3.56l8.44-.32-8.19,2.06c-1,.26-3.86,1.33-4.44,3.06l0,.07c-.06.15-1.53,3.71,1.79,5.55a3.83,3.83,0,0,0,1.29.27,2.42,2.42,0,0,0,1.18-.29Z"/><path class="cls-4" d="M161.84,155.21s6.58-10.65,27.28,1.05c0,0,6.76,3.84,9.74,5.24,0,0,3.66,2,3.84,2.56,0,0,2.56,2.56-2.86.48a105.13,105.13,0,0,1-13.54-4.94s-4.29-1.79-6.51-2.58c0,0-7.68-2.86-13,1.17a5,5,0,0,0-.88,1.62s-.66,1.91-2.32-.06a10.93,10.93,0,0,1-1.86-2.74A2.16,2.16,0,0,1,161.84,155.21Z"/><path class="cls-5" d="M236.75,155.87s2.83,20.87,14.06,31.32c0,0,12.52,12.55,6.56,29.94,0,0,10.8-1.59,9.85-24,0,0,.74-21.92,19.75-19.61,0,0,23.3,2,15.67,35.26a60,60,0,0,0-8.26,11.07c-1.82,3,1.27,16.91,1.27,16.91a269.49,269.49,0,0,0,14.46,41C333.29,348.17,382,394.07,382,394.07c15.9,13.18,23.21,43.53,23.21,43.53,13.14-32.75-7.42-60.87-7.42-60.87C382,328.12,393.6,266.45,393.6,266.45c21.15-101.09-8.81-176.8-8.81-176.8s-14.54-56.35-65.25-43.81c0,0-20.36-32.92-106-4.53l-.26.06c-19.38,5.93-40.82,18-40.82,18-35.17,22.54-24.12,57.71-24.12,57.71s2.92,17.84,14.13,25c0,0-4.85-14,.29-25.26,0,0,.81,26,21.77,28.78,0,0-10.91-14.24-3.93-26.29,0,0,0,20.38,19.83,27,0,0-10.21-16-3.45-27.42,0,0-.84,22.91,20.86,27.09,0,0-11.53-12.34-1.43-27.31,0,0-1.93,19.82,16.08,29.74A9.53,9.53,0,0,1,236.75,155.87Z"/><path class="cls-2" d="M140,231a19.46,19.46,0,0,1,9.65.84,23.94,23.94,0,0,0,3.74,1.3s1.52.61.66,1.38c0,0-1,.93-4.8-.59a18.61,18.61,0,0,0-5.26-1.68,23.94,23.94,0,0,0-3.51-.54S137.72,231.12,140,231Z"/><path class="cls-2" d="M150.4,221.26c.86-.06,1.73-.07,2.6-.05s1.74.07,2.6.17c.43,0,.87.1,1.3.16s.86.14,1.29.22.86.17,1.29.28.85.22,1.27.35.84.28,1.26.43.83.33,1.23.53a12.72,12.72,0,0,1,1.18.65l.57.37.54.42a8.37,8.37,0,0,1,1,1,4.89,4.89,0,0,1,.43.55l.2.29.17.31a3.93,3.93,0,0,1,.31.63,4.46,4.46,0,0,1,.24.66,6.58,6.58,0,0,1,.17.69l.09.7v0a5.79,5.79,0,0,1,0,.86,6.85,6.85,0,0,1-.08.83,6.59,6.59,0,0,1-.17.82,5.64,5.64,0,0,1-.28.79,5.41,5.41,0,0,1-.91,1.41,5,5,0,0,1-.61.58,4.4,4.4,0,0,1-.69.47,6.81,6.81,0,0,1-.74.36,7.67,7.67,0,0,1-.77.25,6.3,6.3,0,0,1-.79.17c-.26,0-.53.06-.79.09l-.79,0c-.26,0-.53,0-.79,0s-.52,0-.78-.08l-.77-.12H160l.77,0c.51,0,1-.1,1.52-.18.25-.06.5-.1.74-.17s.48-.14.71-.23a7,7,0,0,0,.68-.29,6.09,6.09,0,0,0,.63-.37l.29-.22a2.73,2.73,0,0,0,.27-.23,4.24,4.24,0,0,0,.49-.52,4.54,4.54,0,0,0,.69-1.23,5.47,5.47,0,0,0,.33-1.38,5.88,5.88,0,0,0,0-.72,5,5,0,0,0,0-.69v0q-.05-.29-.09-.59a5.58,5.58,0,0,0-.15-.57,3.46,3.46,0,0,0-.21-.55,3,3,0,0,0-.27-.52l-.15-.26-.12-.16a4.68,4.68,0,0,0-.43-.54,8.3,8.3,0,0,0-.86-.84l-.48-.38-.51-.34a11.74,11.74,0,0,0-1.08-.61c-.37-.2-.75-.36-1.13-.54s-.78-.32-1.18-.45-.8-.26-1.21-.39-.82-.24-1.23-.34c-.83-.21-1.66-.39-2.5-.56l-1.27-.23-1.28-.2C152.12,221.45,151.26,221.34,150.4,221.26Z"/><path class="cls-6" d="M178.67,172.49s4.72,1,7.31,2.92a25.6,25.6,0,0,0,6.16,2.13s.06.41-.86.87c0,0-.91.5-1.34.77,0,0-6.89,4.39-11.88,4.63,0,0-1.16,0-.92-1.69,0,0,2-5.48.6-8.26,0,0-1.43-1.24-.63-1.38A5.45,5.45,0,0,1,178.67,172.49Z"/><ellipse class="cls-7" cx="177.74" cy="177.7" rx="2.84" ry="5.52"/><path class="cls-8" d="M176.84,173.07s1.75,0,2.12,3.83a10.23,10.23,0,0,1-.42,4.11s-1.17,2.81-2.3,1.37a7.18,7.18,0,0,1-1.34-4.56,11.75,11.75,0,0,1,.36-2.83S175.73,173.07,176.84,173.07Z"/><path class="cls-6" d="M179.52,177.07a.85.85,0,0,1-.85.85h0a.85.85,0,0,1-.85-.85v-.66a.85.85,0,0,1,.85-.85h0a.85.85,0,0,1,.85.85Z"/><path class="cls-6" d="M179.28,179.59a.61.61,0,0,1-.61.61h0a.61.61,0,0,1-.61-.61v-.47a.61.61,0,0,1,.61-.61h0a.61.61,0,0,1,.61.61Z"/><path class="cls-9" d="M173.78,187.19a4.85,4.85,0,0,1,4.45-2.78,27.41,27.41,0,0,0,10.17-4s3-1.93,3.75-2.35a2.23,2.23,0,0,0-1.37.24,45.55,45.55,0,0,1-6.08,3.28s-3.72,1.49-5.84,1.46c0,0-3.89-.7-5.08,1.71A3.36,3.36,0,0,0,173.78,187.19Z"/><path class="cls-10" d="M170.05,167.57a14.23,14.23,0,0,0,9.17,3.63,20,20,0,0,1,7.33,3.1s4.47,3.19,9.24,3.6c0,0-1.59.57-5.34-.29a25.48,25.48,0,0,1-6.5-2,17.13,17.13,0,0,0-6.83-1.27s-4.86.81-6.53-3.36A9.52,9.52,0,0,1,170.05,167.57Z"/><path class="cls-11" d="M213.49,210.59s21.68-7.35,38-17.75c0,0,31.81-20.41,46-12.64,0,0,6.27,3.75,5.48,9.94,0,0-.37,3.33-3.14,2.85,0,0-1.63,0-2.28-2.56a7.71,7.71,0,0,0-6.18-6s-10.16-.88-36.11,14.73c0,0-25.94,16.58-44.38,21.86,0,0-4.63-.85-5.27-4.9,0,0-1.09-2.76,3.57-4.05C209.17,212.06,212.16,211.13,213.49,210.59Z"/><path class="cls-12" d="M210.9,221.91l-.2,0c-.21,0-5.2-1-6-5.55a3.27,3.27,0,0,1,.22-2.41c.61-1.23,2-2.14,4-2.7,0,0,2.94-.92,4.23-1.44l0,0c.22-.07,21.77-7.43,37.81-17.66.92-.59,22.84-14.54,38.5-14.54a17.29,17.29,0,0,1,8.38,1.87c.3.18,6.79,4.14,5.93,10.83-.14,1.26-1.06,3.67-3.49,3.67a3.93,3.93,0,0,1-.62-.05c-.47,0-2.31-.39-3-3.21v-.07a6.78,6.78,0,0,0-5.42-5.29H291c-1.84,0-12.22.7-35.34,14.61-.24.15-26.24,16.7-44.6,22Zm2.9-10.5c-1.37.55-4.25,1.45-4.37,1.48a4.46,4.46,0,0,0-2.88,1.77,1.52,1.52,0,0,0-.14,1.11l.05.19c.47,3,3.55,3.93,4.37,4.13,18.1-5.25,43.68-21.53,43.94-21.7,23.54-14.16,34.34-14.87,36.26-14.87h.47a8.56,8.56,0,0,1,6.89,6.7c.46,1.77,1.41,1.86,1.41,1.86H300l.25,0c1.58,0,1.85-2,1.86-2.12.71-5.57-5-9-5-9a15.56,15.56,0,0,0-7.56-1.68c-15.14,0-37.33,14.12-37.55,14.27C236,203.77,214.65,211.13,213.8,211.42Z"/><path class="cls-11" d="M219.76,278.48s37.35-11.71,64.79-56.18c0,0,6.49-11.55,4.22-20.25,0,0-3.22-5.48,1.67-5.72,0,0,3.35-.44,3.81,5.36,0,0,7.3,9.46-5.72,27,0,0-22.26,41.49-67.77,59.16a5,5,0,0,1-4.62-4.2S214.6,279.46,219.76,278.48Z"/><path class="cls-12" d="M220.91,288.7h-.19a5.86,5.86,0,0,1-5.42-4.86,4.89,4.89,0,0,1,.3-3.74,5.42,5.42,0,0,1,3.95-2.46c.72-.23,9.82-3.29,21.9-11.33a144.23,144.23,0,0,0,42.36-44.45c0-.08,6.21-11.22,4.15-19.45-.36-.65-1.75-3.38-.72-5.29a3.48,3.48,0,0,1,3.14-1.64h.23c.66,0,4,.29,4.51,5.94,1.07,1.6,6.45,11.2-5.83,27.74a136.09,136.09,0,0,1-16.91,23.06c-10.33,11.55-27.62,27.25-51.29,36.44Zm69.69-91.49h-.12c-.9,0-1.47.29-1.7.72-.55,1,.39,3,.75,3.67l.06.1,0,.12c2.33,8.94-4,20.42-4.31,20.9a146,146,0,0,1-43,45.07c-12.73,8.46-21.95,11.4-22.33,11.52l-.1,0a3.83,3.83,0,0,0-2.79,1.59,3.16,3.16,0,0,0-.16,2.36l0,.18a4.09,4.09,0,0,0,3.63,3.44c23.22-9.07,40.21-24.49,50.38-35.85a133.3,133.3,0,0,0,16.74-22.82l.07-.11c12.47-16.77,5.8-25.8,5.8-25.8l-.23-.3,0-.26C293,197.54,291.17,197.21,290.6,197.21Z"/><path class="cls-1" d="M268,198.66s-1.24-9.26,5.8-21.89a30.11,30.11,0,0,1,20.94-14.94s18.36-3.63,20,20.6c0,0,.91,27.58-19.83,41.19,0,0-14.73,9.7-20.18,2.16,0,0-2.3-2.3-2.3-7"/><path class="cls-2" d="M268,198.67a22.83,22.83,0,0,1-.1-4.78,38.31,38.31,0,0,1,.66-4.75,45.47,45.47,0,0,1,3-9.11l.5-1.1c.17-.36.36-.71.54-1.07l.55-1.07.26-.51c.1-.19.2-.38.3-.55a27.43,27.43,0,0,1,2.8-4,29.14,29.14,0,0,1,16.25-9.95l1.18-.24c.4-.08.77-.18,1.2-.22a16.84,16.84,0,0,1,2.43-.08,18.75,18.75,0,0,1,4.76.8c.39.12.76.26,1.14.4s.75.3,1.11.49a12,12,0,0,1,1.07.56l.52.3.5.34a16.05,16.05,0,0,1,3.5,3.29,20.65,20.65,0,0,1,2.48,4.12,29.83,29.83,0,0,1,1.57,4.54c.18.78.36,1.56.5,2.35l.19,1.19c.07.39.12.79.16,1.19l.13,1.19,0,.3v.93c0,.8,0,1.6,0,2.4a59.72,59.72,0,0,1-1.21,9.52c-.32,1.57-.74,3.12-1.19,4.66s-1,3.06-1.59,4.55a45.34,45.34,0,0,1-4.45,8.56,43.82,43.82,0,0,1-2.91,3.87c-.53.61-1.08,1.2-1.63,1.79s-1.14,1.15-1.74,1.68a38.55,38.55,0,0,1-3.78,3c-.67.44-1.32.93-2,1.33s-1.4.79-2.12,1.16a39.29,39.29,0,0,1-4.42,1.95c-.76.27-1.53.53-2.31.74a18.65,18.65,0,0,1-2.39.5,15.7,15.7,0,0,1-2.46.16,11.09,11.09,0,0,1-2.46-.34,7.94,7.94,0,0,1-2.27-1.06,7.4,7.4,0,0,1-1.75-1.78l0,0c-.13-.14-.22-.27-.32-.4s-.18-.27-.27-.41a8.53,8.53,0,0,1-.47-.85,9.38,9.38,0,0,1-.37-.89,3.64,3.64,0,0,1-.16-.45l-.13-.46-.13-.46a2.85,2.85,0,0,1-.09-.47l-.14-.94a2.43,2.43,0,0,1,0-.47v-.48l0-.95h.15l.09.93,0,.46a2.33,2.33,0,0,0,.07.46l.2.91a2.68,2.68,0,0,0,.12.45l.15.44.15.44a3.39,3.39,0,0,0,.18.42,8.81,8.81,0,0,0,.41.82,8,8,0,0,0,.49.77c.09.12.17.25.27.36s.19.23.29.32h0l0,0a6.33,6.33,0,0,0,3.71,2.36,10.17,10.17,0,0,0,2.25.21,14.66,14.66,0,0,0,2.27-.26,30.57,30.57,0,0,0,8.65-3.33c.68-.37,1.36-.77,2-1.18s1.27-.88,1.9-1.33a40,40,0,0,0,3.59-3,40.75,40.75,0,0,0,6-7.09,47.3,47.3,0,0,0,4.41-8.22c.61-1.44,1.13-2.91,1.61-4.4s.88-3,1.24-4.53a63,63,0,0,0,1.46-9.29c.07-.78.11-1.56.14-2.35v-.85l0-.29-.08-1.17c0-.79-.17-1.56-.26-2.34s-.26-1.54-.41-2.31-.34-1.53-.6-2.27c-.12-.37-.22-.75-.36-1.12l-.43-1.09a18.58,18.58,0,0,0-2.35-4,14.42,14.42,0,0,0-7.63-5.13,16.34,16.34,0,0,0-2.29-.46,18.91,18.91,0,0,0-2.33-.13,16.06,16.06,0,0,0-2.31.18c-.36,0-.76.17-1.13.26l-1.14.29a30.51,30.51,0,0,0-8.47,3.79,31.51,31.51,0,0,0-7,6.09,27.79,27.79,0,0,0-2.72,3.75c-.1.17-.19.33-.28.49l-.29.54-.56,1c-.18.35-.38.69-.55,1l-.51,1.06a49.56,49.56,0,0,0-3.29,8.8,45.23,45.23,0,0,0-.93,4.62l-.14,1.17c0,.39-.07.78-.09,1.18a20.11,20.11,0,0,0,0,2.36Z"/><path class="cls-1" d="M290.87,194.78s-7.75-8.38-6.07-16c0,0,1-8.69,10.19-9.74,0,0,9.44-.89,11.17,9.48,0,0,1,8.67-.91,14.12"/><path class="cls-2" d="M290.87,194.78a27.8,27.8,0,0,1-2.85-3.41,26.58,26.58,0,0,1-2.28-3.85q-.24-.51-.46-1c-.15-.35-.28-.7-.4-1.06s-.24-.72-.34-1.08-.18-.74-.26-1.11-.14-.75-.17-1.13-.06-.77-.07-1.15,0-.77,0-1.16.1-.77.16-1.15v.05a12.26,12.26,0,0,1,.79-2.89,13.7,13.7,0,0,1,1.42-2.63c.13-.21.31-.4.46-.6a5.85,5.85,0,0,1,.49-.57,10.41,10.41,0,0,1,1.11-1l.59-.47c.2-.15.43-.27.64-.4s.43-.27.65-.39l.69-.31c.23-.1.46-.22.69-.3l.72-.22.72-.22.74-.13.74-.12.18,0h.61a11.87,11.87,0,0,1,1.51.09,12.1,12.1,0,0,1,2.91.73,10,10,0,0,1,2.63,1.49,10.53,10.53,0,0,1,3.41,4.87,16.32,16.32,0,0,1,.7,2.86c0,.29,0,.5.06.75l0,.72c0,.48,0,1,0,1.44,0,1,0,1.92,0,2.87s-.11,1.91-.21,2.86a26.92,26.92,0,0,1-.46,2.83,17.9,17.9,0,0,1-.82,2.74,20.49,20.49,0,0,0,.55-2.79c.13-.94.19-1.88.24-2.82a53.36,53.36,0,0,0-.1-5.66l-.12-1.41-.07-.7c0-.22-.05-.49-.08-.67a15.32,15.32,0,0,0-.76-2.64,10.74,10.74,0,0,0-1.28-2.38,8.81,8.81,0,0,0-1.87-1.9,9.55,9.55,0,0,0-2.34-1.28,10.8,10.8,0,0,0-2.61-.63,10.6,10.6,0,0,0-1.34-.07H295l-.17,0-.67.12-.67.11-.65.19-.65.19c-.21.07-.41.18-.62.26l-.61.27c-.2.11-.38.23-.58.34s-.39.22-.57.35l-.53.41a9.12,9.12,0,0,0-1,.9,6.15,6.15,0,0,0-.44.5c-.14.18-.3.33-.42.52a12.49,12.49,0,0,0-1.34,2.35,11.75,11.75,0,0,0-.78,2.58v.05c-.07.34-.15.68-.18,1s-.06.7-.08,1.05,0,.71,0,1.06.07.71.11,1.06a18.13,18.13,0,0,0,1.18,4.15,28.37,28.37,0,0,0,2,3.91q.56.95,1.19,1.85C290,193.61,290.4,194.21,290.87,194.78Z"/><path class="cls-1" d="M287.2,196s-4.24-4.29-6.18-4.4A2.66,2.66,0,0,0,278,193a7.59,7.59,0,0,0,.52,6.25,15.28,15.28,0,0,0,1.32,1.83s1.68,1.52-.34,3.89l-3.91,5.23a3.07,3.07,0,0,0,.82,4.28,3,3,0,0,0,4.18-.62l3.1-4.27s.94-1.68,3.56-.34c0,0,5,2.43,10.05-4.59a15.36,15.36,0,0,0,2-13.63,13.5,13.5,0,0,0-5.18-6.86s-8.74-4.71-8-9.29"/><path class="cls-2" d="M287.2,196c-.93-.87-1.92-1.69-2.93-2.47-.26-.19-.51-.38-.77-.56s-.53-.35-.8-.51a8,8,0,0,0-.83-.42,4,4,0,0,0-.43-.15,3.34,3.34,0,0,0-.42-.08h0a2.78,2.78,0,0,0-.71,0,2.42,2.42,0,0,0-.69.14,2.11,2.11,0,0,0-.61.33,2.15,2.15,0,0,0-.47.5,3.38,3.38,0,0,0-.18.3l-.08.16,0,.15a6.69,6.69,0,0,0-.17.72,8.46,8.46,0,0,0-.14,1.48c0,.25,0,.49,0,.74s.07.49.11.73a6.93,6.93,0,0,0,.19.71,5.06,5.06,0,0,0,.27.68,6.64,6.64,0,0,0,.34.64c.12.2.28.42.42.63s.3.41.44.61.31.37.46.55l0,0a2.55,2.55,0,0,1,.48.63,2.74,2.74,0,0,1,.28.71,3,3,0,0,1-.05,1.5,4.45,4.45,0,0,1-.63,1.29l-.21.28-.11.14v0l0,0h0l0,0,0,.06-.37.52-3,4.12-.38.51-.1.19-.08.16a3.17,3.17,0,0,0-.25,1.12,2.08,2.08,0,0,0,.21,1,2.36,2.36,0,0,0,.63.79l.21.17.05,0,0,0,0,0,.09.06a2.84,2.84,0,0,0,.47.22,2.35,2.35,0,0,0,1,.14,2.12,2.12,0,0,0,.93-.31,3.61,3.61,0,0,0,.82-.68l0,.05,3.09-4.28,0,.06a1.58,1.58,0,0,1,.12-.18l.19-.22a3,3,0,0,1,.5-.39,2.78,2.78,0,0,1,1-.36,3.89,3.89,0,0,1,1.91.24,3.37,3.37,0,0,1,.42.17l.2.09.05,0h0l.08,0a4.49,4.49,0,0,0,.65.19,6.16,6.16,0,0,0,1.44.11,7.12,7.12,0,0,0,2.83-.79,11.18,11.18,0,0,0,2.45-1.8c.35-.38.72-.74,1-1.15s.66-.81,1-1.23a14.92,14.92,0,0,0,1.46-2.73,15.56,15.56,0,0,0,.88-3l.13-.77.07-.78,0-.39v-1.17c0-.26,0-.52-.05-.78a6.68,6.68,0,0,0-.08-.78,13.14,13.14,0,0,0-.31-1.53c-.14-.49-.26-1-.45-1.5a14.42,14.42,0,0,0-.63-1.43,12.25,12.25,0,0,0-4-4.71,30.53,30.53,0,0,1-2.7-1.81,23.79,23.79,0,0,1-2.48-2.12,12.1,12.1,0,0,1-2-2.56,4.72,4.72,0,0,1-.66-3.13,4.63,4.63,0,0,0,.84,3,11.82,11.82,0,0,0,2.1,2.4,23.33,23.33,0,0,0,2.54,2c.89.61,1.79,1.13,2.76,1.66a13,13,0,0,1,4.47,4.86,15.42,15.42,0,0,1,.72,1.51c.22.53.35,1,.52,1.59a14.11,14.11,0,0,1,.37,1.63,7.42,7.42,0,0,1,.11.83c0,.28.06.56.08.84a15.37,15.37,0,0,1-.21,3.34,16.71,16.71,0,0,1-.9,3.23,16.1,16.1,0,0,1-1.54,3c-.32.47-.67.89-1,1.34s-.75.83-1.13,1.25a12.44,12.44,0,0,1-2.74,2,8.42,8.42,0,0,1-3.36,1,7.45,7.45,0,0,1-1.78-.13,5.56,5.56,0,0,1-.9-.27l-.11,0-.11-.05-.16-.07a2.36,2.36,0,0,0-.33-.13,2.62,2.62,0,0,0-1.26-.18,1.47,1.47,0,0,0-.52.18,1.35,1.35,0,0,0-.21.16l-.09.09-.06.08,0,0-3.11,4.27,0,0,0,0a4.87,4.87,0,0,1-1.14.93,3.39,3.39,0,0,1-1.47.47,3.55,3.55,0,0,1-1.52-.22,4.06,4.06,0,0,1-.68-.33l-.17-.12,0,0h0l-.07-.06-.28-.23a3.58,3.58,0,0,1-.92-1.2,3.29,3.29,0,0,1-.3-1.51,4.13,4.13,0,0,1,.33-1.44c0-.11.1-.22.15-.33a3.28,3.28,0,0,1,.21-.36l.39-.51,3.09-4.05.39-.51.39-.49a3.47,3.47,0,0,0,.51-1,2,2,0,0,0,.07-1,1.87,1.87,0,0,0-.44-.87l0,0c-.17-.22-.36-.43-.52-.65s-.31-.44-.45-.66-.28-.43-.42-.68a7.38,7.38,0,0,1-.36-.74,5.86,5.86,0,0,1-.27-.78,7.71,7.71,0,0,1-.19-.8c0-.27-.08-.54-.09-.81s0-.54,0-.81a8.72,8.72,0,0,1,.22-1.6,7.29,7.29,0,0,1,.23-.78l.08-.22.11-.18a2.14,2.14,0,0,1,.24-.35,2.71,2.71,0,0,1,.62-.59,2.63,2.63,0,0,1,.77-.37,2.9,2.9,0,0,1,.83-.12,3.17,3.17,0,0,1,.83.1h0a3.49,3.49,0,0,1,.52.11,4.32,4.32,0,0,1,.47.19,8.3,8.3,0,0,1,.86.49c.27.18.54.36.79.56s.51.4.76.6c.49.41,1,.85,1.43,1.29S286.76,195.52,287.2,196Z"/><path class="cls-13" d="M224.1,202.7s4.82-2,7.74.85c0,0,2.14,3.23-2.38,8.58,0,0-13.94,31,3.63,58.18,0,0,1.75,2.73,3.81,2.37,0,0,1.89-.06,2.12,3.59a9.06,9.06,0,0,1-1.71,5.4c-13.5,19.15-60.5,26.3-60.5,26.3-42.75,8.29-38.57-18.4-38.57-18.4.32-7.68-4.45-15.59-4.45-15.59-11-19.24-9.53-41.76-9.53-41.76A48.61,48.61,0,0,1,135,206c.77-7.48,5-8,5-8s6.67-1.71,22.16,2.37A188.54,188.54,0,0,0,196,203.73S217.92,203.91,224.1,202.7Z"/><path class="cls-13" d="M135.17,205.83s9.05-1.19,25.53,2.32c0,0,33.26,6.49,61.81,2.35,0,0-8.34,21.75-2.86,44.06,0,0,3,17.19,11.6,23.28,0,0-6.2,8-19.07,12.73,0,0-39.55,17.63-67,11.08,0,0-6.91.19-7-11.4,0,0,1.45-5.32-4.62-16.71,0,0-11.31-19.93-9.29-41.33A49.5,49.5,0,0,1,135.17,205.83Z"/><path class="cls-13" d="M162,310.45c-9.53,0-16.47-2.46-20.62-7.32a18.24,18.24,0,0,1-4-13.64c.28-7.3-4.28-15-4.32-15.06-11.05-19.27-9.67-42-9.65-42.27a49.19,49.19,0,0,1,10.75-26.54c.87-7.42,5.07-8.37,5.68-8.47a21.36,21.36,0,0,1,4.53-.37,71.91,71.91,0,0,1,18,2.76,189.78,189.78,0,0,0,33.67,3.32h3c5.87,0,20-.1,24.76-1a11.39,11.39,0,0,1,3.84-.72,6.54,6.54,0,0,1,4.76,1.79l.12.14c.1.15,2.43,3.8-2.36,9.54a71,71,0,0,0-4.66,18.6c-1.15,10-.65,24.85,8.28,38.63.39.6,1.72,2.19,2.92,2h.12c.32,0,2.75.13,3,4.41a9.92,9.92,0,0,1-1.87,6c-13.56,19.23-59.15,26.37-61.08,26.67A79.73,79.73,0,0,1,162,310.45ZM144.36,198.54a19.56,19.56,0,0,0-4.14.33l-.13,0c-.13,0-3.54.59-4.23,7.19l0,.28-.19.21s-9.35,10.67-10.5,25.71c0,.21-1.36,22.48,9.42,41.26.19.32,4.89,8.22,4.56,16.07v.1s-1,6.92,3.62,12.3c3.81,4.44,10.29,6.69,19.27,6.69a78.08,78.08,0,0,0,14.65-1.58c.5-.08,46.82-7.32,59.94-25.95a8.18,8.18,0,0,0,1.55-4.8c-.14-2.08-.83-2.72-1.22-2.79l-.41,0c-2.31,0-4-2.52-4.18-2.81-9.22-14.24-9.73-29.52-8.54-39.84a70.61,70.61,0,0,1,4.84-19.17l.05-.11.08-.09c3.67-4.35,2.6-7,2.36-7.46a4.88,4.88,0,0,0-3.45-1.21,9.66,9.66,0,0,0-3.24.61l-.18.06c-4.68.92-17.79,1.06-25.18,1.06h-3A191.34,191.34,0,0,1,162,201.25,70.33,70.33,0,0,0,144.36,198.54Z"/></svg>