<svg id="Capa_1" data-name="Capa 1" xmlns="http://www.w3.org/2000/svg" viewBox="0 0 25 25"><defs><style>.cls-1{fill:none;}.cls-1,.cls-2{stroke:gray;stroke-miterlimit:10;}.cls-2{fill:gray;stroke-width:0.5px;}</style></defs><path class="cls-1" d="M23.39,13a11,11,0,1,1-11-11,11,11,0,0,1,11,11"/><g id="wF8mHS"><path class="cls-2" d="M16.17,10.65c1.11-.55,2-1.33,3.18-1.77v7.47a4.14,4.14,0,0,1-.65-.21c-.83-.48-1.64-1-2.53-1.51V16c0,.71-.33,1.05-1,1.05H7.91a.9.9,0,0,1-1-1V9.29a.9.9,0,0,1,1-1h7.26a.89.89,0,0,1,1,1Zm-4.67,6h3.61c.5,0,.7-.2.7-.72,0-2.19,0-4.38,0-6.57,0-.54-.19-.73-.73-.74H8c-.56,0-.75.2-.75.77v6.48c0,.6.18.78.77.79ZM19,9.42c-.94.56-1.82,1.08-2.68,1.62a.49.49,0,0,0-.15.38c0,.68,0,1.37,0,2.05a.91.91,0,0,0,.58,1.06,14.31,14.31,0,0,1,1.3.77l1,.58Z"/></g></svg>